M48
;GenerationSoftware,Autodesk,EAGLE,9.3.0*%
;CreationDate,2019-04-18T09:03:33Z*%
FMAT,2
ICI,OFF
METRIC,TZ,000.000
T6C0.300
T5C0.350
T4C0.400
T3C0.450
T2C0.900
T1C3.200
%
G90
M71
T1
X8000Y92000
X8000Y8000
X92000Y92000
X92000Y8000
T2
X73343Y80800
X52705Y63186
X52705Y59686
X25400Y51431
X73343Y84300
X25400Y73981
X25400Y70481
X25400Y54931
X25400Y32381
X25400Y35881
X25400Y13331
X25400Y16831
X52705Y78736
X52705Y82236
X52705Y22856
X52705Y26356
X46355Y9370
X46355Y5870
T3
X4286Y15159
X13494Y73659
X13494Y74770
X4286Y74770
X4286Y73659
X13494Y69690
X4286Y68579
X13494Y20239
X13494Y21351
X4286Y20239
X4286Y21351
X4286Y38019
X4286Y35479
X4286Y39131
X4286Y36591
X13494Y32939
X13494Y34051
X4286Y34051
X4286Y32939
X13494Y15159
X13494Y16271
X13494Y17699
X13494Y18811
X4286Y76199
X4286Y77310
X4286Y60959
X4286Y62070
X13494Y60959
X13494Y62070
X4286Y69690
X4286Y67150
X13494Y67150
X13494Y66039
X4286Y71119
X13494Y71119
X4286Y72230
X13494Y72230
X13494Y77310
X13494Y76199
X4286Y22779
X4286Y23891
X13494Y25319
X13494Y26431
X13494Y27859
X13494Y28971
X13494Y35479
X13494Y36591
X13494Y38019
X13494Y39131
X13494Y23891
X13494Y22779
X13494Y31511
X13494Y30399
X4286Y27859
X4286Y28891
X4286Y25319
X13494Y79850
X13494Y78739
X4286Y66039
X13494Y63499
X4286Y64610
X13494Y64610
X13494Y68579
X4286Y63499
X4286Y30399
X4286Y31511
X4286Y18811
X4286Y17699
X4286Y16271
X4286Y26431
T4
X13494Y83819
X4286Y82390
X4286Y84930
X4286Y81279
X4286Y83819
X14764Y83787
X13494Y82390
X4286Y79850
X13494Y81279
X4286Y78739
T5
X46977Y1575
X48501Y4623
X48247Y7353
X48501Y10719
X48501Y89967
X48501Y96063
X50025Y1575
X50025Y7671
X50597Y9766
X50025Y68631
X52629Y72631
X51549Y83871
X50025Y86919
X50025Y93015
X51549Y96063
X53073Y1575
X54597Y4623
X54597Y10719
X53073Y68631
X53073Y74727
X54597Y83871
X54597Y89967
X54597Y96063
X56121Y1575
X56121Y7671
X57645Y8814
X55486Y12497
X55804Y68948
X56121Y86919
X56121Y93015
X57645Y96063
X59169Y1575
X60693Y4623
X60693Y10719
X60693Y89967
X60693Y96063
X62217Y1575
X62217Y7671
X63741Y10719
X62217Y25959
X64376Y40881
X62217Y62535
X62535Y72123
X62217Y74727
X62217Y80823
X65964Y90761
X63741Y96063
X65265Y1575
X66789Y4623
X67107Y10401
X65265Y12814
X66789Y40881
X65265Y62535
X65265Y68631
X65265Y80823
X66789Y96063
X68313Y1575
X68313Y7671
X69837Y10719
X68313Y13767
X69837Y16815
X69837Y40881
X68313Y68631
X69837Y96063
X71361Y1575
X72885Y4623
X72885Y10719
X71361Y13767
X72885Y16815
X73362Y35579
X71361Y38151
X72885Y41199
X63424Y85903
X72885Y96063
X74409Y1575
X74409Y7671
X75933Y10719
X74251Y14243
X75933Y16815
X75933Y35103
X74409Y38151
X75933Y41199
X74727Y44088
X76410Y47295
X76251Y53550
X76886Y59963
X75933Y96063
X77457Y1575
X78981Y4623
X78981Y10719
X78981Y16815
X77457Y25959
X79140Y27737
X77616Y31896
X77457Y44247
X78981Y47295
X77457Y62535
X78981Y96063
X80505Y1575
X80505Y7671
X82029Y10719
X80505Y13767
X82029Y16815
X82029Y65583
X82029Y96063
X83553Y1575
X85077Y4623
X85077Y10719
X85077Y29007
X84919Y66218
X83553Y74727
X85077Y96063
X86601Y1575
X86601Y7671
X88125Y10719
X86601Y13767
X88125Y16497
X86601Y19863
X88760Y23387
X86601Y26276
X86601Y62535
X88125Y71679
X86601Y87236
X88125Y89491
X88125Y96063
X89649Y1575
X91173Y16497
X89332Y19545
X89491Y26276
X89649Y38151
X89649Y56439
X93586Y3035
X92697Y13767
X94221Y16497
X92697Y19863
X92697Y38151
X92697Y50343
X92697Y56439
X92697Y86919
X94221Y96063
X97269Y10719
X85268Y16624
X97269Y16815
X97269Y78251
X97269Y83871
X95745Y86919
X97269Y89967
X98158Y13767
X98476Y80823
X98476Y86919
X68567Y27864
X66504Y61424
X38913Y15577
X40881Y40437
X39072Y73298
X33579Y34087
X34849Y34087
X35801Y28054
X34531Y26784
X34531Y25197
X19926Y55677
X23863Y54851
X24054Y55994
X24689Y75362
X34214Y77267
X35166Y71869
X28816Y75997
X39135Y70123
X34373Y53296
X33547Y55455
X34373Y54566
X38341Y52661
X35325Y46628
X33865Y46628
X33865Y44406
X35960Y42818
X25483Y45993
X25483Y47263
X16434Y35833
X19609Y35833
X24371Y37421
X26911Y37738
X33579Y35516
X37071Y21863
X33579Y15196
X35166Y15196
X35166Y17736
X26276Y18371
X23736Y18371
X25324Y5353
X33896Y8528
X35484Y8528
X35484Y6623
X33896Y6623
X33896Y4718
X35484Y4718
X63106Y16783
X63106Y14878
X61201Y18053
X62789Y18053
X61201Y15831
X52534Y16751
X52534Y14529
X52216Y53581
X52216Y51676
X53264Y64630
X62154Y64630
X64694Y67170
X52629Y70663
X61201Y70663
X61201Y73203
X60884Y80823
X61836Y83363
X76759Y72885
X76759Y70663
X87871Y64313
X89141Y66535
X88506Y61455
X82156Y46215
X84696Y47485
X89141Y47168
X92634Y47168
X88189Y43358
X86570Y35738
X88475Y32880
X92602Y29705
X54534Y39294
X57074Y39294
X59614Y39294
X64376Y39294
X66758Y39294
X69774Y39135
X70726Y83617
X74695Y83299
X72314Y85585
X69456Y80759
X48057Y64376
X34182Y65551
X34182Y63964
X35452Y65551
X35135Y44914
X37008Y20498
X35103Y21133
X34531Y23609
X35801Y26784
X35801Y25197
X40723Y54566
X2146Y79553
X2146Y74790
X2146Y70345
X42405Y4623
X86043Y69374
X85408Y70326
X86043Y59849
X85408Y60801
X86043Y50324
X85408Y51276
X2781Y33706
X17386Y89586
X13894Y92126
X21514Y97523
X29134Y97523
X37071Y97523
X43421Y97523
X83185Y71755
X83185Y66675
X83185Y62865
X83185Y57150
X83185Y53340
X83185Y47625
X83185Y43815
X83185Y38100
X83185Y24765
X83185Y19050
X83185Y81915
X83185Y76200
X83185Y34290
X83185Y28575
X95885Y17463
X95885Y27305
X95885Y75248
X95885Y65723
X95885Y55880
X95885Y46355
X95885Y36830
X29527Y72318
X22542Y73660
X21749Y72866
X20955Y72073
X23495Y72708
X22701Y71914
X21907Y71120
X86043Y40799
X85408Y41751
X86043Y21749
X85408Y22701
X57785Y61595
X14922Y74930
X14922Y73343
X51752Y58102
X50165Y58102
X48577Y58102
X53340Y58102
X52705Y57150
X51117Y57150
X49530Y57150
X15875Y71120
X15557Y72390
X86043Y78899
X85408Y79851
X86043Y31274
X85408Y32226
X57785Y80486
X46037Y80010
X45720Y79058
X45720Y77788
X45720Y76518
X46672Y75565
X46672Y76835
X46672Y78105
X46990Y79058
X13970Y87630
X13017Y87630
X14922Y87630
X14922Y86678
X61912Y67151
X68580Y66040
X68421Y52387
X61912Y50641
X30480Y53340
X15081Y67628
X16192Y67628
X21590Y51117
X20638Y50165
X19685Y49212
X19685Y51117
X21590Y49212
X18733Y50165
X26594Y75679
X61912Y52070
X61912Y54451
X61912Y53181
X17145Y67628
X16192Y68580
X14922Y68580
X30321Y15081
X15240Y20955
X15240Y20003
X20638Y13652
X19685Y12700
X18574Y11747
X20955Y12382
X20003Y11430
X25082Y28892
X24765Y26511
X24765Y23971
X2781Y10719
X16510Y20955
X16510Y20003
X38100Y77153
X42228Y73343
X67310Y85566
X69850Y78740
X47625Y38735
X46990Y40005
X48895Y38735
X50165Y38735
X46990Y41910
X46990Y43815
X62230Y45720
X63500Y45720
X63500Y44450
X63500Y43180
X46990Y45720
X46990Y47625
X49530Y44450
X53340Y45085
X62230Y44450
X58420Y45085
X55880Y45085
X37148Y66358
X34290Y62547
X80804Y32067
X94932Y32067
X64452Y55562
X61277Y49530
X37148Y47307
X34671Y42926
X37148Y28257
X33655Y22225
X37148Y9208
X33973Y3175
X64452Y74613
X62230Y69215
X64452Y18733
X60960Y13652
X57785Y24447
X48895Y23971
X48895Y22384
X48895Y20796
X50800Y20796
X50800Y22384
X50800Y23971
X53022Y20796
X49847Y27146
X2781Y22911
X2781Y59487
X2781Y89967
X4305Y13767
X30321Y34131
X15557Y34131
X15557Y33179
X15557Y32226
X5829Y47295
X4305Y50343
X5829Y53391
X4305Y56439
X16510Y34131
X16510Y33179
X16510Y32226
X16510Y31274
X56515Y67945
X77470Y64135
X38418Y55880
X48895Y49847
X5829Y59487
X77788Y50165
X39053Y40323
X64294Y30480
X77788Y33338
X51039Y30558
X37783Y31849
X68580Y63817
X77788Y60325
X41116Y17145
X50482Y11747
X66993Y11747
X77788Y16192
X38576Y13970
X66358Y79375
X66358Y29527
X76518Y27940
X66358Y23177
X80706Y70168
X94932Y70168
X80804Y50959
X94932Y51117
X80804Y60484
X94925Y60647
X80804Y41434
X94932Y41593
X80907Y79637
X94932Y79693
X80804Y22542
X94932Y22542
X38735Y72390
X5829Y96063
X7353Y13767
X8877Y16815
X8877Y47295
X20161Y86200
X19050Y86200
X8877Y53391
X8877Y59487
X10401Y1575
X11925Y4623
X11925Y10719
X10401Y13767
X10401Y50343
X10401Y56439
X11925Y96063
X13449Y1575
X14973Y4623
X13449Y7671
X14973Y10719
X13449Y13767
X14973Y47295
X13449Y50343
X13449Y56439
X14973Y96063
X34290Y86200
X35401Y86200
X31750Y86200
X32861Y86200
X34290Y95566
X35401Y95566
X31750Y95566
X32861Y95566
X29210Y95566
X30321Y95566
X27781Y95566
X26670Y95566
X29210Y86200
X30321Y86200
X26670Y86200
X27781Y86200
X24130Y86200
X25241Y86200
X24130Y95566
X25241Y95566
X16497Y1575
X18021Y3035
X16497Y7671
X16497Y38151
X16497Y93015
X19545Y1575
X19545Y38151
X20117Y59487
X22593Y1575
X22720Y19863
X18148Y39103
X25641Y1575
X36830Y95566
X66040Y49530
X39370Y95566
X40481Y95566
X41910Y95566
X43021Y95566
X25324Y7671
X27165Y21958
X20161Y95566
X19050Y95566
X22701Y95566
X21590Y95566
X37941Y86200
X36830Y86200
X40481Y86200
X39370Y86200
X43021Y86200
X41910Y86200
X22701Y86200
X21590Y86200
X27165Y84188
X28689Y1575
X30213Y84188
X33261Y53391
X33261Y71679
X33261Y84188
X34785Y1575
X34785Y19863
X34785Y74727
X35357Y76822
X36309Y84188
X37833Y1575
X39992Y4623
X39040Y22276
X40215Y62376
X41421Y76187
X39357Y84188
X40881Y1575
X40405Y20339
X40881Y44247
X42723Y76187
X42405Y84188
X43929Y1575
X43929Y7671
X43929Y74727
X45136Y84188
X45453Y96063
X37941Y95566
T6
X34925Y50165
X33655Y50165
X34925Y51435
X33655Y51435
X34925Y70485
X33655Y70485
X34925Y29845
X33655Y29845
X34925Y31115
X33655Y31115
X34925Y32385
X33655Y32385
X34925Y67945
X33655Y67945
X34925Y10795
X33655Y10795
X34925Y12065
X33655Y12065
X34925Y13335
X33655Y13335
X62230Y57150
X60960Y57150
X62230Y76200
X60960Y76200
X62230Y77470
X60960Y77470
X62230Y78740
X60960Y78740
X62230Y58420
X60960Y58420
X62230Y20320
X60960Y20320
X62230Y21590
X60960Y21590
X62230Y22860
X60960Y22860
X62230Y59690
X60960Y59690
X34925Y69215
X33655Y69215
X34925Y48895
X33655Y48895
M30