G04 EAGLE Gerber RS-274X export*
G75*
%MOMM*%
%FSLAX34Y34*%
%LPD*%
%INSolder paste top*%
%IPPOS*%
%AMOC8*
5,1,8,0,0,1.08239X$1,22.5*%
G01*
%ADD10C,0.152400*%
%ADD11C,0.000000*%
%ADD12R,1.778000X0.609600*%
%ADD13R,2.400000X3.100000*%
%ADD14R,1.100000X1.000000*%
%ADD15R,1.080000X1.050000*%
%ADD16R,1.600000X1.300000*%
%ADD17R,1.050000X1.080000*%
%ADD18R,1.000000X1.100000*%
%ADD19R,2.800000X3.800000*%
%ADD20R,2.500000X3.250000*%
%ADD21R,0.510534X0.639928*%
%ADD22R,0.509934X0.639934*%
%ADD23R,0.510059X0.640072*%
%ADD24R,0.509938X0.640559*%
%ADD25C,0.026400*%
%ADD26R,0.230000X0.825000*%
%ADD27R,1.000000X1.400000*%
%ADD28R,1.400000X1.000000*%
%ADD29R,0.800000X0.800000*%
%ADD30R,3.048000X1.270000*%
%ADD31R,1.270000X3.048000*%


D10*
X0Y100000D02*
X0Y900000D01*
X100000Y1000000D02*
X900000Y1000000D01*
X1000000Y900000D02*
X1000000Y800000D01*
X1000000Y200000D02*
X1000000Y100000D01*
X900000Y0D02*
X100000Y0D01*
X0Y900000D02*
X29Y902416D01*
X117Y904831D01*
X263Y907243D01*
X467Y909651D01*
X729Y912054D01*
X1049Y914449D01*
X1427Y916836D01*
X1863Y919213D01*
X2356Y921578D01*
X2906Y923932D01*
X3512Y926271D01*
X4175Y928595D01*
X4894Y930902D01*
X5669Y933191D01*
X6498Y935460D01*
X7383Y937709D01*
X8321Y939936D01*
X9313Y942140D01*
X10357Y944319D01*
X11454Y946472D01*
X12603Y948598D01*
X13803Y950696D01*
X15053Y952764D01*
X16353Y954801D01*
X17702Y956806D01*
X19098Y958779D01*
X20542Y960716D01*
X22033Y962619D01*
X23568Y964484D01*
X25149Y966312D01*
X26773Y968102D01*
X28440Y969851D01*
X30149Y971560D01*
X31898Y973227D01*
X33688Y974851D01*
X35516Y976432D01*
X37381Y977967D01*
X39284Y979458D01*
X41221Y980902D01*
X43194Y982298D01*
X45199Y983647D01*
X47236Y984947D01*
X49304Y986197D01*
X51402Y987397D01*
X53528Y988546D01*
X55681Y989643D01*
X57860Y990687D01*
X60064Y991679D01*
X62291Y992617D01*
X64540Y993502D01*
X66809Y994331D01*
X69098Y995106D01*
X71405Y995825D01*
X73729Y996488D01*
X76068Y997094D01*
X78422Y997644D01*
X80787Y998137D01*
X83164Y998573D01*
X85551Y998951D01*
X87946Y999271D01*
X90349Y999533D01*
X92757Y999737D01*
X95169Y999883D01*
X97584Y999971D01*
X100000Y1000000D01*
X900000Y1000000D02*
X902416Y999971D01*
X904831Y999883D01*
X907243Y999737D01*
X909651Y999533D01*
X912054Y999271D01*
X914449Y998951D01*
X916836Y998573D01*
X919213Y998137D01*
X921578Y997644D01*
X923932Y997094D01*
X926271Y996488D01*
X928595Y995825D01*
X930902Y995106D01*
X933191Y994331D01*
X935460Y993502D01*
X937709Y992617D01*
X939936Y991679D01*
X942140Y990687D01*
X944319Y989643D01*
X946472Y988546D01*
X948598Y987397D01*
X950696Y986197D01*
X952764Y984947D01*
X954801Y983647D01*
X956806Y982298D01*
X958779Y980902D01*
X960716Y979458D01*
X962619Y977967D01*
X964484Y976432D01*
X966312Y974851D01*
X968102Y973227D01*
X969851Y971560D01*
X971560Y969851D01*
X973227Y968102D01*
X974851Y966312D01*
X976432Y964484D01*
X977967Y962619D01*
X979458Y960716D01*
X980902Y958779D01*
X982298Y956806D01*
X983647Y954801D01*
X984947Y952764D01*
X986197Y950696D01*
X987397Y948598D01*
X988546Y946472D01*
X989643Y944319D01*
X990687Y942140D01*
X991679Y939936D01*
X992617Y937709D01*
X993502Y935460D01*
X994331Y933191D01*
X995106Y930902D01*
X995825Y928595D01*
X996488Y926271D01*
X997094Y923932D01*
X997644Y921578D01*
X998137Y919213D01*
X998573Y916836D01*
X998951Y914449D01*
X999271Y912054D01*
X999533Y909651D01*
X999737Y907243D01*
X999883Y904831D01*
X999971Y902416D01*
X1000000Y900000D01*
X1000000Y100000D02*
X999971Y97584D01*
X999883Y95169D01*
X999737Y92757D01*
X999533Y90349D01*
X999271Y87946D01*
X998951Y85551D01*
X998573Y83164D01*
X998137Y80787D01*
X997644Y78422D01*
X997094Y76068D01*
X996488Y73729D01*
X995825Y71405D01*
X995106Y69098D01*
X994331Y66809D01*
X993502Y64540D01*
X992617Y62291D01*
X991679Y60064D01*
X990687Y57860D01*
X989643Y55681D01*
X988546Y53528D01*
X987397Y51402D01*
X986197Y49304D01*
X984947Y47236D01*
X983647Y45199D01*
X982298Y43194D01*
X980902Y41221D01*
X979458Y39284D01*
X977967Y37381D01*
X976432Y35516D01*
X974851Y33688D01*
X973227Y31898D01*
X971560Y30149D01*
X969851Y28440D01*
X968102Y26773D01*
X966312Y25149D01*
X964484Y23568D01*
X962619Y22033D01*
X960716Y20542D01*
X958779Y19098D01*
X956806Y17702D01*
X954801Y16353D01*
X952764Y15053D01*
X950696Y13803D01*
X948598Y12603D01*
X946472Y11454D01*
X944319Y10357D01*
X942140Y9313D01*
X939936Y8321D01*
X937709Y7383D01*
X935460Y6498D01*
X933191Y5669D01*
X930902Y4894D01*
X928595Y4175D01*
X926271Y3512D01*
X923932Y2906D01*
X921578Y2356D01*
X919213Y1863D01*
X916836Y1427D01*
X914449Y1049D01*
X912054Y729D01*
X909651Y467D01*
X907243Y263D01*
X904831Y117D01*
X902416Y29D01*
X900000Y0D01*
X100000Y0D02*
X97584Y29D01*
X95169Y117D01*
X92757Y263D01*
X90349Y467D01*
X87946Y729D01*
X85551Y1049D01*
X83164Y1427D01*
X80787Y1863D01*
X78422Y2356D01*
X76068Y2906D01*
X73729Y3512D01*
X71405Y4175D01*
X69098Y4894D01*
X66809Y5669D01*
X64540Y6498D01*
X62291Y7383D01*
X60064Y8321D01*
X57860Y9313D01*
X55681Y10357D01*
X53528Y11454D01*
X51402Y12603D01*
X49304Y13803D01*
X47236Y15053D01*
X45199Y16353D01*
X43194Y17702D01*
X41221Y19098D01*
X39284Y20542D01*
X37381Y22033D01*
X35516Y23568D01*
X33688Y25149D01*
X31898Y26773D01*
X30149Y28440D01*
X28440Y30149D01*
X26773Y31898D01*
X25149Y33688D01*
X23568Y35516D01*
X22033Y37381D01*
X20542Y39284D01*
X19098Y41221D01*
X17702Y43194D01*
X16353Y45199D01*
X15053Y47236D01*
X13803Y49304D01*
X12603Y51402D01*
X11454Y53528D01*
X10357Y55681D01*
X9313Y57860D01*
X8321Y60064D01*
X7383Y62291D01*
X6498Y64540D01*
X5669Y66809D01*
X4894Y69098D01*
X4175Y71405D01*
X3512Y73729D01*
X2906Y76068D01*
X2356Y78422D01*
X1863Y80787D01*
X1427Y83164D01*
X1049Y85551D01*
X729Y87946D01*
X467Y90349D01*
X263Y92757D01*
X117Y95169D01*
X29Y97584D01*
X0Y100000D01*
X980000Y760000D02*
X1000000Y800000D01*
X980000Y760000D02*
X980000Y240000D01*
X1000000Y200000D01*
D11*
X64000Y920000D02*
X64005Y920393D01*
X64019Y920785D01*
X64043Y921177D01*
X64077Y921568D01*
X64120Y921959D01*
X64173Y922348D01*
X64236Y922735D01*
X64307Y923121D01*
X64389Y923506D01*
X64479Y923888D01*
X64580Y924267D01*
X64689Y924645D01*
X64808Y925019D01*
X64935Y925390D01*
X65072Y925758D01*
X65218Y926123D01*
X65373Y926484D01*
X65536Y926841D01*
X65708Y927194D01*
X65889Y927542D01*
X66079Y927886D01*
X66276Y928226D01*
X66482Y928560D01*
X66696Y928889D01*
X66919Y929213D01*
X67149Y929531D01*
X67386Y929844D01*
X67632Y930150D01*
X67885Y930451D01*
X68145Y930745D01*
X68412Y931033D01*
X68686Y931314D01*
X68967Y931588D01*
X69255Y931855D01*
X69549Y932115D01*
X69850Y932368D01*
X70156Y932614D01*
X70469Y932851D01*
X70787Y933081D01*
X71111Y933304D01*
X71440Y933518D01*
X71774Y933724D01*
X72114Y933921D01*
X72458Y934111D01*
X72806Y934292D01*
X73159Y934464D01*
X73516Y934627D01*
X73877Y934782D01*
X74242Y934928D01*
X74610Y935065D01*
X74981Y935192D01*
X75355Y935311D01*
X75733Y935420D01*
X76112Y935521D01*
X76494Y935611D01*
X76879Y935693D01*
X77265Y935764D01*
X77652Y935827D01*
X78041Y935880D01*
X78432Y935923D01*
X78823Y935957D01*
X79215Y935981D01*
X79607Y935995D01*
X80000Y936000D01*
X80393Y935995D01*
X80785Y935981D01*
X81177Y935957D01*
X81568Y935923D01*
X81959Y935880D01*
X82348Y935827D01*
X82735Y935764D01*
X83121Y935693D01*
X83506Y935611D01*
X83888Y935521D01*
X84267Y935420D01*
X84645Y935311D01*
X85019Y935192D01*
X85390Y935065D01*
X85758Y934928D01*
X86123Y934782D01*
X86484Y934627D01*
X86841Y934464D01*
X87194Y934292D01*
X87542Y934111D01*
X87886Y933921D01*
X88226Y933724D01*
X88560Y933518D01*
X88889Y933304D01*
X89213Y933081D01*
X89531Y932851D01*
X89844Y932614D01*
X90150Y932368D01*
X90451Y932115D01*
X90745Y931855D01*
X91033Y931588D01*
X91314Y931314D01*
X91588Y931033D01*
X91855Y930745D01*
X92115Y930451D01*
X92368Y930150D01*
X92614Y929844D01*
X92851Y929531D01*
X93081Y929213D01*
X93304Y928889D01*
X93518Y928560D01*
X93724Y928226D01*
X93921Y927886D01*
X94111Y927542D01*
X94292Y927194D01*
X94464Y926841D01*
X94627Y926484D01*
X94782Y926123D01*
X94928Y925758D01*
X95065Y925390D01*
X95192Y925019D01*
X95311Y924645D01*
X95420Y924267D01*
X95521Y923888D01*
X95611Y923506D01*
X95693Y923121D01*
X95764Y922735D01*
X95827Y922348D01*
X95880Y921959D01*
X95923Y921568D01*
X95957Y921177D01*
X95981Y920785D01*
X95995Y920393D01*
X96000Y920000D01*
X95995Y919607D01*
X95981Y919215D01*
X95957Y918823D01*
X95923Y918432D01*
X95880Y918041D01*
X95827Y917652D01*
X95764Y917265D01*
X95693Y916879D01*
X95611Y916494D01*
X95521Y916112D01*
X95420Y915733D01*
X95311Y915355D01*
X95192Y914981D01*
X95065Y914610D01*
X94928Y914242D01*
X94782Y913877D01*
X94627Y913516D01*
X94464Y913159D01*
X94292Y912806D01*
X94111Y912458D01*
X93921Y912114D01*
X93724Y911774D01*
X93518Y911440D01*
X93304Y911111D01*
X93081Y910787D01*
X92851Y910469D01*
X92614Y910156D01*
X92368Y909850D01*
X92115Y909549D01*
X91855Y909255D01*
X91588Y908967D01*
X91314Y908686D01*
X91033Y908412D01*
X90745Y908145D01*
X90451Y907885D01*
X90150Y907632D01*
X89844Y907386D01*
X89531Y907149D01*
X89213Y906919D01*
X88889Y906696D01*
X88560Y906482D01*
X88226Y906276D01*
X87886Y906079D01*
X87542Y905889D01*
X87194Y905708D01*
X86841Y905536D01*
X86484Y905373D01*
X86123Y905218D01*
X85758Y905072D01*
X85390Y904935D01*
X85019Y904808D01*
X84645Y904689D01*
X84267Y904580D01*
X83888Y904479D01*
X83506Y904389D01*
X83121Y904307D01*
X82735Y904236D01*
X82348Y904173D01*
X81959Y904120D01*
X81568Y904077D01*
X81177Y904043D01*
X80785Y904019D01*
X80393Y904005D01*
X80000Y904000D01*
X79607Y904005D01*
X79215Y904019D01*
X78823Y904043D01*
X78432Y904077D01*
X78041Y904120D01*
X77652Y904173D01*
X77265Y904236D01*
X76879Y904307D01*
X76494Y904389D01*
X76112Y904479D01*
X75733Y904580D01*
X75355Y904689D01*
X74981Y904808D01*
X74610Y904935D01*
X74242Y905072D01*
X73877Y905218D01*
X73516Y905373D01*
X73159Y905536D01*
X72806Y905708D01*
X72458Y905889D01*
X72114Y906079D01*
X71774Y906276D01*
X71440Y906482D01*
X71111Y906696D01*
X70787Y906919D01*
X70469Y907149D01*
X70156Y907386D01*
X69850Y907632D01*
X69549Y907885D01*
X69255Y908145D01*
X68967Y908412D01*
X68686Y908686D01*
X68412Y908967D01*
X68145Y909255D01*
X67885Y909549D01*
X67632Y909850D01*
X67386Y910156D01*
X67149Y910469D01*
X66919Y910787D01*
X66696Y911111D01*
X66482Y911440D01*
X66276Y911774D01*
X66079Y912114D01*
X65889Y912458D01*
X65708Y912806D01*
X65536Y913159D01*
X65373Y913516D01*
X65218Y913877D01*
X65072Y914242D01*
X64935Y914610D01*
X64808Y914981D01*
X64689Y915355D01*
X64580Y915733D01*
X64479Y916112D01*
X64389Y916494D01*
X64307Y916879D01*
X64236Y917265D01*
X64173Y917652D01*
X64120Y918041D01*
X64077Y918432D01*
X64043Y918823D01*
X64019Y919215D01*
X64005Y919607D01*
X64000Y920000D01*
X64000Y80000D02*
X64005Y80393D01*
X64019Y80785D01*
X64043Y81177D01*
X64077Y81568D01*
X64120Y81959D01*
X64173Y82348D01*
X64236Y82735D01*
X64307Y83121D01*
X64389Y83506D01*
X64479Y83888D01*
X64580Y84267D01*
X64689Y84645D01*
X64808Y85019D01*
X64935Y85390D01*
X65072Y85758D01*
X65218Y86123D01*
X65373Y86484D01*
X65536Y86841D01*
X65708Y87194D01*
X65889Y87542D01*
X66079Y87886D01*
X66276Y88226D01*
X66482Y88560D01*
X66696Y88889D01*
X66919Y89213D01*
X67149Y89531D01*
X67386Y89844D01*
X67632Y90150D01*
X67885Y90451D01*
X68145Y90745D01*
X68412Y91033D01*
X68686Y91314D01*
X68967Y91588D01*
X69255Y91855D01*
X69549Y92115D01*
X69850Y92368D01*
X70156Y92614D01*
X70469Y92851D01*
X70787Y93081D01*
X71111Y93304D01*
X71440Y93518D01*
X71774Y93724D01*
X72114Y93921D01*
X72458Y94111D01*
X72806Y94292D01*
X73159Y94464D01*
X73516Y94627D01*
X73877Y94782D01*
X74242Y94928D01*
X74610Y95065D01*
X74981Y95192D01*
X75355Y95311D01*
X75733Y95420D01*
X76112Y95521D01*
X76494Y95611D01*
X76879Y95693D01*
X77265Y95764D01*
X77652Y95827D01*
X78041Y95880D01*
X78432Y95923D01*
X78823Y95957D01*
X79215Y95981D01*
X79607Y95995D01*
X80000Y96000D01*
X80393Y95995D01*
X80785Y95981D01*
X81177Y95957D01*
X81568Y95923D01*
X81959Y95880D01*
X82348Y95827D01*
X82735Y95764D01*
X83121Y95693D01*
X83506Y95611D01*
X83888Y95521D01*
X84267Y95420D01*
X84645Y95311D01*
X85019Y95192D01*
X85390Y95065D01*
X85758Y94928D01*
X86123Y94782D01*
X86484Y94627D01*
X86841Y94464D01*
X87194Y94292D01*
X87542Y94111D01*
X87886Y93921D01*
X88226Y93724D01*
X88560Y93518D01*
X88889Y93304D01*
X89213Y93081D01*
X89531Y92851D01*
X89844Y92614D01*
X90150Y92368D01*
X90451Y92115D01*
X90745Y91855D01*
X91033Y91588D01*
X91314Y91314D01*
X91588Y91033D01*
X91855Y90745D01*
X92115Y90451D01*
X92368Y90150D01*
X92614Y89844D01*
X92851Y89531D01*
X93081Y89213D01*
X93304Y88889D01*
X93518Y88560D01*
X93724Y88226D01*
X93921Y87886D01*
X94111Y87542D01*
X94292Y87194D01*
X94464Y86841D01*
X94627Y86484D01*
X94782Y86123D01*
X94928Y85758D01*
X95065Y85390D01*
X95192Y85019D01*
X95311Y84645D01*
X95420Y84267D01*
X95521Y83888D01*
X95611Y83506D01*
X95693Y83121D01*
X95764Y82735D01*
X95827Y82348D01*
X95880Y81959D01*
X95923Y81568D01*
X95957Y81177D01*
X95981Y80785D01*
X95995Y80393D01*
X96000Y80000D01*
X95995Y79607D01*
X95981Y79215D01*
X95957Y78823D01*
X95923Y78432D01*
X95880Y78041D01*
X95827Y77652D01*
X95764Y77265D01*
X95693Y76879D01*
X95611Y76494D01*
X95521Y76112D01*
X95420Y75733D01*
X95311Y75355D01*
X95192Y74981D01*
X95065Y74610D01*
X94928Y74242D01*
X94782Y73877D01*
X94627Y73516D01*
X94464Y73159D01*
X94292Y72806D01*
X94111Y72458D01*
X93921Y72114D01*
X93724Y71774D01*
X93518Y71440D01*
X93304Y71111D01*
X93081Y70787D01*
X92851Y70469D01*
X92614Y70156D01*
X92368Y69850D01*
X92115Y69549D01*
X91855Y69255D01*
X91588Y68967D01*
X91314Y68686D01*
X91033Y68412D01*
X90745Y68145D01*
X90451Y67885D01*
X90150Y67632D01*
X89844Y67386D01*
X89531Y67149D01*
X89213Y66919D01*
X88889Y66696D01*
X88560Y66482D01*
X88226Y66276D01*
X87886Y66079D01*
X87542Y65889D01*
X87194Y65708D01*
X86841Y65536D01*
X86484Y65373D01*
X86123Y65218D01*
X85758Y65072D01*
X85390Y64935D01*
X85019Y64808D01*
X84645Y64689D01*
X84267Y64580D01*
X83888Y64479D01*
X83506Y64389D01*
X83121Y64307D01*
X82735Y64236D01*
X82348Y64173D01*
X81959Y64120D01*
X81568Y64077D01*
X81177Y64043D01*
X80785Y64019D01*
X80393Y64005D01*
X80000Y64000D01*
X79607Y64005D01*
X79215Y64019D01*
X78823Y64043D01*
X78432Y64077D01*
X78041Y64120D01*
X77652Y64173D01*
X77265Y64236D01*
X76879Y64307D01*
X76494Y64389D01*
X76112Y64479D01*
X75733Y64580D01*
X75355Y64689D01*
X74981Y64808D01*
X74610Y64935D01*
X74242Y65072D01*
X73877Y65218D01*
X73516Y65373D01*
X73159Y65536D01*
X72806Y65708D01*
X72458Y65889D01*
X72114Y66079D01*
X71774Y66276D01*
X71440Y66482D01*
X71111Y66696D01*
X70787Y66919D01*
X70469Y67149D01*
X70156Y67386D01*
X69850Y67632D01*
X69549Y67885D01*
X69255Y68145D01*
X68967Y68412D01*
X68686Y68686D01*
X68412Y68967D01*
X68145Y69255D01*
X67885Y69549D01*
X67632Y69850D01*
X67386Y70156D01*
X67149Y70469D01*
X66919Y70787D01*
X66696Y71111D01*
X66482Y71440D01*
X66276Y71774D01*
X66079Y72114D01*
X65889Y72458D01*
X65708Y72806D01*
X65536Y73159D01*
X65373Y73516D01*
X65218Y73877D01*
X65072Y74242D01*
X64935Y74610D01*
X64808Y74981D01*
X64689Y75355D01*
X64580Y75733D01*
X64479Y76112D01*
X64389Y76494D01*
X64307Y76879D01*
X64236Y77265D01*
X64173Y77652D01*
X64120Y78041D01*
X64077Y78432D01*
X64043Y78823D01*
X64019Y79215D01*
X64005Y79607D01*
X64000Y80000D01*
X904000Y80000D02*
X904005Y80393D01*
X904019Y80785D01*
X904043Y81177D01*
X904077Y81568D01*
X904120Y81959D01*
X904173Y82348D01*
X904236Y82735D01*
X904307Y83121D01*
X904389Y83506D01*
X904479Y83888D01*
X904580Y84267D01*
X904689Y84645D01*
X904808Y85019D01*
X904935Y85390D01*
X905072Y85758D01*
X905218Y86123D01*
X905373Y86484D01*
X905536Y86841D01*
X905708Y87194D01*
X905889Y87542D01*
X906079Y87886D01*
X906276Y88226D01*
X906482Y88560D01*
X906696Y88889D01*
X906919Y89213D01*
X907149Y89531D01*
X907386Y89844D01*
X907632Y90150D01*
X907885Y90451D01*
X908145Y90745D01*
X908412Y91033D01*
X908686Y91314D01*
X908967Y91588D01*
X909255Y91855D01*
X909549Y92115D01*
X909850Y92368D01*
X910156Y92614D01*
X910469Y92851D01*
X910787Y93081D01*
X911111Y93304D01*
X911440Y93518D01*
X911774Y93724D01*
X912114Y93921D01*
X912458Y94111D01*
X912806Y94292D01*
X913159Y94464D01*
X913516Y94627D01*
X913877Y94782D01*
X914242Y94928D01*
X914610Y95065D01*
X914981Y95192D01*
X915355Y95311D01*
X915733Y95420D01*
X916112Y95521D01*
X916494Y95611D01*
X916879Y95693D01*
X917265Y95764D01*
X917652Y95827D01*
X918041Y95880D01*
X918432Y95923D01*
X918823Y95957D01*
X919215Y95981D01*
X919607Y95995D01*
X920000Y96000D01*
X920393Y95995D01*
X920785Y95981D01*
X921177Y95957D01*
X921568Y95923D01*
X921959Y95880D01*
X922348Y95827D01*
X922735Y95764D01*
X923121Y95693D01*
X923506Y95611D01*
X923888Y95521D01*
X924267Y95420D01*
X924645Y95311D01*
X925019Y95192D01*
X925390Y95065D01*
X925758Y94928D01*
X926123Y94782D01*
X926484Y94627D01*
X926841Y94464D01*
X927194Y94292D01*
X927542Y94111D01*
X927886Y93921D01*
X928226Y93724D01*
X928560Y93518D01*
X928889Y93304D01*
X929213Y93081D01*
X929531Y92851D01*
X929844Y92614D01*
X930150Y92368D01*
X930451Y92115D01*
X930745Y91855D01*
X931033Y91588D01*
X931314Y91314D01*
X931588Y91033D01*
X931855Y90745D01*
X932115Y90451D01*
X932368Y90150D01*
X932614Y89844D01*
X932851Y89531D01*
X933081Y89213D01*
X933304Y88889D01*
X933518Y88560D01*
X933724Y88226D01*
X933921Y87886D01*
X934111Y87542D01*
X934292Y87194D01*
X934464Y86841D01*
X934627Y86484D01*
X934782Y86123D01*
X934928Y85758D01*
X935065Y85390D01*
X935192Y85019D01*
X935311Y84645D01*
X935420Y84267D01*
X935521Y83888D01*
X935611Y83506D01*
X935693Y83121D01*
X935764Y82735D01*
X935827Y82348D01*
X935880Y81959D01*
X935923Y81568D01*
X935957Y81177D01*
X935981Y80785D01*
X935995Y80393D01*
X936000Y80000D01*
X935995Y79607D01*
X935981Y79215D01*
X935957Y78823D01*
X935923Y78432D01*
X935880Y78041D01*
X935827Y77652D01*
X935764Y77265D01*
X935693Y76879D01*
X935611Y76494D01*
X935521Y76112D01*
X935420Y75733D01*
X935311Y75355D01*
X935192Y74981D01*
X935065Y74610D01*
X934928Y74242D01*
X934782Y73877D01*
X934627Y73516D01*
X934464Y73159D01*
X934292Y72806D01*
X934111Y72458D01*
X933921Y72114D01*
X933724Y71774D01*
X933518Y71440D01*
X933304Y71111D01*
X933081Y70787D01*
X932851Y70469D01*
X932614Y70156D01*
X932368Y69850D01*
X932115Y69549D01*
X931855Y69255D01*
X931588Y68967D01*
X931314Y68686D01*
X931033Y68412D01*
X930745Y68145D01*
X930451Y67885D01*
X930150Y67632D01*
X929844Y67386D01*
X929531Y67149D01*
X929213Y66919D01*
X928889Y66696D01*
X928560Y66482D01*
X928226Y66276D01*
X927886Y66079D01*
X927542Y65889D01*
X927194Y65708D01*
X926841Y65536D01*
X926484Y65373D01*
X926123Y65218D01*
X925758Y65072D01*
X925390Y64935D01*
X925019Y64808D01*
X924645Y64689D01*
X924267Y64580D01*
X923888Y64479D01*
X923506Y64389D01*
X923121Y64307D01*
X922735Y64236D01*
X922348Y64173D01*
X921959Y64120D01*
X921568Y64077D01*
X921177Y64043D01*
X920785Y64019D01*
X920393Y64005D01*
X920000Y64000D01*
X919607Y64005D01*
X919215Y64019D01*
X918823Y64043D01*
X918432Y64077D01*
X918041Y64120D01*
X917652Y64173D01*
X917265Y64236D01*
X916879Y64307D01*
X916494Y64389D01*
X916112Y64479D01*
X915733Y64580D01*
X915355Y64689D01*
X914981Y64808D01*
X914610Y64935D01*
X914242Y65072D01*
X913877Y65218D01*
X913516Y65373D01*
X913159Y65536D01*
X912806Y65708D01*
X912458Y65889D01*
X912114Y66079D01*
X911774Y66276D01*
X911440Y66482D01*
X911111Y66696D01*
X910787Y66919D01*
X910469Y67149D01*
X910156Y67386D01*
X909850Y67632D01*
X909549Y67885D01*
X909255Y68145D01*
X908967Y68412D01*
X908686Y68686D01*
X908412Y68967D01*
X908145Y69255D01*
X907885Y69549D01*
X907632Y69850D01*
X907386Y70156D01*
X907149Y70469D01*
X906919Y70787D01*
X906696Y71111D01*
X906482Y71440D01*
X906276Y71774D01*
X906079Y72114D01*
X905889Y72458D01*
X905708Y72806D01*
X905536Y73159D01*
X905373Y73516D01*
X905218Y73877D01*
X905072Y74242D01*
X904935Y74610D01*
X904808Y74981D01*
X904689Y75355D01*
X904580Y75733D01*
X904479Y76112D01*
X904389Y76494D01*
X904307Y76879D01*
X904236Y77265D01*
X904173Y77652D01*
X904120Y78041D01*
X904077Y78432D01*
X904043Y78823D01*
X904019Y79215D01*
X904005Y79607D01*
X904000Y80000D01*
X904000Y920000D02*
X904005Y920393D01*
X904019Y920785D01*
X904043Y921177D01*
X904077Y921568D01*
X904120Y921959D01*
X904173Y922348D01*
X904236Y922735D01*
X904307Y923121D01*
X904389Y923506D01*
X904479Y923888D01*
X904580Y924267D01*
X904689Y924645D01*
X904808Y925019D01*
X904935Y925390D01*
X905072Y925758D01*
X905218Y926123D01*
X905373Y926484D01*
X905536Y926841D01*
X905708Y927194D01*
X905889Y927542D01*
X906079Y927886D01*
X906276Y928226D01*
X906482Y928560D01*
X906696Y928889D01*
X906919Y929213D01*
X907149Y929531D01*
X907386Y929844D01*
X907632Y930150D01*
X907885Y930451D01*
X908145Y930745D01*
X908412Y931033D01*
X908686Y931314D01*
X908967Y931588D01*
X909255Y931855D01*
X909549Y932115D01*
X909850Y932368D01*
X910156Y932614D01*
X910469Y932851D01*
X910787Y933081D01*
X911111Y933304D01*
X911440Y933518D01*
X911774Y933724D01*
X912114Y933921D01*
X912458Y934111D01*
X912806Y934292D01*
X913159Y934464D01*
X913516Y934627D01*
X913877Y934782D01*
X914242Y934928D01*
X914610Y935065D01*
X914981Y935192D01*
X915355Y935311D01*
X915733Y935420D01*
X916112Y935521D01*
X916494Y935611D01*
X916879Y935693D01*
X917265Y935764D01*
X917652Y935827D01*
X918041Y935880D01*
X918432Y935923D01*
X918823Y935957D01*
X919215Y935981D01*
X919607Y935995D01*
X920000Y936000D01*
X920393Y935995D01*
X920785Y935981D01*
X921177Y935957D01*
X921568Y935923D01*
X921959Y935880D01*
X922348Y935827D01*
X922735Y935764D01*
X923121Y935693D01*
X923506Y935611D01*
X923888Y935521D01*
X924267Y935420D01*
X924645Y935311D01*
X925019Y935192D01*
X925390Y935065D01*
X925758Y934928D01*
X926123Y934782D01*
X926484Y934627D01*
X926841Y934464D01*
X927194Y934292D01*
X927542Y934111D01*
X927886Y933921D01*
X928226Y933724D01*
X928560Y933518D01*
X928889Y933304D01*
X929213Y933081D01*
X929531Y932851D01*
X929844Y932614D01*
X930150Y932368D01*
X930451Y932115D01*
X930745Y931855D01*
X931033Y931588D01*
X931314Y931314D01*
X931588Y931033D01*
X931855Y930745D01*
X932115Y930451D01*
X932368Y930150D01*
X932614Y929844D01*
X932851Y929531D01*
X933081Y929213D01*
X933304Y928889D01*
X933518Y928560D01*
X933724Y928226D01*
X933921Y927886D01*
X934111Y927542D01*
X934292Y927194D01*
X934464Y926841D01*
X934627Y926484D01*
X934782Y926123D01*
X934928Y925758D01*
X935065Y925390D01*
X935192Y925019D01*
X935311Y924645D01*
X935420Y924267D01*
X935521Y923888D01*
X935611Y923506D01*
X935693Y923121D01*
X935764Y922735D01*
X935827Y922348D01*
X935880Y921959D01*
X935923Y921568D01*
X935957Y921177D01*
X935981Y920785D01*
X935995Y920393D01*
X936000Y920000D01*
X935995Y919607D01*
X935981Y919215D01*
X935957Y918823D01*
X935923Y918432D01*
X935880Y918041D01*
X935827Y917652D01*
X935764Y917265D01*
X935693Y916879D01*
X935611Y916494D01*
X935521Y916112D01*
X935420Y915733D01*
X935311Y915355D01*
X935192Y914981D01*
X935065Y914610D01*
X934928Y914242D01*
X934782Y913877D01*
X934627Y913516D01*
X934464Y913159D01*
X934292Y912806D01*
X934111Y912458D01*
X933921Y912114D01*
X933724Y911774D01*
X933518Y911440D01*
X933304Y911111D01*
X933081Y910787D01*
X932851Y910469D01*
X932614Y910156D01*
X932368Y909850D01*
X932115Y909549D01*
X931855Y909255D01*
X931588Y908967D01*
X931314Y908686D01*
X931033Y908412D01*
X930745Y908145D01*
X930451Y907885D01*
X930150Y907632D01*
X929844Y907386D01*
X929531Y907149D01*
X929213Y906919D01*
X928889Y906696D01*
X928560Y906482D01*
X928226Y906276D01*
X927886Y906079D01*
X927542Y905889D01*
X927194Y905708D01*
X926841Y905536D01*
X926484Y905373D01*
X926123Y905218D01*
X925758Y905072D01*
X925390Y904935D01*
X925019Y904808D01*
X924645Y904689D01*
X924267Y904580D01*
X923888Y904479D01*
X923506Y904389D01*
X923121Y904307D01*
X922735Y904236D01*
X922348Y904173D01*
X921959Y904120D01*
X921568Y904077D01*
X921177Y904043D01*
X920785Y904019D01*
X920393Y904005D01*
X920000Y904000D01*
X919607Y904005D01*
X919215Y904019D01*
X918823Y904043D01*
X918432Y904077D01*
X918041Y904120D01*
X917652Y904173D01*
X917265Y904236D01*
X916879Y904307D01*
X916494Y904389D01*
X916112Y904479D01*
X915733Y904580D01*
X915355Y904689D01*
X914981Y904808D01*
X914610Y904935D01*
X914242Y905072D01*
X913877Y905218D01*
X913516Y905373D01*
X913159Y905536D01*
X912806Y905708D01*
X912458Y905889D01*
X912114Y906079D01*
X911774Y906276D01*
X911440Y906482D01*
X911111Y906696D01*
X910787Y906919D01*
X910469Y907149D01*
X910156Y907386D01*
X909850Y907632D01*
X909549Y907885D01*
X909255Y908145D01*
X908967Y908412D01*
X908686Y908686D01*
X908412Y908967D01*
X908145Y909255D01*
X907885Y909549D01*
X907632Y909850D01*
X907386Y910156D01*
X907149Y910469D01*
X906919Y910787D01*
X906696Y911111D01*
X906482Y911440D01*
X906276Y911774D01*
X906079Y912114D01*
X905889Y912458D01*
X905708Y912806D01*
X905536Y913159D01*
X905373Y913516D01*
X905218Y913877D01*
X905072Y914242D01*
X904935Y914610D01*
X904808Y914981D01*
X904689Y915355D01*
X904580Y915733D01*
X904479Y916112D01*
X904389Y916494D01*
X904307Y916879D01*
X904236Y917265D01*
X904173Y917652D01*
X904120Y918041D01*
X904077Y918432D01*
X904043Y918823D01*
X904019Y919215D01*
X904005Y919607D01*
X904000Y920000D01*
D12*
X369146Y673100D03*
X369146Y685800D03*
X369146Y698500D03*
X369146Y711200D03*
X316654Y711200D03*
X316654Y698500D03*
X316654Y685800D03*
X316654Y673100D03*
D13*
X342900Y692150D03*
D14*
X381000Y743975D03*
X381000Y760975D03*
X400050Y760975D03*
X400050Y743975D03*
X304800Y736038D03*
X304800Y753038D03*
X322263Y753038D03*
X322263Y736038D03*
D15*
X365125Y743725D03*
X365125Y761225D03*
D16*
X406400Y704375D03*
X406400Y724375D03*
X407988Y667225D03*
X407988Y647225D03*
D15*
X390525Y678675D03*
X390525Y661175D03*
D17*
X280175Y771525D03*
X297675Y771525D03*
X262750Y771525D03*
X245250Y771525D03*
D18*
X313763Y771525D03*
X330763Y771525D03*
D19*
X305900Y631825D03*
X379900Y631825D03*
D17*
X323075Y592138D03*
X305575Y592138D03*
D20*
X274475Y631825D03*
X214475Y631825D03*
D21*
X860603Y694500D03*
D22*
X853900Y694500D03*
D23*
X860600Y702500D03*
D24*
X853900Y702503D03*
D25*
X867432Y690268D02*
X875768Y690268D01*
X875768Y687232D01*
X867432Y687232D01*
X867432Y690268D01*
X867432Y687483D02*
X875768Y687483D01*
X875768Y687734D02*
X867432Y687734D01*
X867432Y687985D02*
X875768Y687985D01*
X875768Y688236D02*
X867432Y688236D01*
X867432Y688487D02*
X875768Y688487D01*
X875768Y688738D02*
X867432Y688738D01*
X867432Y688989D02*
X875768Y688989D01*
X875768Y689240D02*
X867432Y689240D01*
X867432Y689491D02*
X875768Y689491D01*
X875768Y689742D02*
X867432Y689742D01*
X867432Y689993D02*
X875768Y689993D01*
X875768Y690244D02*
X867432Y690244D01*
X867432Y696768D02*
X875768Y696768D01*
X875768Y693732D01*
X867432Y693732D01*
X867432Y696768D01*
X867432Y693983D02*
X875768Y693983D01*
X875768Y694234D02*
X867432Y694234D01*
X867432Y694485D02*
X875768Y694485D01*
X875768Y694736D02*
X867432Y694736D01*
X867432Y694987D02*
X875768Y694987D01*
X875768Y695238D02*
X867432Y695238D01*
X867432Y695489D02*
X875768Y695489D01*
X875768Y695740D02*
X867432Y695740D01*
X867432Y695991D02*
X875768Y695991D01*
X875768Y696242D02*
X867432Y696242D01*
X867432Y696493D02*
X875768Y696493D01*
X875768Y696744D02*
X867432Y696744D01*
X867432Y703268D02*
X875768Y703268D01*
X875768Y700232D01*
X867432Y700232D01*
X867432Y703268D01*
X867432Y700483D02*
X875768Y700483D01*
X875768Y700734D02*
X867432Y700734D01*
X867432Y700985D02*
X875768Y700985D01*
X875768Y701236D02*
X867432Y701236D01*
X867432Y701487D02*
X875768Y701487D01*
X875768Y701738D02*
X867432Y701738D01*
X867432Y701989D02*
X875768Y701989D01*
X875768Y702240D02*
X867432Y702240D01*
X867432Y702491D02*
X875768Y702491D01*
X875768Y702742D02*
X867432Y702742D01*
X867432Y702993D02*
X875768Y702993D01*
X875768Y703244D02*
X867432Y703244D01*
X867432Y709768D02*
X875768Y709768D01*
X875768Y706732D01*
X867432Y706732D01*
X867432Y709768D01*
X867432Y706983D02*
X875768Y706983D01*
X875768Y707234D02*
X867432Y707234D01*
X867432Y707485D02*
X875768Y707485D01*
X875768Y707736D02*
X867432Y707736D01*
X867432Y707987D02*
X875768Y707987D01*
X875768Y708238D02*
X867432Y708238D01*
X867432Y708489D02*
X875768Y708489D01*
X875768Y708740D02*
X867432Y708740D01*
X867432Y708991D02*
X875768Y708991D01*
X875768Y709242D02*
X867432Y709242D01*
X867432Y709493D02*
X875768Y709493D01*
X875768Y709744D02*
X867432Y709744D01*
X847068Y706732D02*
X838732Y706732D01*
X838732Y709768D01*
X847068Y709768D01*
X847068Y706732D01*
X847068Y706983D02*
X838732Y706983D01*
X838732Y707234D02*
X847068Y707234D01*
X847068Y707485D02*
X838732Y707485D01*
X838732Y707736D02*
X847068Y707736D01*
X847068Y707987D02*
X838732Y707987D01*
X838732Y708238D02*
X847068Y708238D01*
X847068Y708489D02*
X838732Y708489D01*
X838732Y708740D02*
X847068Y708740D01*
X847068Y708991D02*
X838732Y708991D01*
X838732Y709242D02*
X847068Y709242D01*
X847068Y709493D02*
X838732Y709493D01*
X838732Y709744D02*
X847068Y709744D01*
X847068Y700232D02*
X838732Y700232D01*
X838732Y703268D01*
X847068Y703268D01*
X847068Y700232D01*
X847068Y700483D02*
X838732Y700483D01*
X838732Y700734D02*
X847068Y700734D01*
X847068Y700985D02*
X838732Y700985D01*
X838732Y701236D02*
X847068Y701236D01*
X847068Y701487D02*
X838732Y701487D01*
X838732Y701738D02*
X847068Y701738D01*
X847068Y701989D02*
X838732Y701989D01*
X838732Y702240D02*
X847068Y702240D01*
X847068Y702491D02*
X838732Y702491D01*
X838732Y702742D02*
X847068Y702742D01*
X847068Y702993D02*
X838732Y702993D01*
X838732Y703244D02*
X847068Y703244D01*
X847068Y693732D02*
X838732Y693732D01*
X838732Y696768D01*
X847068Y696768D01*
X847068Y693732D01*
X847068Y693983D02*
X838732Y693983D01*
X838732Y694234D02*
X847068Y694234D01*
X847068Y694485D02*
X838732Y694485D01*
X838732Y694736D02*
X847068Y694736D01*
X847068Y694987D02*
X838732Y694987D01*
X838732Y695238D02*
X847068Y695238D01*
X847068Y695489D02*
X838732Y695489D01*
X838732Y695740D02*
X847068Y695740D01*
X847068Y695991D02*
X838732Y695991D01*
X838732Y696242D02*
X847068Y696242D01*
X847068Y696493D02*
X838732Y696493D01*
X838732Y696744D02*
X847068Y696744D01*
X847068Y687232D02*
X838732Y687232D01*
X838732Y690268D01*
X847068Y690268D01*
X847068Y687232D01*
X847068Y687483D02*
X838732Y687483D01*
X838732Y687734D02*
X847068Y687734D01*
X847068Y687985D02*
X838732Y687985D01*
X838732Y688236D02*
X847068Y688236D01*
X847068Y688487D02*
X838732Y688487D01*
X838732Y688738D02*
X847068Y688738D01*
X847068Y688989D02*
X838732Y688989D01*
X838732Y689240D02*
X847068Y689240D01*
X847068Y689491D02*
X838732Y689491D01*
X838732Y689742D02*
X847068Y689742D01*
X847068Y689993D02*
X838732Y689993D01*
X838732Y690244D02*
X847068Y690244D01*
D26*
X860500Y685625D03*
X854000Y685625D03*
X860500Y711375D03*
X854000Y711375D03*
D27*
X777875Y658925D03*
X768375Y680925D03*
X787375Y680925D03*
D18*
X821300Y688975D03*
X804300Y688975D03*
D16*
X793750Y707550D03*
X793750Y727550D03*
D18*
X804300Y669925D03*
X821300Y669925D03*
D28*
X897050Y720725D03*
X919050Y730225D03*
X919050Y711225D03*
D18*
X957825Y673100D03*
X940825Y673100D03*
D17*
X940575Y711200D03*
X958075Y711200D03*
X896125Y695325D03*
X913625Y695325D03*
D14*
X908050Y681600D03*
X908050Y664600D03*
X819150Y709050D03*
X819150Y726050D03*
D18*
X957825Y692150D03*
X940825Y692150D03*
D17*
X878700Y663575D03*
X861200Y663575D03*
D12*
X642196Y565150D03*
X642196Y577850D03*
X642196Y590550D03*
X642196Y603250D03*
X589704Y603250D03*
X589704Y590550D03*
X589704Y577850D03*
X589704Y565150D03*
D13*
X615950Y584200D03*
D14*
X654050Y636025D03*
X654050Y653025D03*
X673100Y653025D03*
X673100Y636025D03*
X577850Y628088D03*
X577850Y645088D03*
X595313Y645088D03*
X595313Y628088D03*
D15*
X638175Y635775D03*
X638175Y653275D03*
D16*
X679450Y596425D03*
X679450Y616425D03*
X681038Y559275D03*
X681038Y539275D03*
D15*
X663575Y570725D03*
X663575Y553225D03*
D17*
X553225Y661670D03*
X570725Y661670D03*
X535800Y662940D03*
X518300Y662940D03*
D18*
X586813Y660400D03*
X603813Y660400D03*
D19*
X575775Y523875D03*
X649775Y523875D03*
D17*
X592950Y484188D03*
X575450Y484188D03*
D20*
X544350Y523875D03*
X484350Y523875D03*
D21*
X860603Y599250D03*
D22*
X853900Y599250D03*
D23*
X860600Y607250D03*
D24*
X853900Y607253D03*
D25*
X867432Y595018D02*
X875768Y595018D01*
X875768Y591982D01*
X867432Y591982D01*
X867432Y595018D01*
X867432Y592233D02*
X875768Y592233D01*
X875768Y592484D02*
X867432Y592484D01*
X867432Y592735D02*
X875768Y592735D01*
X875768Y592986D02*
X867432Y592986D01*
X867432Y593237D02*
X875768Y593237D01*
X875768Y593488D02*
X867432Y593488D01*
X867432Y593739D02*
X875768Y593739D01*
X875768Y593990D02*
X867432Y593990D01*
X867432Y594241D02*
X875768Y594241D01*
X875768Y594492D02*
X867432Y594492D01*
X867432Y594743D02*
X875768Y594743D01*
X875768Y594994D02*
X867432Y594994D01*
X867432Y601518D02*
X875768Y601518D01*
X875768Y598482D01*
X867432Y598482D01*
X867432Y601518D01*
X867432Y598733D02*
X875768Y598733D01*
X875768Y598984D02*
X867432Y598984D01*
X867432Y599235D02*
X875768Y599235D01*
X875768Y599486D02*
X867432Y599486D01*
X867432Y599737D02*
X875768Y599737D01*
X875768Y599988D02*
X867432Y599988D01*
X867432Y600239D02*
X875768Y600239D01*
X875768Y600490D02*
X867432Y600490D01*
X867432Y600741D02*
X875768Y600741D01*
X875768Y600992D02*
X867432Y600992D01*
X867432Y601243D02*
X875768Y601243D01*
X875768Y601494D02*
X867432Y601494D01*
X867432Y608018D02*
X875768Y608018D01*
X875768Y604982D01*
X867432Y604982D01*
X867432Y608018D01*
X867432Y605233D02*
X875768Y605233D01*
X875768Y605484D02*
X867432Y605484D01*
X867432Y605735D02*
X875768Y605735D01*
X875768Y605986D02*
X867432Y605986D01*
X867432Y606237D02*
X875768Y606237D01*
X875768Y606488D02*
X867432Y606488D01*
X867432Y606739D02*
X875768Y606739D01*
X875768Y606990D02*
X867432Y606990D01*
X867432Y607241D02*
X875768Y607241D01*
X875768Y607492D02*
X867432Y607492D01*
X867432Y607743D02*
X875768Y607743D01*
X875768Y607994D02*
X867432Y607994D01*
X867432Y614518D02*
X875768Y614518D01*
X875768Y611482D01*
X867432Y611482D01*
X867432Y614518D01*
X867432Y611733D02*
X875768Y611733D01*
X875768Y611984D02*
X867432Y611984D01*
X867432Y612235D02*
X875768Y612235D01*
X875768Y612486D02*
X867432Y612486D01*
X867432Y612737D02*
X875768Y612737D01*
X875768Y612988D02*
X867432Y612988D01*
X867432Y613239D02*
X875768Y613239D01*
X875768Y613490D02*
X867432Y613490D01*
X867432Y613741D02*
X875768Y613741D01*
X875768Y613992D02*
X867432Y613992D01*
X867432Y614243D02*
X875768Y614243D01*
X875768Y614494D02*
X867432Y614494D01*
X847068Y611482D02*
X838732Y611482D01*
X838732Y614518D01*
X847068Y614518D01*
X847068Y611482D01*
X847068Y611733D02*
X838732Y611733D01*
X838732Y611984D02*
X847068Y611984D01*
X847068Y612235D02*
X838732Y612235D01*
X838732Y612486D02*
X847068Y612486D01*
X847068Y612737D02*
X838732Y612737D01*
X838732Y612988D02*
X847068Y612988D01*
X847068Y613239D02*
X838732Y613239D01*
X838732Y613490D02*
X847068Y613490D01*
X847068Y613741D02*
X838732Y613741D01*
X838732Y613992D02*
X847068Y613992D01*
X847068Y614243D02*
X838732Y614243D01*
X838732Y614494D02*
X847068Y614494D01*
X847068Y604982D02*
X838732Y604982D01*
X838732Y608018D01*
X847068Y608018D01*
X847068Y604982D01*
X847068Y605233D02*
X838732Y605233D01*
X838732Y605484D02*
X847068Y605484D01*
X847068Y605735D02*
X838732Y605735D01*
X838732Y605986D02*
X847068Y605986D01*
X847068Y606237D02*
X838732Y606237D01*
X838732Y606488D02*
X847068Y606488D01*
X847068Y606739D02*
X838732Y606739D01*
X838732Y606990D02*
X847068Y606990D01*
X847068Y607241D02*
X838732Y607241D01*
X838732Y607492D02*
X847068Y607492D01*
X847068Y607743D02*
X838732Y607743D01*
X838732Y607994D02*
X847068Y607994D01*
X847068Y598482D02*
X838732Y598482D01*
X838732Y601518D01*
X847068Y601518D01*
X847068Y598482D01*
X847068Y598733D02*
X838732Y598733D01*
X838732Y598984D02*
X847068Y598984D01*
X847068Y599235D02*
X838732Y599235D01*
X838732Y599486D02*
X847068Y599486D01*
X847068Y599737D02*
X838732Y599737D01*
X838732Y599988D02*
X847068Y599988D01*
X847068Y600239D02*
X838732Y600239D01*
X838732Y600490D02*
X847068Y600490D01*
X847068Y600741D02*
X838732Y600741D01*
X838732Y600992D02*
X847068Y600992D01*
X847068Y601243D02*
X838732Y601243D01*
X838732Y601494D02*
X847068Y601494D01*
X847068Y591982D02*
X838732Y591982D01*
X838732Y595018D01*
X847068Y595018D01*
X847068Y591982D01*
X847068Y592233D02*
X838732Y592233D01*
X838732Y592484D02*
X847068Y592484D01*
X847068Y592735D02*
X838732Y592735D01*
X838732Y592986D02*
X847068Y592986D01*
X847068Y593237D02*
X838732Y593237D01*
X838732Y593488D02*
X847068Y593488D01*
X847068Y593739D02*
X838732Y593739D01*
X838732Y593990D02*
X847068Y593990D01*
X847068Y594241D02*
X838732Y594241D01*
X838732Y594492D02*
X847068Y594492D01*
X847068Y594743D02*
X838732Y594743D01*
X838732Y594994D02*
X847068Y594994D01*
D26*
X860500Y590375D03*
X854000Y590375D03*
X860500Y616125D03*
X854000Y616125D03*
D27*
X777875Y563675D03*
X768375Y585675D03*
X787375Y585675D03*
D18*
X821300Y593725D03*
X804300Y593725D03*
D16*
X793750Y612300D03*
X793750Y632300D03*
D18*
X804300Y574675D03*
X821300Y574675D03*
D28*
X897050Y625475D03*
X919050Y634975D03*
X919050Y615975D03*
D18*
X957825Y577850D03*
X940825Y577850D03*
D17*
X940575Y615950D03*
X958075Y615950D03*
X896125Y600075D03*
X913625Y600075D03*
D14*
X908050Y586350D03*
X908050Y569350D03*
X819150Y613800D03*
X819150Y630800D03*
D18*
X957825Y596900D03*
X940825Y596900D03*
D17*
X878700Y568325D03*
X861200Y568325D03*
D12*
X369146Y482600D03*
X369146Y495300D03*
X369146Y508000D03*
X369146Y520700D03*
X316654Y520700D03*
X316654Y508000D03*
X316654Y495300D03*
X316654Y482600D03*
D13*
X342900Y501650D03*
D14*
X373063Y553475D03*
X373063Y570475D03*
X395288Y570475D03*
X395288Y553475D03*
X304800Y545538D03*
X304800Y562538D03*
X322263Y562538D03*
X322263Y545538D03*
D15*
X357188Y553225D03*
X357188Y570725D03*
D16*
X406400Y513875D03*
X406400Y533875D03*
X407988Y476725D03*
X407988Y456725D03*
D15*
X390525Y488175D03*
X390525Y470675D03*
D17*
X280175Y577850D03*
X297675Y577850D03*
X262750Y581025D03*
X245250Y581025D03*
D18*
X313763Y577850D03*
X330763Y577850D03*
D19*
X305900Y441325D03*
X379900Y441325D03*
D17*
X323075Y401638D03*
X305575Y401638D03*
D20*
X274475Y441325D03*
X214475Y441325D03*
D21*
X860603Y504000D03*
D22*
X853900Y504000D03*
D23*
X860600Y512000D03*
D24*
X853900Y512003D03*
D25*
X867432Y499768D02*
X875768Y499768D01*
X875768Y496732D01*
X867432Y496732D01*
X867432Y499768D01*
X867432Y496983D02*
X875768Y496983D01*
X875768Y497234D02*
X867432Y497234D01*
X867432Y497485D02*
X875768Y497485D01*
X875768Y497736D02*
X867432Y497736D01*
X867432Y497987D02*
X875768Y497987D01*
X875768Y498238D02*
X867432Y498238D01*
X867432Y498489D02*
X875768Y498489D01*
X875768Y498740D02*
X867432Y498740D01*
X867432Y498991D02*
X875768Y498991D01*
X875768Y499242D02*
X867432Y499242D01*
X867432Y499493D02*
X875768Y499493D01*
X875768Y499744D02*
X867432Y499744D01*
X867432Y506268D02*
X875768Y506268D01*
X875768Y503232D01*
X867432Y503232D01*
X867432Y506268D01*
X867432Y503483D02*
X875768Y503483D01*
X875768Y503734D02*
X867432Y503734D01*
X867432Y503985D02*
X875768Y503985D01*
X875768Y504236D02*
X867432Y504236D01*
X867432Y504487D02*
X875768Y504487D01*
X875768Y504738D02*
X867432Y504738D01*
X867432Y504989D02*
X875768Y504989D01*
X875768Y505240D02*
X867432Y505240D01*
X867432Y505491D02*
X875768Y505491D01*
X875768Y505742D02*
X867432Y505742D01*
X867432Y505993D02*
X875768Y505993D01*
X875768Y506244D02*
X867432Y506244D01*
X867432Y512768D02*
X875768Y512768D01*
X875768Y509732D01*
X867432Y509732D01*
X867432Y512768D01*
X867432Y509983D02*
X875768Y509983D01*
X875768Y510234D02*
X867432Y510234D01*
X867432Y510485D02*
X875768Y510485D01*
X875768Y510736D02*
X867432Y510736D01*
X867432Y510987D02*
X875768Y510987D01*
X875768Y511238D02*
X867432Y511238D01*
X867432Y511489D02*
X875768Y511489D01*
X875768Y511740D02*
X867432Y511740D01*
X867432Y511991D02*
X875768Y511991D01*
X875768Y512242D02*
X867432Y512242D01*
X867432Y512493D02*
X875768Y512493D01*
X875768Y512744D02*
X867432Y512744D01*
X867432Y519268D02*
X875768Y519268D01*
X875768Y516232D01*
X867432Y516232D01*
X867432Y519268D01*
X867432Y516483D02*
X875768Y516483D01*
X875768Y516734D02*
X867432Y516734D01*
X867432Y516985D02*
X875768Y516985D01*
X875768Y517236D02*
X867432Y517236D01*
X867432Y517487D02*
X875768Y517487D01*
X875768Y517738D02*
X867432Y517738D01*
X867432Y517989D02*
X875768Y517989D01*
X875768Y518240D02*
X867432Y518240D01*
X867432Y518491D02*
X875768Y518491D01*
X875768Y518742D02*
X867432Y518742D01*
X867432Y518993D02*
X875768Y518993D01*
X875768Y519244D02*
X867432Y519244D01*
X847068Y516232D02*
X838732Y516232D01*
X838732Y519268D01*
X847068Y519268D01*
X847068Y516232D01*
X847068Y516483D02*
X838732Y516483D01*
X838732Y516734D02*
X847068Y516734D01*
X847068Y516985D02*
X838732Y516985D01*
X838732Y517236D02*
X847068Y517236D01*
X847068Y517487D02*
X838732Y517487D01*
X838732Y517738D02*
X847068Y517738D01*
X847068Y517989D02*
X838732Y517989D01*
X838732Y518240D02*
X847068Y518240D01*
X847068Y518491D02*
X838732Y518491D01*
X838732Y518742D02*
X847068Y518742D01*
X847068Y518993D02*
X838732Y518993D01*
X838732Y519244D02*
X847068Y519244D01*
X847068Y509732D02*
X838732Y509732D01*
X838732Y512768D01*
X847068Y512768D01*
X847068Y509732D01*
X847068Y509983D02*
X838732Y509983D01*
X838732Y510234D02*
X847068Y510234D01*
X847068Y510485D02*
X838732Y510485D01*
X838732Y510736D02*
X847068Y510736D01*
X847068Y510987D02*
X838732Y510987D01*
X838732Y511238D02*
X847068Y511238D01*
X847068Y511489D02*
X838732Y511489D01*
X838732Y511740D02*
X847068Y511740D01*
X847068Y511991D02*
X838732Y511991D01*
X838732Y512242D02*
X847068Y512242D01*
X847068Y512493D02*
X838732Y512493D01*
X838732Y512744D02*
X847068Y512744D01*
X847068Y503232D02*
X838732Y503232D01*
X838732Y506268D01*
X847068Y506268D01*
X847068Y503232D01*
X847068Y503483D02*
X838732Y503483D01*
X838732Y503734D02*
X847068Y503734D01*
X847068Y503985D02*
X838732Y503985D01*
X838732Y504236D02*
X847068Y504236D01*
X847068Y504487D02*
X838732Y504487D01*
X838732Y504738D02*
X847068Y504738D01*
X847068Y504989D02*
X838732Y504989D01*
X838732Y505240D02*
X847068Y505240D01*
X847068Y505491D02*
X838732Y505491D01*
X838732Y505742D02*
X847068Y505742D01*
X847068Y505993D02*
X838732Y505993D01*
X838732Y506244D02*
X847068Y506244D01*
X847068Y496732D02*
X838732Y496732D01*
X838732Y499768D01*
X847068Y499768D01*
X847068Y496732D01*
X847068Y496983D02*
X838732Y496983D01*
X838732Y497234D02*
X847068Y497234D01*
X847068Y497485D02*
X838732Y497485D01*
X838732Y497736D02*
X847068Y497736D01*
X847068Y497987D02*
X838732Y497987D01*
X838732Y498238D02*
X847068Y498238D01*
X847068Y498489D02*
X838732Y498489D01*
X838732Y498740D02*
X847068Y498740D01*
X847068Y498991D02*
X838732Y498991D01*
X838732Y499242D02*
X847068Y499242D01*
X847068Y499493D02*
X838732Y499493D01*
X838732Y499744D02*
X847068Y499744D01*
D26*
X860500Y495125D03*
X854000Y495125D03*
X860500Y520875D03*
X854000Y520875D03*
D27*
X777875Y468425D03*
X768375Y490425D03*
X787375Y490425D03*
D18*
X821300Y498475D03*
X804300Y498475D03*
D16*
X793750Y517050D03*
X793750Y537050D03*
D18*
X804300Y479425D03*
X821300Y479425D03*
D28*
X897050Y530225D03*
X919050Y539725D03*
X919050Y520725D03*
D18*
X957825Y482600D03*
X940825Y482600D03*
D17*
X940575Y520700D03*
X958075Y520700D03*
X896125Y504825D03*
X913625Y504825D03*
D14*
X908050Y491100D03*
X908050Y474100D03*
X819150Y518550D03*
X819150Y535550D03*
D18*
X957825Y501650D03*
X940825Y501650D03*
D17*
X878700Y473075D03*
X861200Y473075D03*
D12*
X369146Y292100D03*
X369146Y304800D03*
X369146Y317500D03*
X369146Y330200D03*
X316654Y330200D03*
X316654Y317500D03*
X316654Y304800D03*
X316654Y292100D03*
D13*
X342900Y311150D03*
D14*
X379413Y362975D03*
X379413Y379975D03*
X400050Y379975D03*
X400050Y362975D03*
X307975Y355038D03*
X307975Y372038D03*
X323850Y372038D03*
X323850Y355038D03*
D15*
X363538Y362725D03*
X363538Y380225D03*
D16*
X406400Y323375D03*
X406400Y343375D03*
X407988Y286225D03*
X407988Y266225D03*
D15*
X390525Y297675D03*
X390525Y280175D03*
D17*
X280175Y387350D03*
X297675Y387350D03*
X262750Y390525D03*
X245250Y390525D03*
D18*
X313763Y387350D03*
X330763Y387350D03*
D19*
X305900Y250825D03*
X379900Y250825D03*
D17*
X323075Y211138D03*
X305575Y211138D03*
D20*
X274475Y250825D03*
X214475Y250825D03*
D21*
X860603Y408750D03*
D22*
X853900Y408750D03*
D23*
X860600Y416750D03*
D24*
X853900Y416753D03*
D25*
X867432Y404518D02*
X875768Y404518D01*
X875768Y401482D01*
X867432Y401482D01*
X867432Y404518D01*
X867432Y401733D02*
X875768Y401733D01*
X875768Y401984D02*
X867432Y401984D01*
X867432Y402235D02*
X875768Y402235D01*
X875768Y402486D02*
X867432Y402486D01*
X867432Y402737D02*
X875768Y402737D01*
X875768Y402988D02*
X867432Y402988D01*
X867432Y403239D02*
X875768Y403239D01*
X875768Y403490D02*
X867432Y403490D01*
X867432Y403741D02*
X875768Y403741D01*
X875768Y403992D02*
X867432Y403992D01*
X867432Y404243D02*
X875768Y404243D01*
X875768Y404494D02*
X867432Y404494D01*
X867432Y411018D02*
X875768Y411018D01*
X875768Y407982D01*
X867432Y407982D01*
X867432Y411018D01*
X867432Y408233D02*
X875768Y408233D01*
X875768Y408484D02*
X867432Y408484D01*
X867432Y408735D02*
X875768Y408735D01*
X875768Y408986D02*
X867432Y408986D01*
X867432Y409237D02*
X875768Y409237D01*
X875768Y409488D02*
X867432Y409488D01*
X867432Y409739D02*
X875768Y409739D01*
X875768Y409990D02*
X867432Y409990D01*
X867432Y410241D02*
X875768Y410241D01*
X875768Y410492D02*
X867432Y410492D01*
X867432Y410743D02*
X875768Y410743D01*
X875768Y410994D02*
X867432Y410994D01*
X867432Y417518D02*
X875768Y417518D01*
X875768Y414482D01*
X867432Y414482D01*
X867432Y417518D01*
X867432Y414733D02*
X875768Y414733D01*
X875768Y414984D02*
X867432Y414984D01*
X867432Y415235D02*
X875768Y415235D01*
X875768Y415486D02*
X867432Y415486D01*
X867432Y415737D02*
X875768Y415737D01*
X875768Y415988D02*
X867432Y415988D01*
X867432Y416239D02*
X875768Y416239D01*
X875768Y416490D02*
X867432Y416490D01*
X867432Y416741D02*
X875768Y416741D01*
X875768Y416992D02*
X867432Y416992D01*
X867432Y417243D02*
X875768Y417243D01*
X875768Y417494D02*
X867432Y417494D01*
X867432Y424018D02*
X875768Y424018D01*
X875768Y420982D01*
X867432Y420982D01*
X867432Y424018D01*
X867432Y421233D02*
X875768Y421233D01*
X875768Y421484D02*
X867432Y421484D01*
X867432Y421735D02*
X875768Y421735D01*
X875768Y421986D02*
X867432Y421986D01*
X867432Y422237D02*
X875768Y422237D01*
X875768Y422488D02*
X867432Y422488D01*
X867432Y422739D02*
X875768Y422739D01*
X875768Y422990D02*
X867432Y422990D01*
X867432Y423241D02*
X875768Y423241D01*
X875768Y423492D02*
X867432Y423492D01*
X867432Y423743D02*
X875768Y423743D01*
X875768Y423994D02*
X867432Y423994D01*
X847068Y420982D02*
X838732Y420982D01*
X838732Y424018D01*
X847068Y424018D01*
X847068Y420982D01*
X847068Y421233D02*
X838732Y421233D01*
X838732Y421484D02*
X847068Y421484D01*
X847068Y421735D02*
X838732Y421735D01*
X838732Y421986D02*
X847068Y421986D01*
X847068Y422237D02*
X838732Y422237D01*
X838732Y422488D02*
X847068Y422488D01*
X847068Y422739D02*
X838732Y422739D01*
X838732Y422990D02*
X847068Y422990D01*
X847068Y423241D02*
X838732Y423241D01*
X838732Y423492D02*
X847068Y423492D01*
X847068Y423743D02*
X838732Y423743D01*
X838732Y423994D02*
X847068Y423994D01*
X847068Y414482D02*
X838732Y414482D01*
X838732Y417518D01*
X847068Y417518D01*
X847068Y414482D01*
X847068Y414733D02*
X838732Y414733D01*
X838732Y414984D02*
X847068Y414984D01*
X847068Y415235D02*
X838732Y415235D01*
X838732Y415486D02*
X847068Y415486D01*
X847068Y415737D02*
X838732Y415737D01*
X838732Y415988D02*
X847068Y415988D01*
X847068Y416239D02*
X838732Y416239D01*
X838732Y416490D02*
X847068Y416490D01*
X847068Y416741D02*
X838732Y416741D01*
X838732Y416992D02*
X847068Y416992D01*
X847068Y417243D02*
X838732Y417243D01*
X838732Y417494D02*
X847068Y417494D01*
X847068Y407982D02*
X838732Y407982D01*
X838732Y411018D01*
X847068Y411018D01*
X847068Y407982D01*
X847068Y408233D02*
X838732Y408233D01*
X838732Y408484D02*
X847068Y408484D01*
X847068Y408735D02*
X838732Y408735D01*
X838732Y408986D02*
X847068Y408986D01*
X847068Y409237D02*
X838732Y409237D01*
X838732Y409488D02*
X847068Y409488D01*
X847068Y409739D02*
X838732Y409739D01*
X838732Y409990D02*
X847068Y409990D01*
X847068Y410241D02*
X838732Y410241D01*
X838732Y410492D02*
X847068Y410492D01*
X847068Y410743D02*
X838732Y410743D01*
X838732Y410994D02*
X847068Y410994D01*
X847068Y401482D02*
X838732Y401482D01*
X838732Y404518D01*
X847068Y404518D01*
X847068Y401482D01*
X847068Y401733D02*
X838732Y401733D01*
X838732Y401984D02*
X847068Y401984D01*
X847068Y402235D02*
X838732Y402235D01*
X838732Y402486D02*
X847068Y402486D01*
X847068Y402737D02*
X838732Y402737D01*
X838732Y402988D02*
X847068Y402988D01*
X847068Y403239D02*
X838732Y403239D01*
X838732Y403490D02*
X847068Y403490D01*
X847068Y403741D02*
X838732Y403741D01*
X838732Y403992D02*
X847068Y403992D01*
X847068Y404243D02*
X838732Y404243D01*
X838732Y404494D02*
X847068Y404494D01*
D26*
X860500Y399875D03*
X854000Y399875D03*
X860500Y425625D03*
X854000Y425625D03*
D27*
X777875Y373175D03*
X768375Y395175D03*
X787375Y395175D03*
D18*
X821300Y403225D03*
X804300Y403225D03*
D16*
X793750Y421800D03*
X793750Y441800D03*
D18*
X804300Y384175D03*
X821300Y384175D03*
D28*
X897050Y434975D03*
X919050Y444475D03*
X919050Y425475D03*
D18*
X957825Y387350D03*
X940825Y387350D03*
D17*
X940575Y425450D03*
X958075Y425450D03*
X896125Y409575D03*
X913625Y409575D03*
D14*
X908050Y395850D03*
X908050Y378850D03*
X819150Y423300D03*
X819150Y440300D03*
D18*
X957825Y406400D03*
X940825Y406400D03*
D17*
X878700Y377825D03*
X861200Y377825D03*
D12*
X369146Y101600D03*
X369146Y114300D03*
X369146Y127000D03*
X369146Y139700D03*
X316654Y139700D03*
X316654Y127000D03*
X316654Y114300D03*
X316654Y101600D03*
D13*
X342900Y120650D03*
D14*
X381000Y172475D03*
X381000Y189475D03*
X400050Y189475D03*
X400050Y172475D03*
X304800Y164538D03*
X304800Y181538D03*
X322263Y181538D03*
X322263Y164538D03*
D15*
X365125Y172225D03*
X365125Y189725D03*
D16*
X406400Y132875D03*
X406400Y152875D03*
X407988Y95725D03*
X407988Y75725D03*
D15*
X390525Y107175D03*
X390525Y89675D03*
D17*
X280175Y196850D03*
X297675Y196850D03*
X262750Y200025D03*
X245250Y200025D03*
D18*
X313763Y196850D03*
X330763Y196850D03*
D19*
X305900Y60325D03*
X379900Y60325D03*
D17*
X323075Y20638D03*
X305575Y20638D03*
D20*
X274475Y60325D03*
X214475Y60325D03*
D21*
X860603Y218250D03*
D22*
X853900Y218250D03*
D23*
X860600Y226250D03*
D24*
X853900Y226253D03*
D25*
X867432Y214018D02*
X875768Y214018D01*
X875768Y210982D01*
X867432Y210982D01*
X867432Y214018D01*
X867432Y211233D02*
X875768Y211233D01*
X875768Y211484D02*
X867432Y211484D01*
X867432Y211735D02*
X875768Y211735D01*
X875768Y211986D02*
X867432Y211986D01*
X867432Y212237D02*
X875768Y212237D01*
X875768Y212488D02*
X867432Y212488D01*
X867432Y212739D02*
X875768Y212739D01*
X875768Y212990D02*
X867432Y212990D01*
X867432Y213241D02*
X875768Y213241D01*
X875768Y213492D02*
X867432Y213492D01*
X867432Y213743D02*
X875768Y213743D01*
X875768Y213994D02*
X867432Y213994D01*
X867432Y220518D02*
X875768Y220518D01*
X875768Y217482D01*
X867432Y217482D01*
X867432Y220518D01*
X867432Y217733D02*
X875768Y217733D01*
X875768Y217984D02*
X867432Y217984D01*
X867432Y218235D02*
X875768Y218235D01*
X875768Y218486D02*
X867432Y218486D01*
X867432Y218737D02*
X875768Y218737D01*
X875768Y218988D02*
X867432Y218988D01*
X867432Y219239D02*
X875768Y219239D01*
X875768Y219490D02*
X867432Y219490D01*
X867432Y219741D02*
X875768Y219741D01*
X875768Y219992D02*
X867432Y219992D01*
X867432Y220243D02*
X875768Y220243D01*
X875768Y220494D02*
X867432Y220494D01*
X867432Y227018D02*
X875768Y227018D01*
X875768Y223982D01*
X867432Y223982D01*
X867432Y227018D01*
X867432Y224233D02*
X875768Y224233D01*
X875768Y224484D02*
X867432Y224484D01*
X867432Y224735D02*
X875768Y224735D01*
X875768Y224986D02*
X867432Y224986D01*
X867432Y225237D02*
X875768Y225237D01*
X875768Y225488D02*
X867432Y225488D01*
X867432Y225739D02*
X875768Y225739D01*
X875768Y225990D02*
X867432Y225990D01*
X867432Y226241D02*
X875768Y226241D01*
X875768Y226492D02*
X867432Y226492D01*
X867432Y226743D02*
X875768Y226743D01*
X875768Y226994D02*
X867432Y226994D01*
X867432Y233518D02*
X875768Y233518D01*
X875768Y230482D01*
X867432Y230482D01*
X867432Y233518D01*
X867432Y230733D02*
X875768Y230733D01*
X875768Y230984D02*
X867432Y230984D01*
X867432Y231235D02*
X875768Y231235D01*
X875768Y231486D02*
X867432Y231486D01*
X867432Y231737D02*
X875768Y231737D01*
X875768Y231988D02*
X867432Y231988D01*
X867432Y232239D02*
X875768Y232239D01*
X875768Y232490D02*
X867432Y232490D01*
X867432Y232741D02*
X875768Y232741D01*
X875768Y232992D02*
X867432Y232992D01*
X867432Y233243D02*
X875768Y233243D01*
X875768Y233494D02*
X867432Y233494D01*
X847068Y230482D02*
X838732Y230482D01*
X838732Y233518D01*
X847068Y233518D01*
X847068Y230482D01*
X847068Y230733D02*
X838732Y230733D01*
X838732Y230984D02*
X847068Y230984D01*
X847068Y231235D02*
X838732Y231235D01*
X838732Y231486D02*
X847068Y231486D01*
X847068Y231737D02*
X838732Y231737D01*
X838732Y231988D02*
X847068Y231988D01*
X847068Y232239D02*
X838732Y232239D01*
X838732Y232490D02*
X847068Y232490D01*
X847068Y232741D02*
X838732Y232741D01*
X838732Y232992D02*
X847068Y232992D01*
X847068Y233243D02*
X838732Y233243D01*
X838732Y233494D02*
X847068Y233494D01*
X847068Y223982D02*
X838732Y223982D01*
X838732Y227018D01*
X847068Y227018D01*
X847068Y223982D01*
X847068Y224233D02*
X838732Y224233D01*
X838732Y224484D02*
X847068Y224484D01*
X847068Y224735D02*
X838732Y224735D01*
X838732Y224986D02*
X847068Y224986D01*
X847068Y225237D02*
X838732Y225237D01*
X838732Y225488D02*
X847068Y225488D01*
X847068Y225739D02*
X838732Y225739D01*
X838732Y225990D02*
X847068Y225990D01*
X847068Y226241D02*
X838732Y226241D01*
X838732Y226492D02*
X847068Y226492D01*
X847068Y226743D02*
X838732Y226743D01*
X838732Y226994D02*
X847068Y226994D01*
X847068Y217482D02*
X838732Y217482D01*
X838732Y220518D01*
X847068Y220518D01*
X847068Y217482D01*
X847068Y217733D02*
X838732Y217733D01*
X838732Y217984D02*
X847068Y217984D01*
X847068Y218235D02*
X838732Y218235D01*
X838732Y218486D02*
X847068Y218486D01*
X847068Y218737D02*
X838732Y218737D01*
X838732Y218988D02*
X847068Y218988D01*
X847068Y219239D02*
X838732Y219239D01*
X838732Y219490D02*
X847068Y219490D01*
X847068Y219741D02*
X838732Y219741D01*
X838732Y219992D02*
X847068Y219992D01*
X847068Y220243D02*
X838732Y220243D01*
X838732Y220494D02*
X847068Y220494D01*
X847068Y210982D02*
X838732Y210982D01*
X838732Y214018D01*
X847068Y214018D01*
X847068Y210982D01*
X847068Y211233D02*
X838732Y211233D01*
X838732Y211484D02*
X847068Y211484D01*
X847068Y211735D02*
X838732Y211735D01*
X838732Y211986D02*
X847068Y211986D01*
X847068Y212237D02*
X838732Y212237D01*
X838732Y212488D02*
X847068Y212488D01*
X847068Y212739D02*
X838732Y212739D01*
X838732Y212990D02*
X847068Y212990D01*
X847068Y213241D02*
X838732Y213241D01*
X838732Y213492D02*
X847068Y213492D01*
X847068Y213743D02*
X838732Y213743D01*
X838732Y213994D02*
X847068Y213994D01*
D26*
X860500Y209375D03*
X854000Y209375D03*
X860500Y235125D03*
X854000Y235125D03*
D27*
X777875Y182675D03*
X768375Y204675D03*
X787375Y204675D03*
D18*
X821300Y212725D03*
X804300Y212725D03*
D16*
X793750Y231300D03*
X793750Y251300D03*
D18*
X804300Y193675D03*
X821300Y193675D03*
D28*
X897050Y244475D03*
X919050Y253975D03*
X919050Y234975D03*
D18*
X957825Y196850D03*
X940825Y196850D03*
D17*
X940575Y234950D03*
X958075Y234950D03*
X896125Y219075D03*
X913625Y219075D03*
D14*
X908050Y205350D03*
X908050Y188350D03*
X819150Y232800D03*
X819150Y249800D03*
D18*
X957825Y215900D03*
X940825Y215900D03*
D17*
X878700Y187325D03*
X861200Y187325D03*
D12*
X642196Y755650D03*
X642196Y768350D03*
X642196Y781050D03*
X642196Y793750D03*
X589704Y793750D03*
X589704Y781050D03*
X589704Y768350D03*
X589704Y755650D03*
D13*
X615950Y774700D03*
D14*
X654050Y826525D03*
X654050Y843525D03*
X673100Y843525D03*
X673100Y826525D03*
X577850Y818588D03*
X577850Y835588D03*
X595313Y835588D03*
X595313Y818588D03*
D15*
X638175Y826275D03*
X638175Y843775D03*
D16*
X679450Y786925D03*
X679450Y806925D03*
X681038Y749775D03*
X681038Y729775D03*
D15*
X663575Y761225D03*
X663575Y743725D03*
D17*
X553225Y854075D03*
X570725Y854075D03*
X535800Y854075D03*
X518300Y854075D03*
D18*
X586813Y854075D03*
X603813Y854075D03*
D19*
X578950Y714375D03*
X652950Y714375D03*
D17*
X604063Y674688D03*
X586563Y674688D03*
D20*
X547525Y714375D03*
X487525Y714375D03*
D21*
X860603Y789750D03*
D22*
X853900Y789750D03*
D23*
X860600Y797750D03*
D24*
X853900Y797753D03*
D25*
X867432Y785518D02*
X875768Y785518D01*
X875768Y782482D01*
X867432Y782482D01*
X867432Y785518D01*
X867432Y782733D02*
X875768Y782733D01*
X875768Y782984D02*
X867432Y782984D01*
X867432Y783235D02*
X875768Y783235D01*
X875768Y783486D02*
X867432Y783486D01*
X867432Y783737D02*
X875768Y783737D01*
X875768Y783988D02*
X867432Y783988D01*
X867432Y784239D02*
X875768Y784239D01*
X875768Y784490D02*
X867432Y784490D01*
X867432Y784741D02*
X875768Y784741D01*
X875768Y784992D02*
X867432Y784992D01*
X867432Y785243D02*
X875768Y785243D01*
X875768Y785494D02*
X867432Y785494D01*
X867432Y792018D02*
X875768Y792018D01*
X875768Y788982D01*
X867432Y788982D01*
X867432Y792018D01*
X867432Y789233D02*
X875768Y789233D01*
X875768Y789484D02*
X867432Y789484D01*
X867432Y789735D02*
X875768Y789735D01*
X875768Y789986D02*
X867432Y789986D01*
X867432Y790237D02*
X875768Y790237D01*
X875768Y790488D02*
X867432Y790488D01*
X867432Y790739D02*
X875768Y790739D01*
X875768Y790990D02*
X867432Y790990D01*
X867432Y791241D02*
X875768Y791241D01*
X875768Y791492D02*
X867432Y791492D01*
X867432Y791743D02*
X875768Y791743D01*
X875768Y791994D02*
X867432Y791994D01*
X867432Y798518D02*
X875768Y798518D01*
X875768Y795482D01*
X867432Y795482D01*
X867432Y798518D01*
X867432Y795733D02*
X875768Y795733D01*
X875768Y795984D02*
X867432Y795984D01*
X867432Y796235D02*
X875768Y796235D01*
X875768Y796486D02*
X867432Y796486D01*
X867432Y796737D02*
X875768Y796737D01*
X875768Y796988D02*
X867432Y796988D01*
X867432Y797239D02*
X875768Y797239D01*
X875768Y797490D02*
X867432Y797490D01*
X867432Y797741D02*
X875768Y797741D01*
X875768Y797992D02*
X867432Y797992D01*
X867432Y798243D02*
X875768Y798243D01*
X875768Y798494D02*
X867432Y798494D01*
X867432Y805018D02*
X875768Y805018D01*
X875768Y801982D01*
X867432Y801982D01*
X867432Y805018D01*
X867432Y802233D02*
X875768Y802233D01*
X875768Y802484D02*
X867432Y802484D01*
X867432Y802735D02*
X875768Y802735D01*
X875768Y802986D02*
X867432Y802986D01*
X867432Y803237D02*
X875768Y803237D01*
X875768Y803488D02*
X867432Y803488D01*
X867432Y803739D02*
X875768Y803739D01*
X875768Y803990D02*
X867432Y803990D01*
X867432Y804241D02*
X875768Y804241D01*
X875768Y804492D02*
X867432Y804492D01*
X867432Y804743D02*
X875768Y804743D01*
X875768Y804994D02*
X867432Y804994D01*
X847068Y801982D02*
X838732Y801982D01*
X838732Y805018D01*
X847068Y805018D01*
X847068Y801982D01*
X847068Y802233D02*
X838732Y802233D01*
X838732Y802484D02*
X847068Y802484D01*
X847068Y802735D02*
X838732Y802735D01*
X838732Y802986D02*
X847068Y802986D01*
X847068Y803237D02*
X838732Y803237D01*
X838732Y803488D02*
X847068Y803488D01*
X847068Y803739D02*
X838732Y803739D01*
X838732Y803990D02*
X847068Y803990D01*
X847068Y804241D02*
X838732Y804241D01*
X838732Y804492D02*
X847068Y804492D01*
X847068Y804743D02*
X838732Y804743D01*
X838732Y804994D02*
X847068Y804994D01*
X847068Y795482D02*
X838732Y795482D01*
X838732Y798518D01*
X847068Y798518D01*
X847068Y795482D01*
X847068Y795733D02*
X838732Y795733D01*
X838732Y795984D02*
X847068Y795984D01*
X847068Y796235D02*
X838732Y796235D01*
X838732Y796486D02*
X847068Y796486D01*
X847068Y796737D02*
X838732Y796737D01*
X838732Y796988D02*
X847068Y796988D01*
X847068Y797239D02*
X838732Y797239D01*
X838732Y797490D02*
X847068Y797490D01*
X847068Y797741D02*
X838732Y797741D01*
X838732Y797992D02*
X847068Y797992D01*
X847068Y798243D02*
X838732Y798243D01*
X838732Y798494D02*
X847068Y798494D01*
X847068Y788982D02*
X838732Y788982D01*
X838732Y792018D01*
X847068Y792018D01*
X847068Y788982D01*
X847068Y789233D02*
X838732Y789233D01*
X838732Y789484D02*
X847068Y789484D01*
X847068Y789735D02*
X838732Y789735D01*
X838732Y789986D02*
X847068Y789986D01*
X847068Y790237D02*
X838732Y790237D01*
X838732Y790488D02*
X847068Y790488D01*
X847068Y790739D02*
X838732Y790739D01*
X838732Y790990D02*
X847068Y790990D01*
X847068Y791241D02*
X838732Y791241D01*
X838732Y791492D02*
X847068Y791492D01*
X847068Y791743D02*
X838732Y791743D01*
X838732Y791994D02*
X847068Y791994D01*
X847068Y782482D02*
X838732Y782482D01*
X838732Y785518D01*
X847068Y785518D01*
X847068Y782482D01*
X847068Y782733D02*
X838732Y782733D01*
X838732Y782984D02*
X847068Y782984D01*
X847068Y783235D02*
X838732Y783235D01*
X838732Y783486D02*
X847068Y783486D01*
X847068Y783737D02*
X838732Y783737D01*
X838732Y783988D02*
X847068Y783988D01*
X847068Y784239D02*
X838732Y784239D01*
X838732Y784490D02*
X847068Y784490D01*
X847068Y784741D02*
X838732Y784741D01*
X838732Y784992D02*
X847068Y784992D01*
X847068Y785243D02*
X838732Y785243D01*
X838732Y785494D02*
X847068Y785494D01*
D26*
X860500Y780875D03*
X854000Y780875D03*
X860500Y806625D03*
X854000Y806625D03*
D27*
X777875Y754175D03*
X768375Y776175D03*
X787375Y776175D03*
D18*
X821300Y784225D03*
X804300Y784225D03*
D16*
X793750Y802800D03*
X793750Y822800D03*
D18*
X804300Y765175D03*
X821300Y765175D03*
D28*
X897050Y815975D03*
X919050Y825475D03*
X919050Y806475D03*
D18*
X957825Y768350D03*
X940825Y768350D03*
D17*
X940575Y806450D03*
X958075Y806450D03*
X896125Y790575D03*
X913625Y790575D03*
D14*
X908050Y776850D03*
X908050Y759850D03*
X819150Y804300D03*
X819150Y821300D03*
D18*
X957825Y787400D03*
X940825Y787400D03*
D17*
X878700Y758825D03*
X861200Y758825D03*
D12*
X642196Y196850D03*
X642196Y209550D03*
X642196Y222250D03*
X642196Y234950D03*
X589704Y234950D03*
X589704Y222250D03*
X589704Y209550D03*
X589704Y196850D03*
D13*
X615950Y215900D03*
D14*
X652463Y267725D03*
X652463Y284725D03*
X673100Y284725D03*
X673100Y267725D03*
X577850Y259788D03*
X577850Y276788D03*
X595313Y276788D03*
X595313Y259788D03*
D15*
X636588Y267475D03*
X636588Y284975D03*
D16*
X679450Y228125D03*
X679450Y248125D03*
X681038Y190975D03*
X681038Y170975D03*
D15*
X663575Y202425D03*
X663575Y184925D03*
D17*
X553225Y295275D03*
X570725Y295275D03*
X535800Y295275D03*
X518300Y295275D03*
D18*
X586813Y295275D03*
X603813Y295275D03*
D19*
X578950Y155575D03*
X652950Y155575D03*
D17*
X596125Y112713D03*
X578625Y112713D03*
D20*
X547525Y155575D03*
X487525Y155575D03*
D21*
X860603Y313500D03*
D22*
X853900Y313500D03*
D23*
X860600Y321500D03*
D24*
X853900Y321503D03*
D25*
X867432Y309268D02*
X875768Y309268D01*
X875768Y306232D01*
X867432Y306232D01*
X867432Y309268D01*
X867432Y306483D02*
X875768Y306483D01*
X875768Y306734D02*
X867432Y306734D01*
X867432Y306985D02*
X875768Y306985D01*
X875768Y307236D02*
X867432Y307236D01*
X867432Y307487D02*
X875768Y307487D01*
X875768Y307738D02*
X867432Y307738D01*
X867432Y307989D02*
X875768Y307989D01*
X875768Y308240D02*
X867432Y308240D01*
X867432Y308491D02*
X875768Y308491D01*
X875768Y308742D02*
X867432Y308742D01*
X867432Y308993D02*
X875768Y308993D01*
X875768Y309244D02*
X867432Y309244D01*
X867432Y315768D02*
X875768Y315768D01*
X875768Y312732D01*
X867432Y312732D01*
X867432Y315768D01*
X867432Y312983D02*
X875768Y312983D01*
X875768Y313234D02*
X867432Y313234D01*
X867432Y313485D02*
X875768Y313485D01*
X875768Y313736D02*
X867432Y313736D01*
X867432Y313987D02*
X875768Y313987D01*
X875768Y314238D02*
X867432Y314238D01*
X867432Y314489D02*
X875768Y314489D01*
X875768Y314740D02*
X867432Y314740D01*
X867432Y314991D02*
X875768Y314991D01*
X875768Y315242D02*
X867432Y315242D01*
X867432Y315493D02*
X875768Y315493D01*
X875768Y315744D02*
X867432Y315744D01*
X867432Y322268D02*
X875768Y322268D01*
X875768Y319232D01*
X867432Y319232D01*
X867432Y322268D01*
X867432Y319483D02*
X875768Y319483D01*
X875768Y319734D02*
X867432Y319734D01*
X867432Y319985D02*
X875768Y319985D01*
X875768Y320236D02*
X867432Y320236D01*
X867432Y320487D02*
X875768Y320487D01*
X875768Y320738D02*
X867432Y320738D01*
X867432Y320989D02*
X875768Y320989D01*
X875768Y321240D02*
X867432Y321240D01*
X867432Y321491D02*
X875768Y321491D01*
X875768Y321742D02*
X867432Y321742D01*
X867432Y321993D02*
X875768Y321993D01*
X875768Y322244D02*
X867432Y322244D01*
X867432Y328768D02*
X875768Y328768D01*
X875768Y325732D01*
X867432Y325732D01*
X867432Y328768D01*
X867432Y325983D02*
X875768Y325983D01*
X875768Y326234D02*
X867432Y326234D01*
X867432Y326485D02*
X875768Y326485D01*
X875768Y326736D02*
X867432Y326736D01*
X867432Y326987D02*
X875768Y326987D01*
X875768Y327238D02*
X867432Y327238D01*
X867432Y327489D02*
X875768Y327489D01*
X875768Y327740D02*
X867432Y327740D01*
X867432Y327991D02*
X875768Y327991D01*
X875768Y328242D02*
X867432Y328242D01*
X867432Y328493D02*
X875768Y328493D01*
X875768Y328744D02*
X867432Y328744D01*
X847068Y325732D02*
X838732Y325732D01*
X838732Y328768D01*
X847068Y328768D01*
X847068Y325732D01*
X847068Y325983D02*
X838732Y325983D01*
X838732Y326234D02*
X847068Y326234D01*
X847068Y326485D02*
X838732Y326485D01*
X838732Y326736D02*
X847068Y326736D01*
X847068Y326987D02*
X838732Y326987D01*
X838732Y327238D02*
X847068Y327238D01*
X847068Y327489D02*
X838732Y327489D01*
X838732Y327740D02*
X847068Y327740D01*
X847068Y327991D02*
X838732Y327991D01*
X838732Y328242D02*
X847068Y328242D01*
X847068Y328493D02*
X838732Y328493D01*
X838732Y328744D02*
X847068Y328744D01*
X847068Y319232D02*
X838732Y319232D01*
X838732Y322268D01*
X847068Y322268D01*
X847068Y319232D01*
X847068Y319483D02*
X838732Y319483D01*
X838732Y319734D02*
X847068Y319734D01*
X847068Y319985D02*
X838732Y319985D01*
X838732Y320236D02*
X847068Y320236D01*
X847068Y320487D02*
X838732Y320487D01*
X838732Y320738D02*
X847068Y320738D01*
X847068Y320989D02*
X838732Y320989D01*
X838732Y321240D02*
X847068Y321240D01*
X847068Y321491D02*
X838732Y321491D01*
X838732Y321742D02*
X847068Y321742D01*
X847068Y321993D02*
X838732Y321993D01*
X838732Y322244D02*
X847068Y322244D01*
X847068Y312732D02*
X838732Y312732D01*
X838732Y315768D01*
X847068Y315768D01*
X847068Y312732D01*
X847068Y312983D02*
X838732Y312983D01*
X838732Y313234D02*
X847068Y313234D01*
X847068Y313485D02*
X838732Y313485D01*
X838732Y313736D02*
X847068Y313736D01*
X847068Y313987D02*
X838732Y313987D01*
X838732Y314238D02*
X847068Y314238D01*
X847068Y314489D02*
X838732Y314489D01*
X838732Y314740D02*
X847068Y314740D01*
X847068Y314991D02*
X838732Y314991D01*
X838732Y315242D02*
X847068Y315242D01*
X847068Y315493D02*
X838732Y315493D01*
X838732Y315744D02*
X847068Y315744D01*
X847068Y306232D02*
X838732Y306232D01*
X838732Y309268D01*
X847068Y309268D01*
X847068Y306232D01*
X847068Y306483D02*
X838732Y306483D01*
X838732Y306734D02*
X847068Y306734D01*
X847068Y306985D02*
X838732Y306985D01*
X838732Y307236D02*
X847068Y307236D01*
X847068Y307487D02*
X838732Y307487D01*
X838732Y307738D02*
X847068Y307738D01*
X847068Y307989D02*
X838732Y307989D01*
X838732Y308240D02*
X847068Y308240D01*
X847068Y308491D02*
X838732Y308491D01*
X838732Y308742D02*
X847068Y308742D01*
X847068Y308993D02*
X838732Y308993D01*
X838732Y309244D02*
X847068Y309244D01*
D26*
X860500Y304625D03*
X854000Y304625D03*
X860500Y330375D03*
X854000Y330375D03*
D27*
X777875Y277925D03*
X768375Y299925D03*
X787375Y299925D03*
D18*
X821300Y307975D03*
X804300Y307975D03*
D16*
X793750Y326550D03*
X793750Y346550D03*
D18*
X804300Y288925D03*
X821300Y288925D03*
D28*
X897050Y339725D03*
X919050Y349225D03*
X919050Y330225D03*
D18*
X957825Y292100D03*
X940825Y292100D03*
D17*
X940575Y330200D03*
X958075Y330200D03*
X896125Y314325D03*
X913625Y314325D03*
D14*
X908050Y300600D03*
X908050Y283600D03*
X819150Y328050D03*
X819150Y345050D03*
D18*
X957825Y311150D03*
X940825Y311150D03*
D17*
X878700Y282575D03*
X861200Y282575D03*
D29*
X209550Y767200D03*
X209550Y782200D03*
X204788Y567175D03*
X204788Y582175D03*
X204788Y379850D03*
X204788Y394850D03*
X477838Y652900D03*
X477838Y667900D03*
X201613Y186175D03*
X201613Y201175D03*
X471488Y840225D03*
X471488Y855225D03*
X484188Y287775D03*
X484188Y302775D03*
D14*
X498475Y303775D03*
X498475Y286775D03*
X225425Y783200D03*
X225425Y766200D03*
X492125Y668900D03*
X492125Y651900D03*
X215265Y202175D03*
X215265Y185175D03*
X485775Y856225D03*
X485775Y839225D03*
X219075Y395850D03*
X219075Y378850D03*
X219075Y584445D03*
X219075Y567445D03*
D30*
X64770Y843527D03*
X113030Y843527D03*
X64770Y818127D03*
X113030Y818127D03*
X64770Y792727D03*
X113030Y792727D03*
X64770Y767327D03*
X113030Y767327D03*
X64770Y741927D03*
X113030Y741927D03*
X64770Y716527D03*
X113030Y716527D03*
X64770Y691127D03*
X113030Y691127D03*
X64770Y665727D03*
X113030Y665727D03*
X64770Y640327D03*
X113030Y640327D03*
X64770Y614927D03*
X113030Y614927D03*
X113030Y157187D03*
X64770Y157187D03*
X113030Y182587D03*
X64770Y182587D03*
X113030Y207987D03*
X64770Y207987D03*
X113030Y233387D03*
X64770Y233387D03*
X113030Y258787D03*
X64770Y258787D03*
X113030Y284187D03*
X64770Y284187D03*
X113030Y309587D03*
X64770Y309587D03*
X113030Y334987D03*
X64770Y334987D03*
X113030Y360387D03*
X64770Y360387D03*
X113030Y385787D03*
X64770Y385787D03*
D31*
X195920Y884757D03*
X195920Y933017D03*
X221320Y884757D03*
X221320Y933017D03*
X246720Y884757D03*
X246720Y933017D03*
X272120Y884757D03*
X272120Y933017D03*
X297520Y884757D03*
X297520Y933017D03*
X322920Y884757D03*
X322920Y933017D03*
X348320Y884757D03*
X348320Y933017D03*
X373720Y884757D03*
X373720Y933017D03*
X399120Y884757D03*
X399120Y933017D03*
X424520Y884757D03*
X424520Y933017D03*
M02*
