G04 EAGLE Gerber RS-274X export*
G75*
%MOMM*%
%FSLAX34Y34*%
%LPD*%
%INSolder Mask bottom*%
%IPPOS*%
%AMOC8*
5,1,8,0,0,1.08239X$1,22.5*%
G01*
%ADD10C,0.152400*%
%ADD11C,1.270000*%
%ADD12C,0.000000*%
%ADD13C,3.403200*%
%ADD14C,1.011200*%
%ADD15C,1.803200*%
%ADD16R,2.903200X1.803200*%
%ADD17R,1.283200X1.253200*%
%ADD18R,1.253200X1.283200*%
%ADD19R,1.473200X3.251200*%
%ADD20R,1.473200X3.124200*%
%ADD21R,3.251200X1.473200*%
%ADD22C,1.059600*%
%ADD23C,1.009600*%


D10*
X0Y100000D02*
X0Y900000D01*
X100000Y1000000D02*
X900000Y1000000D01*
X1000000Y900000D02*
X1000000Y800000D01*
X1000000Y200000D02*
X1000000Y100000D01*
X900000Y0D02*
X100000Y0D01*
X0Y900000D02*
X29Y902416D01*
X117Y904831D01*
X263Y907243D01*
X467Y909651D01*
X729Y912054D01*
X1049Y914449D01*
X1427Y916836D01*
X1863Y919213D01*
X2356Y921578D01*
X2906Y923932D01*
X3512Y926271D01*
X4175Y928595D01*
X4894Y930902D01*
X5669Y933191D01*
X6498Y935460D01*
X7383Y937709D01*
X8321Y939936D01*
X9313Y942140D01*
X10357Y944319D01*
X11454Y946472D01*
X12603Y948598D01*
X13803Y950696D01*
X15053Y952764D01*
X16353Y954801D01*
X17702Y956806D01*
X19098Y958779D01*
X20542Y960716D01*
X22033Y962619D01*
X23568Y964484D01*
X25149Y966312D01*
X26773Y968102D01*
X28440Y969851D01*
X30149Y971560D01*
X31898Y973227D01*
X33688Y974851D01*
X35516Y976432D01*
X37381Y977967D01*
X39284Y979458D01*
X41221Y980902D01*
X43194Y982298D01*
X45199Y983647D01*
X47236Y984947D01*
X49304Y986197D01*
X51402Y987397D01*
X53528Y988546D01*
X55681Y989643D01*
X57860Y990687D01*
X60064Y991679D01*
X62291Y992617D01*
X64540Y993502D01*
X66809Y994331D01*
X69098Y995106D01*
X71405Y995825D01*
X73729Y996488D01*
X76068Y997094D01*
X78422Y997644D01*
X80787Y998137D01*
X83164Y998573D01*
X85551Y998951D01*
X87946Y999271D01*
X90349Y999533D01*
X92757Y999737D01*
X95169Y999883D01*
X97584Y999971D01*
X100000Y1000000D01*
X900000Y1000000D02*
X902416Y999971D01*
X904831Y999883D01*
X907243Y999737D01*
X909651Y999533D01*
X912054Y999271D01*
X914449Y998951D01*
X916836Y998573D01*
X919213Y998137D01*
X921578Y997644D01*
X923932Y997094D01*
X926271Y996488D01*
X928595Y995825D01*
X930902Y995106D01*
X933191Y994331D01*
X935460Y993502D01*
X937709Y992617D01*
X939936Y991679D01*
X942140Y990687D01*
X944319Y989643D01*
X946472Y988546D01*
X948598Y987397D01*
X950696Y986197D01*
X952764Y984947D01*
X954801Y983647D01*
X956806Y982298D01*
X958779Y980902D01*
X960716Y979458D01*
X962619Y977967D01*
X964484Y976432D01*
X966312Y974851D01*
X968102Y973227D01*
X969851Y971560D01*
X971560Y969851D01*
X973227Y968102D01*
X974851Y966312D01*
X976432Y964484D01*
X977967Y962619D01*
X979458Y960716D01*
X980902Y958779D01*
X982298Y956806D01*
X983647Y954801D01*
X984947Y952764D01*
X986197Y950696D01*
X987397Y948598D01*
X988546Y946472D01*
X989643Y944319D01*
X990687Y942140D01*
X991679Y939936D01*
X992617Y937709D01*
X993502Y935460D01*
X994331Y933191D01*
X995106Y930902D01*
X995825Y928595D01*
X996488Y926271D01*
X997094Y923932D01*
X997644Y921578D01*
X998137Y919213D01*
X998573Y916836D01*
X998951Y914449D01*
X999271Y912054D01*
X999533Y909651D01*
X999737Y907243D01*
X999883Y904831D01*
X999971Y902416D01*
X1000000Y900000D01*
X1000000Y100000D02*
X999971Y97584D01*
X999883Y95169D01*
X999737Y92757D01*
X999533Y90349D01*
X999271Y87946D01*
X998951Y85551D01*
X998573Y83164D01*
X998137Y80787D01*
X997644Y78422D01*
X997094Y76068D01*
X996488Y73729D01*
X995825Y71405D01*
X995106Y69098D01*
X994331Y66809D01*
X993502Y64540D01*
X992617Y62291D01*
X991679Y60064D01*
X990687Y57860D01*
X989643Y55681D01*
X988546Y53528D01*
X987397Y51402D01*
X986197Y49304D01*
X984947Y47236D01*
X983647Y45199D01*
X982298Y43194D01*
X980902Y41221D01*
X979458Y39284D01*
X977967Y37381D01*
X976432Y35516D01*
X974851Y33688D01*
X973227Y31898D01*
X971560Y30149D01*
X969851Y28440D01*
X968102Y26773D01*
X966312Y25149D01*
X964484Y23568D01*
X962619Y22033D01*
X960716Y20542D01*
X958779Y19098D01*
X956806Y17702D01*
X954801Y16353D01*
X952764Y15053D01*
X950696Y13803D01*
X948598Y12603D01*
X946472Y11454D01*
X944319Y10357D01*
X942140Y9313D01*
X939936Y8321D01*
X937709Y7383D01*
X935460Y6498D01*
X933191Y5669D01*
X930902Y4894D01*
X928595Y4175D01*
X926271Y3512D01*
X923932Y2906D01*
X921578Y2356D01*
X919213Y1863D01*
X916836Y1427D01*
X914449Y1049D01*
X912054Y729D01*
X909651Y467D01*
X907243Y263D01*
X904831Y117D01*
X902416Y29D01*
X900000Y0D01*
X100000Y0D02*
X97584Y29D01*
X95169Y117D01*
X92757Y263D01*
X90349Y467D01*
X87946Y729D01*
X85551Y1049D01*
X83164Y1427D01*
X80787Y1863D01*
X78422Y2356D01*
X76068Y2906D01*
X73729Y3512D01*
X71405Y4175D01*
X69098Y4894D01*
X66809Y5669D01*
X64540Y6498D01*
X62291Y7383D01*
X60064Y8321D01*
X57860Y9313D01*
X55681Y10357D01*
X53528Y11454D01*
X51402Y12603D01*
X49304Y13803D01*
X47236Y15053D01*
X45199Y16353D01*
X43194Y17702D01*
X41221Y19098D01*
X39284Y20542D01*
X37381Y22033D01*
X35516Y23568D01*
X33688Y25149D01*
X31898Y26773D01*
X30149Y28440D01*
X28440Y30149D01*
X26773Y31898D01*
X25149Y33688D01*
X23568Y35516D01*
X22033Y37381D01*
X20542Y39284D01*
X19098Y41221D01*
X17702Y43194D01*
X16353Y45199D01*
X15053Y47236D01*
X13803Y49304D01*
X12603Y51402D01*
X11454Y53528D01*
X10357Y55681D01*
X9313Y57860D01*
X8321Y60064D01*
X7383Y62291D01*
X6498Y64540D01*
X5669Y66809D01*
X4894Y69098D01*
X4175Y71405D01*
X3512Y73729D01*
X2906Y76068D01*
X2356Y78422D01*
X1863Y80787D01*
X1427Y83164D01*
X1049Y85551D01*
X729Y87946D01*
X467Y90349D01*
X263Y92757D01*
X117Y95169D01*
X29Y97584D01*
X0Y100000D01*
X980000Y760000D02*
X1000000Y800000D01*
X980000Y760000D02*
X980000Y240000D01*
X1000000Y200000D01*
D11*
X161925Y866775D02*
X53975Y866775D01*
D12*
X64000Y920000D02*
X64005Y920393D01*
X64019Y920785D01*
X64043Y921177D01*
X64077Y921568D01*
X64120Y921959D01*
X64173Y922348D01*
X64236Y922735D01*
X64307Y923121D01*
X64389Y923506D01*
X64479Y923888D01*
X64580Y924267D01*
X64689Y924645D01*
X64808Y925019D01*
X64935Y925390D01*
X65072Y925758D01*
X65218Y926123D01*
X65373Y926484D01*
X65536Y926841D01*
X65708Y927194D01*
X65889Y927542D01*
X66079Y927886D01*
X66276Y928226D01*
X66482Y928560D01*
X66696Y928889D01*
X66919Y929213D01*
X67149Y929531D01*
X67386Y929844D01*
X67632Y930150D01*
X67885Y930451D01*
X68145Y930745D01*
X68412Y931033D01*
X68686Y931314D01*
X68967Y931588D01*
X69255Y931855D01*
X69549Y932115D01*
X69850Y932368D01*
X70156Y932614D01*
X70469Y932851D01*
X70787Y933081D01*
X71111Y933304D01*
X71440Y933518D01*
X71774Y933724D01*
X72114Y933921D01*
X72458Y934111D01*
X72806Y934292D01*
X73159Y934464D01*
X73516Y934627D01*
X73877Y934782D01*
X74242Y934928D01*
X74610Y935065D01*
X74981Y935192D01*
X75355Y935311D01*
X75733Y935420D01*
X76112Y935521D01*
X76494Y935611D01*
X76879Y935693D01*
X77265Y935764D01*
X77652Y935827D01*
X78041Y935880D01*
X78432Y935923D01*
X78823Y935957D01*
X79215Y935981D01*
X79607Y935995D01*
X80000Y936000D01*
X80393Y935995D01*
X80785Y935981D01*
X81177Y935957D01*
X81568Y935923D01*
X81959Y935880D01*
X82348Y935827D01*
X82735Y935764D01*
X83121Y935693D01*
X83506Y935611D01*
X83888Y935521D01*
X84267Y935420D01*
X84645Y935311D01*
X85019Y935192D01*
X85390Y935065D01*
X85758Y934928D01*
X86123Y934782D01*
X86484Y934627D01*
X86841Y934464D01*
X87194Y934292D01*
X87542Y934111D01*
X87886Y933921D01*
X88226Y933724D01*
X88560Y933518D01*
X88889Y933304D01*
X89213Y933081D01*
X89531Y932851D01*
X89844Y932614D01*
X90150Y932368D01*
X90451Y932115D01*
X90745Y931855D01*
X91033Y931588D01*
X91314Y931314D01*
X91588Y931033D01*
X91855Y930745D01*
X92115Y930451D01*
X92368Y930150D01*
X92614Y929844D01*
X92851Y929531D01*
X93081Y929213D01*
X93304Y928889D01*
X93518Y928560D01*
X93724Y928226D01*
X93921Y927886D01*
X94111Y927542D01*
X94292Y927194D01*
X94464Y926841D01*
X94627Y926484D01*
X94782Y926123D01*
X94928Y925758D01*
X95065Y925390D01*
X95192Y925019D01*
X95311Y924645D01*
X95420Y924267D01*
X95521Y923888D01*
X95611Y923506D01*
X95693Y923121D01*
X95764Y922735D01*
X95827Y922348D01*
X95880Y921959D01*
X95923Y921568D01*
X95957Y921177D01*
X95981Y920785D01*
X95995Y920393D01*
X96000Y920000D01*
X95995Y919607D01*
X95981Y919215D01*
X95957Y918823D01*
X95923Y918432D01*
X95880Y918041D01*
X95827Y917652D01*
X95764Y917265D01*
X95693Y916879D01*
X95611Y916494D01*
X95521Y916112D01*
X95420Y915733D01*
X95311Y915355D01*
X95192Y914981D01*
X95065Y914610D01*
X94928Y914242D01*
X94782Y913877D01*
X94627Y913516D01*
X94464Y913159D01*
X94292Y912806D01*
X94111Y912458D01*
X93921Y912114D01*
X93724Y911774D01*
X93518Y911440D01*
X93304Y911111D01*
X93081Y910787D01*
X92851Y910469D01*
X92614Y910156D01*
X92368Y909850D01*
X92115Y909549D01*
X91855Y909255D01*
X91588Y908967D01*
X91314Y908686D01*
X91033Y908412D01*
X90745Y908145D01*
X90451Y907885D01*
X90150Y907632D01*
X89844Y907386D01*
X89531Y907149D01*
X89213Y906919D01*
X88889Y906696D01*
X88560Y906482D01*
X88226Y906276D01*
X87886Y906079D01*
X87542Y905889D01*
X87194Y905708D01*
X86841Y905536D01*
X86484Y905373D01*
X86123Y905218D01*
X85758Y905072D01*
X85390Y904935D01*
X85019Y904808D01*
X84645Y904689D01*
X84267Y904580D01*
X83888Y904479D01*
X83506Y904389D01*
X83121Y904307D01*
X82735Y904236D01*
X82348Y904173D01*
X81959Y904120D01*
X81568Y904077D01*
X81177Y904043D01*
X80785Y904019D01*
X80393Y904005D01*
X80000Y904000D01*
X79607Y904005D01*
X79215Y904019D01*
X78823Y904043D01*
X78432Y904077D01*
X78041Y904120D01*
X77652Y904173D01*
X77265Y904236D01*
X76879Y904307D01*
X76494Y904389D01*
X76112Y904479D01*
X75733Y904580D01*
X75355Y904689D01*
X74981Y904808D01*
X74610Y904935D01*
X74242Y905072D01*
X73877Y905218D01*
X73516Y905373D01*
X73159Y905536D01*
X72806Y905708D01*
X72458Y905889D01*
X72114Y906079D01*
X71774Y906276D01*
X71440Y906482D01*
X71111Y906696D01*
X70787Y906919D01*
X70469Y907149D01*
X70156Y907386D01*
X69850Y907632D01*
X69549Y907885D01*
X69255Y908145D01*
X68967Y908412D01*
X68686Y908686D01*
X68412Y908967D01*
X68145Y909255D01*
X67885Y909549D01*
X67632Y909850D01*
X67386Y910156D01*
X67149Y910469D01*
X66919Y910787D01*
X66696Y911111D01*
X66482Y911440D01*
X66276Y911774D01*
X66079Y912114D01*
X65889Y912458D01*
X65708Y912806D01*
X65536Y913159D01*
X65373Y913516D01*
X65218Y913877D01*
X65072Y914242D01*
X64935Y914610D01*
X64808Y914981D01*
X64689Y915355D01*
X64580Y915733D01*
X64479Y916112D01*
X64389Y916494D01*
X64307Y916879D01*
X64236Y917265D01*
X64173Y917652D01*
X64120Y918041D01*
X64077Y918432D01*
X64043Y918823D01*
X64019Y919215D01*
X64005Y919607D01*
X64000Y920000D01*
D13*
X80000Y920000D03*
D12*
X64000Y80000D02*
X64005Y80393D01*
X64019Y80785D01*
X64043Y81177D01*
X64077Y81568D01*
X64120Y81959D01*
X64173Y82348D01*
X64236Y82735D01*
X64307Y83121D01*
X64389Y83506D01*
X64479Y83888D01*
X64580Y84267D01*
X64689Y84645D01*
X64808Y85019D01*
X64935Y85390D01*
X65072Y85758D01*
X65218Y86123D01*
X65373Y86484D01*
X65536Y86841D01*
X65708Y87194D01*
X65889Y87542D01*
X66079Y87886D01*
X66276Y88226D01*
X66482Y88560D01*
X66696Y88889D01*
X66919Y89213D01*
X67149Y89531D01*
X67386Y89844D01*
X67632Y90150D01*
X67885Y90451D01*
X68145Y90745D01*
X68412Y91033D01*
X68686Y91314D01*
X68967Y91588D01*
X69255Y91855D01*
X69549Y92115D01*
X69850Y92368D01*
X70156Y92614D01*
X70469Y92851D01*
X70787Y93081D01*
X71111Y93304D01*
X71440Y93518D01*
X71774Y93724D01*
X72114Y93921D01*
X72458Y94111D01*
X72806Y94292D01*
X73159Y94464D01*
X73516Y94627D01*
X73877Y94782D01*
X74242Y94928D01*
X74610Y95065D01*
X74981Y95192D01*
X75355Y95311D01*
X75733Y95420D01*
X76112Y95521D01*
X76494Y95611D01*
X76879Y95693D01*
X77265Y95764D01*
X77652Y95827D01*
X78041Y95880D01*
X78432Y95923D01*
X78823Y95957D01*
X79215Y95981D01*
X79607Y95995D01*
X80000Y96000D01*
X80393Y95995D01*
X80785Y95981D01*
X81177Y95957D01*
X81568Y95923D01*
X81959Y95880D01*
X82348Y95827D01*
X82735Y95764D01*
X83121Y95693D01*
X83506Y95611D01*
X83888Y95521D01*
X84267Y95420D01*
X84645Y95311D01*
X85019Y95192D01*
X85390Y95065D01*
X85758Y94928D01*
X86123Y94782D01*
X86484Y94627D01*
X86841Y94464D01*
X87194Y94292D01*
X87542Y94111D01*
X87886Y93921D01*
X88226Y93724D01*
X88560Y93518D01*
X88889Y93304D01*
X89213Y93081D01*
X89531Y92851D01*
X89844Y92614D01*
X90150Y92368D01*
X90451Y92115D01*
X90745Y91855D01*
X91033Y91588D01*
X91314Y91314D01*
X91588Y91033D01*
X91855Y90745D01*
X92115Y90451D01*
X92368Y90150D01*
X92614Y89844D01*
X92851Y89531D01*
X93081Y89213D01*
X93304Y88889D01*
X93518Y88560D01*
X93724Y88226D01*
X93921Y87886D01*
X94111Y87542D01*
X94292Y87194D01*
X94464Y86841D01*
X94627Y86484D01*
X94782Y86123D01*
X94928Y85758D01*
X95065Y85390D01*
X95192Y85019D01*
X95311Y84645D01*
X95420Y84267D01*
X95521Y83888D01*
X95611Y83506D01*
X95693Y83121D01*
X95764Y82735D01*
X95827Y82348D01*
X95880Y81959D01*
X95923Y81568D01*
X95957Y81177D01*
X95981Y80785D01*
X95995Y80393D01*
X96000Y80000D01*
X95995Y79607D01*
X95981Y79215D01*
X95957Y78823D01*
X95923Y78432D01*
X95880Y78041D01*
X95827Y77652D01*
X95764Y77265D01*
X95693Y76879D01*
X95611Y76494D01*
X95521Y76112D01*
X95420Y75733D01*
X95311Y75355D01*
X95192Y74981D01*
X95065Y74610D01*
X94928Y74242D01*
X94782Y73877D01*
X94627Y73516D01*
X94464Y73159D01*
X94292Y72806D01*
X94111Y72458D01*
X93921Y72114D01*
X93724Y71774D01*
X93518Y71440D01*
X93304Y71111D01*
X93081Y70787D01*
X92851Y70469D01*
X92614Y70156D01*
X92368Y69850D01*
X92115Y69549D01*
X91855Y69255D01*
X91588Y68967D01*
X91314Y68686D01*
X91033Y68412D01*
X90745Y68145D01*
X90451Y67885D01*
X90150Y67632D01*
X89844Y67386D01*
X89531Y67149D01*
X89213Y66919D01*
X88889Y66696D01*
X88560Y66482D01*
X88226Y66276D01*
X87886Y66079D01*
X87542Y65889D01*
X87194Y65708D01*
X86841Y65536D01*
X86484Y65373D01*
X86123Y65218D01*
X85758Y65072D01*
X85390Y64935D01*
X85019Y64808D01*
X84645Y64689D01*
X84267Y64580D01*
X83888Y64479D01*
X83506Y64389D01*
X83121Y64307D01*
X82735Y64236D01*
X82348Y64173D01*
X81959Y64120D01*
X81568Y64077D01*
X81177Y64043D01*
X80785Y64019D01*
X80393Y64005D01*
X80000Y64000D01*
X79607Y64005D01*
X79215Y64019D01*
X78823Y64043D01*
X78432Y64077D01*
X78041Y64120D01*
X77652Y64173D01*
X77265Y64236D01*
X76879Y64307D01*
X76494Y64389D01*
X76112Y64479D01*
X75733Y64580D01*
X75355Y64689D01*
X74981Y64808D01*
X74610Y64935D01*
X74242Y65072D01*
X73877Y65218D01*
X73516Y65373D01*
X73159Y65536D01*
X72806Y65708D01*
X72458Y65889D01*
X72114Y66079D01*
X71774Y66276D01*
X71440Y66482D01*
X71111Y66696D01*
X70787Y66919D01*
X70469Y67149D01*
X70156Y67386D01*
X69850Y67632D01*
X69549Y67885D01*
X69255Y68145D01*
X68967Y68412D01*
X68686Y68686D01*
X68412Y68967D01*
X68145Y69255D01*
X67885Y69549D01*
X67632Y69850D01*
X67386Y70156D01*
X67149Y70469D01*
X66919Y70787D01*
X66696Y71111D01*
X66482Y71440D01*
X66276Y71774D01*
X66079Y72114D01*
X65889Y72458D01*
X65708Y72806D01*
X65536Y73159D01*
X65373Y73516D01*
X65218Y73877D01*
X65072Y74242D01*
X64935Y74610D01*
X64808Y74981D01*
X64689Y75355D01*
X64580Y75733D01*
X64479Y76112D01*
X64389Y76494D01*
X64307Y76879D01*
X64236Y77265D01*
X64173Y77652D01*
X64120Y78041D01*
X64077Y78432D01*
X64043Y78823D01*
X64019Y79215D01*
X64005Y79607D01*
X64000Y80000D01*
D13*
X80000Y80000D03*
D12*
X904000Y80000D02*
X904005Y80393D01*
X904019Y80785D01*
X904043Y81177D01*
X904077Y81568D01*
X904120Y81959D01*
X904173Y82348D01*
X904236Y82735D01*
X904307Y83121D01*
X904389Y83506D01*
X904479Y83888D01*
X904580Y84267D01*
X904689Y84645D01*
X904808Y85019D01*
X904935Y85390D01*
X905072Y85758D01*
X905218Y86123D01*
X905373Y86484D01*
X905536Y86841D01*
X905708Y87194D01*
X905889Y87542D01*
X906079Y87886D01*
X906276Y88226D01*
X906482Y88560D01*
X906696Y88889D01*
X906919Y89213D01*
X907149Y89531D01*
X907386Y89844D01*
X907632Y90150D01*
X907885Y90451D01*
X908145Y90745D01*
X908412Y91033D01*
X908686Y91314D01*
X908967Y91588D01*
X909255Y91855D01*
X909549Y92115D01*
X909850Y92368D01*
X910156Y92614D01*
X910469Y92851D01*
X910787Y93081D01*
X911111Y93304D01*
X911440Y93518D01*
X911774Y93724D01*
X912114Y93921D01*
X912458Y94111D01*
X912806Y94292D01*
X913159Y94464D01*
X913516Y94627D01*
X913877Y94782D01*
X914242Y94928D01*
X914610Y95065D01*
X914981Y95192D01*
X915355Y95311D01*
X915733Y95420D01*
X916112Y95521D01*
X916494Y95611D01*
X916879Y95693D01*
X917265Y95764D01*
X917652Y95827D01*
X918041Y95880D01*
X918432Y95923D01*
X918823Y95957D01*
X919215Y95981D01*
X919607Y95995D01*
X920000Y96000D01*
X920393Y95995D01*
X920785Y95981D01*
X921177Y95957D01*
X921568Y95923D01*
X921959Y95880D01*
X922348Y95827D01*
X922735Y95764D01*
X923121Y95693D01*
X923506Y95611D01*
X923888Y95521D01*
X924267Y95420D01*
X924645Y95311D01*
X925019Y95192D01*
X925390Y95065D01*
X925758Y94928D01*
X926123Y94782D01*
X926484Y94627D01*
X926841Y94464D01*
X927194Y94292D01*
X927542Y94111D01*
X927886Y93921D01*
X928226Y93724D01*
X928560Y93518D01*
X928889Y93304D01*
X929213Y93081D01*
X929531Y92851D01*
X929844Y92614D01*
X930150Y92368D01*
X930451Y92115D01*
X930745Y91855D01*
X931033Y91588D01*
X931314Y91314D01*
X931588Y91033D01*
X931855Y90745D01*
X932115Y90451D01*
X932368Y90150D01*
X932614Y89844D01*
X932851Y89531D01*
X933081Y89213D01*
X933304Y88889D01*
X933518Y88560D01*
X933724Y88226D01*
X933921Y87886D01*
X934111Y87542D01*
X934292Y87194D01*
X934464Y86841D01*
X934627Y86484D01*
X934782Y86123D01*
X934928Y85758D01*
X935065Y85390D01*
X935192Y85019D01*
X935311Y84645D01*
X935420Y84267D01*
X935521Y83888D01*
X935611Y83506D01*
X935693Y83121D01*
X935764Y82735D01*
X935827Y82348D01*
X935880Y81959D01*
X935923Y81568D01*
X935957Y81177D01*
X935981Y80785D01*
X935995Y80393D01*
X936000Y80000D01*
X935995Y79607D01*
X935981Y79215D01*
X935957Y78823D01*
X935923Y78432D01*
X935880Y78041D01*
X935827Y77652D01*
X935764Y77265D01*
X935693Y76879D01*
X935611Y76494D01*
X935521Y76112D01*
X935420Y75733D01*
X935311Y75355D01*
X935192Y74981D01*
X935065Y74610D01*
X934928Y74242D01*
X934782Y73877D01*
X934627Y73516D01*
X934464Y73159D01*
X934292Y72806D01*
X934111Y72458D01*
X933921Y72114D01*
X933724Y71774D01*
X933518Y71440D01*
X933304Y71111D01*
X933081Y70787D01*
X932851Y70469D01*
X932614Y70156D01*
X932368Y69850D01*
X932115Y69549D01*
X931855Y69255D01*
X931588Y68967D01*
X931314Y68686D01*
X931033Y68412D01*
X930745Y68145D01*
X930451Y67885D01*
X930150Y67632D01*
X929844Y67386D01*
X929531Y67149D01*
X929213Y66919D01*
X928889Y66696D01*
X928560Y66482D01*
X928226Y66276D01*
X927886Y66079D01*
X927542Y65889D01*
X927194Y65708D01*
X926841Y65536D01*
X926484Y65373D01*
X926123Y65218D01*
X925758Y65072D01*
X925390Y64935D01*
X925019Y64808D01*
X924645Y64689D01*
X924267Y64580D01*
X923888Y64479D01*
X923506Y64389D01*
X923121Y64307D01*
X922735Y64236D01*
X922348Y64173D01*
X921959Y64120D01*
X921568Y64077D01*
X921177Y64043D01*
X920785Y64019D01*
X920393Y64005D01*
X920000Y64000D01*
X919607Y64005D01*
X919215Y64019D01*
X918823Y64043D01*
X918432Y64077D01*
X918041Y64120D01*
X917652Y64173D01*
X917265Y64236D01*
X916879Y64307D01*
X916494Y64389D01*
X916112Y64479D01*
X915733Y64580D01*
X915355Y64689D01*
X914981Y64808D01*
X914610Y64935D01*
X914242Y65072D01*
X913877Y65218D01*
X913516Y65373D01*
X913159Y65536D01*
X912806Y65708D01*
X912458Y65889D01*
X912114Y66079D01*
X911774Y66276D01*
X911440Y66482D01*
X911111Y66696D01*
X910787Y66919D01*
X910469Y67149D01*
X910156Y67386D01*
X909850Y67632D01*
X909549Y67885D01*
X909255Y68145D01*
X908967Y68412D01*
X908686Y68686D01*
X908412Y68967D01*
X908145Y69255D01*
X907885Y69549D01*
X907632Y69850D01*
X907386Y70156D01*
X907149Y70469D01*
X906919Y70787D01*
X906696Y71111D01*
X906482Y71440D01*
X906276Y71774D01*
X906079Y72114D01*
X905889Y72458D01*
X905708Y72806D01*
X905536Y73159D01*
X905373Y73516D01*
X905218Y73877D01*
X905072Y74242D01*
X904935Y74610D01*
X904808Y74981D01*
X904689Y75355D01*
X904580Y75733D01*
X904479Y76112D01*
X904389Y76494D01*
X904307Y76879D01*
X904236Y77265D01*
X904173Y77652D01*
X904120Y78041D01*
X904077Y78432D01*
X904043Y78823D01*
X904019Y79215D01*
X904005Y79607D01*
X904000Y80000D01*
D13*
X920000Y80000D03*
D12*
X904000Y920000D02*
X904005Y920393D01*
X904019Y920785D01*
X904043Y921177D01*
X904077Y921568D01*
X904120Y921959D01*
X904173Y922348D01*
X904236Y922735D01*
X904307Y923121D01*
X904389Y923506D01*
X904479Y923888D01*
X904580Y924267D01*
X904689Y924645D01*
X904808Y925019D01*
X904935Y925390D01*
X905072Y925758D01*
X905218Y926123D01*
X905373Y926484D01*
X905536Y926841D01*
X905708Y927194D01*
X905889Y927542D01*
X906079Y927886D01*
X906276Y928226D01*
X906482Y928560D01*
X906696Y928889D01*
X906919Y929213D01*
X907149Y929531D01*
X907386Y929844D01*
X907632Y930150D01*
X907885Y930451D01*
X908145Y930745D01*
X908412Y931033D01*
X908686Y931314D01*
X908967Y931588D01*
X909255Y931855D01*
X909549Y932115D01*
X909850Y932368D01*
X910156Y932614D01*
X910469Y932851D01*
X910787Y933081D01*
X911111Y933304D01*
X911440Y933518D01*
X911774Y933724D01*
X912114Y933921D01*
X912458Y934111D01*
X912806Y934292D01*
X913159Y934464D01*
X913516Y934627D01*
X913877Y934782D01*
X914242Y934928D01*
X914610Y935065D01*
X914981Y935192D01*
X915355Y935311D01*
X915733Y935420D01*
X916112Y935521D01*
X916494Y935611D01*
X916879Y935693D01*
X917265Y935764D01*
X917652Y935827D01*
X918041Y935880D01*
X918432Y935923D01*
X918823Y935957D01*
X919215Y935981D01*
X919607Y935995D01*
X920000Y936000D01*
X920393Y935995D01*
X920785Y935981D01*
X921177Y935957D01*
X921568Y935923D01*
X921959Y935880D01*
X922348Y935827D01*
X922735Y935764D01*
X923121Y935693D01*
X923506Y935611D01*
X923888Y935521D01*
X924267Y935420D01*
X924645Y935311D01*
X925019Y935192D01*
X925390Y935065D01*
X925758Y934928D01*
X926123Y934782D01*
X926484Y934627D01*
X926841Y934464D01*
X927194Y934292D01*
X927542Y934111D01*
X927886Y933921D01*
X928226Y933724D01*
X928560Y933518D01*
X928889Y933304D01*
X929213Y933081D01*
X929531Y932851D01*
X929844Y932614D01*
X930150Y932368D01*
X930451Y932115D01*
X930745Y931855D01*
X931033Y931588D01*
X931314Y931314D01*
X931588Y931033D01*
X931855Y930745D01*
X932115Y930451D01*
X932368Y930150D01*
X932614Y929844D01*
X932851Y929531D01*
X933081Y929213D01*
X933304Y928889D01*
X933518Y928560D01*
X933724Y928226D01*
X933921Y927886D01*
X934111Y927542D01*
X934292Y927194D01*
X934464Y926841D01*
X934627Y926484D01*
X934782Y926123D01*
X934928Y925758D01*
X935065Y925390D01*
X935192Y925019D01*
X935311Y924645D01*
X935420Y924267D01*
X935521Y923888D01*
X935611Y923506D01*
X935693Y923121D01*
X935764Y922735D01*
X935827Y922348D01*
X935880Y921959D01*
X935923Y921568D01*
X935957Y921177D01*
X935981Y920785D01*
X935995Y920393D01*
X936000Y920000D01*
X935995Y919607D01*
X935981Y919215D01*
X935957Y918823D01*
X935923Y918432D01*
X935880Y918041D01*
X935827Y917652D01*
X935764Y917265D01*
X935693Y916879D01*
X935611Y916494D01*
X935521Y916112D01*
X935420Y915733D01*
X935311Y915355D01*
X935192Y914981D01*
X935065Y914610D01*
X934928Y914242D01*
X934782Y913877D01*
X934627Y913516D01*
X934464Y913159D01*
X934292Y912806D01*
X934111Y912458D01*
X933921Y912114D01*
X933724Y911774D01*
X933518Y911440D01*
X933304Y911111D01*
X933081Y910787D01*
X932851Y910469D01*
X932614Y910156D01*
X932368Y909850D01*
X932115Y909549D01*
X931855Y909255D01*
X931588Y908967D01*
X931314Y908686D01*
X931033Y908412D01*
X930745Y908145D01*
X930451Y907885D01*
X930150Y907632D01*
X929844Y907386D01*
X929531Y907149D01*
X929213Y906919D01*
X928889Y906696D01*
X928560Y906482D01*
X928226Y906276D01*
X927886Y906079D01*
X927542Y905889D01*
X927194Y905708D01*
X926841Y905536D01*
X926484Y905373D01*
X926123Y905218D01*
X925758Y905072D01*
X925390Y904935D01*
X925019Y904808D01*
X924645Y904689D01*
X924267Y904580D01*
X923888Y904479D01*
X923506Y904389D01*
X923121Y904307D01*
X922735Y904236D01*
X922348Y904173D01*
X921959Y904120D01*
X921568Y904077D01*
X921177Y904043D01*
X920785Y904019D01*
X920393Y904005D01*
X920000Y904000D01*
X919607Y904005D01*
X919215Y904019D01*
X918823Y904043D01*
X918432Y904077D01*
X918041Y904120D01*
X917652Y904173D01*
X917265Y904236D01*
X916879Y904307D01*
X916494Y904389D01*
X916112Y904479D01*
X915733Y904580D01*
X915355Y904689D01*
X914981Y904808D01*
X914610Y904935D01*
X914242Y905072D01*
X913877Y905218D01*
X913516Y905373D01*
X913159Y905536D01*
X912806Y905708D01*
X912458Y905889D01*
X912114Y906079D01*
X911774Y906276D01*
X911440Y906482D01*
X911111Y906696D01*
X910787Y906919D01*
X910469Y907149D01*
X910156Y907386D01*
X909850Y907632D01*
X909549Y907885D01*
X909255Y908145D01*
X908967Y908412D01*
X908686Y908686D01*
X908412Y908967D01*
X908145Y909255D01*
X907885Y909549D01*
X907632Y909850D01*
X907386Y910156D01*
X907149Y910469D01*
X906919Y910787D01*
X906696Y911111D01*
X906482Y911440D01*
X906276Y911774D01*
X906079Y912114D01*
X905889Y912458D01*
X905708Y912806D01*
X905536Y913159D01*
X905373Y913516D01*
X905218Y913877D01*
X905072Y914242D01*
X904935Y914610D01*
X904808Y914981D01*
X904689Y915355D01*
X904580Y915733D01*
X904479Y916112D01*
X904389Y916494D01*
X904307Y916879D01*
X904236Y917265D01*
X904173Y917652D01*
X904120Y918041D01*
X904077Y918432D01*
X904043Y918823D01*
X904019Y919215D01*
X904005Y919607D01*
X904000Y920000D01*
D13*
X920000Y920000D03*
D14*
X349250Y679450D03*
X336550Y679450D03*
X349250Y692150D03*
X336550Y692150D03*
X349250Y704850D03*
X336550Y704850D03*
D15*
X254000Y704813D03*
X254000Y739813D03*
D16*
X311150Y709900D03*
X311150Y737900D03*
D17*
X288925Y688200D03*
X288925Y670700D03*
D16*
X279400Y709900D03*
X279400Y737900D03*
D14*
X622300Y571500D03*
X609600Y571500D03*
X622300Y584200D03*
X609600Y584200D03*
X622300Y596900D03*
X609600Y596900D03*
D15*
X527050Y596863D03*
X527050Y631863D03*
D16*
X492125Y601950D03*
X492125Y629950D03*
D18*
X550050Y574675D03*
X567550Y574675D03*
D16*
X555625Y601950D03*
X555625Y629950D03*
D14*
X349250Y488950D03*
X336550Y488950D03*
X349250Y501650D03*
X336550Y501650D03*
X349250Y514350D03*
X336550Y514350D03*
D15*
X254000Y514313D03*
X254000Y549313D03*
D16*
X219075Y532100D03*
X219075Y560100D03*
D18*
X277000Y492125D03*
X294500Y492125D03*
D16*
X282575Y519400D03*
X282575Y547400D03*
D14*
X349250Y298450D03*
X336550Y298450D03*
X349250Y311150D03*
X336550Y311150D03*
X349250Y323850D03*
X336550Y323850D03*
D15*
X254000Y323813D03*
X254000Y358813D03*
D16*
X219075Y335250D03*
X219075Y363250D03*
D18*
X277000Y301625D03*
X294500Y301625D03*
D16*
X282575Y328900D03*
X282575Y356900D03*
D14*
X349250Y107950D03*
X336550Y107950D03*
X349250Y120650D03*
X336550Y120650D03*
X349250Y133350D03*
X336550Y133350D03*
D15*
X254000Y133313D03*
X254000Y168313D03*
D16*
X228600Y138400D03*
X228600Y166400D03*
D18*
X277000Y111125D03*
X294500Y111125D03*
D16*
X282575Y138400D03*
X282575Y166400D03*
D14*
X622300Y762000D03*
X609600Y762000D03*
X622300Y774700D03*
X609600Y774700D03*
X622300Y787400D03*
X609600Y787400D03*
D15*
X527050Y787363D03*
X527050Y822363D03*
D16*
X492125Y792450D03*
X492125Y820450D03*
D18*
X550050Y765175D03*
X567550Y765175D03*
D16*
X555625Y792450D03*
X555625Y820450D03*
D14*
X622300Y203200D03*
X609600Y203200D03*
X622300Y215900D03*
X609600Y215900D03*
X622300Y228600D03*
X609600Y228600D03*
D15*
X527050Y228563D03*
X527050Y263563D03*
D16*
X501650Y259050D03*
X501650Y287050D03*
D18*
X550050Y206375D03*
X567550Y206375D03*
D16*
X555625Y233650D03*
X555625Y261650D03*
D19*
X622300Y932180D03*
X622300Y883920D03*
X647700Y932180D03*
X647700Y883920D03*
X673100Y932180D03*
X673100Y883920D03*
X698500Y932180D03*
X698500Y883920D03*
X723900Y932180D03*
X723900Y883920D03*
X749300Y932180D03*
X749300Y883920D03*
X774700Y932180D03*
X774700Y883920D03*
X800100Y932180D03*
X800100Y883920D03*
X825500Y932180D03*
X825500Y883920D03*
X850900Y932180D03*
X850900Y883920D03*
D20*
X596900Y470217D03*
X596900Y418782D03*
X571500Y470217D03*
X571500Y418782D03*
X546100Y470217D03*
X546100Y418782D03*
X520700Y470217D03*
X520700Y418782D03*
X495300Y470217D03*
X495300Y418782D03*
D15*
X463550Y93700D03*
X463550Y58700D03*
X733425Y808000D03*
X733425Y843000D03*
D17*
X673100Y635775D03*
X673100Y653275D03*
X374650Y740550D03*
X374650Y758050D03*
D18*
X373875Y539750D03*
X356375Y539750D03*
D17*
X371475Y316725D03*
X371475Y299225D03*
X371475Y138925D03*
X371475Y121425D03*
X644525Y792975D03*
X644525Y775475D03*
X644525Y224650D03*
X644525Y207150D03*
D21*
X64770Y157187D03*
X113030Y157187D03*
X64770Y182587D03*
X113030Y182587D03*
X64770Y207987D03*
X113030Y207987D03*
X64770Y233387D03*
X113030Y233387D03*
X64770Y258787D03*
X113030Y258787D03*
X64770Y284187D03*
X113030Y284187D03*
X64770Y309587D03*
X113030Y309587D03*
X64770Y334987D03*
X113030Y334987D03*
X64770Y360387D03*
X113030Y360387D03*
X64770Y385787D03*
X113030Y385787D03*
X113030Y843527D03*
X64770Y843527D03*
X113030Y818127D03*
X64770Y818127D03*
X113030Y792727D03*
X64770Y792727D03*
X113030Y767327D03*
X64770Y767327D03*
X113030Y741927D03*
X64770Y741927D03*
X113030Y716527D03*
X64770Y716527D03*
X113030Y691127D03*
X64770Y691127D03*
X113030Y665727D03*
X64770Y665727D03*
X113030Y640327D03*
X64770Y640327D03*
X113030Y614927D03*
X64770Y614927D03*
D19*
X195920Y933017D03*
X195920Y884757D03*
X221320Y933017D03*
X221320Y884757D03*
X246720Y933017D03*
X246720Y884757D03*
X272120Y933017D03*
X272120Y884757D03*
X297520Y933017D03*
X297520Y884757D03*
X322920Y933017D03*
X322920Y884757D03*
X348320Y933017D03*
X348320Y884757D03*
X373720Y933017D03*
X373720Y884757D03*
X399120Y933017D03*
X399120Y884757D03*
X424520Y933017D03*
X424520Y884757D03*
D22*
X42863Y634987D03*
X134938Y634987D03*
X42863Y646100D03*
X134938Y646100D03*
X42863Y303994D03*
X42863Y315106D03*
X42863Y188106D03*
X42863Y176994D03*
X42863Y162706D03*
X42863Y151594D03*
D23*
X134938Y812787D03*
X134938Y838187D03*
X134938Y823900D03*
X147638Y837870D03*
D22*
X134938Y736587D03*
X134938Y747700D03*
X42863Y747700D03*
X42863Y736587D03*
D23*
X42863Y838187D03*
X42863Y812787D03*
X42863Y849300D03*
X42863Y823900D03*
D22*
X134938Y685787D03*
X134938Y696900D03*
X42863Y696900D03*
X42863Y685787D03*
X134938Y202394D03*
X134938Y213506D03*
X42863Y202394D03*
X42863Y213506D03*
X42863Y380194D03*
X42863Y354794D03*
X42863Y391306D03*
X42863Y365906D03*
X134938Y329394D03*
X134938Y340506D03*
X42863Y340506D03*
X42863Y329394D03*
X134938Y151594D03*
X134938Y162706D03*
X134938Y176994D03*
X134938Y188106D03*
X42863Y761987D03*
X42863Y773100D03*
D23*
X42863Y787387D03*
X42863Y798500D03*
D22*
X42863Y609587D03*
X42863Y620700D03*
X134938Y609587D03*
X134938Y620700D03*
X42863Y660387D03*
X42863Y671500D03*
X134938Y671500D03*
X134938Y660387D03*
X42863Y711187D03*
X134938Y711187D03*
X42863Y722300D03*
X134938Y722300D03*
X134938Y773100D03*
X134938Y761987D03*
X42863Y227794D03*
X42863Y238906D03*
X134938Y253194D03*
X134938Y264306D03*
X134938Y278594D03*
X134938Y289706D03*
X134938Y354794D03*
X134938Y365906D03*
X134938Y380194D03*
X134938Y391306D03*
X134938Y238906D03*
X134938Y227794D03*
X134938Y315106D03*
X134938Y303994D03*
X42863Y278594D03*
X42863Y288912D03*
X42863Y264306D03*
X42863Y253194D03*
X134938Y798500D03*
X134938Y787387D03*
M02*
