G04 EAGLE Gerber RS-274X export*
G75*
%MOMM*%
%FSLAX34Y34*%
%LPD*%
%INSilk bottom*%
%IPPOS*%
%AMOC8*
5,1,8,0,0,1.08239X$1,22.5*%
G01*
%ADD10C,0.152400*%
%ADD11R,0.033019X0.016512*%
%ADD12R,0.049525X0.016506*%
%ADD13R,0.033019X0.016506*%
%ADD14R,0.066037X0.016506*%
%ADD15R,0.082550X0.016506*%
%ADD16R,0.115569X0.016512*%
%ADD17R,0.132075X0.016506*%
%ADD18R,0.132081X0.016506*%
%ADD19R,0.148588X0.016506*%
%ADD20R,0.165100X0.016506*%
%ADD21R,0.181606X0.016506*%
%ADD22R,0.181613X0.016506*%
%ADD23R,0.198119X0.016512*%
%ADD24R,0.181613X0.016512*%
%ADD25R,0.198119X0.016506*%
%ADD26R,0.214631X0.016506*%
%ADD27R,0.231138X0.016506*%
%ADD28R,0.875031X0.016506*%
%ADD29R,0.247650X0.016506*%
%ADD30R,0.264163X0.016506*%
%ADD31R,0.280669X0.016506*%
%ADD32R,0.264156X0.016506*%
%ADD33R,0.297181X0.016512*%
%ADD34R,0.875031X0.016512*%
%ADD35R,0.264156X0.016512*%
%ADD36R,0.313688X0.016506*%
%ADD37R,0.297175X0.016506*%
%ADD38R,0.330200X0.016506*%
%ADD39R,0.346706X0.016506*%
%ADD40R,0.363219X0.016512*%
%ADD41R,0.346706X0.016512*%
%ADD42R,0.363219X0.016506*%
%ADD43R,0.412750X0.016506*%
%ADD44R,0.429256X0.016506*%
%ADD45R,0.462281X0.016506*%
%ADD46R,0.445769X0.016506*%
%ADD47R,0.462281X0.016512*%
%ADD48R,0.462275X0.016512*%
%ADD49R,0.478788X0.016506*%
%ADD50R,0.511813X0.016506*%
%ADD51R,0.495300X0.016506*%
%ADD52R,0.528319X0.016512*%
%ADD53R,0.577850X0.016506*%
%ADD54R,0.561338X0.016506*%
%ADD55R,0.594363X0.016506*%
%ADD56R,0.594356X0.016506*%
%ADD57R,0.610869X0.016506*%
%ADD58R,1.485900X0.016506*%
%ADD59R,2.113281X0.016512*%
%ADD60R,2.113281X0.016506*%
%ADD61R,2.096769X0.016506*%
%ADD62R,2.080256X0.016506*%
%ADD63R,2.080256X0.016512*%
%ADD64R,2.063750X0.016506*%
%ADD65R,2.047238X0.016506*%
%ADD66R,2.030731X0.016512*%
%ADD67R,2.030731X0.016506*%
%ADD68R,2.014219X0.016506*%
%ADD69R,1.997706X0.016506*%
%ADD70R,1.981200X0.016506*%
%ADD71R,0.016512X0.016506*%
%ADD72R,1.981200X0.016512*%
%ADD73R,0.016512X0.016512*%
%ADD74R,1.948181X0.016506*%
%ADD75R,1.931669X0.016506*%
%ADD76R,1.915156X0.016506*%
%ADD77R,1.882138X0.016512*%
%ADD78R,1.882138X0.016506*%
%ADD79R,1.865631X0.016506*%
%ADD80R,1.849119X0.016506*%
%ADD81R,0.049531X0.016506*%
%ADD82R,1.832606X0.016506*%
%ADD83R,1.832606X0.016512*%
%ADD84R,1.816100X0.016506*%
%ADD85R,1.799588X0.016506*%
%ADD86R,1.783081X0.016506*%
%ADD87R,1.766569X0.016512*%
%ADD88R,1.766569X0.016506*%
%ADD89R,1.733550X0.016506*%
%ADD90R,1.717037X0.016506*%
%ADD91R,1.700531X0.016512*%
%ADD92R,1.684019X0.016506*%
%ADD93R,1.667506X0.016506*%
%ADD94R,1.651000X0.016506*%
%ADD95R,1.617981X0.016506*%
%ADD96R,1.617981X0.016512*%
%ADD97R,0.049531X0.016512*%
%ADD98R,1.584956X0.016506*%
%ADD99R,1.568450X0.016506*%
%ADD100R,1.551937X0.016512*%
%ADD101R,0.066037X0.016512*%
%ADD102R,1.518919X0.016506*%
%ADD103R,0.099056X0.016506*%
%ADD104R,1.502406X0.016506*%
%ADD105R,0.132081X0.016512*%
%ADD106R,1.502406X0.016512*%
%ADD107R,1.469388X0.016506*%
%ADD108R,1.452881X0.016506*%
%ADD109R,1.436369X0.016506*%
%ADD110R,1.403350X0.016512*%
%ADD111R,1.403350X0.016506*%
%ADD112R,1.386838X0.016506*%
%ADD113R,1.370331X0.016506*%
%ADD114R,1.353819X0.016506*%
%ADD115R,0.396238X0.016512*%
%ADD116R,1.353819X0.016512*%
%ADD117R,1.320800X0.016506*%
%ADD118R,1.304288X0.016506*%
%ADD119R,0.379731X0.016506*%
%ADD120R,1.271269X0.016506*%
%ADD121R,0.379725X0.016512*%
%ADD122R,1.254756X0.016512*%
%ADD123R,1.254756X0.016506*%
%ADD124R,1.221738X0.016506*%
%ADD125R,0.346713X0.016506*%
%ADD126R,0.330200X0.016512*%
%ADD127R,1.221738X0.016512*%
%ADD128R,0.082550X0.016512*%
%ADD129R,1.205231X0.016506*%
%ADD130R,1.188719X0.016506*%
%ADD131R,1.139188X0.016506*%
%ADD132R,0.297175X0.016512*%
%ADD133R,1.139188X0.016512*%
%ADD134R,1.106169X0.016506*%
%ADD135R,1.089656X0.016506*%
%ADD136R,0.099063X0.016506*%
%ADD137R,0.280669X0.016512*%
%ADD138R,1.073150X0.016512*%
%ADD139R,0.099056X0.016512*%
%ADD140R,1.040131X0.016506*%
%ADD141R,1.007106X0.016506*%
%ADD142R,0.990600X0.016506*%
%ADD143R,0.115569X0.016506*%
%ADD144R,0.990600X0.016512*%
%ADD145R,0.974087X0.016506*%
%ADD146R,0.297181X0.016506*%
%ADD147R,0.643888X0.016512*%
%ADD148R,0.610869X0.016512*%
%ADD149R,0.429256X0.016512*%
%ADD150R,0.974087X0.016512*%
%ADD151R,0.808988X0.016506*%
%ADD152R,0.825500X0.016506*%
%ADD153R,0.941069X0.016506*%
%ADD154R,0.924556X0.016506*%
%ADD155R,0.908050X0.016506*%
%ADD156R,0.957581X0.016506*%
%ADD157R,1.007113X0.016506*%
%ADD158R,0.528319X0.016506*%
%ADD159R,1.023619X0.016512*%
%ADD160R,0.346713X0.016512*%
%ADD161R,0.544831X0.016512*%
%ADD162R,1.007113X0.016512*%
%ADD163R,1.023619X0.016506*%
%ADD164R,0.544831X0.016506*%
%ADD165R,1.056638X0.016506*%
%ADD166R,1.073150X0.016506*%
%ADD167R,1.106169X0.016512*%
%ADD168R,1.122681X0.016512*%
%ADD169R,0.594356X0.016512*%
%ADD170R,1.089656X0.016512*%
%ADD171R,1.089662X0.016512*%
%ADD172R,1.122681X0.016506*%
%ADD173R,1.089662X0.016506*%
%ADD174R,0.511806X0.016506*%
%ADD175R,0.396238X0.016506*%
%ADD176R,0.379731X0.016512*%
%ADD177R,0.511806X0.016512*%
%ADD178R,0.462275X0.016506*%
%ADD179R,0.313688X0.016512*%
%ADD180R,0.561338X0.016512*%
%ADD181R,1.007106X0.016512*%
%ADD182R,0.132075X0.016512*%
%ADD183R,0.379725X0.016506*%
%ADD184R,0.759456X0.016506*%
%ADD185R,0.775969X0.016506*%
%ADD186R,0.875025X0.016512*%
%ADD187R,0.891538X0.016512*%
%ADD188R,0.957575X0.016506*%
%ADD189R,1.040131X0.016512*%
%ADD190R,1.040125X0.016506*%
%ADD191R,0.148588X0.016512*%
%ADD192R,0.908050X0.016512*%
%ADD193R,0.858519X0.016506*%
%ADD194R,0.742950X0.016506*%
%ADD195R,0.165100X0.016512*%
%ADD196R,0.016506X0.016512*%
%ADD197R,0.412750X0.016512*%
%ADD198R,0.511813X0.016512*%
%ADD199R,0.181606X0.016512*%
%ADD200R,0.660400X0.016506*%
%ADD201R,0.247650X0.016512*%
%ADD202R,0.709931X0.016512*%
%ADD203R,1.155700X0.016506*%
%ADD204R,0.627381X0.016506*%
%ADD205R,1.122675X0.016506*%
%ADD206R,2.129787X0.016506*%
%ADD207R,2.113275X0.016506*%
%ADD208R,0.627381X0.016512*%
%ADD209R,1.155700X0.016512*%
%ADD210R,0.842006X0.016506*%
%ADD211R,0.792475X0.016506*%
%ADD212R,1.040125X0.016512*%
%ADD213R,0.858519X0.016512*%
%ADD214R,0.231138X0.016512*%
%ADD215R,0.742950X0.016512*%
%ADD216R,0.759463X0.016512*%
%ADD217R,0.709931X0.016506*%
%ADD218R,0.693419X0.016506*%
%ADD219R,0.214625X0.016506*%
%ADD220R,0.627375X0.016506*%
%ADD221R,0.875025X0.016506*%
%ADD222R,0.544825X0.016506*%
%ADD223R,0.891538X0.016506*%
%ADD224R,0.643888X0.016506*%
%ADD225R,0.693419X0.016512*%
%ADD226R,0.709925X0.016512*%
%ADD227R,0.214625X0.016512*%
%ADD228R,0.445769X0.016512*%
%ADD229R,0.214631X0.016512*%
%ADD230R,1.056638X0.016512*%
%ADD231R,0.759463X0.016506*%
%ADD232R,0.792481X0.016506*%
%ADD233R,0.842006X0.016512*%
%ADD234R,0.627375X0.016512*%
%ADD235R,0.792481X0.016512*%
%ADD236R,0.842013X0.016506*%
%ADD237R,1.122675X0.016512*%
%ADD238R,0.957581X0.016512*%
%ADD239R,0.264163X0.016512*%
%ADD240R,1.205225X0.016506*%
%ADD241R,1.172206X0.016506*%
%ADD242R,1.188719X0.016512*%
%ADD243R,1.238250X0.016512*%
%ADD244R,1.238250X0.016506*%
%ADD245R,0.478788X0.016512*%
%ADD246R,0.577850X0.016512*%
%ADD247R,0.676906X0.016506*%
%ADD248R,0.495300X0.016512*%
%ADD249R,0.016506X0.016506*%
%ADD250R,0.660400X0.016512*%
%ADD251R,0.924563X0.016506*%
%ADD252R,0.709925X0.016506*%
%ADD253R,0.775969X0.016512*%
%ADD254R,0.726438X0.016512*%
%ADD255R,0.957575X0.016512*%
%ADD256R,0.049525X0.016512*%
%ADD257R,0.099063X0.016512*%
%ADD258R,0.941069X0.016512*%
%ADD259R,0.924556X0.016512*%
%ADD260R,0.726438X0.016506*%
%ADD261R,0.544825X0.016512*%
%ADD262R,0.429263X0.016506*%
%ADD263R,0.842013X0.016512*%
%ADD264R,0.825500X0.016512*%
%ADD265R,0.676906X0.016512*%
%ADD266R,0.808988X0.016512*%
%ADD267R,0.759456X0.016512*%
%ADD268R,1.337306X0.016512*%
%ADD269R,1.287781X0.016506*%
%ADD270R,0.676913X0.016506*%
%ADD271R,1.551937X0.016506*%
%ADD272R,1.601469X0.016506*%
%ADD273R,1.750063X0.016512*%
%ADD274R,0.676913X0.016512*%
%ADD275R,1.783075X0.016506*%
%ADD276R,4.193538X0.016506*%
%ADD277R,3.962400X0.016506*%
%ADD278R,3.830319X0.016512*%
%ADD279R,3.582669X0.016506*%
%ADD280R,3.153412X0.016506*%
%ADD281R,2.856231X0.016506*%
%ADD282R,2.493013X0.016506*%
%ADD283R,2.294888X0.016512*%
%ADD284C,0.000000*%
%ADD285C,0.076200*%
%ADD286C,0.101600*%


D10*
X0Y100000D02*
X0Y900000D01*
X100000Y1000000D02*
X900000Y1000000D01*
X1000000Y900000D02*
X1000000Y800000D01*
X1000000Y200000D02*
X1000000Y100000D01*
X900000Y0D02*
X100000Y0D01*
X0Y900000D02*
X29Y902416D01*
X117Y904831D01*
X263Y907243D01*
X467Y909651D01*
X729Y912054D01*
X1049Y914449D01*
X1427Y916836D01*
X1863Y919213D01*
X2356Y921578D01*
X2906Y923932D01*
X3512Y926271D01*
X4175Y928595D01*
X4894Y930902D01*
X5669Y933191D01*
X6498Y935460D01*
X7383Y937709D01*
X8321Y939936D01*
X9313Y942140D01*
X10357Y944319D01*
X11454Y946472D01*
X12603Y948598D01*
X13803Y950696D01*
X15053Y952764D01*
X16353Y954801D01*
X17702Y956806D01*
X19098Y958779D01*
X20542Y960716D01*
X22033Y962619D01*
X23568Y964484D01*
X25149Y966312D01*
X26773Y968102D01*
X28440Y969851D01*
X30149Y971560D01*
X31898Y973227D01*
X33688Y974851D01*
X35516Y976432D01*
X37381Y977967D01*
X39284Y979458D01*
X41221Y980902D01*
X43194Y982298D01*
X45199Y983647D01*
X47236Y984947D01*
X49304Y986197D01*
X51402Y987397D01*
X53528Y988546D01*
X55681Y989643D01*
X57860Y990687D01*
X60064Y991679D01*
X62291Y992617D01*
X64540Y993502D01*
X66809Y994331D01*
X69098Y995106D01*
X71405Y995825D01*
X73729Y996488D01*
X76068Y997094D01*
X78422Y997644D01*
X80787Y998137D01*
X83164Y998573D01*
X85551Y998951D01*
X87946Y999271D01*
X90349Y999533D01*
X92757Y999737D01*
X95169Y999883D01*
X97584Y999971D01*
X100000Y1000000D01*
X900000Y1000000D02*
X902416Y999971D01*
X904831Y999883D01*
X907243Y999737D01*
X909651Y999533D01*
X912054Y999271D01*
X914449Y998951D01*
X916836Y998573D01*
X919213Y998137D01*
X921578Y997644D01*
X923932Y997094D01*
X926271Y996488D01*
X928595Y995825D01*
X930902Y995106D01*
X933191Y994331D01*
X935460Y993502D01*
X937709Y992617D01*
X939936Y991679D01*
X942140Y990687D01*
X944319Y989643D01*
X946472Y988546D01*
X948598Y987397D01*
X950696Y986197D01*
X952764Y984947D01*
X954801Y983647D01*
X956806Y982298D01*
X958779Y980902D01*
X960716Y979458D01*
X962619Y977967D01*
X964484Y976432D01*
X966312Y974851D01*
X968102Y973227D01*
X969851Y971560D01*
X971560Y969851D01*
X973227Y968102D01*
X974851Y966312D01*
X976432Y964484D01*
X977967Y962619D01*
X979458Y960716D01*
X980902Y958779D01*
X982298Y956806D01*
X983647Y954801D01*
X984947Y952764D01*
X986197Y950696D01*
X987397Y948598D01*
X988546Y946472D01*
X989643Y944319D01*
X990687Y942140D01*
X991679Y939936D01*
X992617Y937709D01*
X993502Y935460D01*
X994331Y933191D01*
X995106Y930902D01*
X995825Y928595D01*
X996488Y926271D01*
X997094Y923932D01*
X997644Y921578D01*
X998137Y919213D01*
X998573Y916836D01*
X998951Y914449D01*
X999271Y912054D01*
X999533Y909651D01*
X999737Y907243D01*
X999883Y904831D01*
X999971Y902416D01*
X1000000Y900000D01*
X1000000Y100000D02*
X999971Y97584D01*
X999883Y95169D01*
X999737Y92757D01*
X999533Y90349D01*
X999271Y87946D01*
X998951Y85551D01*
X998573Y83164D01*
X998137Y80787D01*
X997644Y78422D01*
X997094Y76068D01*
X996488Y73729D01*
X995825Y71405D01*
X995106Y69098D01*
X994331Y66809D01*
X993502Y64540D01*
X992617Y62291D01*
X991679Y60064D01*
X990687Y57860D01*
X989643Y55681D01*
X988546Y53528D01*
X987397Y51402D01*
X986197Y49304D01*
X984947Y47236D01*
X983647Y45199D01*
X982298Y43194D01*
X980902Y41221D01*
X979458Y39284D01*
X977967Y37381D01*
X976432Y35516D01*
X974851Y33688D01*
X973227Y31898D01*
X971560Y30149D01*
X969851Y28440D01*
X968102Y26773D01*
X966312Y25149D01*
X964484Y23568D01*
X962619Y22033D01*
X960716Y20542D01*
X958779Y19098D01*
X956806Y17702D01*
X954801Y16353D01*
X952764Y15053D01*
X950696Y13803D01*
X948598Y12603D01*
X946472Y11454D01*
X944319Y10357D01*
X942140Y9313D01*
X939936Y8321D01*
X937709Y7383D01*
X935460Y6498D01*
X933191Y5669D01*
X930902Y4894D01*
X928595Y4175D01*
X926271Y3512D01*
X923932Y2906D01*
X921578Y2356D01*
X919213Y1863D01*
X916836Y1427D01*
X914449Y1049D01*
X912054Y729D01*
X909651Y467D01*
X907243Y263D01*
X904831Y117D01*
X902416Y29D01*
X900000Y0D01*
X100000Y0D02*
X97584Y29D01*
X95169Y117D01*
X92757Y263D01*
X90349Y467D01*
X87946Y729D01*
X85551Y1049D01*
X83164Y1427D01*
X80787Y1863D01*
X78422Y2356D01*
X76068Y2906D01*
X73729Y3512D01*
X71405Y4175D01*
X69098Y4894D01*
X66809Y5669D01*
X64540Y6498D01*
X62291Y7383D01*
X60064Y8321D01*
X57860Y9313D01*
X55681Y10357D01*
X53528Y11454D01*
X51402Y12603D01*
X49304Y13803D01*
X47236Y15053D01*
X45199Y16353D01*
X43194Y17702D01*
X41221Y19098D01*
X39284Y20542D01*
X37381Y22033D01*
X35516Y23568D01*
X33688Y25149D01*
X31898Y26773D01*
X30149Y28440D01*
X28440Y30149D01*
X26773Y31898D01*
X25149Y33688D01*
X23568Y35516D01*
X22033Y37381D01*
X20542Y39284D01*
X19098Y41221D01*
X17702Y43194D01*
X16353Y45199D01*
X15053Y47236D01*
X13803Y49304D01*
X12603Y51402D01*
X11454Y53528D01*
X10357Y55681D01*
X9313Y57860D01*
X8321Y60064D01*
X7383Y62291D01*
X6498Y64540D01*
X5669Y66809D01*
X4894Y69098D01*
X4175Y71405D01*
X3512Y73729D01*
X2906Y76068D01*
X2356Y78422D01*
X1863Y80787D01*
X1427Y83164D01*
X1049Y85551D01*
X729Y87946D01*
X467Y90349D01*
X263Y92757D01*
X117Y95169D01*
X29Y97584D01*
X0Y100000D01*
X980000Y760000D02*
X1000000Y800000D01*
X980000Y760000D02*
X980000Y240000D01*
X1000000Y200000D01*
D11*
X799497Y33846D03*
D12*
X799579Y34011D03*
D13*
X821620Y34011D03*
D14*
X799662Y34176D03*
D13*
X821620Y34176D03*
D15*
X799744Y34341D03*
D14*
X821455Y34341D03*
D15*
X799910Y34506D03*
X821373Y34506D03*
D16*
X800075Y34671D03*
X821207Y34671D03*
D17*
X800157Y34836D03*
D18*
X821125Y34836D03*
D19*
X800240Y35001D03*
D18*
X820960Y35001D03*
D20*
X800487Y35166D03*
D19*
X820877Y35166D03*
D21*
X800570Y35331D03*
D22*
X820712Y35331D03*
D23*
X800652Y35497D03*
D24*
X820712Y35497D03*
D25*
X800652Y35662D03*
D26*
X820547Y35662D03*
D27*
X800818Y35827D03*
D28*
X810641Y35827D03*
D26*
X820547Y35827D03*
D29*
X800900Y35992D03*
D28*
X810641Y35992D03*
D30*
X820299Y35992D03*
D31*
X801065Y36157D03*
D28*
X810641Y36157D03*
D32*
X820134Y36157D03*
D33*
X801148Y36322D03*
D34*
X810641Y36322D03*
D35*
X820134Y36322D03*
D36*
X801230Y36487D03*
D28*
X810641Y36487D03*
D37*
X819969Y36487D03*
D36*
X801395Y36652D03*
D28*
X810641Y36652D03*
D36*
X819887Y36652D03*
D38*
X801478Y36817D03*
D28*
X810641Y36817D03*
D36*
X819721Y36817D03*
D39*
X801560Y36982D03*
D28*
X810641Y36982D03*
D38*
X819639Y36982D03*
D40*
X801643Y37148D03*
D34*
X810641Y37148D03*
D41*
X819556Y37148D03*
D42*
X801643Y37313D03*
D28*
X810641Y37313D03*
D42*
X819474Y37313D03*
D43*
X801891Y37478D03*
D28*
X810641Y37478D03*
D43*
X819226Y37478D03*
D44*
X801973Y37643D03*
D28*
X810641Y37643D03*
D43*
X819226Y37643D03*
D45*
X802138Y37808D03*
D28*
X810641Y37808D03*
D46*
X819061Y37808D03*
D47*
X802303Y37973D03*
D34*
X810641Y37973D03*
D48*
X818979Y37973D03*
D45*
X802303Y38138D03*
D28*
X810641Y38138D03*
D45*
X818813Y38138D03*
D49*
X802386Y38303D03*
D28*
X810641Y38303D03*
D49*
X818731Y38303D03*
D50*
X802551Y38468D03*
D28*
X810641Y38468D03*
D51*
X818648Y38468D03*
D50*
X802551Y38633D03*
D28*
X810641Y38633D03*
D51*
X818648Y38633D03*
D52*
X802634Y38799D03*
D34*
X810641Y38799D03*
D52*
X818483Y38799D03*
D53*
X802881Y38964D03*
D28*
X810641Y38964D03*
D54*
X818318Y38964D03*
D55*
X802964Y39129D03*
D28*
X810641Y39129D03*
D56*
X818153Y39129D03*
D57*
X803046Y39294D03*
D58*
X813695Y39294D03*
D57*
X803046Y39459D03*
D58*
X813695Y39459D03*
D59*
X810558Y39624D03*
D60*
X810558Y39789D03*
X810558Y39954D03*
D61*
X810641Y40119D03*
D62*
X810558Y40284D03*
D63*
X810558Y40450D03*
D62*
X810558Y40615D03*
X810558Y40780D03*
X810558Y40945D03*
X810558Y41110D03*
D63*
X810558Y41275D03*
D64*
X810476Y41440D03*
D65*
X810558Y41605D03*
X810558Y41770D03*
X810558Y41935D03*
D66*
X810641Y42101D03*
D67*
X810641Y42266D03*
D68*
X810558Y42431D03*
D69*
X810641Y42596D03*
D70*
X810558Y42761D03*
D71*
X847954Y42761D03*
D72*
X810558Y42926D03*
D73*
X847954Y42926D03*
D74*
X810558Y43091D03*
D71*
X847954Y43091D03*
D74*
X810558Y43256D03*
D71*
X847954Y43256D03*
D75*
X810641Y43421D03*
D71*
X847954Y43421D03*
D76*
X810558Y43586D03*
D71*
X847954Y43586D03*
D77*
X810558Y43752D03*
D11*
X847871Y43752D03*
D78*
X810558Y43917D03*
D13*
X847871Y43917D03*
D79*
X810641Y44082D03*
D13*
X847871Y44082D03*
D80*
X810558Y44247D03*
D81*
X847789Y44247D03*
D82*
X810641Y44412D03*
D13*
X847706Y44412D03*
D83*
X810641Y44577D03*
D11*
X847706Y44577D03*
D84*
X810558Y44742D03*
D13*
X847706Y44742D03*
D84*
X810558Y44907D03*
D13*
X847706Y44907D03*
D85*
X810641Y45072D03*
D13*
X847541Y45072D03*
D86*
X810558Y45237D03*
D13*
X847541Y45237D03*
D87*
X810641Y45403D03*
D11*
X847541Y45403D03*
D88*
X810641Y45568D03*
D13*
X847541Y45568D03*
D89*
X810641Y45733D03*
D13*
X847541Y45733D03*
D90*
X810558Y45898D03*
D12*
X847458Y45898D03*
D90*
X810558Y46063D03*
D12*
X847458Y46063D03*
D91*
X810641Y46228D03*
D11*
X847376Y46228D03*
D92*
X810558Y46393D03*
D81*
X847293Y46393D03*
D93*
X810641Y46558D03*
D81*
X847293Y46558D03*
D94*
X810558Y46723D03*
D81*
X847293Y46723D03*
D95*
X810558Y46888D03*
D81*
X847293Y46888D03*
D96*
X810558Y47054D03*
D97*
X847293Y47054D03*
D95*
X810558Y47219D03*
D14*
X847211Y47219D03*
D98*
X810558Y47384D03*
D81*
X847128Y47384D03*
D99*
X810641Y47549D03*
D81*
X847128Y47549D03*
D99*
X810641Y47714D03*
D81*
X847128Y47714D03*
D100*
X810558Y47879D03*
D101*
X847046Y47879D03*
D102*
X810558Y48044D03*
D81*
X846963Y48044D03*
D13*
X700437Y48209D03*
D102*
X810558Y48209D03*
D14*
X846880Y48209D03*
D12*
X700519Y48374D03*
D102*
X810558Y48374D03*
D14*
X846880Y48374D03*
D103*
X700767Y48539D03*
D104*
X810641Y48539D03*
D14*
X846880Y48539D03*
D105*
X700767Y48705D03*
D106*
X810641Y48705D03*
D101*
X846880Y48705D03*
D19*
X700849Y48870D03*
D58*
X810558Y48870D03*
D14*
X846880Y48870D03*
D25*
X700932Y49035D03*
D107*
X810641Y49035D03*
D14*
X846715Y49035D03*
D27*
X700932Y49200D03*
D108*
X810558Y49200D03*
D14*
X846715Y49200D03*
D31*
X701180Y49365D03*
D109*
X810641Y49365D03*
D14*
X846715Y49365D03*
D33*
X701262Y49530D03*
D110*
X810641Y49530D03*
D101*
X846715Y49530D03*
D36*
X701345Y49695D03*
D111*
X810641Y49695D03*
D14*
X846715Y49695D03*
D38*
X701427Y49860D03*
D112*
X810558Y49860D03*
D14*
X846715Y49860D03*
D39*
X701345Y50025D03*
D113*
X810641Y50025D03*
D14*
X846550Y50025D03*
D42*
X701262Y50190D03*
D114*
X810558Y50190D03*
D14*
X846550Y50190D03*
D115*
X701427Y50356D03*
D116*
X810558Y50356D03*
D101*
X846550Y50356D03*
D43*
X701510Y50521D03*
D117*
X810558Y50521D03*
D81*
X846468Y50521D03*
D43*
X701510Y50686D03*
D118*
X810641Y50686D03*
D81*
X846468Y50686D03*
D43*
X701840Y50851D03*
D118*
X810641Y50851D03*
D14*
X846385Y50851D03*
D119*
X702005Y51016D03*
D120*
X810641Y51016D03*
D14*
X846385Y51016D03*
D121*
X702170Y51181D03*
D122*
X810558Y51181D03*
D101*
X846385Y51181D03*
D42*
X702418Y51346D03*
D123*
X810558Y51346D03*
D81*
X846303Y51346D03*
D39*
X702500Y51511D03*
D124*
X810558Y51511D03*
D81*
X846303Y51511D03*
D125*
X702666Y51676D03*
D124*
X810558Y51676D03*
D14*
X846220Y51676D03*
D39*
X702831Y51841D03*
D124*
X810558Y51841D03*
D14*
X846220Y51841D03*
D126*
X702913Y52007D03*
D127*
X810558Y52007D03*
D128*
X846138Y52007D03*
D38*
X702913Y52172D03*
D129*
X810641Y52172D03*
D15*
X846138Y52172D03*
D36*
X702996Y52337D03*
D130*
X810558Y52337D03*
D15*
X846138Y52337D03*
D36*
X703161Y52502D03*
D130*
X810558Y52502D03*
D15*
X846138Y52502D03*
D37*
X703409Y52667D03*
D131*
X810641Y52667D03*
D15*
X845972Y52667D03*
D132*
X703409Y52832D03*
D133*
X810641Y52832D03*
D128*
X845972Y52832D03*
D31*
X703491Y52997D03*
D131*
X810641Y52997D03*
D15*
X845972Y52997D03*
D37*
X703574Y53162D03*
D134*
X810641Y53162D03*
D15*
X845972Y53162D03*
D31*
X703656Y53327D03*
D135*
X810558Y53327D03*
D136*
X845890Y53327D03*
D31*
X703821Y53492D03*
D135*
X810558Y53492D03*
D136*
X845890Y53492D03*
D137*
X703821Y53658D03*
D138*
X810641Y53658D03*
D139*
X845725Y53658D03*
D31*
X703986Y53823D03*
D140*
X810641Y53823D03*
D103*
X845725Y53823D03*
D31*
X703986Y53988D03*
D140*
X810641Y53988D03*
D103*
X845725Y53988D03*
D29*
X704152Y54153D03*
D141*
X810641Y54153D03*
D103*
X845725Y54153D03*
D32*
X704234Y54318D03*
D142*
X810558Y54318D03*
D143*
X845642Y54318D03*
D137*
X704317Y54483D03*
D144*
X810558Y54483D03*
D139*
X845560Y54483D03*
D31*
X704317Y54648D03*
D145*
X810641Y54648D03*
D103*
X845560Y54648D03*
D31*
X704317Y54813D03*
D145*
X810641Y54813D03*
D103*
X845560Y54813D03*
D146*
X689045Y54978D03*
D31*
X704317Y54978D03*
D146*
X719423Y54978D03*
D39*
X734200Y54978D03*
D36*
X746747Y54978D03*
D31*
X757149Y54978D03*
X766724Y54978D03*
X776300Y54978D03*
D146*
X787114Y54978D03*
D145*
X810641Y54978D03*
D103*
X845395Y54978D03*
D44*
X688880Y55143D03*
D37*
X704399Y55143D03*
D46*
X719506Y55143D03*
D119*
X734035Y55143D03*
D45*
X746830Y55143D03*
D31*
X757149Y55143D03*
X766724Y55143D03*
X776300Y55143D03*
D44*
X787114Y55143D03*
D145*
X810641Y55143D03*
D103*
X845395Y55143D03*
D147*
X688797Y55309D03*
D132*
X704399Y55309D03*
D148*
X719341Y55309D03*
D149*
X733787Y55309D03*
D147*
X747077Y55309D03*
D137*
X757149Y55309D03*
X766724Y55309D03*
X776300Y55309D03*
D147*
X786867Y55309D03*
D150*
X810641Y55309D03*
D139*
X845395Y55309D03*
D151*
X688632Y55474D03*
D36*
X704482Y55474D03*
D152*
X719093Y55474D03*
D49*
X733539Y55474D03*
D151*
X747077Y55474D03*
D31*
X757149Y55474D03*
X766724Y55474D03*
X776300Y55474D03*
D152*
X786784Y55474D03*
D145*
X810641Y55474D03*
D103*
X845395Y55474D03*
D153*
X688467Y55639D03*
D36*
X704482Y55639D03*
D154*
X719093Y55639D03*
D51*
X733457Y55639D03*
D155*
X747078Y55639D03*
D31*
X757149Y55639D03*
X766724Y55639D03*
X776300Y55639D03*
D154*
X786619Y55639D03*
D145*
X810641Y55639D03*
D15*
X845312Y55639D03*
D145*
X688467Y55804D03*
D36*
X704482Y55804D03*
D145*
X719010Y55804D03*
D51*
X733457Y55804D03*
D154*
X746995Y55804D03*
D31*
X757149Y55804D03*
X766724Y55804D03*
X776300Y55804D03*
D156*
X786619Y55804D03*
D145*
X810641Y55804D03*
D15*
X845312Y55804D03*
D157*
X688632Y55969D03*
D38*
X704399Y55969D03*
D142*
X719093Y55969D03*
D158*
X733292Y55969D03*
D156*
X746830Y55969D03*
D31*
X757149Y55969D03*
X766724Y55969D03*
X776300Y55969D03*
D142*
X786784Y55969D03*
D145*
X810641Y55969D03*
D103*
X845229Y55969D03*
D159*
X688715Y56134D03*
D160*
X704317Y56134D03*
D159*
X719258Y56134D03*
D161*
X733209Y56134D03*
D144*
X746665Y56134D03*
D137*
X757149Y56134D03*
X766724Y56134D03*
X776300Y56134D03*
D162*
X786867Y56134D03*
D150*
X810641Y56134D03*
D139*
X845229Y56134D03*
D140*
X688797Y56299D03*
D125*
X704317Y56299D03*
D163*
X719258Y56299D03*
D164*
X733209Y56299D03*
D142*
X746665Y56299D03*
D31*
X757149Y56299D03*
X766724Y56299D03*
X776300Y56299D03*
D163*
X786949Y56299D03*
D142*
X810558Y56299D03*
D103*
X845229Y56299D03*
D165*
X688880Y56464D03*
D42*
X704399Y56464D03*
D165*
X719423Y56464D03*
D54*
X733127Y56464D03*
D141*
X746582Y56464D03*
D31*
X757149Y56464D03*
X766724Y56464D03*
X776300Y56464D03*
D165*
X787114Y56464D03*
D142*
X810558Y56464D03*
D103*
X845229Y56464D03*
D166*
X688962Y56629D03*
D42*
X704399Y56629D03*
D166*
X719506Y56629D03*
D53*
X733044Y56629D03*
D140*
X746417Y56629D03*
D31*
X757149Y56629D03*
X766724Y56629D03*
X776300Y56629D03*
D166*
X787197Y56629D03*
D142*
X810558Y56629D03*
D136*
X845064Y56629D03*
D166*
X688962Y56794D03*
D119*
X704317Y56794D03*
D166*
X719506Y56794D03*
D53*
X733044Y56794D03*
D140*
X746417Y56794D03*
D31*
X757149Y56794D03*
X766724Y56794D03*
X776300Y56794D03*
D166*
X787197Y56794D03*
D142*
X810558Y56794D03*
D136*
X845064Y56794D03*
D167*
X689127Y56960D03*
D115*
X704399Y56960D03*
D168*
X719753Y56960D03*
D169*
X732961Y56960D03*
D170*
X746169Y56960D03*
D137*
X757149Y56960D03*
X766724Y56960D03*
X776300Y56960D03*
D171*
X787279Y56960D03*
D144*
X810558Y56960D03*
D16*
X844982Y56960D03*
D134*
X689127Y57125D03*
D43*
X704482Y57125D03*
D172*
X719753Y57125D03*
D56*
X732961Y57125D03*
D135*
X746169Y57125D03*
D31*
X757149Y57125D03*
X766724Y57125D03*
X776300Y57125D03*
D173*
X787279Y57125D03*
D142*
X810558Y57125D03*
D103*
X844899Y57125D03*
D172*
X689210Y57290D03*
D44*
X704399Y57290D03*
D172*
X719753Y57290D03*
D57*
X732879Y57290D03*
D172*
X746004Y57290D03*
D31*
X757149Y57290D03*
X766724Y57290D03*
X776300Y57290D03*
D134*
X787362Y57290D03*
D142*
X810558Y57290D03*
D103*
X844899Y57290D03*
D131*
X689292Y57455D03*
D44*
X704399Y57455D03*
D172*
X719753Y57455D03*
D57*
X732879Y57455D03*
D172*
X746004Y57455D03*
D31*
X757149Y57455D03*
X766724Y57455D03*
X776300Y57455D03*
D172*
X787444Y57455D03*
D142*
X810558Y57455D03*
D143*
X844817Y57455D03*
D45*
X685908Y57620D03*
D158*
X692347Y57620D03*
D46*
X704317Y57620D03*
D45*
X716451Y57620D03*
D174*
X722808Y57620D03*
D175*
X731806Y57620D03*
D56*
X743198Y57620D03*
D175*
X749637Y57620D03*
D31*
X757149Y57620D03*
X766724Y57620D03*
X776300Y57620D03*
D45*
X784142Y57620D03*
D174*
X790499Y57620D03*
D142*
X810558Y57620D03*
D103*
X844734Y57620D03*
D176*
X685495Y57785D03*
D48*
X692842Y57785D03*
X704399Y57785D03*
D176*
X716039Y57785D03*
D48*
X723221Y57785D03*
D40*
X731641Y57785D03*
D177*
X742785Y57785D03*
D137*
X750214Y57785D03*
X757149Y57785D03*
X766724Y57785D03*
X776300Y57785D03*
D40*
X783647Y57785D03*
D48*
X790912Y57785D03*
D144*
X810558Y57785D03*
D139*
X844734Y57785D03*
D30*
X684917Y57950D03*
D43*
X693090Y57950D03*
D178*
X704399Y57950D03*
D30*
X715461Y57950D03*
D43*
X723633Y57950D03*
D38*
X731476Y57950D03*
D178*
X742372Y57950D03*
D20*
X750792Y57950D03*
D31*
X757149Y57950D03*
X766724Y57950D03*
X776300Y57950D03*
D29*
X783069Y57950D03*
D175*
X791242Y57950D03*
D142*
X810558Y57950D03*
D103*
X844734Y57950D03*
D22*
X684505Y58115D03*
D42*
X693337Y58115D03*
D178*
X704399Y58115D03*
D22*
X715048Y58115D03*
D42*
X723881Y58115D03*
D36*
X731393Y58115D03*
D43*
X742125Y58115D03*
D103*
X751122Y58115D03*
D31*
X757149Y58115D03*
X766724Y58115D03*
X776300Y58115D03*
D22*
X782739Y58115D03*
D42*
X791407Y58115D03*
D142*
X810558Y58115D03*
D103*
X844734Y58115D03*
D19*
X684339Y58280D03*
D42*
X693503Y58280D03*
D51*
X704399Y58280D03*
D19*
X714883Y58280D03*
D39*
X723963Y58280D03*
D38*
X731310Y58280D03*
D43*
X741959Y58280D03*
D14*
X751288Y58280D03*
D31*
X757149Y58280D03*
X766724Y58280D03*
X776300Y58280D03*
D19*
X782574Y58280D03*
D42*
X791572Y58280D03*
D142*
X810558Y58280D03*
D143*
X844652Y58280D03*
D136*
X684092Y58445D03*
D39*
X693750Y58445D03*
D174*
X704482Y58445D03*
D15*
X714553Y58445D03*
D125*
X724129Y58445D03*
D36*
X731228Y58445D03*
D42*
X741712Y58445D03*
D31*
X757149Y58445D03*
X766724Y58445D03*
X776300Y58445D03*
D15*
X782244Y58445D03*
D125*
X791820Y58445D03*
D142*
X810558Y58445D03*
D17*
X844569Y58445D03*
D179*
X693915Y58611D03*
D52*
X704399Y58611D03*
D179*
X724294Y58611D03*
D33*
X731145Y58611D03*
D160*
X741464Y58611D03*
D137*
X757149Y58611D03*
X766724Y58611D03*
X776300Y58611D03*
D179*
X791985Y58611D03*
D144*
X810558Y58611D03*
D16*
X844487Y58611D03*
D36*
X693915Y58776D03*
D158*
X704399Y58776D03*
D146*
X724376Y58776D03*
X731145Y58776D03*
D39*
X741299Y58776D03*
D31*
X757149Y58776D03*
X766724Y58776D03*
X776300Y58776D03*
D36*
X791985Y58776D03*
D142*
X810558Y58776D03*
D143*
X844487Y58776D03*
D36*
X693915Y58941D03*
D164*
X704317Y58941D03*
D146*
X724376Y58941D03*
D31*
X731063Y58941D03*
D38*
X741216Y58941D03*
D31*
X757149Y58941D03*
X766724Y58941D03*
X776300Y58941D03*
D146*
X792067Y58941D03*
D142*
X810558Y58941D03*
D143*
X844487Y58941D03*
D146*
X693998Y59106D03*
D54*
X704399Y59106D03*
D31*
X724459Y59106D03*
X731063Y59106D03*
D38*
X741051Y59106D03*
D31*
X757149Y59106D03*
X766724Y59106D03*
X776300Y59106D03*
X792150Y59106D03*
D142*
X810558Y59106D03*
D18*
X844404Y59106D03*
D146*
X693998Y59271D03*
D54*
X704399Y59271D03*
D31*
X724459Y59271D03*
X731063Y59271D03*
D36*
X740969Y59271D03*
D31*
X757149Y59271D03*
X766724Y59271D03*
X776300Y59271D03*
X792150Y59271D03*
D142*
X810558Y59271D03*
D18*
X844404Y59271D03*
D33*
X693998Y59436D03*
D180*
X704399Y59436D03*
D137*
X724459Y59436D03*
X731063Y59436D03*
D33*
X740886Y59436D03*
D137*
X757149Y59436D03*
X766724Y59436D03*
X776300Y59436D03*
X792150Y59436D03*
D144*
X810558Y59436D03*
D105*
X844404Y59436D03*
D146*
X693998Y59601D03*
X702913Y59601D03*
D31*
X705968Y59601D03*
D146*
X724541Y59601D03*
D31*
X731063Y59601D03*
D146*
X740886Y59601D03*
D31*
X757149Y59601D03*
X766724Y59601D03*
X776300Y59601D03*
D146*
X792232Y59601D03*
D142*
X810558Y59601D03*
D143*
X844321Y59601D03*
D31*
X694080Y59766D03*
D146*
X702913Y59766D03*
D37*
X706050Y59766D03*
D31*
X724624Y59766D03*
X731063Y59766D03*
D37*
X740721Y59766D03*
D31*
X757149Y59766D03*
X766724Y59766D03*
X776300Y59766D03*
X792315Y59766D03*
D142*
X810558Y59766D03*
D18*
X844239Y59766D03*
D31*
X694080Y59931D03*
D146*
X702913Y59931D03*
D31*
X706133Y59931D03*
X724624Y59931D03*
X731063Y59931D03*
D37*
X740556Y59931D03*
D31*
X757149Y59931D03*
X766724Y59931D03*
X776300Y59931D03*
X792315Y59931D03*
D142*
X810558Y59931D03*
D19*
X844156Y59931D03*
D31*
X694080Y60096D03*
D37*
X702748Y60096D03*
D31*
X706133Y60096D03*
X724624Y60096D03*
X731063Y60096D03*
X740474Y60096D03*
X757149Y60096D03*
X766724Y60096D03*
X776300Y60096D03*
X792315Y60096D03*
D142*
X810558Y60096D03*
D19*
X844156Y60096D03*
D137*
X694080Y60262D03*
D132*
X702748Y60262D03*
D35*
X706215Y60262D03*
D137*
X724624Y60262D03*
X731063Y60262D03*
X740474Y60262D03*
X757149Y60262D03*
X766724Y60262D03*
X776300Y60262D03*
X792315Y60262D03*
D144*
X810558Y60262D03*
D105*
X844074Y60262D03*
D31*
X694080Y60427D03*
X702666Y60427D03*
D32*
X706215Y60427D03*
D31*
X724624Y60427D03*
X731063Y60427D03*
X740474Y60427D03*
X757149Y60427D03*
X766724Y60427D03*
X776300Y60427D03*
X792315Y60427D03*
D142*
X810558Y60427D03*
D18*
X844074Y60427D03*
D31*
X694080Y60592D03*
X702666Y60592D03*
D32*
X706215Y60592D03*
D31*
X724624Y60592D03*
X731063Y60592D03*
D146*
X740391Y60592D03*
D31*
X757149Y60592D03*
X766724Y60592D03*
X776300Y60592D03*
X792315Y60592D03*
D142*
X810558Y60592D03*
D143*
X843991Y60592D03*
D31*
X694080Y60757D03*
X702666Y60757D03*
D29*
X706298Y60757D03*
D31*
X724624Y60757D03*
X731063Y60757D03*
D146*
X740391Y60757D03*
D31*
X757149Y60757D03*
X766724Y60757D03*
X776300Y60757D03*
X792315Y60757D03*
D142*
X810558Y60757D03*
D143*
X843991Y60757D03*
D146*
X693998Y60922D03*
D37*
X702583Y60922D03*
D30*
X706380Y60922D03*
D146*
X724541Y60922D03*
D31*
X731063Y60922D03*
D146*
X740391Y60922D03*
D31*
X757149Y60922D03*
X766724Y60922D03*
X776300Y60922D03*
D146*
X792232Y60922D03*
D142*
X810558Y60922D03*
D143*
X843991Y60922D03*
D33*
X693998Y61087D03*
D137*
X702501Y61087D03*
X706463Y61087D03*
X724459Y61087D03*
X731063Y61087D03*
X740308Y61087D03*
X757149Y61087D03*
X766724Y61087D03*
X776300Y61087D03*
X792150Y61087D03*
D181*
X810641Y61087D03*
D182*
X843909Y61087D03*
D146*
X693998Y61252D03*
D31*
X702501Y61252D03*
D32*
X706545Y61252D03*
D31*
X724459Y61252D03*
X731063Y61252D03*
X740308Y61252D03*
X757149Y61252D03*
X766724Y61252D03*
X776300Y61252D03*
X792150Y61252D03*
D141*
X810641Y61252D03*
D143*
X843826Y61252D03*
D36*
X693915Y61417D03*
D146*
X702418Y61417D03*
D32*
X706545Y61417D03*
D146*
X724376Y61417D03*
D31*
X731063Y61417D03*
D146*
X740226Y61417D03*
D31*
X757149Y61417D03*
X766724Y61417D03*
X776300Y61417D03*
D36*
X791985Y61417D03*
D141*
X810641Y61417D03*
D17*
X843744Y61417D03*
D36*
X693915Y61582D03*
D31*
X702335Y61582D03*
X706628Y61582D03*
D146*
X724376Y61582D03*
D31*
X731063Y61582D03*
X740143Y61582D03*
X757149Y61582D03*
X766724Y61582D03*
X776300Y61582D03*
D36*
X791985Y61582D03*
D141*
X810641Y61582D03*
D17*
X843744Y61582D03*
D38*
X693833Y61747D03*
D146*
X702253Y61747D03*
D32*
X706711Y61747D03*
D38*
X724211Y61747D03*
D31*
X731063Y61747D03*
X740143Y61747D03*
X757149Y61747D03*
X766724Y61747D03*
X776300Y61747D03*
D38*
X791902Y61747D03*
D141*
X810641Y61747D03*
D17*
X843744Y61747D03*
D41*
X693750Y61913D03*
D137*
X702170Y61913D03*
D35*
X706711Y61913D03*
D160*
X724129Y61913D03*
D137*
X731063Y61913D03*
X740143Y61913D03*
X757149Y61913D03*
X766724Y61913D03*
X776300Y61913D03*
D160*
X791820Y61913D03*
D181*
X810641Y61913D03*
D105*
X843578Y61913D03*
D125*
X693585Y62078D03*
D31*
X702170Y62078D03*
D29*
X706793Y62078D03*
D38*
X724046Y62078D03*
D31*
X731063Y62078D03*
X740143Y62078D03*
X757149Y62078D03*
X766724Y62078D03*
X776300Y62078D03*
D39*
X791654Y62078D03*
D141*
X810641Y62078D03*
D18*
X843578Y62078D03*
D119*
X693420Y62243D03*
D146*
X702088Y62243D03*
D32*
X706876Y62243D03*
D42*
X723881Y62243D03*
D31*
X731063Y62243D03*
X740143Y62243D03*
X757149Y62243D03*
X766724Y62243D03*
X776300Y62243D03*
D183*
X791489Y62243D03*
D141*
X810641Y62243D03*
D18*
X843578Y62243D03*
D46*
X693090Y62408D03*
D146*
X702088Y62408D03*
D31*
X706958Y62408D03*
D43*
X723633Y62408D03*
D31*
X731063Y62408D03*
X740143Y62408D03*
X757149Y62408D03*
X766724Y62408D03*
X776300Y62408D03*
D44*
X791242Y62408D03*
D141*
X810641Y62408D03*
D143*
X843496Y62408D03*
D184*
X691356Y62573D03*
D31*
X702005Y62573D03*
X706958Y62573D03*
D185*
X721817Y62573D03*
D31*
X731063Y62573D03*
X740143Y62573D03*
X757149Y62573D03*
X766724Y62573D03*
X776300Y62573D03*
D184*
X789426Y62573D03*
D141*
X810641Y62573D03*
D18*
X843413Y62573D03*
D186*
X690778Y62738D03*
D137*
X702005Y62738D03*
D35*
X707041Y62738D03*
D187*
X721239Y62738D03*
D137*
X731063Y62738D03*
X740143Y62738D03*
X757149Y62738D03*
X766724Y62738D03*
X776300Y62738D03*
D186*
X788848Y62738D03*
D181*
X810641Y62738D03*
D105*
X843413Y62738D03*
D188*
X690366Y62903D03*
D37*
X701923Y62903D03*
D31*
X707123Y62903D03*
D153*
X720827Y62903D03*
D31*
X731063Y62903D03*
X740143Y62903D03*
X757149Y62903D03*
X766724Y62903D03*
X776300Y62903D03*
D188*
X788435Y62903D03*
D141*
X810641Y62903D03*
D19*
X843331Y62903D03*
D142*
X690035Y63068D03*
D37*
X701758Y63068D03*
D31*
X707123Y63068D03*
D156*
X720579Y63068D03*
D31*
X731063Y63068D03*
D114*
X745509Y63068D03*
D31*
X757149Y63068D03*
X766724Y63068D03*
X776300Y63068D03*
D145*
X788187Y63068D03*
D141*
X810641Y63068D03*
D18*
X843248Y63068D03*
D142*
X689870Y63233D03*
D37*
X701758Y63233D03*
D30*
X707206Y63233D03*
D142*
X720414Y63233D03*
D31*
X731063Y63233D03*
D114*
X745509Y63233D03*
D31*
X757149Y63233D03*
X766724Y63233D03*
X776300Y63233D03*
D145*
X788022Y63233D03*
D141*
X810641Y63233D03*
D18*
X843248Y63233D03*
D142*
X689705Y63398D03*
D31*
X701675Y63398D03*
X707288Y63398D03*
D141*
X720331Y63398D03*
D31*
X731063Y63398D03*
D114*
X745509Y63398D03*
D31*
X757149Y63398D03*
X766724Y63398D03*
X776300Y63398D03*
D142*
X787775Y63398D03*
D141*
X810641Y63398D03*
D19*
X843166Y63398D03*
D181*
X689623Y63564D03*
D137*
X701675Y63564D03*
X707288Y63564D03*
D189*
X720166Y63564D03*
D137*
X731063Y63564D03*
D116*
X745509Y63564D03*
D137*
X757149Y63564D03*
X766724Y63564D03*
X776300Y63564D03*
D162*
X787692Y63564D03*
D181*
X810641Y63564D03*
D182*
X843083Y63564D03*
D157*
X689458Y63729D03*
D146*
X701592Y63729D03*
X707371Y63729D03*
D163*
X719919Y63729D03*
D31*
X731063Y63729D03*
D114*
X745509Y63729D03*
D31*
X757149Y63729D03*
X766724Y63729D03*
X776300Y63729D03*
D163*
X787610Y63729D03*
D141*
X810641Y63729D03*
D17*
X843083Y63729D03*
D163*
X689375Y63894D03*
D146*
X701592Y63894D03*
X707371Y63894D03*
D163*
X719919Y63894D03*
D31*
X731063Y63894D03*
D114*
X745509Y63894D03*
D31*
X757149Y63894D03*
X766724Y63894D03*
X776300Y63894D03*
D140*
X787527Y63894D03*
D141*
X810641Y63894D03*
D17*
X842918Y63894D03*
D163*
X689210Y64059D03*
D146*
X701592Y64059D03*
X707371Y64059D03*
D163*
X719753Y64059D03*
D31*
X731063Y64059D03*
D114*
X745509Y64059D03*
D31*
X757149Y64059D03*
X766724Y64059D03*
X776300Y64059D03*
D190*
X787362Y64059D03*
D141*
X810641Y64059D03*
D17*
X842918Y64059D03*
D141*
X689127Y64224D03*
D36*
X701510Y64224D03*
D37*
X707536Y64224D03*
D141*
X719671Y64224D03*
D31*
X731063Y64224D03*
D114*
X745509Y64224D03*
D31*
X757149Y64224D03*
X766724Y64224D03*
X776300Y64224D03*
D163*
X787279Y64224D03*
D141*
X810641Y64224D03*
D19*
X842835Y64224D03*
D159*
X688880Y64389D03*
D126*
X701427Y64389D03*
D132*
X707536Y64389D03*
D181*
X719506Y64389D03*
D137*
X731063Y64389D03*
D116*
X745509Y64389D03*
D137*
X757149Y64389D03*
X766724Y64389D03*
X776300Y64389D03*
D159*
X787114Y64389D03*
D181*
X810641Y64389D03*
D191*
X842835Y64389D03*
D157*
X688632Y64554D03*
D36*
X701345Y64554D03*
D31*
X707619Y64554D03*
D142*
X719093Y64554D03*
D31*
X731063Y64554D03*
D114*
X745509Y64554D03*
D31*
X757149Y64554D03*
X766724Y64554D03*
X776300Y64554D03*
D142*
X786784Y64554D03*
D163*
X810724Y64554D03*
D20*
X842753Y64554D03*
D145*
X688467Y64719D03*
D146*
X701262Y64719D03*
D31*
X707619Y64719D03*
D145*
X719010Y64719D03*
D31*
X731063Y64719D03*
D114*
X745509Y64719D03*
D31*
X757149Y64719D03*
X766724Y64719D03*
X776300Y64719D03*
D156*
X786619Y64719D03*
D140*
X810641Y64719D03*
D20*
X842753Y64719D03*
D145*
X688467Y64884D03*
D146*
X701262Y64884D03*
D32*
X707701Y64884D03*
D145*
X719010Y64884D03*
D31*
X731063Y64884D03*
D114*
X745509Y64884D03*
D31*
X757149Y64884D03*
X766724Y64884D03*
X776300Y64884D03*
D156*
X786619Y64884D03*
D140*
X810641Y64884D03*
D20*
X842753Y64884D03*
D153*
X688137Y65049D03*
D146*
X701262Y65049D03*
D31*
X707784Y65049D03*
D153*
X718680Y65049D03*
D31*
X731063Y65049D03*
D114*
X745509Y65049D03*
D31*
X757149Y65049D03*
X766724Y65049D03*
X776300Y65049D03*
D153*
X786371Y65049D03*
D140*
X810641Y65049D03*
D20*
X842753Y65049D03*
D192*
X687972Y65215D03*
D33*
X701262Y65215D03*
D137*
X707784Y65215D03*
D187*
X718433Y65215D03*
D137*
X731063Y65215D03*
D116*
X745509Y65215D03*
D137*
X757149Y65215D03*
X766724Y65215D03*
X776300Y65215D03*
D187*
X786124Y65215D03*
D189*
X810641Y65215D03*
D191*
X842670Y65215D03*
D193*
X687724Y65380D03*
D146*
X701262Y65380D03*
D31*
X707784Y65380D03*
D193*
X718268Y65380D03*
D31*
X731063Y65380D03*
D114*
X745509Y65380D03*
D31*
X757149Y65380D03*
X766724Y65380D03*
X776300Y65380D03*
D193*
X785793Y65380D03*
D140*
X810641Y65380D03*
D19*
X842670Y65380D03*
D194*
X687146Y65545D03*
D31*
X701180Y65545D03*
X707949Y65545D03*
D194*
X717525Y65545D03*
D31*
X731063Y65545D03*
D114*
X745509Y65545D03*
D31*
X757149Y65545D03*
X766724Y65545D03*
X776300Y65545D03*
D194*
X785216Y65545D03*
D140*
X810641Y65545D03*
D19*
X842505Y65545D03*
D39*
X685165Y65710D03*
D37*
X701097Y65710D03*
D31*
X707949Y65710D03*
D42*
X715626Y65710D03*
D31*
X731063Y65710D03*
D114*
X745509Y65710D03*
D31*
X757149Y65710D03*
X766724Y65710D03*
X776300Y65710D03*
D42*
X783317Y65710D03*
D140*
X810641Y65710D03*
D19*
X842505Y65710D03*
D39*
X685000Y65875D03*
D36*
X701015Y65875D03*
D31*
X707949Y65875D03*
D42*
X715461Y65875D03*
D31*
X731063Y65875D03*
D114*
X745509Y65875D03*
D31*
X757149Y65875D03*
X766724Y65875D03*
X776300Y65875D03*
D42*
X783152Y65875D03*
D140*
X810641Y65875D03*
D20*
X842423Y65875D03*
D33*
X684752Y66040D03*
D132*
X700932Y66040D03*
D137*
X708114Y66040D03*
D179*
X715213Y66040D03*
D137*
X731063Y66040D03*
X740143Y66040D03*
X750875Y66040D03*
X757149Y66040D03*
X766724Y66040D03*
X776300Y66040D03*
D132*
X782822Y66040D03*
D189*
X810641Y66040D03*
D191*
X842340Y66040D03*
D146*
X684752Y66205D03*
D31*
X700850Y66205D03*
X708114Y66205D03*
D36*
X715213Y66205D03*
D31*
X731063Y66205D03*
X740143Y66205D03*
X750875Y66205D03*
X757149Y66205D03*
X766724Y66205D03*
X776300Y66205D03*
D37*
X782822Y66205D03*
D140*
X810641Y66205D03*
D19*
X842340Y66205D03*
D31*
X684670Y66370D03*
D146*
X700767Y66370D03*
D31*
X708279Y66370D03*
X715048Y66370D03*
X731063Y66370D03*
X740143Y66370D03*
X750875Y66370D03*
X757149Y66370D03*
X766724Y66370D03*
X776300Y66370D03*
X782739Y66370D03*
D140*
X810641Y66370D03*
D20*
X842258Y66370D03*
D31*
X684670Y66535D03*
D146*
X700767Y66535D03*
D31*
X708279Y66535D03*
X715048Y66535D03*
X731063Y66535D03*
X740143Y66535D03*
X750875Y66535D03*
X757149Y66535D03*
X766724Y66535D03*
X776300Y66535D03*
X782739Y66535D03*
D140*
X810641Y66535D03*
D20*
X842258Y66535D03*
D31*
X684670Y66700D03*
D146*
X700767Y66700D03*
D31*
X708279Y66700D03*
X715048Y66700D03*
X731063Y66700D03*
X740143Y66700D03*
X750875Y66700D03*
X757149Y66700D03*
X766724Y66700D03*
X776300Y66700D03*
X782739Y66700D03*
D140*
X810641Y66700D03*
D20*
X842093Y66700D03*
D137*
X684505Y66866D03*
X700684Y66866D03*
X708444Y66866D03*
D132*
X714966Y66866D03*
D137*
X731063Y66866D03*
X740143Y66866D03*
D33*
X750792Y66866D03*
D137*
X757149Y66866D03*
X766724Y66866D03*
X776300Y66866D03*
X782574Y66866D03*
D189*
X810641Y66866D03*
D195*
X842093Y66866D03*
D32*
X684422Y67031D03*
D146*
X700602Y67031D03*
D31*
X708444Y67031D03*
D37*
X714966Y67031D03*
D31*
X731063Y67031D03*
X740143Y67031D03*
D146*
X750792Y67031D03*
D31*
X757149Y67031D03*
X766724Y67031D03*
D37*
X776218Y67031D03*
D32*
X782491Y67031D03*
D140*
X810641Y67031D03*
D19*
X842010Y67031D03*
D32*
X684422Y67196D03*
D146*
X700602Y67196D03*
D31*
X708444Y67196D03*
D37*
X714966Y67196D03*
D31*
X731063Y67196D03*
D146*
X740226Y67196D03*
X750792Y67196D03*
D31*
X757149Y67196D03*
X766724Y67196D03*
D37*
X776218Y67196D03*
D32*
X782491Y67196D03*
D140*
X810641Y67196D03*
D19*
X842010Y67196D03*
D32*
X684422Y67361D03*
D36*
X700519Y67361D03*
D37*
X708527Y67361D03*
X714966Y67361D03*
D31*
X731063Y67361D03*
D146*
X740391Y67361D03*
X750792Y67361D03*
D31*
X757149Y67361D03*
X766724Y67361D03*
D37*
X776218Y67361D03*
D32*
X782491Y67361D03*
D140*
X810641Y67361D03*
D20*
X841927Y67361D03*
D32*
X684422Y67526D03*
D146*
X700437Y67526D03*
X708692Y67526D03*
D31*
X714883Y67526D03*
X731063Y67526D03*
D146*
X740391Y67526D03*
D31*
X750710Y67526D03*
X757149Y67526D03*
X766724Y67526D03*
D37*
X776218Y67526D03*
D32*
X782491Y67526D03*
D140*
X810641Y67526D03*
D19*
X841845Y67526D03*
D35*
X684422Y67691D03*
D137*
X700354Y67691D03*
X708774Y67691D03*
X714883Y67691D03*
X731063Y67691D03*
D33*
X740391Y67691D03*
D132*
X750627Y67691D03*
D137*
X757149Y67691D03*
X766724Y67691D03*
D132*
X776218Y67691D03*
D35*
X782491Y67691D03*
D189*
X810641Y67691D03*
D195*
X841762Y67691D03*
D32*
X684422Y67856D03*
D37*
X700272Y67856D03*
D31*
X708774Y67856D03*
X714883Y67856D03*
X731063Y67856D03*
D146*
X740391Y67856D03*
D37*
X750627Y67856D03*
D31*
X757149Y67856D03*
X766724Y67856D03*
D37*
X776218Y67856D03*
D32*
X782491Y67856D03*
D140*
X810641Y67856D03*
D20*
X841762Y67856D03*
D32*
X684422Y68021D03*
D37*
X700272Y68021D03*
D31*
X708774Y68021D03*
X714883Y68021D03*
X731063Y68021D03*
X740474Y68021D03*
D37*
X750627Y68021D03*
D31*
X757149Y68021D03*
D146*
X766642Y68021D03*
D37*
X776218Y68021D03*
D32*
X782491Y68021D03*
D140*
X810641Y68021D03*
D21*
X841680Y68021D03*
D32*
X684422Y68186D03*
D37*
X700272Y68186D03*
D146*
X708857Y68186D03*
D31*
X714883Y68186D03*
X731063Y68186D03*
X740474Y68186D03*
D37*
X750627Y68186D03*
X757231Y68186D03*
D36*
X766724Y68186D03*
X776135Y68186D03*
D32*
X782491Y68186D03*
D140*
X810641Y68186D03*
D20*
X841597Y68186D03*
D32*
X684422Y68351D03*
D31*
X700189Y68351D03*
D146*
X708857Y68351D03*
D31*
X714883Y68351D03*
X731063Y68351D03*
X740474Y68351D03*
D37*
X750627Y68351D03*
X757231Y68351D03*
D38*
X766807Y68351D03*
D36*
X776135Y68351D03*
D32*
X782491Y68351D03*
D140*
X810641Y68351D03*
D19*
X841515Y68351D03*
D35*
X684422Y68517D03*
D132*
X700107Y68517D03*
D33*
X708857Y68517D03*
D132*
X714966Y68517D03*
D137*
X731063Y68517D03*
D132*
X740556Y68517D03*
X750462Y68517D03*
D179*
X757314Y68517D03*
D40*
X766807Y68517D03*
D132*
X776053Y68517D03*
D35*
X782491Y68517D03*
D189*
X810641Y68517D03*
D195*
X841432Y68517D03*
D32*
X684422Y68682D03*
D36*
X700024Y68682D03*
X708939Y68682D03*
D37*
X714966Y68682D03*
D31*
X731063Y68682D03*
D37*
X740721Y68682D03*
X750462Y68682D03*
D39*
X757479Y68682D03*
D119*
X766890Y68682D03*
D37*
X776053Y68682D03*
D32*
X782491Y68682D03*
D140*
X810641Y68682D03*
D20*
X841432Y68682D03*
D31*
X684670Y68847D03*
D36*
X700024Y68847D03*
D146*
X709022Y68847D03*
D31*
X715048Y68847D03*
X731063Y68847D03*
D36*
X740804Y68847D03*
D146*
X750297Y68847D03*
D42*
X757561Y68847D03*
D43*
X766890Y68847D03*
D36*
X775970Y68847D03*
D31*
X782739Y68847D03*
D140*
X810641Y68847D03*
D22*
X841350Y68847D03*
D31*
X684670Y69012D03*
D146*
X699941Y69012D03*
D31*
X709105Y69012D03*
X715048Y69012D03*
X731063Y69012D03*
D36*
X740969Y69012D03*
X750214Y69012D03*
D175*
X757726Y69012D03*
D44*
X766972Y69012D03*
D36*
X775970Y69012D03*
D31*
X782739Y69012D03*
D140*
X810641Y69012D03*
D20*
X841267Y69012D03*
D31*
X684670Y69177D03*
D36*
X699859Y69177D03*
D31*
X709105Y69177D03*
X715048Y69177D03*
X731063Y69177D03*
D38*
X741051Y69177D03*
X750132Y69177D03*
D175*
X757726Y69177D03*
D178*
X766972Y69177D03*
D36*
X775970Y69177D03*
D31*
X782739Y69177D03*
D140*
X810641Y69177D03*
D21*
X841184Y69177D03*
D33*
X684752Y69342D03*
D196*
X694906Y69342D03*
D179*
X699859Y69342D03*
D137*
X709105Y69342D03*
D179*
X715213Y69342D03*
D196*
X725284Y69342D03*
D137*
X731063Y69342D03*
D126*
X741216Y69342D03*
D179*
X750049Y69342D03*
D197*
X757809Y69342D03*
D198*
X767055Y69342D03*
D179*
X775805Y69342D03*
D132*
X782822Y69342D03*
D196*
X792975Y69342D03*
D189*
X810641Y69342D03*
D199*
X841184Y69342D03*
D38*
X684917Y69507D03*
D14*
X694658Y69507D03*
D36*
X699859Y69507D03*
D37*
X709187Y69507D03*
D38*
X715296Y69507D03*
D81*
X725119Y69507D03*
D31*
X731063Y69507D03*
D39*
X741299Y69507D03*
D38*
X749967Y69507D03*
D46*
X757974Y69507D03*
D164*
X767055Y69507D03*
D38*
X775722Y69507D03*
X782987Y69507D03*
D81*
X792810Y69507D03*
D140*
X810641Y69507D03*
D21*
X841184Y69507D03*
D36*
X685000Y69672D03*
D103*
X694493Y69672D03*
D36*
X699859Y69672D03*
D31*
X709270Y69672D03*
D36*
X715378Y69672D03*
D15*
X724954Y69672D03*
D31*
X731063Y69672D03*
D125*
X741464Y69672D03*
D39*
X749884Y69672D03*
D46*
X757974Y69672D03*
D54*
X767137Y69672D03*
D38*
X775557Y69672D03*
D36*
X783069Y69672D03*
D15*
X792645Y69672D03*
D140*
X810641Y69672D03*
D20*
X841102Y69672D03*
D38*
X685082Y69837D03*
D19*
X694245Y69837D03*
D146*
X699776Y69837D03*
D31*
X709270Y69837D03*
D39*
X715543Y69837D03*
D19*
X724624Y69837D03*
D31*
X731063Y69837D03*
D42*
X741547Y69837D03*
X749637Y69837D03*
D51*
X758222Y69837D03*
D57*
X767220Y69837D03*
D39*
X775475Y69837D03*
X783234Y69837D03*
D19*
X792315Y69837D03*
D140*
X810641Y69837D03*
D20*
X841102Y69837D03*
D42*
X685248Y70002D03*
D27*
X693833Y70002D03*
D146*
X699776Y70002D03*
D37*
X709352Y70002D03*
D119*
X715874Y70002D03*
D26*
X724294Y70002D03*
D31*
X731063Y70002D03*
D183*
X741794Y70002D03*
D42*
X749471Y70002D03*
D158*
X758387Y70002D03*
D200*
X767302Y70002D03*
D119*
X775310Y70002D03*
D42*
X783317Y70002D03*
D26*
X791985Y70002D03*
D140*
X810641Y70002D03*
D20*
X841102Y70002D03*
D115*
X685413Y70168D03*
D35*
X693668Y70168D03*
D179*
X699694Y70168D03*
D132*
X709352Y70168D03*
D115*
X715956Y70168D03*
D201*
X724129Y70168D03*
D137*
X731063Y70168D03*
D115*
X741877Y70168D03*
D121*
X749389Y70168D03*
D180*
X758552Y70168D03*
D202*
X767220Y70168D03*
D176*
X775145Y70168D03*
D115*
X783482Y70168D03*
D35*
X791737Y70168D03*
D189*
X810641Y70168D03*
D199*
X841019Y70168D03*
D203*
X689210Y70333D03*
D36*
X699694Y70333D03*
D146*
X709517Y70333D03*
D131*
X719671Y70333D03*
D204*
X732796Y70333D03*
D205*
X745674Y70333D03*
D206*
X766394Y70333D03*
D131*
X787362Y70333D03*
D140*
X810641Y70333D03*
D21*
X840854Y70333D03*
D131*
X689292Y70498D03*
D31*
X699529Y70498D03*
X709600Y70498D03*
D172*
X719753Y70498D03*
D204*
X732796Y70498D03*
D166*
X745592Y70498D03*
D207*
X766312Y70498D03*
D172*
X787444Y70498D03*
D140*
X810641Y70498D03*
D21*
X840854Y70498D03*
D131*
X689292Y70663D03*
D37*
X699446Y70663D03*
D31*
X709600Y70663D03*
D172*
X719753Y70663D03*
D204*
X732796Y70663D03*
D166*
X745592Y70663D03*
D203*
X761524Y70663D03*
D154*
X772090Y70663D03*
D172*
X787444Y70663D03*
D140*
X810641Y70663D03*
D20*
X840772Y70663D03*
D205*
X689375Y70828D03*
D37*
X699446Y70828D03*
D146*
X709682Y70828D03*
D135*
X719919Y70828D03*
D204*
X732796Y70828D03*
D140*
X745592Y70828D03*
D203*
X761524Y70828D03*
D155*
X772173Y70828D03*
D134*
X787527Y70828D03*
D140*
X810641Y70828D03*
D21*
X840689Y70828D03*
D167*
X689458Y70993D03*
D132*
X699446Y70993D03*
D137*
X709765Y70993D03*
D170*
X719919Y70993D03*
D208*
X732796Y70993D03*
D189*
X745592Y70993D03*
D209*
X761524Y70993D03*
D34*
X772173Y70993D03*
D167*
X787527Y70993D03*
D189*
X810641Y70993D03*
D195*
X840607Y70993D03*
D135*
X689540Y71158D03*
D36*
X699364Y71158D03*
D31*
X709765Y71158D03*
D166*
X720001Y71158D03*
D204*
X732796Y71158D03*
D163*
X745674Y71158D03*
D27*
X756901Y71158D03*
D155*
X762762Y71158D03*
D193*
X772255Y71158D03*
D135*
X787610Y71158D03*
D140*
X810641Y71158D03*
D20*
X840607Y71158D03*
D135*
X689540Y71323D03*
D37*
X699281Y71323D03*
D146*
X709847Y71323D03*
D166*
X720001Y71323D03*
D204*
X732796Y71323D03*
D145*
X745592Y71323D03*
D27*
X756901Y71323D03*
D210*
X762762Y71323D03*
D152*
X772255Y71323D03*
D135*
X787610Y71323D03*
D140*
X810641Y71323D03*
D22*
X840524Y71323D03*
D166*
X689623Y71488D03*
D36*
X699198Y71488D03*
D146*
X709847Y71488D03*
D165*
X720084Y71488D03*
D204*
X732796Y71488D03*
D153*
X745592Y71488D03*
D27*
X756901Y71488D03*
D152*
X762845Y71488D03*
D185*
X772338Y71488D03*
D166*
X787692Y71488D03*
D140*
X810641Y71488D03*
D20*
X840442Y71488D03*
D165*
X689705Y71653D03*
D36*
X699198Y71653D03*
X709930Y71653D03*
D165*
X720084Y71653D03*
D204*
X732796Y71653D03*
D154*
X745674Y71653D03*
D27*
X756901Y71653D03*
D211*
X762845Y71653D03*
D185*
X772338Y71653D03*
D165*
X787775Y71653D03*
D140*
X810641Y71653D03*
D21*
X840359Y71653D03*
D212*
X689788Y71819D03*
D179*
X699198Y71819D03*
D132*
X710013Y71819D03*
D189*
X720166Y71819D03*
D208*
X732796Y71819D03*
D213*
X745674Y71819D03*
D214*
X756901Y71819D03*
D215*
X762927Y71819D03*
D216*
X772420Y71819D03*
D189*
X787857Y71819D03*
X810641Y71819D03*
D199*
X840359Y71819D03*
D141*
X689953Y71984D03*
D36*
X699033Y71984D03*
D37*
X710178Y71984D03*
D141*
X720331Y71984D03*
D204*
X732796Y71984D03*
D152*
X745674Y71984D03*
D27*
X756901Y71984D03*
D217*
X762927Y71984D03*
D218*
X772420Y71984D03*
D141*
X788022Y71984D03*
D140*
X810641Y71984D03*
D25*
X840276Y71984D03*
D145*
X690118Y72149D03*
D146*
X698951Y72149D03*
D37*
X710178Y72149D03*
D156*
X720579Y72149D03*
D204*
X732796Y72149D03*
D194*
X745592Y72149D03*
D219*
X756818Y72149D03*
D220*
X762845Y72149D03*
D204*
X772420Y72149D03*
D156*
X788270Y72149D03*
D140*
X810641Y72149D03*
D21*
X840194Y72149D03*
D221*
X689953Y72314D03*
D146*
X698951Y72314D03*
D37*
X710178Y72314D03*
D193*
X720579Y72314D03*
D204*
X732796Y72314D03*
D218*
X745674Y72314D03*
D219*
X756818Y72314D03*
D53*
X762927Y72314D03*
D222*
X772503Y72314D03*
D223*
X788105Y72314D03*
D140*
X810641Y72314D03*
D20*
X840111Y72314D03*
D151*
X689953Y72479D03*
D36*
X698868Y72479D03*
D31*
X710260Y72479D03*
D152*
X720414Y72479D03*
D204*
X732796Y72479D03*
D224*
X745757Y72479D03*
D219*
X756818Y72479D03*
D164*
X762927Y72479D03*
D174*
X772503Y72479D03*
D152*
X788105Y72479D03*
D140*
X810641Y72479D03*
D21*
X840029Y72479D03*
D225*
X689870Y72644D03*
D33*
X698786Y72644D03*
X710343Y72644D03*
D226*
X720331Y72644D03*
D208*
X732796Y72644D03*
D161*
X745757Y72644D03*
D227*
X756818Y72644D03*
D48*
X763010Y72644D03*
D228*
X772503Y72644D03*
D225*
X787940Y72644D03*
D189*
X810641Y72644D03*
D23*
X839946Y72644D03*
D54*
X689705Y72809D03*
D146*
X698786Y72809D03*
X710343Y72809D03*
D164*
X720166Y72809D03*
D204*
X732796Y72809D03*
D44*
X745674Y72809D03*
D219*
X756818Y72809D03*
D42*
X763010Y72809D03*
X772585Y72809D03*
D54*
X787775Y72809D03*
D140*
X810641Y72809D03*
D21*
X839864Y72809D03*
D46*
X689623Y72974D03*
D36*
X698703Y72974D03*
X710425Y72974D03*
D178*
X720084Y72974D03*
D204*
X732796Y72974D03*
D42*
X745674Y72974D03*
D25*
X756736Y72974D03*
D36*
X762927Y72974D03*
D31*
X772503Y72974D03*
D46*
X787692Y72974D03*
D140*
X810641Y72974D03*
D21*
X839864Y72974D03*
D27*
X730815Y73139D03*
D140*
X810641Y73139D03*
D25*
X839781Y73139D03*
D27*
X730815Y73304D03*
D140*
X810641Y73304D03*
D22*
X839699Y73304D03*
D229*
X730733Y73470D03*
D189*
X810641Y73470D03*
D24*
X839699Y73470D03*
D26*
X730733Y73635D03*
D165*
X810724Y73635D03*
D21*
X839533Y73635D03*
D25*
X730650Y73800D03*
D165*
X810724Y73800D03*
D21*
X839533Y73800D03*
D25*
X730650Y73965D03*
D165*
X810724Y73965D03*
D21*
X839533Y73965D03*
D25*
X730650Y74130D03*
D165*
X810724Y74130D03*
D25*
X839451Y74130D03*
D23*
X730650Y74295D03*
D230*
X810724Y74295D03*
D23*
X839451Y74295D03*
D25*
X730650Y74460D03*
D165*
X810724Y74460D03*
D25*
X839286Y74460D03*
X730650Y74625D03*
D165*
X810724Y74625D03*
D25*
X839286Y74625D03*
D21*
X730567Y74790D03*
D165*
X810724Y74790D03*
D25*
X839121Y74790D03*
D21*
X730567Y74955D03*
D165*
X810724Y74955D03*
D25*
X839121Y74955D03*
D199*
X730567Y75121D03*
D230*
X810724Y75121D03*
D23*
X838956Y75121D03*
D21*
X730567Y75286D03*
D165*
X810724Y75286D03*
D25*
X838956Y75286D03*
D21*
X730567Y75451D03*
D165*
X810724Y75451D03*
D25*
X838956Y75451D03*
D21*
X730567Y75616D03*
D165*
X810724Y75616D03*
D25*
X838791Y75616D03*
D21*
X730567Y75781D03*
D165*
X810724Y75781D03*
D26*
X838708Y75781D03*
D199*
X730567Y75946D03*
D230*
X810724Y75946D03*
D23*
X838625Y75946D03*
D165*
X810724Y76111D03*
D25*
X838625Y76111D03*
D165*
X810724Y76276D03*
D219*
X838543Y76276D03*
D165*
X810724Y76441D03*
D25*
X838460Y76441D03*
D165*
X810724Y76606D03*
D219*
X838378Y76606D03*
D230*
X810724Y76772D03*
D23*
X838295Y76772D03*
D165*
X810724Y76937D03*
D25*
X838295Y76937D03*
D165*
X810724Y77102D03*
D25*
X838130Y77102D03*
D165*
X810724Y77267D03*
D25*
X838130Y77267D03*
D165*
X810724Y77432D03*
D25*
X838130Y77432D03*
D230*
X810724Y77597D03*
D23*
X837965Y77597D03*
D165*
X810724Y77762D03*
D25*
X837965Y77762D03*
D165*
X810724Y77927D03*
D26*
X837883Y77927D03*
D165*
X810724Y78092D03*
D219*
X837717Y78092D03*
D165*
X810724Y78257D03*
D219*
X837717Y78257D03*
D230*
X810724Y78423D03*
D227*
X837552Y78423D03*
D165*
X810724Y78588D03*
D219*
X837552Y78588D03*
D165*
X810724Y78753D03*
D27*
X837470Y78753D03*
D165*
X810724Y78918D03*
D26*
X837387Y78918D03*
D165*
X810724Y79083D03*
D25*
X837305Y79083D03*
D230*
X810724Y79248D03*
D229*
X837222Y79248D03*
D165*
X810724Y79413D03*
D27*
X837140Y79413D03*
D165*
X810724Y79578D03*
D27*
X836974Y79578D03*
D165*
X810724Y79743D03*
D27*
X836974Y79743D03*
D165*
X810724Y79908D03*
D219*
X836892Y79908D03*
D230*
X810724Y80074D03*
D227*
X836892Y80074D03*
D165*
X810724Y80239D03*
D25*
X836809Y80239D03*
D165*
X810724Y80404D03*
D25*
X836809Y80404D03*
D165*
X810724Y80569D03*
D25*
X836644Y80569D03*
D37*
X731476Y80734D03*
D165*
X810724Y80734D03*
D26*
X836562Y80734D03*
D132*
X731476Y80899D03*
D230*
X810724Y80899D03*
D214*
X836479Y80899D03*
D37*
X731476Y81064D03*
D165*
X810724Y81064D03*
D26*
X836397Y81064D03*
D37*
X731476Y81229D03*
D165*
X810724Y81229D03*
D26*
X836397Y81229D03*
D37*
X731476Y81394D03*
D165*
X810724Y81394D03*
D27*
X836314Y81394D03*
D37*
X731476Y81559D03*
D165*
X810724Y81559D03*
D27*
X836149Y81559D03*
D132*
X731476Y81725D03*
D230*
X810724Y81725D03*
D214*
X836149Y81725D03*
D37*
X731476Y81890D03*
D165*
X810724Y81890D03*
D29*
X836066Y81890D03*
D37*
X731476Y82055D03*
D165*
X810724Y82055D03*
D27*
X835984Y82055D03*
D37*
X731476Y82220D03*
D165*
X810724Y82220D03*
D219*
X835901Y82220D03*
D37*
X731476Y82385D03*
D165*
X810724Y82385D03*
D29*
X835736Y82385D03*
D132*
X731476Y82550D03*
D230*
X810724Y82550D03*
D214*
X835654Y82550D03*
D37*
X731476Y82715D03*
D165*
X810724Y82715D03*
D29*
X835571Y82715D03*
D37*
X731476Y82880D03*
D165*
X810724Y82880D03*
D27*
X835489Y82880D03*
D37*
X731476Y83045D03*
D165*
X810724Y83045D03*
D26*
X835406Y83045D03*
D37*
X731476Y83210D03*
D165*
X810724Y83210D03*
D27*
X835323Y83210D03*
D132*
X731476Y83376D03*
D230*
X810724Y83376D03*
D214*
X835323Y83376D03*
D37*
X731476Y83541D03*
D165*
X810724Y83541D03*
D219*
X835241Y83541D03*
D37*
X731476Y83706D03*
D165*
X810724Y83706D03*
D27*
X835158Y83706D03*
D37*
X731476Y83871D03*
D165*
X810724Y83871D03*
D27*
X834993Y83871D03*
D37*
X731476Y84036D03*
D165*
X810724Y84036D03*
D27*
X834828Y84036D03*
D132*
X731476Y84201D03*
D230*
X810724Y84201D03*
D214*
X834828Y84201D03*
D37*
X731476Y84366D03*
D165*
X810724Y84366D03*
D29*
X834746Y84366D03*
D37*
X731476Y84531D03*
D165*
X810724Y84531D03*
D29*
X834746Y84531D03*
D37*
X731476Y84696D03*
D165*
X810724Y84696D03*
D29*
X834581Y84696D03*
D37*
X731476Y84861D03*
D165*
X810724Y84861D03*
D27*
X834498Y84861D03*
D132*
X731476Y85027D03*
D230*
X810724Y85027D03*
D201*
X834415Y85027D03*
D37*
X731476Y85192D03*
D165*
X810724Y85192D03*
D29*
X834415Y85192D03*
D37*
X731476Y85357D03*
D165*
X810724Y85357D03*
D29*
X834250Y85357D03*
D37*
X731476Y85522D03*
D165*
X810724Y85522D03*
D29*
X834085Y85522D03*
D37*
X731476Y85687D03*
D165*
X810724Y85687D03*
D27*
X834003Y85687D03*
D132*
X731476Y85852D03*
D230*
X810724Y85852D03*
D214*
X834003Y85852D03*
D37*
X731476Y86017D03*
D165*
X810724Y86017D03*
D29*
X833920Y86017D03*
D37*
X731476Y86182D03*
D165*
X810724Y86182D03*
D27*
X833838Y86182D03*
D37*
X731476Y86347D03*
D165*
X810724Y86347D03*
D29*
X833755Y86347D03*
D37*
X731476Y86512D03*
D165*
X810724Y86512D03*
D29*
X833590Y86512D03*
D132*
X731476Y86678D03*
D230*
X810724Y86678D03*
D214*
X833507Y86678D03*
D36*
X720166Y86843D03*
D37*
X731476Y86843D03*
D27*
X736429Y86843D03*
X751948Y86843D03*
D20*
X758717Y86843D03*
D36*
X771512Y86843D03*
X786041Y86843D03*
D165*
X810724Y86843D03*
D29*
X833425Y86843D03*
D178*
X720084Y87008D03*
D37*
X731476Y87008D03*
D42*
X736429Y87008D03*
D39*
X752030Y87008D03*
D20*
X758717Y87008D03*
D44*
X771430Y87008D03*
D49*
X786041Y87008D03*
D165*
X810724Y87008D03*
D27*
X833342Y87008D03*
D224*
X719836Y87173D03*
D37*
X731476Y87173D03*
D49*
X736511Y87173D03*
X752030Y87173D03*
D21*
X758634Y87173D03*
D204*
X771595Y87173D03*
D200*
X786289Y87173D03*
D165*
X810724Y87173D03*
D29*
X833260Y87173D03*
D185*
X719836Y87338D03*
D37*
X731476Y87338D03*
D56*
X736594Y87338D03*
D53*
X752031Y87338D03*
D21*
X758634Y87338D03*
D231*
X771595Y87338D03*
D232*
X786289Y87338D03*
D165*
X810724Y87338D03*
D32*
X833177Y87338D03*
D233*
X719671Y87503D03*
D132*
X731476Y87503D03*
D147*
X736511Y87503D03*
D234*
X752113Y87503D03*
D23*
X758552Y87503D03*
D235*
X771430Y87503D03*
D233*
X786371Y87503D03*
D230*
X810724Y87503D03*
D201*
X833095Y87503D03*
D153*
X719506Y87668D03*
D141*
X735025Y87668D03*
D218*
X752113Y87668D03*
D219*
X758469Y87668D03*
D152*
X771265Y87668D03*
D155*
X786371Y87668D03*
D165*
X810724Y87668D03*
D32*
X833012Y87668D03*
D142*
X719588Y87833D03*
D190*
X735190Y87833D03*
D184*
X752113Y87833D03*
D219*
X758469Y87833D03*
D193*
X771100Y87833D03*
D153*
X786206Y87833D03*
D165*
X810724Y87833D03*
D29*
X832930Y87833D03*
D141*
X719671Y87998D03*
D165*
X735273Y87998D03*
D185*
X752196Y87998D03*
D219*
X758469Y87998D03*
D28*
X771017Y87998D03*
D188*
X786124Y87998D03*
D165*
X810724Y87998D03*
D32*
X832847Y87998D03*
D140*
X719836Y88163D03*
D135*
X735438Y88163D03*
D236*
X752196Y88163D03*
D27*
X758387Y88163D03*
D155*
X770852Y88163D03*
D142*
X785959Y88163D03*
D165*
X810724Y88163D03*
D31*
X832764Y88163D03*
D138*
X720001Y88329D03*
D237*
X735603Y88329D03*
D192*
X752196Y88329D03*
D201*
X758304Y88329D03*
D238*
X770604Y88329D03*
D212*
X785711Y88329D03*
D230*
X810724Y88329D03*
D239*
X832682Y88329D03*
D166*
X720001Y88494D03*
D131*
X735686Y88494D03*
D130*
X753599Y88494D03*
D145*
X770522Y88494D03*
D190*
X785711Y88494D03*
D165*
X810724Y88494D03*
D29*
X832599Y88494D03*
D135*
X720084Y88659D03*
D203*
X735768Y88659D03*
D240*
X753516Y88659D03*
D145*
X770522Y88659D03*
D166*
X785546Y88659D03*
D165*
X810724Y88659D03*
D29*
X832434Y88659D03*
D134*
X720166Y88824D03*
D241*
X735851Y88824D03*
D240*
X753516Y88824D03*
D142*
X770439Y88824D03*
D166*
X785546Y88824D03*
D165*
X810724Y88824D03*
D32*
X832352Y88824D03*
D134*
X720166Y88989D03*
D130*
X735933Y88989D03*
D124*
X753434Y88989D03*
D157*
X770357Y88989D03*
D135*
X785463Y88989D03*
D165*
X810724Y88989D03*
D29*
X832269Y88989D03*
D168*
X720249Y89154D03*
D242*
X735933Y89154D03*
D243*
X753351Y89154D03*
D159*
X770274Y89154D03*
D237*
X785298Y89154D03*
D230*
X810724Y89154D03*
D201*
X832104Y89154D03*
D172*
X720249Y89319D03*
D130*
X735933Y89319D03*
D244*
X753351Y89319D03*
D140*
X770192Y89319D03*
D205*
X785298Y89319D03*
D165*
X810724Y89319D03*
D29*
X832104Y89319D03*
D131*
X720331Y89484D03*
D124*
X736098Y89484D03*
D244*
X753351Y89484D03*
D165*
X770109Y89484D03*
D131*
X785216Y89484D03*
D165*
X810724Y89484D03*
D32*
X832021Y89484D03*
D119*
X716534Y89649D03*
D45*
X723881Y89649D03*
D124*
X736098Y89649D03*
D43*
X749059Y89649D03*
D57*
X756488Y89649D03*
D174*
X767385Y89649D03*
D27*
X774236Y89649D03*
D158*
X782161Y89649D03*
D31*
X789508Y89649D03*
D165*
X810724Y89649D03*
D30*
X831856Y89649D03*
D32*
X715956Y89814D03*
D175*
X724211Y89814D03*
D174*
X732549Y89814D03*
D51*
X739896Y89814D03*
D119*
X748894Y89814D03*
D222*
X756818Y89814D03*
D46*
X766890Y89814D03*
D136*
X774897Y89814D03*
D46*
X781583Y89814D03*
D20*
X790086Y89814D03*
D165*
X810724Y89814D03*
D29*
X831774Y89814D03*
D229*
X715709Y89980D03*
D115*
X724376Y89980D03*
D48*
X732301Y89980D03*
D245*
X740143Y89980D03*
D40*
X748646Y89980D03*
D177*
X756983Y89980D03*
D47*
X766642Y89980D03*
D101*
X775062Y89980D03*
D47*
X781336Y89980D03*
D182*
X790251Y89980D03*
D230*
X810724Y89980D03*
D35*
X831691Y89980D03*
D103*
X715131Y90145D03*
D38*
X724706Y90145D03*
D39*
X731723Y90145D03*
D175*
X740721Y90145D03*
D36*
X748398Y90145D03*
D44*
X757396Y90145D03*
D175*
X766312Y90145D03*
D119*
X780923Y90145D03*
D165*
X810724Y90145D03*
D32*
X831526Y90145D03*
D14*
X714966Y90310D03*
D38*
X724706Y90310D03*
X731641Y90310D03*
D175*
X740721Y90310D03*
D38*
X748316Y90310D03*
D43*
X757479Y90310D03*
D175*
X766147Y90310D03*
D42*
X780840Y90310D03*
D165*
X810724Y90310D03*
D31*
X831444Y90310D03*
D37*
X724872Y90475D03*
X731476Y90475D03*
D183*
X740969Y90475D03*
D36*
X748233Y90475D03*
D183*
X757644Y90475D03*
D42*
X765981Y90475D03*
D38*
X780675Y90475D03*
D165*
X810724Y90475D03*
D31*
X831444Y90475D03*
D37*
X724872Y90640D03*
X731476Y90640D03*
D42*
X741051Y90640D03*
D37*
X748151Y90640D03*
D39*
X757809Y90640D03*
X765899Y90640D03*
D38*
X780510Y90640D03*
D165*
X810724Y90640D03*
D31*
X831279Y90640D03*
D132*
X725037Y90805D03*
X731476Y90805D03*
D41*
X741134Y90805D03*
D132*
X748151Y90805D03*
D126*
X757892Y90805D03*
X765816Y90805D03*
X780510Y90805D03*
D230*
X810724Y90805D03*
D35*
X831196Y90805D03*
D37*
X725037Y90970D03*
X731476Y90970D03*
D39*
X741299Y90970D03*
D31*
X748068Y90970D03*
D37*
X758057Y90970D03*
D38*
X765651Y90970D03*
X780345Y90970D03*
D165*
X810724Y90970D03*
D31*
X831113Y90970D03*
X725119Y91135D03*
D37*
X731476Y91135D03*
D38*
X741382Y91135D03*
D31*
X748068Y91135D03*
D37*
X758057Y91135D03*
D38*
X765651Y91135D03*
D36*
X780263Y91135D03*
D165*
X810724Y91135D03*
D30*
X831031Y91135D03*
D31*
X725119Y91300D03*
D37*
X731476Y91300D03*
D38*
X741547Y91300D03*
D37*
X747986Y91300D03*
D31*
X758139Y91300D03*
D38*
X765651Y91300D03*
D37*
X780180Y91300D03*
D165*
X810724Y91300D03*
D30*
X831031Y91300D03*
D146*
X725202Y91465D03*
D37*
X731476Y91465D03*
D38*
X741547Y91465D03*
D37*
X747986Y91465D03*
D31*
X758139Y91465D03*
D36*
X765404Y91465D03*
X780097Y91465D03*
D165*
X810724Y91465D03*
D32*
X830866Y91465D03*
D33*
X725202Y91631D03*
D132*
X731476Y91631D03*
D126*
X741712Y91631D03*
D137*
X747903Y91631D03*
X758139Y91631D03*
D179*
X765238Y91631D03*
X779932Y91631D03*
D230*
X810724Y91631D03*
D137*
X830618Y91631D03*
D146*
X725202Y91796D03*
D37*
X731476Y91796D03*
D36*
X741794Y91796D03*
D31*
X747903Y91796D03*
X758139Y91796D03*
D36*
X765238Y91796D03*
D146*
X779850Y91796D03*
D165*
X810724Y91796D03*
D32*
X830536Y91796D03*
D146*
X725202Y91961D03*
D37*
X731476Y91961D03*
D36*
X741794Y91961D03*
D31*
X747903Y91961D03*
X758139Y91961D03*
D146*
X765156Y91961D03*
D31*
X779767Y91961D03*
D165*
X810724Y91961D03*
D31*
X830453Y91961D03*
D146*
X725202Y92126D03*
D37*
X731476Y92126D03*
D36*
X741794Y92126D03*
D31*
X747903Y92126D03*
X758139Y92126D03*
D36*
X765073Y92126D03*
D31*
X779767Y92126D03*
D165*
X810724Y92126D03*
D32*
X830370Y92126D03*
D146*
X725202Y92291D03*
D37*
X731476Y92291D03*
D146*
X741877Y92291D03*
D31*
X747903Y92291D03*
X758139Y92291D03*
D146*
X764991Y92291D03*
D31*
X779602Y92291D03*
D165*
X810724Y92291D03*
D30*
X830205Y92291D03*
D33*
X725202Y92456D03*
D132*
X731476Y92456D03*
D33*
X741877Y92456D03*
D137*
X747903Y92456D03*
X758139Y92456D03*
D33*
X764991Y92456D03*
D137*
X779602Y92456D03*
D230*
X810724Y92456D03*
D137*
X830123Y92456D03*
D146*
X725202Y92621D03*
D37*
X731476Y92621D03*
D146*
X741877Y92621D03*
D31*
X747903Y92621D03*
X758139Y92621D03*
D146*
X764991Y92621D03*
D31*
X779602Y92621D03*
D165*
X810724Y92621D03*
D31*
X830123Y92621D03*
D19*
X697713Y92786D03*
D31*
X725119Y92786D03*
D37*
X731476Y92786D03*
D146*
X742042Y92786D03*
D31*
X747903Y92786D03*
X758139Y92786D03*
X764908Y92786D03*
X779602Y92786D03*
D165*
X810724Y92786D03*
D146*
X830040Y92786D03*
D25*
X682606Y92951D03*
X691026Y92951D03*
D178*
X697630Y92951D03*
D21*
X703161Y92951D03*
D22*
X710095Y92951D03*
D37*
X725037Y92951D03*
X731476Y92951D03*
D146*
X742042Y92951D03*
D37*
X747986Y92951D03*
D31*
X758139Y92951D03*
D146*
X764826Y92951D03*
D32*
X779520Y92951D03*
D165*
X810724Y92951D03*
D37*
X829875Y92951D03*
D25*
X682606Y93116D03*
X690861Y93116D03*
D164*
X697713Y93116D03*
D21*
X703161Y93116D03*
D22*
X710095Y93116D03*
D37*
X725037Y93116D03*
X731476Y93116D03*
D31*
X742125Y93116D03*
X748068Y93116D03*
X758139Y93116D03*
X764743Y93116D03*
D32*
X779355Y93116D03*
D165*
X810724Y93116D03*
D31*
X829793Y93116D03*
D199*
X682688Y93282D03*
D23*
X690861Y93282D03*
D246*
X697713Y93282D03*
D199*
X703161Y93282D03*
D24*
X710095Y93282D03*
D179*
X724954Y93282D03*
D132*
X731476Y93282D03*
D137*
X742125Y93282D03*
X748068Y93282D03*
X758139Y93282D03*
D132*
X764661Y93282D03*
D35*
X779355Y93282D03*
D230*
X810724Y93282D03*
D35*
X829710Y93282D03*
D20*
X682771Y93447D03*
D25*
X690861Y93447D03*
D204*
X697465Y93447D03*
D21*
X703161Y93447D03*
D22*
X710095Y93447D03*
D37*
X724872Y93447D03*
X731476Y93447D03*
D31*
X742125Y93447D03*
X748068Y93447D03*
X758139Y93447D03*
D37*
X764661Y93447D03*
D32*
X779355Y93447D03*
D165*
X810724Y93447D03*
D31*
X829628Y93447D03*
D22*
X682854Y93612D03*
D25*
X690696Y93612D03*
D200*
X697300Y93612D03*
D21*
X703161Y93612D03*
D22*
X710095Y93612D03*
D38*
X724706Y93612D03*
D37*
X731476Y93612D03*
D31*
X742125Y93612D03*
D37*
X748151Y93612D03*
D31*
X758139Y93612D03*
X764578Y93612D03*
X779272Y93612D03*
D165*
X810724Y93612D03*
D31*
X829462Y93612D03*
D22*
X682854Y93777D03*
D25*
X690531Y93777D03*
D200*
X697300Y93777D03*
D21*
X703161Y93777D03*
D22*
X710095Y93777D03*
D38*
X724706Y93777D03*
D37*
X731476Y93777D03*
D32*
X742207Y93777D03*
D36*
X748233Y93777D03*
D31*
X758139Y93777D03*
X764578Y93777D03*
X779272Y93777D03*
D165*
X810724Y93777D03*
D31*
X829297Y93777D03*
D22*
X682854Y93942D03*
D25*
X690531Y93942D03*
D247*
X697217Y93942D03*
D21*
X703161Y93942D03*
D22*
X710095Y93942D03*
D183*
X724459Y93942D03*
D37*
X731476Y93942D03*
D31*
X742290Y93942D03*
D36*
X748233Y93942D03*
D31*
X758139Y93942D03*
X764578Y93942D03*
X779272Y93942D03*
D165*
X810724Y93942D03*
D31*
X829297Y93942D03*
D23*
X682936Y94107D03*
X690531Y94107D03*
D225*
X697135Y94107D03*
D199*
X703161Y94107D03*
D24*
X710095Y94107D03*
D197*
X724294Y94107D03*
D132*
X731476Y94107D03*
D137*
X742290Y94107D03*
D126*
X748316Y94107D03*
D137*
X758139Y94107D03*
X764578Y94107D03*
X779272Y94107D03*
D230*
X810724Y94107D03*
D137*
X829132Y94107D03*
D25*
X682936Y94272D03*
X690366Y94272D03*
D217*
X697052Y94272D03*
D21*
X703161Y94272D03*
D22*
X710095Y94272D03*
D46*
X723964Y94272D03*
D37*
X731476Y94272D03*
D31*
X742290Y94272D03*
D36*
X748398Y94272D03*
D31*
X758139Y94272D03*
X764578Y94272D03*
X779272Y94272D03*
D165*
X810724Y94272D03*
D32*
X829050Y94272D03*
D25*
X683101Y94437D03*
X690366Y94437D03*
D42*
X694988Y94437D03*
D25*
X699611Y94437D03*
D21*
X703161Y94437D03*
D22*
X710095Y94437D03*
D153*
X721487Y94437D03*
D37*
X731476Y94437D03*
D31*
X742290Y94437D03*
D119*
X748729Y94437D03*
D31*
X758139Y94437D03*
X764578Y94437D03*
X779272Y94437D03*
D165*
X810724Y94437D03*
D37*
X828885Y94437D03*
D21*
X683184Y94602D03*
D22*
X690283Y94602D03*
D27*
X694328Y94602D03*
D21*
X699694Y94602D03*
X703161Y94602D03*
D22*
X710095Y94602D03*
D153*
X721322Y94602D03*
D37*
X731476Y94602D03*
D31*
X742290Y94602D03*
D119*
X748894Y94602D03*
D31*
X758139Y94602D03*
D32*
X764496Y94602D03*
D31*
X779272Y94602D03*
D165*
X810724Y94602D03*
D31*
X828637Y94602D03*
D25*
X683266Y94767D03*
D21*
X690118Y94767D03*
D29*
X694246Y94767D03*
D21*
X699694Y94767D03*
X703161Y94767D03*
D22*
X710095Y94767D03*
D145*
X721157Y94767D03*
D37*
X731476Y94767D03*
D31*
X742290Y94767D03*
D43*
X749059Y94767D03*
D39*
X757809Y94767D03*
D31*
X764413Y94767D03*
D114*
X784638Y94767D03*
D165*
X810724Y94767D03*
D31*
X828637Y94767D03*
D199*
X683349Y94933D03*
X690118Y94933D03*
D214*
X693998Y94933D03*
D199*
X699694Y94933D03*
X703161Y94933D03*
D24*
X710095Y94933D03*
D144*
X720909Y94933D03*
D132*
X731476Y94933D03*
D137*
X742290Y94933D03*
D248*
X749637Y94933D03*
D52*
X756901Y94933D03*
D137*
X764413Y94933D03*
D116*
X784638Y94933D03*
D230*
X810724Y94933D03*
D33*
X828554Y94933D03*
D21*
X683349Y95098D03*
X690118Y95098D03*
D219*
X693915Y95098D03*
D21*
X699694Y95098D03*
X703161Y95098D03*
D22*
X710095Y95098D03*
D142*
X720744Y95098D03*
D37*
X731476Y95098D03*
D31*
X742290Y95098D03*
D244*
X753351Y95098D03*
D31*
X764413Y95098D03*
D114*
X784638Y95098D03*
D165*
X810724Y95098D03*
D146*
X828389Y95098D03*
D25*
X683431Y95263D03*
X690035Y95263D03*
D27*
X693833Y95263D03*
D21*
X699694Y95263D03*
X703161Y95263D03*
D22*
X710095Y95263D03*
D141*
X720661Y95263D03*
D37*
X731476Y95263D03*
D32*
X742372Y95263D03*
D124*
X753434Y95263D03*
D31*
X764413Y95263D03*
D114*
X784638Y95263D03*
D165*
X810724Y95263D03*
D146*
X828389Y95263D03*
D21*
X683514Y95428D03*
D25*
X690035Y95428D03*
X693668Y95428D03*
D21*
X699694Y95428D03*
X703161Y95428D03*
D22*
X710095Y95428D03*
D141*
X720496Y95428D03*
D37*
X731476Y95428D03*
D32*
X742372Y95428D03*
D240*
X753516Y95428D03*
D31*
X764413Y95428D03*
D114*
X784638Y95428D03*
D165*
X810724Y95428D03*
D31*
X828307Y95428D03*
D20*
X683597Y95593D03*
D25*
X690035Y95593D03*
D26*
X693585Y95593D03*
D21*
X699694Y95593D03*
X703161Y95593D03*
D22*
X710095Y95593D03*
D141*
X720331Y95593D03*
D37*
X731476Y95593D03*
D32*
X742372Y95593D03*
D240*
X753516Y95593D03*
D31*
X764413Y95593D03*
D114*
X784638Y95593D03*
D165*
X810724Y95593D03*
D31*
X828307Y95593D03*
D24*
X683679Y95758D03*
D23*
X689870Y95758D03*
X693503Y95758D03*
D199*
X699694Y95758D03*
X703161Y95758D03*
D24*
X710095Y95758D03*
D159*
X720249Y95758D03*
D132*
X731476Y95758D03*
D35*
X742372Y95758D03*
D242*
X753599Y95758D03*
D137*
X764413Y95758D03*
D116*
X784638Y95758D03*
D230*
X810724Y95758D03*
D132*
X828059Y95758D03*
D25*
X683762Y95923D03*
D158*
X688054Y95923D03*
D25*
X693503Y95923D03*
D21*
X699694Y95923D03*
X703161Y95923D03*
D22*
X710095Y95923D03*
D140*
X720166Y95923D03*
D37*
X731476Y95923D03*
D32*
X742372Y95923D03*
D130*
X753599Y95923D03*
D31*
X764413Y95923D03*
D114*
X784638Y95923D03*
D165*
X810724Y95923D03*
D146*
X827894Y95923D03*
D21*
X683844Y96088D03*
D158*
X688054Y96088D03*
D21*
X693255Y96088D03*
X699694Y96088D03*
X703161Y96088D03*
D22*
X710095Y96088D03*
D163*
X719919Y96088D03*
D37*
X731476Y96088D03*
D32*
X742372Y96088D03*
D241*
X753681Y96088D03*
D31*
X764413Y96088D03*
D114*
X784638Y96088D03*
D165*
X810724Y96088D03*
D31*
X827811Y96088D03*
D25*
X683927Y96253D03*
D51*
X688054Y96253D03*
D21*
X693255Y96253D03*
X699694Y96253D03*
X703161Y96253D03*
D22*
X710095Y96253D03*
D142*
X719753Y96253D03*
D37*
X731476Y96253D03*
D32*
X742372Y96253D03*
D203*
X753764Y96253D03*
D31*
X764413Y96253D03*
D114*
X784638Y96253D03*
D165*
X810724Y96253D03*
D36*
X827646Y96253D03*
D21*
X684009Y96418D03*
D51*
X688054Y96418D03*
D21*
X693255Y96418D03*
X699694Y96418D03*
X703161Y96418D03*
D22*
X710095Y96418D03*
D156*
X719588Y96418D03*
D37*
X731476Y96418D03*
D32*
X742372Y96418D03*
D205*
X753929Y96418D03*
D31*
X764413Y96418D03*
D114*
X784638Y96418D03*
D165*
X810724Y96418D03*
D31*
X827481Y96418D03*
D199*
X684009Y96584D03*
D248*
X688054Y96584D03*
D199*
X693255Y96584D03*
X699694Y96584D03*
X703161Y96584D03*
D24*
X710095Y96584D03*
D238*
X719423Y96584D03*
D132*
X731476Y96584D03*
D35*
X742372Y96584D03*
D167*
X754012Y96584D03*
D137*
X764413Y96584D03*
D116*
X784638Y96584D03*
D230*
X810724Y96584D03*
D132*
X827399Y96584D03*
D21*
X684174Y96749D03*
D49*
X687972Y96749D03*
D20*
X693172Y96749D03*
D21*
X699694Y96749D03*
X703161Y96749D03*
D22*
X710095Y96749D03*
D154*
X719258Y96749D03*
D37*
X731476Y96749D03*
D32*
X742372Y96749D03*
D166*
X754177Y96749D03*
D31*
X764413Y96749D03*
D114*
X784638Y96749D03*
D165*
X810724Y96749D03*
D31*
X827316Y96749D03*
D21*
X684174Y96914D03*
D46*
X687972Y96914D03*
D20*
X693172Y96914D03*
D21*
X699694Y96914D03*
X703161Y96914D03*
D22*
X710095Y96914D03*
D221*
X718845Y96914D03*
D37*
X731476Y96914D03*
D32*
X742372Y96914D03*
D190*
X754342Y96914D03*
D31*
X764413Y96914D03*
D114*
X784638Y96914D03*
D165*
X810724Y96914D03*
D37*
X827234Y96914D03*
D20*
X684257Y97079D03*
D46*
X687972Y97079D03*
D20*
X693172Y97079D03*
D21*
X699694Y97079D03*
X703161Y97079D03*
D22*
X710095Y97079D03*
D210*
X718680Y97079D03*
D37*
X731476Y97079D03*
D31*
X742290Y97079D03*
D190*
X754342Y97079D03*
D31*
X764413Y97079D03*
D114*
X784638Y97079D03*
D165*
X810724Y97079D03*
D146*
X827068Y97079D03*
D20*
X684257Y97244D03*
D44*
X688054Y97244D03*
D20*
X693172Y97244D03*
D21*
X699694Y97244D03*
X703161Y97244D03*
D22*
X710095Y97244D03*
D43*
X716534Y97244D03*
D37*
X731476Y97244D03*
D31*
X742290Y97244D03*
D142*
X754590Y97244D03*
D31*
X764413Y97244D03*
D114*
X784638Y97244D03*
D165*
X810724Y97244D03*
D36*
X826986Y97244D03*
D199*
X684339Y97409D03*
D197*
X687972Y97409D03*
D195*
X693172Y97409D03*
D199*
X699694Y97409D03*
D34*
X706628Y97409D03*
D40*
X716121Y97409D03*
D132*
X731476Y97409D03*
D137*
X742290Y97409D03*
D208*
X753434Y97409D03*
D137*
X758139Y97409D03*
X764578Y97409D03*
D116*
X784638Y97409D03*
D230*
X810724Y97409D03*
D33*
X826903Y97409D03*
D20*
X684422Y97574D03*
D25*
X689045Y97574D03*
D20*
X693172Y97574D03*
D21*
X699694Y97574D03*
D28*
X706628Y97574D03*
D36*
X715874Y97574D03*
D37*
X731476Y97574D03*
D31*
X742290Y97574D03*
D20*
X752939Y97574D03*
D31*
X758139Y97574D03*
X764578Y97574D03*
X779272Y97574D03*
D32*
X790086Y97574D03*
D165*
X810724Y97574D03*
D146*
X826738Y97574D03*
D22*
X684505Y97739D03*
D21*
X688962Y97739D03*
D20*
X693172Y97739D03*
D28*
X706628Y97739D03*
D37*
X715791Y97739D03*
X731476Y97739D03*
D31*
X742290Y97739D03*
X758139Y97739D03*
X764578Y97739D03*
X779272Y97739D03*
D32*
X790086Y97739D03*
D165*
X810724Y97739D03*
D37*
X826573Y97739D03*
D22*
X684505Y97904D03*
D25*
X688880Y97904D03*
D20*
X693172Y97904D03*
D28*
X706628Y97904D03*
D36*
X715708Y97904D03*
D37*
X731476Y97904D03*
D31*
X742290Y97904D03*
X758139Y97904D03*
X764578Y97904D03*
X779272Y97904D03*
D32*
X790086Y97904D03*
D165*
X810724Y97904D03*
D37*
X826573Y97904D03*
D21*
X684670Y98069D03*
X688797Y98069D03*
D20*
X693172Y98069D03*
D28*
X706628Y98069D03*
D146*
X715626Y98069D03*
D37*
X731476Y98069D03*
D31*
X742290Y98069D03*
X758139Y98069D03*
X764578Y98069D03*
X779272Y98069D03*
D32*
X790086Y98069D03*
D165*
X810724Y98069D03*
D37*
X826408Y98069D03*
D199*
X684670Y98235D03*
X688797Y98235D03*
D195*
X693172Y98235D03*
D34*
X706628Y98235D03*
D137*
X715543Y98235D03*
D132*
X731476Y98235D03*
D137*
X742290Y98235D03*
X758139Y98235D03*
X764578Y98235D03*
D35*
X779355Y98235D03*
X790086Y98235D03*
D230*
X810724Y98235D03*
D179*
X826325Y98235D03*
D21*
X684670Y98400D03*
D20*
X688715Y98400D03*
X693172Y98400D03*
D28*
X706628Y98400D03*
D31*
X715543Y98400D03*
D37*
X731476Y98400D03*
D31*
X742125Y98400D03*
X758139Y98400D03*
D37*
X764661Y98400D03*
D32*
X779355Y98400D03*
X790086Y98400D03*
D165*
X810724Y98400D03*
D36*
X826160Y98400D03*
D21*
X684835Y98565D03*
D22*
X688632Y98565D03*
D20*
X693172Y98565D03*
D28*
X706628Y98565D03*
D30*
X715461Y98565D03*
D37*
X731476Y98565D03*
D31*
X742125Y98565D03*
X758139Y98565D03*
D37*
X764661Y98565D03*
D32*
X779355Y98565D03*
D31*
X790004Y98565D03*
D165*
X810724Y98565D03*
D146*
X826078Y98565D03*
D21*
X684835Y98730D03*
D22*
X688632Y98730D03*
D20*
X693172Y98730D03*
D28*
X706628Y98730D03*
D30*
X715461Y98730D03*
D37*
X731476Y98730D03*
D31*
X742125Y98730D03*
X758139Y98730D03*
D146*
X764826Y98730D03*
D31*
X779437Y98730D03*
X790004Y98730D03*
D165*
X810724Y98730D03*
D146*
X825913Y98730D03*
D21*
X685000Y98895D03*
D25*
X688550Y98895D03*
D20*
X693172Y98895D03*
D21*
X703161Y98895D03*
D22*
X710095Y98895D03*
D30*
X715461Y98895D03*
D37*
X731476Y98895D03*
D146*
X742042Y98895D03*
D31*
X758139Y98895D03*
D146*
X764826Y98895D03*
D32*
X779520Y98895D03*
D31*
X790004Y98895D03*
D165*
X810724Y98895D03*
D36*
X825830Y98895D03*
D23*
X685082Y99060D03*
D199*
X688467Y99060D03*
D195*
X693172Y99060D03*
D199*
X703161Y99060D03*
D24*
X710095Y99060D03*
D239*
X715461Y99060D03*
D132*
X731476Y99060D03*
D33*
X742042Y99060D03*
D137*
X758139Y99060D03*
X764908Y99060D03*
X779602Y99060D03*
D35*
X789921Y99060D03*
D230*
X810724Y99060D03*
D132*
X825583Y99060D03*
D21*
X685165Y99225D03*
D25*
X688384Y99225D03*
D20*
X693172Y99225D03*
D21*
X703161Y99225D03*
D22*
X710095Y99225D03*
D30*
X715461Y99225D03*
D37*
X731476Y99225D03*
D146*
X741877Y99225D03*
D31*
X758139Y99225D03*
D146*
X764991Y99225D03*
D31*
X779602Y99225D03*
X789838Y99225D03*
D165*
X810724Y99225D03*
D36*
X825500Y99225D03*
D21*
X685165Y99390D03*
X688302Y99390D03*
D20*
X693172Y99390D03*
D21*
X703161Y99390D03*
D22*
X710095Y99390D03*
D30*
X715461Y99390D03*
D37*
X731476Y99390D03*
D146*
X741877Y99390D03*
D37*
X758057Y99390D03*
D146*
X764991Y99390D03*
D31*
X779602Y99390D03*
X789838Y99390D03*
D165*
X810724Y99390D03*
D36*
X825500Y99390D03*
D25*
X685248Y99555D03*
D21*
X688302Y99555D03*
X693255Y99555D03*
X703161Y99555D03*
D22*
X710095Y99555D03*
D30*
X715461Y99555D03*
D37*
X731476Y99555D03*
D146*
X741877Y99555D03*
D37*
X758057Y99555D03*
D36*
X765073Y99555D03*
D146*
X779685Y99555D03*
D31*
X789838Y99555D03*
D165*
X810724Y99555D03*
D36*
X825335Y99555D03*
D22*
X685330Y99720D03*
D25*
X688219Y99720D03*
D21*
X693255Y99720D03*
X703161Y99720D03*
D22*
X710095Y99720D03*
D30*
X715461Y99720D03*
D37*
X731476Y99720D03*
D36*
X741794Y99720D03*
D37*
X758057Y99720D03*
D36*
X765238Y99720D03*
D31*
X779767Y99720D03*
X789838Y99720D03*
D165*
X810724Y99720D03*
D36*
X825170Y99720D03*
D195*
X685413Y99886D03*
D199*
X688137Y99886D03*
X693255Y99886D03*
X703161Y99886D03*
D24*
X710095Y99886D03*
D239*
X715461Y99886D03*
D132*
X731476Y99886D03*
D179*
X741794Y99886D03*
D132*
X758057Y99886D03*
D179*
X765238Y99886D03*
D137*
X779767Y99886D03*
D33*
X789756Y99886D03*
D230*
X810724Y99886D03*
D33*
X825087Y99886D03*
D21*
X685495Y100051D03*
D25*
X688054Y100051D03*
X693337Y100051D03*
D21*
X703161Y100051D03*
D22*
X710095Y100051D03*
D30*
X715461Y100051D03*
D37*
X731476Y100051D03*
D36*
X741794Y100051D03*
D37*
X758057Y100051D03*
D38*
X765321Y100051D03*
D146*
X779850Y100051D03*
X789756Y100051D03*
D165*
X810724Y100051D03*
D36*
X825005Y100051D03*
D25*
X685578Y100216D03*
D21*
X687972Y100216D03*
D25*
X693503Y100216D03*
D21*
X703161Y100216D03*
D22*
X710095Y100216D03*
D30*
X715461Y100216D03*
D37*
X731476Y100216D03*
D38*
X741712Y100216D03*
D37*
X758057Y100216D03*
D38*
X765321Y100216D03*
D146*
X780015Y100216D03*
D36*
X789673Y100216D03*
D165*
X810724Y100216D03*
D36*
X824840Y100216D03*
D21*
X685660Y100381D03*
D25*
X687889Y100381D03*
D26*
X693585Y100381D03*
D21*
X703161Y100381D03*
D22*
X710095Y100381D03*
D31*
X715543Y100381D03*
D37*
X731476Y100381D03*
D38*
X741547Y100381D03*
D37*
X757892Y100381D03*
D39*
X765569Y100381D03*
D36*
X780097Y100381D03*
D146*
X789591Y100381D03*
D165*
X810724Y100381D03*
D38*
X824592Y100381D03*
D20*
X685743Y100546D03*
D22*
X687807Y100546D03*
D26*
X693585Y100546D03*
D21*
X703161Y100546D03*
D22*
X710095Y100546D03*
D31*
X715543Y100546D03*
D37*
X731476Y100546D03*
D42*
X741382Y100546D03*
D36*
X757809Y100546D03*
D38*
X765651Y100546D03*
D36*
X780263Y100546D03*
X789508Y100546D03*
D140*
X810806Y100546D03*
D36*
X824509Y100546D03*
D195*
X685743Y100711D03*
D23*
X687724Y100711D03*
D229*
X693750Y100711D03*
D199*
X703161Y100711D03*
D24*
X710095Y100711D03*
D33*
X715626Y100711D03*
D132*
X731476Y100711D03*
D41*
X741299Y100711D03*
D126*
X757726Y100711D03*
D41*
X765734Y100711D03*
D126*
X780345Y100711D03*
D179*
X789508Y100711D03*
D189*
X810806Y100711D03*
D179*
X824344Y100711D03*
D20*
X685743Y100876D03*
D21*
X687641Y100876D03*
D27*
X693833Y100876D03*
D21*
X703161Y100876D03*
D22*
X710095Y100876D03*
D37*
X715791Y100876D03*
X731476Y100876D03*
D39*
X741134Y100876D03*
D38*
X757726Y100876D03*
D39*
X765899Y100876D03*
D36*
X780428Y100876D03*
X789343Y100876D03*
D140*
X810806Y100876D03*
D36*
X824179Y100876D03*
D42*
X686733Y101041D03*
D29*
X694080Y101041D03*
D21*
X703161Y101041D03*
D22*
X710095Y101041D03*
D36*
X715874Y101041D03*
D14*
X725532Y101041D03*
D37*
X731476Y101041D03*
D183*
X740969Y101041D03*
D249*
X747903Y101041D03*
D39*
X757479Y101041D03*
D119*
X766064Y101041D03*
D38*
X780510Y101041D03*
X789261Y101041D03*
D140*
X810806Y101041D03*
D38*
X824097Y101041D03*
X686733Y101206D03*
D29*
X694246Y101206D03*
D13*
X700437Y101206D03*
D21*
X703161Y101206D03*
D22*
X710095Y101206D03*
D36*
X716039Y101206D03*
D14*
X725532Y101206D03*
D37*
X731476Y101206D03*
D175*
X740886Y101206D03*
D13*
X747986Y101206D03*
D42*
X757396Y101206D03*
D175*
X766147Y101206D03*
D38*
X780675Y101206D03*
D39*
X789178Y101206D03*
D140*
X810806Y101206D03*
D36*
X824014Y101206D03*
D38*
X686733Y101371D03*
D31*
X694411Y101371D03*
D15*
X700189Y101371D03*
D21*
X703161Y101371D03*
D22*
X710095Y101371D03*
D39*
X716204Y101371D03*
D19*
X725119Y101371D03*
D37*
X731476Y101371D03*
D175*
X740721Y101371D03*
D143*
X748398Y101371D03*
D119*
X757314Y101371D03*
D43*
X766394Y101371D03*
D39*
X780758Y101371D03*
D42*
X788930Y101371D03*
D140*
X810806Y101371D03*
D36*
X824014Y101371D03*
D179*
X686651Y101537D03*
X694741Y101537D03*
D105*
X699941Y101537D03*
D199*
X703161Y101537D03*
D24*
X710095Y101537D03*
D40*
X716286Y101537D03*
D229*
X724789Y101537D03*
D126*
X731641Y101537D03*
D228*
X740474Y101537D03*
D195*
X748646Y101537D03*
D115*
X757066Y101537D03*
D228*
X766559Y101537D03*
D128*
X774979Y101537D03*
D115*
X781006Y101537D03*
D176*
X788683Y101537D03*
D189*
X810806Y101537D03*
D126*
X823766Y101537D03*
D146*
X686733Y101702D03*
D39*
X695071Y101702D03*
D21*
X699694Y101702D03*
X703161Y101702D03*
D22*
X710095Y101702D03*
D175*
X716451Y101702D03*
D29*
X724624Y101702D03*
D183*
X731888Y101702D03*
D45*
X740226Y101702D03*
D26*
X748894Y101702D03*
D43*
X756818Y101702D03*
D45*
X766807Y101702D03*
D143*
X774814Y101702D03*
D43*
X781088Y101702D03*
D175*
X788600Y101702D03*
D140*
X810806Y101702D03*
D36*
X823684Y101702D03*
D146*
X686733Y101867D03*
D217*
X697052Y101867D03*
D21*
X703161Y101867D03*
D22*
X710095Y101867D03*
D172*
X720249Y101867D03*
D244*
X736181Y101867D03*
D134*
X753351Y101867D03*
D173*
X769944Y101867D03*
D131*
X784885Y101867D03*
D140*
X810806Y101867D03*
D39*
X823519Y101867D03*
D32*
X686733Y102032D03*
D247*
X697217Y102032D03*
D21*
X703161Y102032D03*
D22*
X710095Y102032D03*
D134*
X720331Y102032D03*
D124*
X736098Y102032D03*
D135*
X753269Y102032D03*
D165*
X770109Y102032D03*
D166*
X784885Y102032D03*
D140*
X810806Y102032D03*
D38*
X823271Y102032D03*
D32*
X686733Y102197D03*
D247*
X697217Y102197D03*
D21*
X703161Y102197D03*
D22*
X710095Y102197D03*
D134*
X720331Y102197D03*
D240*
X736016Y102197D03*
D135*
X753269Y102197D03*
D140*
X770192Y102197D03*
D165*
X784803Y102197D03*
D140*
X810806Y102197D03*
D38*
X823271Y102197D03*
D201*
X686816Y102362D03*
D250*
X697300Y102362D03*
D199*
X703161Y102362D03*
D24*
X710095Y102362D03*
D167*
X720331Y102362D03*
D242*
X735933Y102362D03*
D138*
X753186Y102362D03*
D159*
X770274Y102362D03*
D212*
X784885Y102362D03*
D159*
X810724Y102362D03*
D126*
X823106Y102362D03*
D27*
X686733Y102527D03*
D57*
X697548Y102527D03*
D21*
X703161Y102527D03*
D22*
X710095Y102527D03*
D173*
X720414Y102527D03*
D130*
X735933Y102527D03*
D165*
X753104Y102527D03*
D157*
X770357Y102527D03*
D141*
X784885Y102527D03*
D163*
X810724Y102527D03*
D36*
X822858Y102527D03*
D27*
X686733Y102692D03*
D56*
X697630Y102692D03*
D21*
X703161Y102692D03*
D22*
X710095Y102692D03*
D173*
X720414Y102692D03*
D130*
X735933Y102692D03*
D165*
X753104Y102692D03*
D142*
X770439Y102692D03*
X784968Y102692D03*
D163*
X810724Y102692D03*
D38*
X822776Y102692D03*
D26*
X686816Y102857D03*
D50*
X697713Y102857D03*
D21*
X703161Y102857D03*
D22*
X710095Y102857D03*
D165*
X720579Y102857D03*
D203*
X735768Y102857D03*
D140*
X753021Y102857D03*
D145*
X770522Y102857D03*
D156*
X784968Y102857D03*
D163*
X810724Y102857D03*
D38*
X822611Y102857D03*
D21*
X686816Y103022D03*
D175*
X697630Y103022D03*
D21*
X703161Y103022D03*
D22*
X710095Y103022D03*
D140*
X720662Y103022D03*
D131*
X735686Y103022D03*
D163*
X752939Y103022D03*
D156*
X770604Y103022D03*
D154*
X784968Y103022D03*
D163*
X810724Y103022D03*
D36*
X822528Y103022D03*
D199*
X686816Y103188D03*
D132*
X697630Y103188D03*
D199*
X703161Y103188D03*
D24*
X710095Y103188D03*
D189*
X720662Y103188D03*
D237*
X735603Y103188D03*
D181*
X752856Y103188D03*
D238*
X770604Y103188D03*
D187*
X784968Y103188D03*
D159*
X810724Y103188D03*
D126*
X822446Y103188D03*
D157*
X720827Y103353D03*
D134*
X735521Y103353D03*
D145*
X752691Y103353D03*
D251*
X770769Y103353D03*
D221*
X784885Y103353D03*
D163*
X810724Y103353D03*
D125*
X822363Y103353D03*
D156*
X721074Y103518D03*
D165*
X735273Y103518D03*
D154*
X752443Y103518D03*
D28*
X771017Y103518D03*
D185*
X784885Y103518D03*
D163*
X810724Y103518D03*
D39*
X822198Y103518D03*
D153*
X720992Y103683D03*
D163*
X735108Y103683D03*
D223*
X752443Y103683D03*
D152*
X771265Y103683D03*
D252*
X784885Y103683D03*
D163*
X810724Y103683D03*
D38*
X821950Y103683D03*
D210*
X720992Y103848D03*
D251*
X735273Y103848D03*
D232*
X752608Y103848D03*
X771430Y103848D03*
D224*
X785050Y103848D03*
D163*
X810724Y103848D03*
D38*
X821785Y103848D03*
D253*
X720992Y104013D03*
D233*
X735355Y104013D03*
D254*
X752608Y104013D03*
D253*
X771512Y104013D03*
D169*
X784968Y104013D03*
D159*
X810724Y104013D03*
D41*
X821703Y104013D03*
D57*
X720827Y104178D03*
D218*
X735603Y104178D03*
D55*
X752608Y104178D03*
D204*
X771595Y104178D03*
D174*
X784885Y104178D03*
D163*
X810724Y104178D03*
D125*
X821538Y104178D03*
D44*
X720579Y104343D03*
D49*
X735851Y104343D03*
D43*
X752691Y104343D03*
D44*
X771430Y104343D03*
D39*
X785050Y104343D03*
D163*
X810724Y104343D03*
D38*
X821455Y104343D03*
D31*
X720662Y104508D03*
D36*
X736016Y104508D03*
D29*
X752691Y104508D03*
D31*
X771347Y104508D03*
D29*
X784885Y104508D03*
D163*
X810724Y104508D03*
D38*
X821290Y104508D03*
D163*
X810724Y104673D03*
D39*
X821207Y104673D03*
D159*
X810724Y104839D03*
D179*
X821042Y104839D03*
D163*
X810724Y105004D03*
D36*
X821042Y105004D03*
D163*
X810724Y105169D03*
D146*
X820960Y105169D03*
D163*
X810724Y105334D03*
D31*
X820877Y105334D03*
D163*
X810724Y105499D03*
D32*
X820795Y105499D03*
D159*
X810724Y105664D03*
D201*
X820712Y105664D03*
D163*
X810724Y105829D03*
D29*
X820712Y105829D03*
D163*
X810724Y105994D03*
D27*
X820630Y105994D03*
D163*
X810724Y106159D03*
D26*
X820547Y106159D03*
D163*
X810724Y106324D03*
D25*
X820464Y106324D03*
D159*
X810724Y106490D03*
D195*
X820299Y106490D03*
D163*
X810724Y106655D03*
D20*
X820299Y106655D03*
D163*
X810724Y106820D03*
D19*
X820217Y106820D03*
D163*
X810724Y106985D03*
D18*
X820134Y106985D03*
D163*
X810724Y107150D03*
D18*
X820134Y107150D03*
D162*
X810806Y107315D03*
D16*
X820052Y107315D03*
D157*
X810806Y107480D03*
D103*
X819969Y107480D03*
D157*
X810806Y107645D03*
D15*
X819887Y107645D03*
D157*
X810806Y107810D03*
D14*
X819804Y107810D03*
D157*
X810806Y107975D03*
D81*
X819722Y107975D03*
D162*
X810806Y108141D03*
D196*
X819556Y108141D03*
D157*
X810806Y108306D03*
X810806Y108471D03*
X810806Y108636D03*
X810806Y108801D03*
D162*
X810806Y108966D03*
D157*
X810806Y109131D03*
X810806Y109296D03*
X810806Y109461D03*
X810806Y109626D03*
D144*
X810724Y109792D03*
D145*
X810806Y109957D03*
X810806Y110122D03*
X810806Y110287D03*
X810806Y110452D03*
D150*
X810806Y110617D03*
D145*
X810806Y110782D03*
X810806Y110947D03*
X810806Y111112D03*
X810806Y111277D03*
D150*
X810806Y111443D03*
D145*
X810806Y111608D03*
X810806Y111773D03*
X810806Y111938D03*
X810806Y112103D03*
D150*
X810806Y112268D03*
D145*
X810806Y112433D03*
D249*
X831113Y112433D03*
D188*
X810724Y112598D03*
D249*
X831113Y112598D03*
D188*
X810724Y112763D03*
D249*
X831113Y112763D03*
D188*
X810724Y112928D03*
D249*
X831113Y112928D03*
D255*
X810724Y113094D03*
D256*
X831113Y113094D03*
D188*
X810724Y113259D03*
D12*
X831113Y113259D03*
D188*
X810724Y113424D03*
D12*
X831113Y113424D03*
D188*
X810724Y113589D03*
D12*
X831113Y113589D03*
D188*
X810724Y113754D03*
D14*
X831196Y113754D03*
D255*
X810724Y113919D03*
D101*
X831196Y113919D03*
D188*
X810724Y114084D03*
D15*
X831113Y114084D03*
D188*
X810724Y114249D03*
D15*
X831113Y114249D03*
D188*
X810724Y114414D03*
D136*
X831031Y114414D03*
D188*
X810724Y114579D03*
D136*
X831031Y114579D03*
D255*
X810724Y114745D03*
D257*
X831031Y114745D03*
D188*
X810724Y114910D03*
D136*
X831031Y114910D03*
D188*
X810724Y115075D03*
D136*
X831031Y115075D03*
D188*
X810724Y115240D03*
D18*
X831031Y115240D03*
D188*
X810724Y115405D03*
D19*
X831113Y115405D03*
D255*
X810724Y115570D03*
D195*
X831031Y115570D03*
D188*
X810724Y115735D03*
D20*
X831031Y115735D03*
D188*
X810724Y115900D03*
D25*
X831031Y115900D03*
D188*
X810724Y116065D03*
D25*
X831031Y116065D03*
D188*
X810724Y116230D03*
D219*
X831113Y116230D03*
D255*
X810724Y116396D03*
D214*
X831031Y116396D03*
D188*
X810724Y116561D03*
D29*
X831113Y116561D03*
D188*
X810724Y116726D03*
D29*
X831113Y116726D03*
D188*
X810724Y116891D03*
D31*
X831113Y116891D03*
D153*
X810641Y117056D03*
D36*
X831113Y117056D03*
D258*
X810641Y117221D03*
D126*
X831196Y117221D03*
D153*
X810641Y117386D03*
D39*
X831113Y117386D03*
D153*
X810641Y117551D03*
D183*
X831113Y117551D03*
D153*
X810641Y117716D03*
D183*
X831113Y117716D03*
D153*
X810641Y117881D03*
D43*
X831113Y117881D03*
D258*
X810641Y118047D03*
D47*
X831031Y118047D03*
D154*
X810724Y118212D03*
D45*
X831031Y118212D03*
D154*
X810724Y118377D03*
D222*
X831113Y118377D03*
D154*
X810724Y118542D03*
D53*
X831113Y118542D03*
D154*
X810724Y118707D03*
D224*
X831113Y118707D03*
D259*
X810724Y118872D03*
D254*
X831031Y118872D03*
D154*
X810724Y119037D03*
D185*
X831113Y119037D03*
D13*
X802634Y119202D03*
D154*
X810724Y119202D03*
D260*
X831031Y119202D03*
D15*
X802551Y119367D03*
D154*
X810724Y119367D03*
D224*
X831113Y119367D03*
D103*
X802469Y119532D03*
D154*
X810724Y119532D03*
D222*
X831113Y119532D03*
D16*
X802386Y119698D03*
D259*
X810724Y119698D03*
D261*
X831113Y119698D03*
D19*
X802221Y119863D03*
D155*
X810806Y119863D03*
D51*
X831031Y119863D03*
D21*
X802056Y120028D03*
D155*
X810806Y120028D03*
D262*
X831031Y120028D03*
D26*
X801891Y120193D03*
D155*
X810806Y120193D03*
D175*
X831031Y120193D03*
D27*
X801808Y120358D03*
D155*
X810806Y120358D03*
D183*
X831113Y120358D03*
D35*
X801643Y120523D03*
D192*
X810806Y120523D03*
D121*
X831113Y120523D03*
D146*
X801478Y120688D03*
D155*
X810806Y120688D03*
D38*
X831196Y120688D03*
D146*
X801478Y120853D03*
D223*
X810724Y120853D03*
D36*
X831113Y120853D03*
D38*
X801313Y121018D03*
D223*
X810724Y121018D03*
D146*
X831196Y121018D03*
D183*
X801230Y121183D03*
D223*
X810724Y121183D03*
D31*
X831113Y121183D03*
D149*
X800983Y121349D03*
D187*
X810724Y121349D03*
D201*
X831113Y121349D03*
D178*
X800818Y121514D03*
D223*
X810724Y121514D03*
D29*
X831113Y121514D03*
D178*
X800818Y121679D03*
D223*
X810724Y121679D03*
D27*
X831031Y121679D03*
D51*
X800652Y121844D03*
D223*
X810724Y121844D03*
D25*
X831031Y121844D03*
D158*
X800487Y122009D03*
D223*
X810724Y122009D03*
D25*
X831031Y122009D03*
D52*
X800322Y122174D03*
D187*
X810724Y122174D03*
D23*
X831031Y122174D03*
D164*
X800075Y122339D03*
D223*
X810724Y122339D03*
D20*
X831031Y122339D03*
D222*
X799744Y122504D03*
D223*
X810724Y122504D03*
D19*
X831113Y122504D03*
D174*
X799579Y122669D03*
D223*
X810724Y122669D03*
D19*
X831113Y122669D03*
D53*
X799084Y122834D03*
D28*
X810806Y122834D03*
D19*
X831113Y122834D03*
D261*
X798754Y123000D03*
D34*
X810806Y123000D03*
D257*
X831031Y123000D03*
D54*
X798506Y123165D03*
D28*
X810806Y123165D03*
D136*
X831031Y123165D03*
D164*
X798259Y123330D03*
D28*
X810806Y123330D03*
D136*
X831031Y123330D03*
D158*
X798011Y123495D03*
D28*
X810806Y123495D03*
D136*
X831031Y123495D03*
D54*
X797681Y123660D03*
D28*
X810806Y123660D03*
D136*
X831031Y123660D03*
D180*
X797350Y123825D03*
D34*
X810806Y123825D03*
D128*
X831113Y123825D03*
D54*
X797185Y123990D03*
D28*
X810806Y123990D03*
D15*
X831113Y123990D03*
D53*
X796938Y124155D03*
D28*
X810806Y124155D03*
D14*
X831196Y124155D03*
D56*
X796525Y124320D03*
D28*
X810806Y124320D03*
D14*
X831196Y124320D03*
D56*
X796030Y124485D03*
D28*
X810806Y124485D03*
D12*
X831113Y124485D03*
D169*
X795699Y124651D03*
D34*
X810806Y124651D03*
D256*
X831113Y124651D03*
D53*
X795452Y124816D03*
D28*
X810806Y124816D03*
D12*
X831113Y124816D03*
D56*
X795204Y124981D03*
D28*
X810806Y124981D03*
D13*
X831196Y124981D03*
D56*
X794874Y125146D03*
D28*
X810806Y125146D03*
D249*
X831113Y125146D03*
D53*
X794626Y125311D03*
D28*
X810806Y125311D03*
D249*
X831113Y125311D03*
D169*
X794214Y125476D03*
D213*
X810724Y125476D03*
D196*
X831113Y125476D03*
D204*
X794048Y125641D03*
D236*
X810806Y125641D03*
D249*
X831113Y125641D03*
D56*
X793718Y125806D03*
D236*
X810806Y125806D03*
D200*
X793223Y125971D03*
D236*
X810806Y125971D03*
D56*
X792728Y126136D03*
D236*
X810806Y126136D03*
D234*
X792563Y126302D03*
D263*
X810806Y126302D03*
D224*
X792150Y126467D03*
D236*
X810806Y126467D03*
D57*
X791820Y126632D03*
D236*
X810806Y126632D03*
D224*
X791489Y126797D03*
D152*
X810889Y126797D03*
D204*
X791242Y126962D03*
D152*
X810889Y126962D03*
D234*
X790912Y127127D03*
D264*
X810889Y127127D03*
D200*
X790581Y127292D03*
D152*
X810889Y127292D03*
D218*
X790086Y127457D03*
D152*
X810889Y127457D03*
D200*
X789591Y127622D03*
D152*
X810889Y127622D03*
D218*
X789261Y127787D03*
D152*
X810889Y127787D03*
D265*
X788848Y127953D03*
D264*
X810889Y127953D03*
D218*
X788435Y128118D03*
D151*
X810806Y128118D03*
D218*
X788105Y128283D03*
D151*
X810806Y128283D03*
D247*
X787857Y128448D03*
D151*
X810806Y128448D03*
D260*
X787444Y128613D03*
D151*
X810806Y128613D03*
D202*
X787032Y128778D03*
D266*
X810806Y128778D03*
D194*
X786371Y128943D03*
D151*
X810806Y128943D03*
D194*
X785876Y129108D03*
D211*
X810889Y129108D03*
D252*
X785546Y129273D03*
D185*
X810806Y129273D03*
D194*
X785216Y129438D03*
D185*
X810806Y129438D03*
D267*
X784638Y129604D03*
D253*
X810806Y129604D03*
D184*
X784308Y129769D03*
D185*
X810806Y129769D03*
X784060Y129934D03*
X810806Y129934D03*
D211*
X783482Y130099D03*
D185*
X810806Y130099D03*
X783069Y130264D03*
X810806Y130264D03*
D213*
X782491Y130429D03*
D253*
X810806Y130429D03*
D211*
X781831Y130594D03*
D185*
X810806Y130594D03*
D151*
X781418Y130759D03*
D185*
X810806Y130759D03*
D193*
X780840Y130924D03*
D185*
X810806Y130924D03*
D152*
X780510Y131089D03*
D185*
X810806Y131089D03*
D213*
X780015Y131255D03*
D267*
X810889Y131255D03*
D193*
X779355Y131420D03*
D184*
X810889Y131420D03*
D193*
X779024Y131585D03*
D184*
X810889Y131585D03*
D28*
X778612Y131750D03*
D194*
X810806Y131750D03*
D153*
X777786Y131915D03*
D194*
X810806Y131915D03*
D259*
X777043Y132080D03*
D215*
X810806Y132080D03*
D156*
X776383Y132245D03*
D260*
X810889Y132245D03*
D153*
X775970Y132410D03*
D260*
X810889Y132410D03*
D142*
X775392Y132575D03*
D260*
X810889Y132575D03*
D142*
X774732Y132740D03*
D260*
X810889Y132740D03*
D144*
X774236Y132906D03*
D254*
X810889Y132906D03*
D163*
X773741Y133071D03*
D260*
X810889Y133071D03*
D103*
X712324Y133236D03*
D140*
X772833Y133236D03*
D260*
X810889Y133236D03*
D19*
X713397Y133401D03*
D205*
X771925Y133401D03*
D260*
X810889Y133401D03*
D20*
X714305Y133566D03*
D134*
X771017Y133566D03*
D260*
X810889Y133566D03*
D182*
X714966Y133731D03*
D167*
X770357Y133731D03*
D202*
X810806Y133731D03*
D26*
X715709Y133896D03*
D241*
X769696Y133896D03*
D217*
X810806Y133896D03*
D32*
X716617Y134061D03*
D129*
X768706Y134061D03*
D217*
X810806Y134061D03*
D27*
X717277Y134226D03*
D130*
X768128Y134226D03*
D218*
X810889Y134226D03*
D36*
X718020Y134391D03*
D120*
X767385Y134391D03*
D218*
X810889Y134391D03*
D40*
X719093Y134557D03*
D268*
X766394Y134557D03*
D225*
X810889Y134557D03*
D42*
X719919Y134722D03*
D269*
X765651Y134722D03*
D270*
X810806Y134722D03*
D220*
X721735Y134887D03*
D271*
X764000Y134887D03*
D270*
X810806Y134887D03*
D158*
X723055Y135052D03*
D107*
X762762Y135052D03*
D270*
X810806Y135052D03*
D218*
X724211Y135217D03*
D272*
X761606Y135217D03*
D270*
X810806Y135217D03*
D264*
X725862Y135382D03*
D273*
X760038Y135382D03*
D274*
X810806Y135382D03*
D193*
X727183Y135547D03*
D275*
X758882Y135547D03*
D270*
X810806Y135547D03*
D241*
X729247Y135712D03*
D62*
X756901Y135712D03*
D270*
X810806Y135712D03*
D276*
X745344Y135877D03*
D270*
X810806Y135877D03*
D277*
X745344Y136042D03*
D270*
X810806Y136042D03*
D278*
X745344Y136208D03*
D274*
X810806Y136208D03*
D279*
X745427Y136373D03*
D270*
X810806Y136373D03*
D280*
X745592Y136538D03*
D200*
X810724Y136538D03*
D281*
X745592Y136703D03*
D200*
X810724Y136703D03*
D282*
X745592Y136868D03*
D224*
X810806Y136868D03*
D283*
X745592Y137033D03*
D147*
X810806Y137033D03*
D80*
X745674Y137198D03*
D224*
X810806Y137198D03*
D124*
X745674Y137363D03*
D224*
X810806Y137363D03*
D194*
X745757Y137528D03*
D224*
X810806Y137528D03*
X810806Y137693D03*
D147*
X810806Y137859D03*
D224*
X810806Y138024D03*
D220*
X810724Y138189D03*
X810724Y138354D03*
D57*
X810806Y138519D03*
D148*
X810806Y138684D03*
D57*
X810806Y138849D03*
X810806Y139014D03*
D56*
X810724Y139179D03*
X810724Y139344D03*
D169*
X810724Y139510D03*
D56*
X810724Y139675D03*
D249*
X789508Y139840D03*
D56*
X810724Y139840D03*
D249*
X789508Y140005D03*
D53*
X810806Y140005D03*
D13*
X789426Y140170D03*
D53*
X810806Y140170D03*
D11*
X789426Y140335D03*
D246*
X810806Y140335D03*
D13*
X789426Y140500D03*
D53*
X810806Y140500D03*
D13*
X789426Y140665D03*
D53*
X810806Y140665D03*
D14*
X789426Y140830D03*
D164*
X810806Y140830D03*
D14*
X789426Y140995D03*
D164*
X810806Y140995D03*
D101*
X789426Y141161D03*
D161*
X810806Y141161D03*
D14*
X789426Y141326D03*
D164*
X810806Y141326D03*
D15*
X789343Y141491D03*
D164*
X810806Y141491D03*
D15*
X789343Y141656D03*
D164*
X810806Y141656D03*
D15*
X789343Y141821D03*
D164*
X810806Y141821D03*
D139*
X789426Y141986D03*
D161*
X810806Y141986D03*
D103*
X789426Y142151D03*
D158*
X810889Y142151D03*
D17*
X789261Y142316D03*
D158*
X810889Y142316D03*
D19*
X789343Y142481D03*
D158*
X810889Y142481D03*
D19*
X789343Y142646D03*
D158*
X810889Y142646D03*
D195*
X789261Y142812D03*
D198*
X810806Y142812D03*
D22*
X789343Y142977D03*
D50*
X810806Y142977D03*
D25*
X789426Y143142D03*
D50*
X810806Y143142D03*
D26*
X789343Y143307D03*
D50*
X810806Y143307D03*
D27*
X789261Y143472D03*
D51*
X810889Y143472D03*
D201*
X789343Y143637D03*
D248*
X810889Y143637D03*
D32*
X789426Y143802D03*
D51*
X810889Y143802D03*
D37*
X789426Y143967D03*
D49*
X810971Y143967D03*
D38*
X789426Y144132D03*
D178*
X810889Y144132D03*
D125*
X789343Y144297D03*
D178*
X810889Y144297D03*
D176*
X789343Y144463D03*
D48*
X810889Y144463D03*
D43*
X789343Y144628D03*
D178*
X810889Y144628D03*
D46*
X789343Y144793D03*
D178*
X810889Y144793D03*
D50*
X789343Y144958D03*
D178*
X810889Y144958D03*
D56*
X789426Y145123D03*
D178*
X810889Y145123D03*
D234*
X789426Y145288D03*
D228*
X810971Y145288D03*
D54*
X789426Y145453D03*
D46*
X810971Y145453D03*
D44*
X789261Y145618D03*
X810889Y145618D03*
D43*
X789343Y145783D03*
D44*
X810889Y145783D03*
D42*
X789426Y145948D03*
D43*
X810806Y145948D03*
D126*
X789426Y146114D03*
D197*
X810806Y146114D03*
D38*
X789426Y146279D03*
D43*
X810806Y146279D03*
D37*
X789426Y146444D03*
D175*
X810889Y146444D03*
D32*
X789426Y146609D03*
D175*
X810889Y146609D03*
D29*
X789343Y146774D03*
D175*
X810889Y146774D03*
D201*
X789343Y146939D03*
D115*
X810889Y146939D03*
D26*
X789343Y147104D03*
D119*
X810806Y147104D03*
D22*
X789343Y147269D03*
D119*
X810806Y147269D03*
D22*
X789343Y147434D03*
D119*
X810806Y147434D03*
D19*
X789343Y147599D03*
D119*
X810806Y147599D03*
D191*
X789343Y147765D03*
D176*
X810806Y147765D03*
D17*
X789261Y147930D03*
D42*
X810889Y147930D03*
D143*
X789343Y148095D03*
D42*
X810889Y148095D03*
D143*
X789343Y148260D03*
D125*
X810806Y148260D03*
D103*
X789426Y148425D03*
D125*
X810806Y148425D03*
D128*
X789343Y148590D03*
D160*
X810806Y148590D03*
D15*
X789343Y148755D03*
D38*
X810724Y148755D03*
D14*
X789426Y148920D03*
D38*
X810724Y148920D03*
D14*
X789426Y149085D03*
D36*
X810806Y149085D03*
D14*
X789426Y149250D03*
D36*
X810806Y149250D03*
D101*
X789426Y149416D03*
D179*
X810806Y149416D03*
D14*
X789426Y149581D03*
D37*
X810889Y149581D03*
D13*
X789426Y149746D03*
D31*
X810806Y149746D03*
D13*
X789426Y149911D03*
D31*
X810806Y149911D03*
D13*
X789426Y150076D03*
D31*
X810806Y150076D03*
D196*
X789508Y150241D03*
D137*
X810806Y150241D03*
D249*
X789508Y150406D03*
D32*
X810889Y150406D03*
D249*
X789508Y150571D03*
D29*
X810806Y150571D03*
X810806Y150736D03*
X810806Y150901D03*
D201*
X810806Y151067D03*
D29*
X810806Y151232D03*
D27*
X810889Y151397D03*
D26*
X810971Y151562D03*
X810971Y151727D03*
D23*
X810889Y151892D03*
D25*
X810889Y152057D03*
X810889Y152222D03*
D21*
X810971Y152387D03*
X810971Y152552D03*
D195*
X810889Y152718D03*
D20*
X810889Y152883D03*
D19*
X810806Y153048D03*
D17*
X810889Y153213D03*
X810889Y153378D03*
D16*
X810971Y153543D03*
D103*
X810889Y153708D03*
X810889Y153873D03*
X810889Y154038D03*
X810889Y154203D03*
D139*
X810889Y154369D03*
D15*
X810806Y154534D03*
D14*
X810724Y154699D03*
D71*
X828967Y154699D03*
D81*
X810806Y154864D03*
D71*
X828967Y154864D03*
D13*
X810889Y155029D03*
X828885Y155029D03*
D11*
X810889Y155194D03*
D97*
X828967Y155194D03*
D71*
X810806Y155359D03*
D81*
X828967Y155359D03*
X828967Y155524D03*
X828967Y155689D03*
D14*
X828885Y155854D03*
D128*
X828967Y156020D03*
D15*
X828967Y156185D03*
X828967Y156350D03*
D143*
X828967Y156515D03*
X828967Y156680D03*
D182*
X829050Y156845D03*
D17*
X829050Y157010D03*
D20*
X829050Y157175D03*
X829050Y157340D03*
D26*
X828967Y157505D03*
D229*
X828967Y157671D03*
D29*
X828967Y157836D03*
D31*
X828967Y158001D03*
D36*
X828967Y158166D03*
D125*
X828967Y158331D03*
D149*
X829050Y158496D03*
D178*
X829050Y158661D03*
D44*
X829050Y158826D03*
D36*
X828967Y158991D03*
D31*
X828967Y159156D03*
D201*
X828967Y159322D03*
D26*
X828967Y159487D03*
X828967Y159652D03*
D22*
X828967Y159817D03*
D20*
X829050Y159982D03*
D195*
X829050Y160147D03*
D17*
X829050Y160312D03*
D143*
X828967Y160477D03*
X828967Y160642D03*
D15*
X828967Y160807D03*
D128*
X828967Y160973D03*
D15*
X828967Y161138D03*
D14*
X828885Y161303D03*
D81*
X828967Y161468D03*
X828967Y161633D03*
D97*
X828967Y161798D03*
D81*
X828967Y161963D03*
D13*
X828885Y162128D03*
D71*
X828967Y162293D03*
X828967Y162458D03*
D284*
X64000Y920000D02*
X64005Y920393D01*
X64019Y920785D01*
X64043Y921177D01*
X64077Y921568D01*
X64120Y921959D01*
X64173Y922348D01*
X64236Y922735D01*
X64307Y923121D01*
X64389Y923506D01*
X64479Y923888D01*
X64580Y924267D01*
X64689Y924645D01*
X64808Y925019D01*
X64935Y925390D01*
X65072Y925758D01*
X65218Y926123D01*
X65373Y926484D01*
X65536Y926841D01*
X65708Y927194D01*
X65889Y927542D01*
X66079Y927886D01*
X66276Y928226D01*
X66482Y928560D01*
X66696Y928889D01*
X66919Y929213D01*
X67149Y929531D01*
X67386Y929844D01*
X67632Y930150D01*
X67885Y930451D01*
X68145Y930745D01*
X68412Y931033D01*
X68686Y931314D01*
X68967Y931588D01*
X69255Y931855D01*
X69549Y932115D01*
X69850Y932368D01*
X70156Y932614D01*
X70469Y932851D01*
X70787Y933081D01*
X71111Y933304D01*
X71440Y933518D01*
X71774Y933724D01*
X72114Y933921D01*
X72458Y934111D01*
X72806Y934292D01*
X73159Y934464D01*
X73516Y934627D01*
X73877Y934782D01*
X74242Y934928D01*
X74610Y935065D01*
X74981Y935192D01*
X75355Y935311D01*
X75733Y935420D01*
X76112Y935521D01*
X76494Y935611D01*
X76879Y935693D01*
X77265Y935764D01*
X77652Y935827D01*
X78041Y935880D01*
X78432Y935923D01*
X78823Y935957D01*
X79215Y935981D01*
X79607Y935995D01*
X80000Y936000D01*
X80393Y935995D01*
X80785Y935981D01*
X81177Y935957D01*
X81568Y935923D01*
X81959Y935880D01*
X82348Y935827D01*
X82735Y935764D01*
X83121Y935693D01*
X83506Y935611D01*
X83888Y935521D01*
X84267Y935420D01*
X84645Y935311D01*
X85019Y935192D01*
X85390Y935065D01*
X85758Y934928D01*
X86123Y934782D01*
X86484Y934627D01*
X86841Y934464D01*
X87194Y934292D01*
X87542Y934111D01*
X87886Y933921D01*
X88226Y933724D01*
X88560Y933518D01*
X88889Y933304D01*
X89213Y933081D01*
X89531Y932851D01*
X89844Y932614D01*
X90150Y932368D01*
X90451Y932115D01*
X90745Y931855D01*
X91033Y931588D01*
X91314Y931314D01*
X91588Y931033D01*
X91855Y930745D01*
X92115Y930451D01*
X92368Y930150D01*
X92614Y929844D01*
X92851Y929531D01*
X93081Y929213D01*
X93304Y928889D01*
X93518Y928560D01*
X93724Y928226D01*
X93921Y927886D01*
X94111Y927542D01*
X94292Y927194D01*
X94464Y926841D01*
X94627Y926484D01*
X94782Y926123D01*
X94928Y925758D01*
X95065Y925390D01*
X95192Y925019D01*
X95311Y924645D01*
X95420Y924267D01*
X95521Y923888D01*
X95611Y923506D01*
X95693Y923121D01*
X95764Y922735D01*
X95827Y922348D01*
X95880Y921959D01*
X95923Y921568D01*
X95957Y921177D01*
X95981Y920785D01*
X95995Y920393D01*
X96000Y920000D01*
X95995Y919607D01*
X95981Y919215D01*
X95957Y918823D01*
X95923Y918432D01*
X95880Y918041D01*
X95827Y917652D01*
X95764Y917265D01*
X95693Y916879D01*
X95611Y916494D01*
X95521Y916112D01*
X95420Y915733D01*
X95311Y915355D01*
X95192Y914981D01*
X95065Y914610D01*
X94928Y914242D01*
X94782Y913877D01*
X94627Y913516D01*
X94464Y913159D01*
X94292Y912806D01*
X94111Y912458D01*
X93921Y912114D01*
X93724Y911774D01*
X93518Y911440D01*
X93304Y911111D01*
X93081Y910787D01*
X92851Y910469D01*
X92614Y910156D01*
X92368Y909850D01*
X92115Y909549D01*
X91855Y909255D01*
X91588Y908967D01*
X91314Y908686D01*
X91033Y908412D01*
X90745Y908145D01*
X90451Y907885D01*
X90150Y907632D01*
X89844Y907386D01*
X89531Y907149D01*
X89213Y906919D01*
X88889Y906696D01*
X88560Y906482D01*
X88226Y906276D01*
X87886Y906079D01*
X87542Y905889D01*
X87194Y905708D01*
X86841Y905536D01*
X86484Y905373D01*
X86123Y905218D01*
X85758Y905072D01*
X85390Y904935D01*
X85019Y904808D01*
X84645Y904689D01*
X84267Y904580D01*
X83888Y904479D01*
X83506Y904389D01*
X83121Y904307D01*
X82735Y904236D01*
X82348Y904173D01*
X81959Y904120D01*
X81568Y904077D01*
X81177Y904043D01*
X80785Y904019D01*
X80393Y904005D01*
X80000Y904000D01*
X79607Y904005D01*
X79215Y904019D01*
X78823Y904043D01*
X78432Y904077D01*
X78041Y904120D01*
X77652Y904173D01*
X77265Y904236D01*
X76879Y904307D01*
X76494Y904389D01*
X76112Y904479D01*
X75733Y904580D01*
X75355Y904689D01*
X74981Y904808D01*
X74610Y904935D01*
X74242Y905072D01*
X73877Y905218D01*
X73516Y905373D01*
X73159Y905536D01*
X72806Y905708D01*
X72458Y905889D01*
X72114Y906079D01*
X71774Y906276D01*
X71440Y906482D01*
X71111Y906696D01*
X70787Y906919D01*
X70469Y907149D01*
X70156Y907386D01*
X69850Y907632D01*
X69549Y907885D01*
X69255Y908145D01*
X68967Y908412D01*
X68686Y908686D01*
X68412Y908967D01*
X68145Y909255D01*
X67885Y909549D01*
X67632Y909850D01*
X67386Y910156D01*
X67149Y910469D01*
X66919Y910787D01*
X66696Y911111D01*
X66482Y911440D01*
X66276Y911774D01*
X66079Y912114D01*
X65889Y912458D01*
X65708Y912806D01*
X65536Y913159D01*
X65373Y913516D01*
X65218Y913877D01*
X65072Y914242D01*
X64935Y914610D01*
X64808Y914981D01*
X64689Y915355D01*
X64580Y915733D01*
X64479Y916112D01*
X64389Y916494D01*
X64307Y916879D01*
X64236Y917265D01*
X64173Y917652D01*
X64120Y918041D01*
X64077Y918432D01*
X64043Y918823D01*
X64019Y919215D01*
X64005Y919607D01*
X64000Y920000D01*
X64000Y80000D02*
X64005Y80393D01*
X64019Y80785D01*
X64043Y81177D01*
X64077Y81568D01*
X64120Y81959D01*
X64173Y82348D01*
X64236Y82735D01*
X64307Y83121D01*
X64389Y83506D01*
X64479Y83888D01*
X64580Y84267D01*
X64689Y84645D01*
X64808Y85019D01*
X64935Y85390D01*
X65072Y85758D01*
X65218Y86123D01*
X65373Y86484D01*
X65536Y86841D01*
X65708Y87194D01*
X65889Y87542D01*
X66079Y87886D01*
X66276Y88226D01*
X66482Y88560D01*
X66696Y88889D01*
X66919Y89213D01*
X67149Y89531D01*
X67386Y89844D01*
X67632Y90150D01*
X67885Y90451D01*
X68145Y90745D01*
X68412Y91033D01*
X68686Y91314D01*
X68967Y91588D01*
X69255Y91855D01*
X69549Y92115D01*
X69850Y92368D01*
X70156Y92614D01*
X70469Y92851D01*
X70787Y93081D01*
X71111Y93304D01*
X71440Y93518D01*
X71774Y93724D01*
X72114Y93921D01*
X72458Y94111D01*
X72806Y94292D01*
X73159Y94464D01*
X73516Y94627D01*
X73877Y94782D01*
X74242Y94928D01*
X74610Y95065D01*
X74981Y95192D01*
X75355Y95311D01*
X75733Y95420D01*
X76112Y95521D01*
X76494Y95611D01*
X76879Y95693D01*
X77265Y95764D01*
X77652Y95827D01*
X78041Y95880D01*
X78432Y95923D01*
X78823Y95957D01*
X79215Y95981D01*
X79607Y95995D01*
X80000Y96000D01*
X80393Y95995D01*
X80785Y95981D01*
X81177Y95957D01*
X81568Y95923D01*
X81959Y95880D01*
X82348Y95827D01*
X82735Y95764D01*
X83121Y95693D01*
X83506Y95611D01*
X83888Y95521D01*
X84267Y95420D01*
X84645Y95311D01*
X85019Y95192D01*
X85390Y95065D01*
X85758Y94928D01*
X86123Y94782D01*
X86484Y94627D01*
X86841Y94464D01*
X87194Y94292D01*
X87542Y94111D01*
X87886Y93921D01*
X88226Y93724D01*
X88560Y93518D01*
X88889Y93304D01*
X89213Y93081D01*
X89531Y92851D01*
X89844Y92614D01*
X90150Y92368D01*
X90451Y92115D01*
X90745Y91855D01*
X91033Y91588D01*
X91314Y91314D01*
X91588Y91033D01*
X91855Y90745D01*
X92115Y90451D01*
X92368Y90150D01*
X92614Y89844D01*
X92851Y89531D01*
X93081Y89213D01*
X93304Y88889D01*
X93518Y88560D01*
X93724Y88226D01*
X93921Y87886D01*
X94111Y87542D01*
X94292Y87194D01*
X94464Y86841D01*
X94627Y86484D01*
X94782Y86123D01*
X94928Y85758D01*
X95065Y85390D01*
X95192Y85019D01*
X95311Y84645D01*
X95420Y84267D01*
X95521Y83888D01*
X95611Y83506D01*
X95693Y83121D01*
X95764Y82735D01*
X95827Y82348D01*
X95880Y81959D01*
X95923Y81568D01*
X95957Y81177D01*
X95981Y80785D01*
X95995Y80393D01*
X96000Y80000D01*
X95995Y79607D01*
X95981Y79215D01*
X95957Y78823D01*
X95923Y78432D01*
X95880Y78041D01*
X95827Y77652D01*
X95764Y77265D01*
X95693Y76879D01*
X95611Y76494D01*
X95521Y76112D01*
X95420Y75733D01*
X95311Y75355D01*
X95192Y74981D01*
X95065Y74610D01*
X94928Y74242D01*
X94782Y73877D01*
X94627Y73516D01*
X94464Y73159D01*
X94292Y72806D01*
X94111Y72458D01*
X93921Y72114D01*
X93724Y71774D01*
X93518Y71440D01*
X93304Y71111D01*
X93081Y70787D01*
X92851Y70469D01*
X92614Y70156D01*
X92368Y69850D01*
X92115Y69549D01*
X91855Y69255D01*
X91588Y68967D01*
X91314Y68686D01*
X91033Y68412D01*
X90745Y68145D01*
X90451Y67885D01*
X90150Y67632D01*
X89844Y67386D01*
X89531Y67149D01*
X89213Y66919D01*
X88889Y66696D01*
X88560Y66482D01*
X88226Y66276D01*
X87886Y66079D01*
X87542Y65889D01*
X87194Y65708D01*
X86841Y65536D01*
X86484Y65373D01*
X86123Y65218D01*
X85758Y65072D01*
X85390Y64935D01*
X85019Y64808D01*
X84645Y64689D01*
X84267Y64580D01*
X83888Y64479D01*
X83506Y64389D01*
X83121Y64307D01*
X82735Y64236D01*
X82348Y64173D01*
X81959Y64120D01*
X81568Y64077D01*
X81177Y64043D01*
X80785Y64019D01*
X80393Y64005D01*
X80000Y64000D01*
X79607Y64005D01*
X79215Y64019D01*
X78823Y64043D01*
X78432Y64077D01*
X78041Y64120D01*
X77652Y64173D01*
X77265Y64236D01*
X76879Y64307D01*
X76494Y64389D01*
X76112Y64479D01*
X75733Y64580D01*
X75355Y64689D01*
X74981Y64808D01*
X74610Y64935D01*
X74242Y65072D01*
X73877Y65218D01*
X73516Y65373D01*
X73159Y65536D01*
X72806Y65708D01*
X72458Y65889D01*
X72114Y66079D01*
X71774Y66276D01*
X71440Y66482D01*
X71111Y66696D01*
X70787Y66919D01*
X70469Y67149D01*
X70156Y67386D01*
X69850Y67632D01*
X69549Y67885D01*
X69255Y68145D01*
X68967Y68412D01*
X68686Y68686D01*
X68412Y68967D01*
X68145Y69255D01*
X67885Y69549D01*
X67632Y69850D01*
X67386Y70156D01*
X67149Y70469D01*
X66919Y70787D01*
X66696Y71111D01*
X66482Y71440D01*
X66276Y71774D01*
X66079Y72114D01*
X65889Y72458D01*
X65708Y72806D01*
X65536Y73159D01*
X65373Y73516D01*
X65218Y73877D01*
X65072Y74242D01*
X64935Y74610D01*
X64808Y74981D01*
X64689Y75355D01*
X64580Y75733D01*
X64479Y76112D01*
X64389Y76494D01*
X64307Y76879D01*
X64236Y77265D01*
X64173Y77652D01*
X64120Y78041D01*
X64077Y78432D01*
X64043Y78823D01*
X64019Y79215D01*
X64005Y79607D01*
X64000Y80000D01*
X904000Y80000D02*
X904005Y80393D01*
X904019Y80785D01*
X904043Y81177D01*
X904077Y81568D01*
X904120Y81959D01*
X904173Y82348D01*
X904236Y82735D01*
X904307Y83121D01*
X904389Y83506D01*
X904479Y83888D01*
X904580Y84267D01*
X904689Y84645D01*
X904808Y85019D01*
X904935Y85390D01*
X905072Y85758D01*
X905218Y86123D01*
X905373Y86484D01*
X905536Y86841D01*
X905708Y87194D01*
X905889Y87542D01*
X906079Y87886D01*
X906276Y88226D01*
X906482Y88560D01*
X906696Y88889D01*
X906919Y89213D01*
X907149Y89531D01*
X907386Y89844D01*
X907632Y90150D01*
X907885Y90451D01*
X908145Y90745D01*
X908412Y91033D01*
X908686Y91314D01*
X908967Y91588D01*
X909255Y91855D01*
X909549Y92115D01*
X909850Y92368D01*
X910156Y92614D01*
X910469Y92851D01*
X910787Y93081D01*
X911111Y93304D01*
X911440Y93518D01*
X911774Y93724D01*
X912114Y93921D01*
X912458Y94111D01*
X912806Y94292D01*
X913159Y94464D01*
X913516Y94627D01*
X913877Y94782D01*
X914242Y94928D01*
X914610Y95065D01*
X914981Y95192D01*
X915355Y95311D01*
X915733Y95420D01*
X916112Y95521D01*
X916494Y95611D01*
X916879Y95693D01*
X917265Y95764D01*
X917652Y95827D01*
X918041Y95880D01*
X918432Y95923D01*
X918823Y95957D01*
X919215Y95981D01*
X919607Y95995D01*
X920000Y96000D01*
X920393Y95995D01*
X920785Y95981D01*
X921177Y95957D01*
X921568Y95923D01*
X921959Y95880D01*
X922348Y95827D01*
X922735Y95764D01*
X923121Y95693D01*
X923506Y95611D01*
X923888Y95521D01*
X924267Y95420D01*
X924645Y95311D01*
X925019Y95192D01*
X925390Y95065D01*
X925758Y94928D01*
X926123Y94782D01*
X926484Y94627D01*
X926841Y94464D01*
X927194Y94292D01*
X927542Y94111D01*
X927886Y93921D01*
X928226Y93724D01*
X928560Y93518D01*
X928889Y93304D01*
X929213Y93081D01*
X929531Y92851D01*
X929844Y92614D01*
X930150Y92368D01*
X930451Y92115D01*
X930745Y91855D01*
X931033Y91588D01*
X931314Y91314D01*
X931588Y91033D01*
X931855Y90745D01*
X932115Y90451D01*
X932368Y90150D01*
X932614Y89844D01*
X932851Y89531D01*
X933081Y89213D01*
X933304Y88889D01*
X933518Y88560D01*
X933724Y88226D01*
X933921Y87886D01*
X934111Y87542D01*
X934292Y87194D01*
X934464Y86841D01*
X934627Y86484D01*
X934782Y86123D01*
X934928Y85758D01*
X935065Y85390D01*
X935192Y85019D01*
X935311Y84645D01*
X935420Y84267D01*
X935521Y83888D01*
X935611Y83506D01*
X935693Y83121D01*
X935764Y82735D01*
X935827Y82348D01*
X935880Y81959D01*
X935923Y81568D01*
X935957Y81177D01*
X935981Y80785D01*
X935995Y80393D01*
X936000Y80000D01*
X935995Y79607D01*
X935981Y79215D01*
X935957Y78823D01*
X935923Y78432D01*
X935880Y78041D01*
X935827Y77652D01*
X935764Y77265D01*
X935693Y76879D01*
X935611Y76494D01*
X935521Y76112D01*
X935420Y75733D01*
X935311Y75355D01*
X935192Y74981D01*
X935065Y74610D01*
X934928Y74242D01*
X934782Y73877D01*
X934627Y73516D01*
X934464Y73159D01*
X934292Y72806D01*
X934111Y72458D01*
X933921Y72114D01*
X933724Y71774D01*
X933518Y71440D01*
X933304Y71111D01*
X933081Y70787D01*
X932851Y70469D01*
X932614Y70156D01*
X932368Y69850D01*
X932115Y69549D01*
X931855Y69255D01*
X931588Y68967D01*
X931314Y68686D01*
X931033Y68412D01*
X930745Y68145D01*
X930451Y67885D01*
X930150Y67632D01*
X929844Y67386D01*
X929531Y67149D01*
X929213Y66919D01*
X928889Y66696D01*
X928560Y66482D01*
X928226Y66276D01*
X927886Y66079D01*
X927542Y65889D01*
X927194Y65708D01*
X926841Y65536D01*
X926484Y65373D01*
X926123Y65218D01*
X925758Y65072D01*
X925390Y64935D01*
X925019Y64808D01*
X924645Y64689D01*
X924267Y64580D01*
X923888Y64479D01*
X923506Y64389D01*
X923121Y64307D01*
X922735Y64236D01*
X922348Y64173D01*
X921959Y64120D01*
X921568Y64077D01*
X921177Y64043D01*
X920785Y64019D01*
X920393Y64005D01*
X920000Y64000D01*
X919607Y64005D01*
X919215Y64019D01*
X918823Y64043D01*
X918432Y64077D01*
X918041Y64120D01*
X917652Y64173D01*
X917265Y64236D01*
X916879Y64307D01*
X916494Y64389D01*
X916112Y64479D01*
X915733Y64580D01*
X915355Y64689D01*
X914981Y64808D01*
X914610Y64935D01*
X914242Y65072D01*
X913877Y65218D01*
X913516Y65373D01*
X913159Y65536D01*
X912806Y65708D01*
X912458Y65889D01*
X912114Y66079D01*
X911774Y66276D01*
X911440Y66482D01*
X911111Y66696D01*
X910787Y66919D01*
X910469Y67149D01*
X910156Y67386D01*
X909850Y67632D01*
X909549Y67885D01*
X909255Y68145D01*
X908967Y68412D01*
X908686Y68686D01*
X908412Y68967D01*
X908145Y69255D01*
X907885Y69549D01*
X907632Y69850D01*
X907386Y70156D01*
X907149Y70469D01*
X906919Y70787D01*
X906696Y71111D01*
X906482Y71440D01*
X906276Y71774D01*
X906079Y72114D01*
X905889Y72458D01*
X905708Y72806D01*
X905536Y73159D01*
X905373Y73516D01*
X905218Y73877D01*
X905072Y74242D01*
X904935Y74610D01*
X904808Y74981D01*
X904689Y75355D01*
X904580Y75733D01*
X904479Y76112D01*
X904389Y76494D01*
X904307Y76879D01*
X904236Y77265D01*
X904173Y77652D01*
X904120Y78041D01*
X904077Y78432D01*
X904043Y78823D01*
X904019Y79215D01*
X904005Y79607D01*
X904000Y80000D01*
X904000Y920000D02*
X904005Y920393D01*
X904019Y920785D01*
X904043Y921177D01*
X904077Y921568D01*
X904120Y921959D01*
X904173Y922348D01*
X904236Y922735D01*
X904307Y923121D01*
X904389Y923506D01*
X904479Y923888D01*
X904580Y924267D01*
X904689Y924645D01*
X904808Y925019D01*
X904935Y925390D01*
X905072Y925758D01*
X905218Y926123D01*
X905373Y926484D01*
X905536Y926841D01*
X905708Y927194D01*
X905889Y927542D01*
X906079Y927886D01*
X906276Y928226D01*
X906482Y928560D01*
X906696Y928889D01*
X906919Y929213D01*
X907149Y929531D01*
X907386Y929844D01*
X907632Y930150D01*
X907885Y930451D01*
X908145Y930745D01*
X908412Y931033D01*
X908686Y931314D01*
X908967Y931588D01*
X909255Y931855D01*
X909549Y932115D01*
X909850Y932368D01*
X910156Y932614D01*
X910469Y932851D01*
X910787Y933081D01*
X911111Y933304D01*
X911440Y933518D01*
X911774Y933724D01*
X912114Y933921D01*
X912458Y934111D01*
X912806Y934292D01*
X913159Y934464D01*
X913516Y934627D01*
X913877Y934782D01*
X914242Y934928D01*
X914610Y935065D01*
X914981Y935192D01*
X915355Y935311D01*
X915733Y935420D01*
X916112Y935521D01*
X916494Y935611D01*
X916879Y935693D01*
X917265Y935764D01*
X917652Y935827D01*
X918041Y935880D01*
X918432Y935923D01*
X918823Y935957D01*
X919215Y935981D01*
X919607Y935995D01*
X920000Y936000D01*
X920393Y935995D01*
X920785Y935981D01*
X921177Y935957D01*
X921568Y935923D01*
X921959Y935880D01*
X922348Y935827D01*
X922735Y935764D01*
X923121Y935693D01*
X923506Y935611D01*
X923888Y935521D01*
X924267Y935420D01*
X924645Y935311D01*
X925019Y935192D01*
X925390Y935065D01*
X925758Y934928D01*
X926123Y934782D01*
X926484Y934627D01*
X926841Y934464D01*
X927194Y934292D01*
X927542Y934111D01*
X927886Y933921D01*
X928226Y933724D01*
X928560Y933518D01*
X928889Y933304D01*
X929213Y933081D01*
X929531Y932851D01*
X929844Y932614D01*
X930150Y932368D01*
X930451Y932115D01*
X930745Y931855D01*
X931033Y931588D01*
X931314Y931314D01*
X931588Y931033D01*
X931855Y930745D01*
X932115Y930451D01*
X932368Y930150D01*
X932614Y929844D01*
X932851Y929531D01*
X933081Y929213D01*
X933304Y928889D01*
X933518Y928560D01*
X933724Y928226D01*
X933921Y927886D01*
X934111Y927542D01*
X934292Y927194D01*
X934464Y926841D01*
X934627Y926484D01*
X934782Y926123D01*
X934928Y925758D01*
X935065Y925390D01*
X935192Y925019D01*
X935311Y924645D01*
X935420Y924267D01*
X935521Y923888D01*
X935611Y923506D01*
X935693Y923121D01*
X935764Y922735D01*
X935827Y922348D01*
X935880Y921959D01*
X935923Y921568D01*
X935957Y921177D01*
X935981Y920785D01*
X935995Y920393D01*
X936000Y920000D01*
X935995Y919607D01*
X935981Y919215D01*
X935957Y918823D01*
X935923Y918432D01*
X935880Y918041D01*
X935827Y917652D01*
X935764Y917265D01*
X935693Y916879D01*
X935611Y916494D01*
X935521Y916112D01*
X935420Y915733D01*
X935311Y915355D01*
X935192Y914981D01*
X935065Y914610D01*
X934928Y914242D01*
X934782Y913877D01*
X934627Y913516D01*
X934464Y913159D01*
X934292Y912806D01*
X934111Y912458D01*
X933921Y912114D01*
X933724Y911774D01*
X933518Y911440D01*
X933304Y911111D01*
X933081Y910787D01*
X932851Y910469D01*
X932614Y910156D01*
X932368Y909850D01*
X932115Y909549D01*
X931855Y909255D01*
X931588Y908967D01*
X931314Y908686D01*
X931033Y908412D01*
X930745Y908145D01*
X930451Y907885D01*
X930150Y907632D01*
X929844Y907386D01*
X929531Y907149D01*
X929213Y906919D01*
X928889Y906696D01*
X928560Y906482D01*
X928226Y906276D01*
X927886Y906079D01*
X927542Y905889D01*
X927194Y905708D01*
X926841Y905536D01*
X926484Y905373D01*
X926123Y905218D01*
X925758Y905072D01*
X925390Y904935D01*
X925019Y904808D01*
X924645Y904689D01*
X924267Y904580D01*
X923888Y904479D01*
X923506Y904389D01*
X923121Y904307D01*
X922735Y904236D01*
X922348Y904173D01*
X921959Y904120D01*
X921568Y904077D01*
X921177Y904043D01*
X920785Y904019D01*
X920393Y904005D01*
X920000Y904000D01*
X919607Y904005D01*
X919215Y904019D01*
X918823Y904043D01*
X918432Y904077D01*
X918041Y904120D01*
X917652Y904173D01*
X917265Y904236D01*
X916879Y904307D01*
X916494Y904389D01*
X916112Y904479D01*
X915733Y904580D01*
X915355Y904689D01*
X914981Y904808D01*
X914610Y904935D01*
X914242Y905072D01*
X913877Y905218D01*
X913516Y905373D01*
X913159Y905536D01*
X912806Y905708D01*
X912458Y905889D01*
X912114Y906079D01*
X911774Y906276D01*
X911440Y906482D01*
X911111Y906696D01*
X910787Y906919D01*
X910469Y907149D01*
X910156Y907386D01*
X909850Y907632D01*
X909549Y907885D01*
X909255Y908145D01*
X908967Y908412D01*
X908686Y908686D01*
X908412Y908967D01*
X908145Y909255D01*
X907885Y909549D01*
X907632Y909850D01*
X907386Y910156D01*
X907149Y910469D01*
X906919Y910787D01*
X906696Y911111D01*
X906482Y911440D01*
X906276Y911774D01*
X906079Y912114D01*
X905889Y912458D01*
X905708Y912806D01*
X905536Y913159D01*
X905373Y913516D01*
X905218Y913877D01*
X905072Y914242D01*
X904935Y914610D01*
X904808Y914981D01*
X904689Y915355D01*
X904580Y915733D01*
X904479Y916112D01*
X904389Y916494D01*
X904307Y916879D01*
X904236Y917265D01*
X904173Y917652D01*
X904120Y918041D01*
X904077Y918432D01*
X904043Y918823D01*
X904019Y919215D01*
X904005Y919607D01*
X904000Y920000D01*
D285*
X622737Y958958D02*
X620125Y961049D01*
X620125Y951643D01*
X622737Y951643D02*
X617512Y951643D01*
X622314Y863150D02*
X622219Y863148D01*
X622125Y863142D01*
X622030Y863133D01*
X621937Y863120D01*
X621843Y863102D01*
X621751Y863082D01*
X621659Y863057D01*
X621569Y863029D01*
X621480Y862997D01*
X621392Y862962D01*
X621305Y862923D01*
X621221Y862880D01*
X621138Y862835D01*
X621056Y862786D01*
X620977Y862733D01*
X620900Y862678D01*
X620826Y862620D01*
X620754Y862558D01*
X620684Y862494D01*
X620617Y862427D01*
X620553Y862357D01*
X620491Y862285D01*
X620433Y862211D01*
X620378Y862134D01*
X620325Y862055D01*
X620276Y861974D01*
X620231Y861890D01*
X620188Y861806D01*
X620149Y861719D01*
X620114Y861631D01*
X620082Y861542D01*
X620054Y861452D01*
X620029Y861360D01*
X620009Y861268D01*
X619991Y861174D01*
X619978Y861081D01*
X619969Y860986D01*
X619963Y860892D01*
X619961Y860797D01*
X622314Y863150D02*
X622423Y863148D01*
X622531Y863142D01*
X622639Y863132D01*
X622747Y863119D01*
X622854Y863101D01*
X622961Y863080D01*
X623066Y863055D01*
X623171Y863026D01*
X623275Y862993D01*
X623377Y862957D01*
X623478Y862917D01*
X623577Y862873D01*
X623675Y862826D01*
X623771Y862776D01*
X623866Y862721D01*
X623958Y862664D01*
X624048Y862603D01*
X624136Y862539D01*
X624221Y862472D01*
X624304Y862402D01*
X624385Y862329D01*
X624462Y862254D01*
X624537Y862175D01*
X624610Y862094D01*
X624679Y862010D01*
X624745Y861924D01*
X624808Y861836D01*
X624868Y861745D01*
X624924Y861652D01*
X624977Y861557D01*
X625027Y861461D01*
X625073Y861362D01*
X625116Y861262D01*
X625155Y861161D01*
X625190Y861058D01*
X620746Y858966D02*
X620676Y859035D01*
X620610Y859106D01*
X620546Y859180D01*
X620485Y859256D01*
X620427Y859334D01*
X620372Y859415D01*
X620321Y859498D01*
X620272Y859582D01*
X620227Y859669D01*
X620185Y859757D01*
X620147Y859846D01*
X620112Y859937D01*
X620080Y860029D01*
X620053Y860123D01*
X620028Y860217D01*
X620008Y860313D01*
X619991Y860409D01*
X619978Y860505D01*
X619969Y860602D01*
X619963Y860700D01*
X619961Y860797D01*
X620745Y858966D02*
X625191Y853737D01*
X619961Y853737D01*
D286*
X595574Y499872D02*
X598819Y497276D01*
X595574Y499872D02*
X595574Y488188D01*
X598819Y488188D02*
X592328Y488188D01*
X595249Y398272D02*
X595142Y398270D01*
X595036Y398264D01*
X594930Y398254D01*
X594824Y398241D01*
X594718Y398223D01*
X594614Y398202D01*
X594510Y398177D01*
X594407Y398148D01*
X594306Y398116D01*
X594206Y398079D01*
X594107Y398039D01*
X594009Y397996D01*
X593913Y397949D01*
X593819Y397898D01*
X593727Y397844D01*
X593637Y397787D01*
X593549Y397727D01*
X593464Y397663D01*
X593381Y397596D01*
X593300Y397526D01*
X593222Y397454D01*
X593146Y397378D01*
X593074Y397300D01*
X593004Y397219D01*
X592937Y397136D01*
X592873Y397051D01*
X592813Y396963D01*
X592756Y396873D01*
X592702Y396781D01*
X592651Y396687D01*
X592604Y396591D01*
X592561Y396493D01*
X592521Y396394D01*
X592484Y396294D01*
X592452Y396193D01*
X592423Y396090D01*
X592398Y395986D01*
X592377Y395882D01*
X592359Y395776D01*
X592346Y395670D01*
X592336Y395564D01*
X592330Y395458D01*
X592328Y395351D01*
X595249Y398272D02*
X595370Y398270D01*
X595491Y398264D01*
X595611Y398254D01*
X595732Y398241D01*
X595851Y398223D01*
X595971Y398202D01*
X596089Y398177D01*
X596206Y398148D01*
X596323Y398115D01*
X596438Y398079D01*
X596552Y398038D01*
X596665Y397995D01*
X596777Y397947D01*
X596886Y397896D01*
X596994Y397841D01*
X597101Y397783D01*
X597205Y397722D01*
X597307Y397657D01*
X597407Y397589D01*
X597505Y397518D01*
X597601Y397444D01*
X597694Y397367D01*
X597784Y397286D01*
X597872Y397203D01*
X597957Y397117D01*
X598040Y397028D01*
X598119Y396937D01*
X598196Y396843D01*
X598269Y396747D01*
X598339Y396649D01*
X598406Y396548D01*
X598470Y396445D01*
X598531Y396340D01*
X598588Y396233D01*
X598641Y396125D01*
X598691Y396015D01*
X598737Y395903D01*
X598780Y395790D01*
X598819Y395675D01*
X593302Y393079D02*
X593223Y393157D01*
X593147Y393237D01*
X593074Y393320D01*
X593004Y393406D01*
X592937Y393493D01*
X592873Y393584D01*
X592813Y393676D01*
X592755Y393770D01*
X592701Y393867D01*
X592651Y393965D01*
X592604Y394065D01*
X592560Y394166D01*
X592520Y394269D01*
X592484Y394374D01*
X592452Y394479D01*
X592423Y394586D01*
X592398Y394693D01*
X592376Y394802D01*
X592359Y394911D01*
X592345Y395020D01*
X592336Y395130D01*
X592330Y395241D01*
X592328Y395351D01*
X593302Y393079D02*
X598819Y386588D01*
X592328Y386588D01*
D285*
X45307Y155012D02*
X43217Y152399D01*
X45307Y155012D02*
X35901Y155012D01*
X35901Y152399D02*
X35901Y157625D01*
X140860Y160078D02*
X140955Y160076D01*
X141049Y160070D01*
X141144Y160061D01*
X141237Y160048D01*
X141331Y160030D01*
X141423Y160010D01*
X141515Y159985D01*
X141605Y159957D01*
X141694Y159925D01*
X141782Y159890D01*
X141869Y159851D01*
X141953Y159808D01*
X142037Y159763D01*
X142118Y159714D01*
X142197Y159661D01*
X142274Y159606D01*
X142348Y159548D01*
X142420Y159486D01*
X142490Y159422D01*
X142557Y159355D01*
X142621Y159285D01*
X142683Y159213D01*
X142741Y159139D01*
X142796Y159062D01*
X142849Y158983D01*
X142898Y158902D01*
X142943Y158818D01*
X142986Y158734D01*
X143025Y158647D01*
X143060Y158559D01*
X143092Y158470D01*
X143120Y158380D01*
X143145Y158288D01*
X143165Y158196D01*
X143183Y158102D01*
X143196Y158009D01*
X143205Y157914D01*
X143211Y157820D01*
X143213Y157725D01*
X143211Y157616D01*
X143205Y157508D01*
X143195Y157400D01*
X143182Y157292D01*
X143164Y157185D01*
X143143Y157078D01*
X143118Y156973D01*
X143089Y156868D01*
X143056Y156764D01*
X143020Y156662D01*
X142980Y156561D01*
X142936Y156462D01*
X142889Y156364D01*
X142839Y156268D01*
X142784Y156173D01*
X142727Y156081D01*
X142666Y155991D01*
X142602Y155903D01*
X142535Y155818D01*
X142465Y155735D01*
X142392Y155654D01*
X142317Y155577D01*
X142238Y155502D01*
X142157Y155429D01*
X142073Y155360D01*
X141987Y155294D01*
X141899Y155231D01*
X141808Y155171D01*
X141715Y155115D01*
X141620Y155062D01*
X141524Y155012D01*
X141425Y154966D01*
X141325Y154923D01*
X141224Y154884D01*
X141121Y154849D01*
X139029Y159293D02*
X139098Y159363D01*
X139169Y159429D01*
X139243Y159493D01*
X139319Y159554D01*
X139397Y159612D01*
X139478Y159667D01*
X139561Y159718D01*
X139645Y159767D01*
X139732Y159812D01*
X139820Y159854D01*
X139909Y159892D01*
X140000Y159927D01*
X140092Y159959D01*
X140186Y159986D01*
X140280Y160011D01*
X140376Y160031D01*
X140472Y160048D01*
X140568Y160061D01*
X140665Y160070D01*
X140763Y160076D01*
X140860Y160078D01*
X139030Y159294D02*
X133800Y154848D01*
X133800Y160078D01*
X139808Y843090D02*
X141899Y845703D01*
X132493Y845703D01*
X132493Y848315D02*
X132493Y843090D01*
X44000Y843513D02*
X43998Y843608D01*
X43992Y843702D01*
X43983Y843797D01*
X43970Y843890D01*
X43952Y843984D01*
X43932Y844076D01*
X43907Y844168D01*
X43879Y844258D01*
X43847Y844347D01*
X43812Y844435D01*
X43773Y844522D01*
X43730Y844606D01*
X43685Y844690D01*
X43636Y844771D01*
X43583Y844850D01*
X43528Y844927D01*
X43470Y845001D01*
X43408Y845073D01*
X43344Y845143D01*
X43277Y845210D01*
X43207Y845274D01*
X43135Y845336D01*
X43061Y845394D01*
X42984Y845449D01*
X42905Y845502D01*
X42824Y845551D01*
X42740Y845596D01*
X42656Y845639D01*
X42569Y845678D01*
X42481Y845713D01*
X42392Y845745D01*
X42302Y845773D01*
X42210Y845798D01*
X42118Y845818D01*
X42024Y845836D01*
X41931Y845849D01*
X41836Y845858D01*
X41742Y845864D01*
X41647Y845866D01*
X44000Y843513D02*
X43998Y843404D01*
X43992Y843296D01*
X43982Y843188D01*
X43969Y843080D01*
X43951Y842973D01*
X43930Y842866D01*
X43905Y842761D01*
X43876Y842656D01*
X43843Y842552D01*
X43807Y842450D01*
X43767Y842349D01*
X43723Y842250D01*
X43676Y842152D01*
X43626Y842056D01*
X43571Y841961D01*
X43514Y841869D01*
X43453Y841779D01*
X43389Y841691D01*
X43322Y841606D01*
X43252Y841523D01*
X43179Y841442D01*
X43104Y841365D01*
X43025Y841290D01*
X42944Y841217D01*
X42860Y841148D01*
X42774Y841082D01*
X42686Y841019D01*
X42595Y840959D01*
X42502Y840903D01*
X42407Y840850D01*
X42311Y840800D01*
X42212Y840754D01*
X42112Y840711D01*
X42011Y840672D01*
X41908Y840637D01*
X39816Y845082D02*
X39885Y845152D01*
X39956Y845218D01*
X40030Y845282D01*
X40106Y845343D01*
X40184Y845401D01*
X40265Y845456D01*
X40348Y845507D01*
X40432Y845556D01*
X40519Y845601D01*
X40607Y845643D01*
X40696Y845681D01*
X40787Y845716D01*
X40879Y845748D01*
X40973Y845775D01*
X41067Y845800D01*
X41163Y845820D01*
X41259Y845837D01*
X41355Y845850D01*
X41452Y845859D01*
X41550Y845865D01*
X41647Y845867D01*
X39816Y845082D02*
X34587Y840637D01*
X34587Y845866D01*
X193745Y961886D02*
X196357Y959796D01*
X193745Y961886D02*
X193745Y952480D01*
X196357Y952480D02*
X191132Y952480D01*
X195934Y863987D02*
X195839Y863985D01*
X195745Y863979D01*
X195650Y863970D01*
X195557Y863957D01*
X195463Y863939D01*
X195371Y863919D01*
X195279Y863894D01*
X195189Y863866D01*
X195100Y863834D01*
X195012Y863799D01*
X194925Y863760D01*
X194841Y863717D01*
X194758Y863672D01*
X194676Y863623D01*
X194597Y863570D01*
X194520Y863515D01*
X194446Y863457D01*
X194374Y863395D01*
X194304Y863331D01*
X194237Y863264D01*
X194173Y863194D01*
X194111Y863122D01*
X194053Y863048D01*
X193998Y862971D01*
X193945Y862892D01*
X193896Y862811D01*
X193851Y862727D01*
X193808Y862643D01*
X193769Y862556D01*
X193734Y862468D01*
X193702Y862379D01*
X193674Y862289D01*
X193649Y862197D01*
X193629Y862105D01*
X193611Y862011D01*
X193598Y861918D01*
X193589Y861823D01*
X193583Y861729D01*
X193581Y861634D01*
X195934Y863987D02*
X196043Y863985D01*
X196151Y863979D01*
X196259Y863969D01*
X196367Y863956D01*
X196474Y863938D01*
X196581Y863917D01*
X196686Y863892D01*
X196791Y863863D01*
X196895Y863830D01*
X196997Y863794D01*
X197098Y863754D01*
X197197Y863710D01*
X197295Y863663D01*
X197391Y863613D01*
X197486Y863558D01*
X197578Y863501D01*
X197668Y863440D01*
X197756Y863376D01*
X197841Y863309D01*
X197924Y863239D01*
X198005Y863166D01*
X198082Y863091D01*
X198157Y863012D01*
X198230Y862931D01*
X198299Y862847D01*
X198365Y862761D01*
X198428Y862673D01*
X198488Y862582D01*
X198544Y862489D01*
X198597Y862394D01*
X198647Y862298D01*
X198693Y862199D01*
X198736Y862099D01*
X198775Y861998D01*
X198810Y861895D01*
X194366Y859803D02*
X194296Y859872D01*
X194230Y859943D01*
X194166Y860017D01*
X194105Y860093D01*
X194047Y860171D01*
X193992Y860252D01*
X193941Y860335D01*
X193892Y860419D01*
X193847Y860506D01*
X193805Y860594D01*
X193767Y860683D01*
X193732Y860774D01*
X193700Y860866D01*
X193673Y860960D01*
X193648Y861054D01*
X193628Y861150D01*
X193611Y861246D01*
X193598Y861342D01*
X193589Y861439D01*
X193583Y861537D01*
X193581Y861634D01*
X194365Y859804D02*
X198811Y854574D01*
X193581Y854574D01*
M02*
