G75*
%MOIN*%
%OFA0B0*%
%FSLAX25Y25*%
%IPPOS*%
%LPD*%
%AMOC8*
5,1,8,0,0,1.08239X$1,22.5*
%
%ADD10C,0.00600*%
%ADD11C,0.00000*%
%ADD12R,0.12000X0.05000*%
%ADD13R,0.05000X0.11500*%
%ADD14R,0.07000X0.02400*%
%ADD15R,0.09449X0.12205*%
%ADD16R,0.04331X0.03937*%
%ADD17R,0.04252X0.04134*%
%ADD18R,0.06299X0.05118*%
%ADD19R,0.04134X0.04252*%
%ADD20R,0.03937X0.04331*%
%ADD21R,0.11024X0.14961*%
%ADD22R,0.09843X0.12795*%
%ADD23R,0.02010X0.02519*%
%ADD24R,0.02008X0.02519*%
%ADD25R,0.02008X0.02520*%
%ADD26R,0.02008X0.02522*%
%ADD27C,0.00104*%
%ADD28R,0.00906X0.03248*%
%ADD29R,0.03937X0.05512*%
%ADD30R,0.05512X0.03937*%
%ADD31R,0.03150X0.03150*%
D10*
X0116800Y0058370D02*
X0116800Y0373331D01*
X0116811Y0374282D01*
X0116846Y0375233D01*
X0116903Y0376183D01*
X0116984Y0377131D01*
X0117087Y0378077D01*
X0117213Y0379020D01*
X0117362Y0379959D01*
X0117533Y0380895D01*
X0117728Y0381826D01*
X0117944Y0382753D01*
X0118183Y0383674D01*
X0118444Y0384589D01*
X0118727Y0385497D01*
X0119032Y0386398D01*
X0119358Y0387292D01*
X0119707Y0388177D01*
X0120076Y0389054D01*
X0120466Y0389922D01*
X0120878Y0390779D01*
X0121310Y0391627D01*
X0121762Y0392464D01*
X0122234Y0393290D01*
X0122726Y0394104D01*
X0123238Y0394906D01*
X0123769Y0395696D01*
X0124319Y0396472D01*
X0124887Y0397235D01*
X0125474Y0397984D01*
X0126079Y0398718D01*
X0126701Y0399438D01*
X0127341Y0400143D01*
X0127997Y0400831D01*
X0128670Y0401504D01*
X0129358Y0402160D01*
X0130063Y0402800D01*
X0130783Y0403422D01*
X0131517Y0404027D01*
X0132266Y0404614D01*
X0133029Y0405182D01*
X0133805Y0405732D01*
X0134595Y0406263D01*
X0135397Y0406775D01*
X0136211Y0407267D01*
X0137037Y0407739D01*
X0137874Y0408191D01*
X0138722Y0408623D01*
X0139579Y0409035D01*
X0140447Y0409425D01*
X0141324Y0409794D01*
X0142209Y0410143D01*
X0143103Y0410469D01*
X0144004Y0410774D01*
X0144912Y0411057D01*
X0145827Y0411318D01*
X0146748Y0411557D01*
X0147675Y0411773D01*
X0148606Y0411968D01*
X0149542Y0412139D01*
X0150481Y0412288D01*
X0151424Y0412414D01*
X0152370Y0412517D01*
X0153318Y0412598D01*
X0154268Y0412655D01*
X0155219Y0412690D01*
X0156170Y0412701D01*
X0471131Y0412701D01*
X0472082Y0412690D01*
X0473033Y0412655D01*
X0473983Y0412598D01*
X0474931Y0412517D01*
X0475877Y0412414D01*
X0476820Y0412288D01*
X0477759Y0412139D01*
X0478695Y0411968D01*
X0479626Y0411773D01*
X0480553Y0411557D01*
X0481474Y0411318D01*
X0482389Y0411057D01*
X0483297Y0410774D01*
X0484198Y0410469D01*
X0485092Y0410143D01*
X0485977Y0409794D01*
X0486854Y0409425D01*
X0487722Y0409035D01*
X0488579Y0408623D01*
X0489427Y0408191D01*
X0490264Y0407739D01*
X0491090Y0407267D01*
X0491904Y0406775D01*
X0492706Y0406263D01*
X0493496Y0405732D01*
X0494272Y0405182D01*
X0495035Y0404614D01*
X0495784Y0404027D01*
X0496518Y0403422D01*
X0497238Y0402800D01*
X0497943Y0402160D01*
X0498631Y0401504D01*
X0499304Y0400831D01*
X0499960Y0400143D01*
X0500600Y0399438D01*
X0501222Y0398718D01*
X0501827Y0397984D01*
X0502414Y0397235D01*
X0502982Y0396472D01*
X0503532Y0395696D01*
X0504063Y0394906D01*
X0504575Y0394104D01*
X0505067Y0393290D01*
X0505539Y0392464D01*
X0505991Y0391627D01*
X0506423Y0390779D01*
X0506835Y0389922D01*
X0507225Y0389054D01*
X0507594Y0388177D01*
X0507943Y0387292D01*
X0508269Y0386398D01*
X0508574Y0385497D01*
X0508857Y0384589D01*
X0509118Y0383674D01*
X0509357Y0382753D01*
X0509573Y0381826D01*
X0509768Y0380895D01*
X0509939Y0379959D01*
X0510088Y0379020D01*
X0510214Y0378077D01*
X0510317Y0377131D01*
X0510398Y0376183D01*
X0510455Y0375233D01*
X0510490Y0374282D01*
X0510501Y0373331D01*
X0510501Y0333961D01*
X0502627Y0318213D01*
X0502627Y0113488D01*
X0510501Y0097740D01*
X0510501Y0058370D01*
X0510490Y0057419D01*
X0510455Y0056468D01*
X0510398Y0055518D01*
X0510317Y0054570D01*
X0510214Y0053624D01*
X0510088Y0052681D01*
X0509939Y0051742D01*
X0509768Y0050806D01*
X0509573Y0049875D01*
X0509357Y0048948D01*
X0509118Y0048027D01*
X0508857Y0047112D01*
X0508574Y0046204D01*
X0508269Y0045303D01*
X0507943Y0044409D01*
X0507594Y0043524D01*
X0507225Y0042647D01*
X0506835Y0041779D01*
X0506423Y0040922D01*
X0505991Y0040074D01*
X0505539Y0039237D01*
X0505067Y0038411D01*
X0504575Y0037597D01*
X0504063Y0036795D01*
X0503532Y0036005D01*
X0502982Y0035229D01*
X0502414Y0034466D01*
X0501827Y0033717D01*
X0501222Y0032983D01*
X0500600Y0032263D01*
X0499960Y0031558D01*
X0499304Y0030870D01*
X0498631Y0030197D01*
X0497943Y0029541D01*
X0497238Y0028901D01*
X0496518Y0028279D01*
X0495784Y0027674D01*
X0495035Y0027087D01*
X0494272Y0026519D01*
X0493496Y0025969D01*
X0492706Y0025438D01*
X0491904Y0024926D01*
X0491090Y0024434D01*
X0490264Y0023962D01*
X0489427Y0023510D01*
X0488579Y0023078D01*
X0487722Y0022666D01*
X0486854Y0022276D01*
X0485977Y0021907D01*
X0485092Y0021558D01*
X0484198Y0021232D01*
X0483297Y0020927D01*
X0482389Y0020644D01*
X0481474Y0020383D01*
X0480553Y0020144D01*
X0479626Y0019928D01*
X0478695Y0019733D01*
X0477759Y0019562D01*
X0476820Y0019413D01*
X0475877Y0019287D01*
X0474931Y0019184D01*
X0473983Y0019103D01*
X0473033Y0019046D01*
X0472082Y0019011D01*
X0471131Y0019000D01*
X0156170Y0019000D01*
X0155219Y0019011D01*
X0154268Y0019046D01*
X0153318Y0019103D01*
X0152370Y0019184D01*
X0151424Y0019287D01*
X0150481Y0019413D01*
X0149542Y0019562D01*
X0148606Y0019733D01*
X0147675Y0019928D01*
X0146748Y0020144D01*
X0145827Y0020383D01*
X0144912Y0020644D01*
X0144004Y0020927D01*
X0143103Y0021232D01*
X0142209Y0021558D01*
X0141324Y0021907D01*
X0140447Y0022276D01*
X0139579Y0022666D01*
X0138722Y0023078D01*
X0137874Y0023510D01*
X0137037Y0023962D01*
X0136211Y0024434D01*
X0135397Y0024926D01*
X0134595Y0025438D01*
X0133805Y0025969D01*
X0133029Y0026519D01*
X0132266Y0027087D01*
X0131517Y0027674D01*
X0130783Y0028279D01*
X0130063Y0028901D01*
X0129358Y0029541D01*
X0128670Y0030197D01*
X0127997Y0030870D01*
X0127341Y0031558D01*
X0126701Y0032263D01*
X0126079Y0032983D01*
X0125474Y0033717D01*
X0124887Y0034466D01*
X0124319Y0035229D01*
X0123769Y0036005D01*
X0123238Y0036795D01*
X0122726Y0037597D01*
X0122234Y0038411D01*
X0121762Y0039237D01*
X0121310Y0040074D01*
X0120878Y0040922D01*
X0120466Y0041779D01*
X0120076Y0042647D01*
X0119707Y0043524D01*
X0119358Y0044409D01*
X0119032Y0045303D01*
X0118727Y0046204D01*
X0118444Y0047112D01*
X0118183Y0048027D01*
X0117944Y0048948D01*
X0117728Y0049875D01*
X0117533Y0050806D01*
X0117362Y0051742D01*
X0117213Y0052681D01*
X0117087Y0053624D01*
X0116984Y0054570D01*
X0116903Y0055518D01*
X0116846Y0056468D01*
X0116811Y0057419D01*
X0116800Y0058370D01*
D11*
X0141997Y0050496D02*
X0141999Y0050654D01*
X0142005Y0050812D01*
X0142015Y0050970D01*
X0142029Y0051128D01*
X0142047Y0051285D01*
X0142068Y0051442D01*
X0142094Y0051598D01*
X0142124Y0051754D01*
X0142157Y0051909D01*
X0142195Y0052062D01*
X0142236Y0052215D01*
X0142281Y0052367D01*
X0142330Y0052518D01*
X0142383Y0052667D01*
X0142439Y0052815D01*
X0142499Y0052961D01*
X0142563Y0053106D01*
X0142631Y0053249D01*
X0142702Y0053391D01*
X0142776Y0053531D01*
X0142854Y0053668D01*
X0142936Y0053804D01*
X0143020Y0053938D01*
X0143109Y0054069D01*
X0143200Y0054198D01*
X0143295Y0054325D01*
X0143392Y0054450D01*
X0143493Y0054572D01*
X0143597Y0054691D01*
X0143704Y0054808D01*
X0143814Y0054922D01*
X0143927Y0055033D01*
X0144042Y0055142D01*
X0144160Y0055247D01*
X0144281Y0055349D01*
X0144404Y0055449D01*
X0144530Y0055545D01*
X0144658Y0055638D01*
X0144788Y0055728D01*
X0144921Y0055814D01*
X0145056Y0055898D01*
X0145192Y0055977D01*
X0145331Y0056054D01*
X0145472Y0056126D01*
X0145614Y0056196D01*
X0145758Y0056261D01*
X0145904Y0056323D01*
X0146051Y0056381D01*
X0146200Y0056436D01*
X0146350Y0056487D01*
X0146501Y0056534D01*
X0146653Y0056577D01*
X0146806Y0056616D01*
X0146961Y0056652D01*
X0147116Y0056683D01*
X0147272Y0056711D01*
X0147428Y0056735D01*
X0147585Y0056755D01*
X0147743Y0056771D01*
X0147900Y0056783D01*
X0148059Y0056791D01*
X0148217Y0056795D01*
X0148375Y0056795D01*
X0148533Y0056791D01*
X0148692Y0056783D01*
X0148849Y0056771D01*
X0149007Y0056755D01*
X0149164Y0056735D01*
X0149320Y0056711D01*
X0149476Y0056683D01*
X0149631Y0056652D01*
X0149786Y0056616D01*
X0149939Y0056577D01*
X0150091Y0056534D01*
X0150242Y0056487D01*
X0150392Y0056436D01*
X0150541Y0056381D01*
X0150688Y0056323D01*
X0150834Y0056261D01*
X0150978Y0056196D01*
X0151120Y0056126D01*
X0151261Y0056054D01*
X0151400Y0055977D01*
X0151536Y0055898D01*
X0151671Y0055814D01*
X0151804Y0055728D01*
X0151934Y0055638D01*
X0152062Y0055545D01*
X0152188Y0055449D01*
X0152311Y0055349D01*
X0152432Y0055247D01*
X0152550Y0055142D01*
X0152665Y0055033D01*
X0152778Y0054922D01*
X0152888Y0054808D01*
X0152995Y0054691D01*
X0153099Y0054572D01*
X0153200Y0054450D01*
X0153297Y0054325D01*
X0153392Y0054198D01*
X0153483Y0054069D01*
X0153572Y0053938D01*
X0153656Y0053804D01*
X0153738Y0053668D01*
X0153816Y0053531D01*
X0153890Y0053391D01*
X0153961Y0053249D01*
X0154029Y0053106D01*
X0154093Y0052961D01*
X0154153Y0052815D01*
X0154209Y0052667D01*
X0154262Y0052518D01*
X0154311Y0052367D01*
X0154356Y0052215D01*
X0154397Y0052062D01*
X0154435Y0051909D01*
X0154468Y0051754D01*
X0154498Y0051598D01*
X0154524Y0051442D01*
X0154545Y0051285D01*
X0154563Y0051128D01*
X0154577Y0050970D01*
X0154587Y0050812D01*
X0154593Y0050654D01*
X0154595Y0050496D01*
X0154593Y0050338D01*
X0154587Y0050180D01*
X0154577Y0050022D01*
X0154563Y0049864D01*
X0154545Y0049707D01*
X0154524Y0049550D01*
X0154498Y0049394D01*
X0154468Y0049238D01*
X0154435Y0049083D01*
X0154397Y0048930D01*
X0154356Y0048777D01*
X0154311Y0048625D01*
X0154262Y0048474D01*
X0154209Y0048325D01*
X0154153Y0048177D01*
X0154093Y0048031D01*
X0154029Y0047886D01*
X0153961Y0047743D01*
X0153890Y0047601D01*
X0153816Y0047461D01*
X0153738Y0047324D01*
X0153656Y0047188D01*
X0153572Y0047054D01*
X0153483Y0046923D01*
X0153392Y0046794D01*
X0153297Y0046667D01*
X0153200Y0046542D01*
X0153099Y0046420D01*
X0152995Y0046301D01*
X0152888Y0046184D01*
X0152778Y0046070D01*
X0152665Y0045959D01*
X0152550Y0045850D01*
X0152432Y0045745D01*
X0152311Y0045643D01*
X0152188Y0045543D01*
X0152062Y0045447D01*
X0151934Y0045354D01*
X0151804Y0045264D01*
X0151671Y0045178D01*
X0151536Y0045094D01*
X0151400Y0045015D01*
X0151261Y0044938D01*
X0151120Y0044866D01*
X0150978Y0044796D01*
X0150834Y0044731D01*
X0150688Y0044669D01*
X0150541Y0044611D01*
X0150392Y0044556D01*
X0150242Y0044505D01*
X0150091Y0044458D01*
X0149939Y0044415D01*
X0149786Y0044376D01*
X0149631Y0044340D01*
X0149476Y0044309D01*
X0149320Y0044281D01*
X0149164Y0044257D01*
X0149007Y0044237D01*
X0148849Y0044221D01*
X0148692Y0044209D01*
X0148533Y0044201D01*
X0148375Y0044197D01*
X0148217Y0044197D01*
X0148059Y0044201D01*
X0147900Y0044209D01*
X0147743Y0044221D01*
X0147585Y0044237D01*
X0147428Y0044257D01*
X0147272Y0044281D01*
X0147116Y0044309D01*
X0146961Y0044340D01*
X0146806Y0044376D01*
X0146653Y0044415D01*
X0146501Y0044458D01*
X0146350Y0044505D01*
X0146200Y0044556D01*
X0146051Y0044611D01*
X0145904Y0044669D01*
X0145758Y0044731D01*
X0145614Y0044796D01*
X0145472Y0044866D01*
X0145331Y0044938D01*
X0145192Y0045015D01*
X0145056Y0045094D01*
X0144921Y0045178D01*
X0144788Y0045264D01*
X0144658Y0045354D01*
X0144530Y0045447D01*
X0144404Y0045543D01*
X0144281Y0045643D01*
X0144160Y0045745D01*
X0144042Y0045850D01*
X0143927Y0045959D01*
X0143814Y0046070D01*
X0143704Y0046184D01*
X0143597Y0046301D01*
X0143493Y0046420D01*
X0143392Y0046542D01*
X0143295Y0046667D01*
X0143200Y0046794D01*
X0143109Y0046923D01*
X0143020Y0047054D01*
X0142936Y0047188D01*
X0142854Y0047324D01*
X0142776Y0047461D01*
X0142702Y0047601D01*
X0142631Y0047743D01*
X0142563Y0047886D01*
X0142499Y0048031D01*
X0142439Y0048177D01*
X0142383Y0048325D01*
X0142330Y0048474D01*
X0142281Y0048625D01*
X0142236Y0048777D01*
X0142195Y0048930D01*
X0142157Y0049083D01*
X0142124Y0049238D01*
X0142094Y0049394D01*
X0142068Y0049550D01*
X0142047Y0049707D01*
X0142029Y0049864D01*
X0142015Y0050022D01*
X0142005Y0050180D01*
X0141999Y0050338D01*
X0141997Y0050496D01*
X0472706Y0050496D02*
X0472708Y0050654D01*
X0472714Y0050812D01*
X0472724Y0050970D01*
X0472738Y0051128D01*
X0472756Y0051285D01*
X0472777Y0051442D01*
X0472803Y0051598D01*
X0472833Y0051754D01*
X0472866Y0051909D01*
X0472904Y0052062D01*
X0472945Y0052215D01*
X0472990Y0052367D01*
X0473039Y0052518D01*
X0473092Y0052667D01*
X0473148Y0052815D01*
X0473208Y0052961D01*
X0473272Y0053106D01*
X0473340Y0053249D01*
X0473411Y0053391D01*
X0473485Y0053531D01*
X0473563Y0053668D01*
X0473645Y0053804D01*
X0473729Y0053938D01*
X0473818Y0054069D01*
X0473909Y0054198D01*
X0474004Y0054325D01*
X0474101Y0054450D01*
X0474202Y0054572D01*
X0474306Y0054691D01*
X0474413Y0054808D01*
X0474523Y0054922D01*
X0474636Y0055033D01*
X0474751Y0055142D01*
X0474869Y0055247D01*
X0474990Y0055349D01*
X0475113Y0055449D01*
X0475239Y0055545D01*
X0475367Y0055638D01*
X0475497Y0055728D01*
X0475630Y0055814D01*
X0475765Y0055898D01*
X0475901Y0055977D01*
X0476040Y0056054D01*
X0476181Y0056126D01*
X0476323Y0056196D01*
X0476467Y0056261D01*
X0476613Y0056323D01*
X0476760Y0056381D01*
X0476909Y0056436D01*
X0477059Y0056487D01*
X0477210Y0056534D01*
X0477362Y0056577D01*
X0477515Y0056616D01*
X0477670Y0056652D01*
X0477825Y0056683D01*
X0477981Y0056711D01*
X0478137Y0056735D01*
X0478294Y0056755D01*
X0478452Y0056771D01*
X0478609Y0056783D01*
X0478768Y0056791D01*
X0478926Y0056795D01*
X0479084Y0056795D01*
X0479242Y0056791D01*
X0479401Y0056783D01*
X0479558Y0056771D01*
X0479716Y0056755D01*
X0479873Y0056735D01*
X0480029Y0056711D01*
X0480185Y0056683D01*
X0480340Y0056652D01*
X0480495Y0056616D01*
X0480648Y0056577D01*
X0480800Y0056534D01*
X0480951Y0056487D01*
X0481101Y0056436D01*
X0481250Y0056381D01*
X0481397Y0056323D01*
X0481543Y0056261D01*
X0481687Y0056196D01*
X0481829Y0056126D01*
X0481970Y0056054D01*
X0482109Y0055977D01*
X0482245Y0055898D01*
X0482380Y0055814D01*
X0482513Y0055728D01*
X0482643Y0055638D01*
X0482771Y0055545D01*
X0482897Y0055449D01*
X0483020Y0055349D01*
X0483141Y0055247D01*
X0483259Y0055142D01*
X0483374Y0055033D01*
X0483487Y0054922D01*
X0483597Y0054808D01*
X0483704Y0054691D01*
X0483808Y0054572D01*
X0483909Y0054450D01*
X0484006Y0054325D01*
X0484101Y0054198D01*
X0484192Y0054069D01*
X0484281Y0053938D01*
X0484365Y0053804D01*
X0484447Y0053668D01*
X0484525Y0053531D01*
X0484599Y0053391D01*
X0484670Y0053249D01*
X0484738Y0053106D01*
X0484802Y0052961D01*
X0484862Y0052815D01*
X0484918Y0052667D01*
X0484971Y0052518D01*
X0485020Y0052367D01*
X0485065Y0052215D01*
X0485106Y0052062D01*
X0485144Y0051909D01*
X0485177Y0051754D01*
X0485207Y0051598D01*
X0485233Y0051442D01*
X0485254Y0051285D01*
X0485272Y0051128D01*
X0485286Y0050970D01*
X0485296Y0050812D01*
X0485302Y0050654D01*
X0485304Y0050496D01*
X0485302Y0050338D01*
X0485296Y0050180D01*
X0485286Y0050022D01*
X0485272Y0049864D01*
X0485254Y0049707D01*
X0485233Y0049550D01*
X0485207Y0049394D01*
X0485177Y0049238D01*
X0485144Y0049083D01*
X0485106Y0048930D01*
X0485065Y0048777D01*
X0485020Y0048625D01*
X0484971Y0048474D01*
X0484918Y0048325D01*
X0484862Y0048177D01*
X0484802Y0048031D01*
X0484738Y0047886D01*
X0484670Y0047743D01*
X0484599Y0047601D01*
X0484525Y0047461D01*
X0484447Y0047324D01*
X0484365Y0047188D01*
X0484281Y0047054D01*
X0484192Y0046923D01*
X0484101Y0046794D01*
X0484006Y0046667D01*
X0483909Y0046542D01*
X0483808Y0046420D01*
X0483704Y0046301D01*
X0483597Y0046184D01*
X0483487Y0046070D01*
X0483374Y0045959D01*
X0483259Y0045850D01*
X0483141Y0045745D01*
X0483020Y0045643D01*
X0482897Y0045543D01*
X0482771Y0045447D01*
X0482643Y0045354D01*
X0482513Y0045264D01*
X0482380Y0045178D01*
X0482245Y0045094D01*
X0482109Y0045015D01*
X0481970Y0044938D01*
X0481829Y0044866D01*
X0481687Y0044796D01*
X0481543Y0044731D01*
X0481397Y0044669D01*
X0481250Y0044611D01*
X0481101Y0044556D01*
X0480951Y0044505D01*
X0480800Y0044458D01*
X0480648Y0044415D01*
X0480495Y0044376D01*
X0480340Y0044340D01*
X0480185Y0044309D01*
X0480029Y0044281D01*
X0479873Y0044257D01*
X0479716Y0044237D01*
X0479558Y0044221D01*
X0479401Y0044209D01*
X0479242Y0044201D01*
X0479084Y0044197D01*
X0478926Y0044197D01*
X0478768Y0044201D01*
X0478609Y0044209D01*
X0478452Y0044221D01*
X0478294Y0044237D01*
X0478137Y0044257D01*
X0477981Y0044281D01*
X0477825Y0044309D01*
X0477670Y0044340D01*
X0477515Y0044376D01*
X0477362Y0044415D01*
X0477210Y0044458D01*
X0477059Y0044505D01*
X0476909Y0044556D01*
X0476760Y0044611D01*
X0476613Y0044669D01*
X0476467Y0044731D01*
X0476323Y0044796D01*
X0476181Y0044866D01*
X0476040Y0044938D01*
X0475901Y0045015D01*
X0475765Y0045094D01*
X0475630Y0045178D01*
X0475497Y0045264D01*
X0475367Y0045354D01*
X0475239Y0045447D01*
X0475113Y0045543D01*
X0474990Y0045643D01*
X0474869Y0045745D01*
X0474751Y0045850D01*
X0474636Y0045959D01*
X0474523Y0046070D01*
X0474413Y0046184D01*
X0474306Y0046301D01*
X0474202Y0046420D01*
X0474101Y0046542D01*
X0474004Y0046667D01*
X0473909Y0046794D01*
X0473818Y0046923D01*
X0473729Y0047054D01*
X0473645Y0047188D01*
X0473563Y0047324D01*
X0473485Y0047461D01*
X0473411Y0047601D01*
X0473340Y0047743D01*
X0473272Y0047886D01*
X0473208Y0048031D01*
X0473148Y0048177D01*
X0473092Y0048325D01*
X0473039Y0048474D01*
X0472990Y0048625D01*
X0472945Y0048777D01*
X0472904Y0048930D01*
X0472866Y0049083D01*
X0472833Y0049238D01*
X0472803Y0049394D01*
X0472777Y0049550D01*
X0472756Y0049707D01*
X0472738Y0049864D01*
X0472724Y0050022D01*
X0472714Y0050180D01*
X0472708Y0050338D01*
X0472706Y0050496D01*
X0472706Y0381205D02*
X0472708Y0381363D01*
X0472714Y0381521D01*
X0472724Y0381679D01*
X0472738Y0381837D01*
X0472756Y0381994D01*
X0472777Y0382151D01*
X0472803Y0382307D01*
X0472833Y0382463D01*
X0472866Y0382618D01*
X0472904Y0382771D01*
X0472945Y0382924D01*
X0472990Y0383076D01*
X0473039Y0383227D01*
X0473092Y0383376D01*
X0473148Y0383524D01*
X0473208Y0383670D01*
X0473272Y0383815D01*
X0473340Y0383958D01*
X0473411Y0384100D01*
X0473485Y0384240D01*
X0473563Y0384377D01*
X0473645Y0384513D01*
X0473729Y0384647D01*
X0473818Y0384778D01*
X0473909Y0384907D01*
X0474004Y0385034D01*
X0474101Y0385159D01*
X0474202Y0385281D01*
X0474306Y0385400D01*
X0474413Y0385517D01*
X0474523Y0385631D01*
X0474636Y0385742D01*
X0474751Y0385851D01*
X0474869Y0385956D01*
X0474990Y0386058D01*
X0475113Y0386158D01*
X0475239Y0386254D01*
X0475367Y0386347D01*
X0475497Y0386437D01*
X0475630Y0386523D01*
X0475765Y0386607D01*
X0475901Y0386686D01*
X0476040Y0386763D01*
X0476181Y0386835D01*
X0476323Y0386905D01*
X0476467Y0386970D01*
X0476613Y0387032D01*
X0476760Y0387090D01*
X0476909Y0387145D01*
X0477059Y0387196D01*
X0477210Y0387243D01*
X0477362Y0387286D01*
X0477515Y0387325D01*
X0477670Y0387361D01*
X0477825Y0387392D01*
X0477981Y0387420D01*
X0478137Y0387444D01*
X0478294Y0387464D01*
X0478452Y0387480D01*
X0478609Y0387492D01*
X0478768Y0387500D01*
X0478926Y0387504D01*
X0479084Y0387504D01*
X0479242Y0387500D01*
X0479401Y0387492D01*
X0479558Y0387480D01*
X0479716Y0387464D01*
X0479873Y0387444D01*
X0480029Y0387420D01*
X0480185Y0387392D01*
X0480340Y0387361D01*
X0480495Y0387325D01*
X0480648Y0387286D01*
X0480800Y0387243D01*
X0480951Y0387196D01*
X0481101Y0387145D01*
X0481250Y0387090D01*
X0481397Y0387032D01*
X0481543Y0386970D01*
X0481687Y0386905D01*
X0481829Y0386835D01*
X0481970Y0386763D01*
X0482109Y0386686D01*
X0482245Y0386607D01*
X0482380Y0386523D01*
X0482513Y0386437D01*
X0482643Y0386347D01*
X0482771Y0386254D01*
X0482897Y0386158D01*
X0483020Y0386058D01*
X0483141Y0385956D01*
X0483259Y0385851D01*
X0483374Y0385742D01*
X0483487Y0385631D01*
X0483597Y0385517D01*
X0483704Y0385400D01*
X0483808Y0385281D01*
X0483909Y0385159D01*
X0484006Y0385034D01*
X0484101Y0384907D01*
X0484192Y0384778D01*
X0484281Y0384647D01*
X0484365Y0384513D01*
X0484447Y0384377D01*
X0484525Y0384240D01*
X0484599Y0384100D01*
X0484670Y0383958D01*
X0484738Y0383815D01*
X0484802Y0383670D01*
X0484862Y0383524D01*
X0484918Y0383376D01*
X0484971Y0383227D01*
X0485020Y0383076D01*
X0485065Y0382924D01*
X0485106Y0382771D01*
X0485144Y0382618D01*
X0485177Y0382463D01*
X0485207Y0382307D01*
X0485233Y0382151D01*
X0485254Y0381994D01*
X0485272Y0381837D01*
X0485286Y0381679D01*
X0485296Y0381521D01*
X0485302Y0381363D01*
X0485304Y0381205D01*
X0485302Y0381047D01*
X0485296Y0380889D01*
X0485286Y0380731D01*
X0485272Y0380573D01*
X0485254Y0380416D01*
X0485233Y0380259D01*
X0485207Y0380103D01*
X0485177Y0379947D01*
X0485144Y0379792D01*
X0485106Y0379639D01*
X0485065Y0379486D01*
X0485020Y0379334D01*
X0484971Y0379183D01*
X0484918Y0379034D01*
X0484862Y0378886D01*
X0484802Y0378740D01*
X0484738Y0378595D01*
X0484670Y0378452D01*
X0484599Y0378310D01*
X0484525Y0378170D01*
X0484447Y0378033D01*
X0484365Y0377897D01*
X0484281Y0377763D01*
X0484192Y0377632D01*
X0484101Y0377503D01*
X0484006Y0377376D01*
X0483909Y0377251D01*
X0483808Y0377129D01*
X0483704Y0377010D01*
X0483597Y0376893D01*
X0483487Y0376779D01*
X0483374Y0376668D01*
X0483259Y0376559D01*
X0483141Y0376454D01*
X0483020Y0376352D01*
X0482897Y0376252D01*
X0482771Y0376156D01*
X0482643Y0376063D01*
X0482513Y0375973D01*
X0482380Y0375887D01*
X0482245Y0375803D01*
X0482109Y0375724D01*
X0481970Y0375647D01*
X0481829Y0375575D01*
X0481687Y0375505D01*
X0481543Y0375440D01*
X0481397Y0375378D01*
X0481250Y0375320D01*
X0481101Y0375265D01*
X0480951Y0375214D01*
X0480800Y0375167D01*
X0480648Y0375124D01*
X0480495Y0375085D01*
X0480340Y0375049D01*
X0480185Y0375018D01*
X0480029Y0374990D01*
X0479873Y0374966D01*
X0479716Y0374946D01*
X0479558Y0374930D01*
X0479401Y0374918D01*
X0479242Y0374910D01*
X0479084Y0374906D01*
X0478926Y0374906D01*
X0478768Y0374910D01*
X0478609Y0374918D01*
X0478452Y0374930D01*
X0478294Y0374946D01*
X0478137Y0374966D01*
X0477981Y0374990D01*
X0477825Y0375018D01*
X0477670Y0375049D01*
X0477515Y0375085D01*
X0477362Y0375124D01*
X0477210Y0375167D01*
X0477059Y0375214D01*
X0476909Y0375265D01*
X0476760Y0375320D01*
X0476613Y0375378D01*
X0476467Y0375440D01*
X0476323Y0375505D01*
X0476181Y0375575D01*
X0476040Y0375647D01*
X0475901Y0375724D01*
X0475765Y0375803D01*
X0475630Y0375887D01*
X0475497Y0375973D01*
X0475367Y0376063D01*
X0475239Y0376156D01*
X0475113Y0376252D01*
X0474990Y0376352D01*
X0474869Y0376454D01*
X0474751Y0376559D01*
X0474636Y0376668D01*
X0474523Y0376779D01*
X0474413Y0376893D01*
X0474306Y0377010D01*
X0474202Y0377129D01*
X0474101Y0377251D01*
X0474004Y0377376D01*
X0473909Y0377503D01*
X0473818Y0377632D01*
X0473729Y0377763D01*
X0473645Y0377897D01*
X0473563Y0378033D01*
X0473485Y0378170D01*
X0473411Y0378310D01*
X0473340Y0378452D01*
X0473272Y0378595D01*
X0473208Y0378740D01*
X0473148Y0378886D01*
X0473092Y0379034D01*
X0473039Y0379183D01*
X0472990Y0379334D01*
X0472945Y0379486D01*
X0472904Y0379639D01*
X0472866Y0379792D01*
X0472833Y0379947D01*
X0472803Y0380103D01*
X0472777Y0380259D01*
X0472756Y0380416D01*
X0472738Y0380573D01*
X0472724Y0380731D01*
X0472714Y0380889D01*
X0472708Y0381047D01*
X0472706Y0381205D01*
X0141997Y0381205D02*
X0141999Y0381363D01*
X0142005Y0381521D01*
X0142015Y0381679D01*
X0142029Y0381837D01*
X0142047Y0381994D01*
X0142068Y0382151D01*
X0142094Y0382307D01*
X0142124Y0382463D01*
X0142157Y0382618D01*
X0142195Y0382771D01*
X0142236Y0382924D01*
X0142281Y0383076D01*
X0142330Y0383227D01*
X0142383Y0383376D01*
X0142439Y0383524D01*
X0142499Y0383670D01*
X0142563Y0383815D01*
X0142631Y0383958D01*
X0142702Y0384100D01*
X0142776Y0384240D01*
X0142854Y0384377D01*
X0142936Y0384513D01*
X0143020Y0384647D01*
X0143109Y0384778D01*
X0143200Y0384907D01*
X0143295Y0385034D01*
X0143392Y0385159D01*
X0143493Y0385281D01*
X0143597Y0385400D01*
X0143704Y0385517D01*
X0143814Y0385631D01*
X0143927Y0385742D01*
X0144042Y0385851D01*
X0144160Y0385956D01*
X0144281Y0386058D01*
X0144404Y0386158D01*
X0144530Y0386254D01*
X0144658Y0386347D01*
X0144788Y0386437D01*
X0144921Y0386523D01*
X0145056Y0386607D01*
X0145192Y0386686D01*
X0145331Y0386763D01*
X0145472Y0386835D01*
X0145614Y0386905D01*
X0145758Y0386970D01*
X0145904Y0387032D01*
X0146051Y0387090D01*
X0146200Y0387145D01*
X0146350Y0387196D01*
X0146501Y0387243D01*
X0146653Y0387286D01*
X0146806Y0387325D01*
X0146961Y0387361D01*
X0147116Y0387392D01*
X0147272Y0387420D01*
X0147428Y0387444D01*
X0147585Y0387464D01*
X0147743Y0387480D01*
X0147900Y0387492D01*
X0148059Y0387500D01*
X0148217Y0387504D01*
X0148375Y0387504D01*
X0148533Y0387500D01*
X0148692Y0387492D01*
X0148849Y0387480D01*
X0149007Y0387464D01*
X0149164Y0387444D01*
X0149320Y0387420D01*
X0149476Y0387392D01*
X0149631Y0387361D01*
X0149786Y0387325D01*
X0149939Y0387286D01*
X0150091Y0387243D01*
X0150242Y0387196D01*
X0150392Y0387145D01*
X0150541Y0387090D01*
X0150688Y0387032D01*
X0150834Y0386970D01*
X0150978Y0386905D01*
X0151120Y0386835D01*
X0151261Y0386763D01*
X0151400Y0386686D01*
X0151536Y0386607D01*
X0151671Y0386523D01*
X0151804Y0386437D01*
X0151934Y0386347D01*
X0152062Y0386254D01*
X0152188Y0386158D01*
X0152311Y0386058D01*
X0152432Y0385956D01*
X0152550Y0385851D01*
X0152665Y0385742D01*
X0152778Y0385631D01*
X0152888Y0385517D01*
X0152995Y0385400D01*
X0153099Y0385281D01*
X0153200Y0385159D01*
X0153297Y0385034D01*
X0153392Y0384907D01*
X0153483Y0384778D01*
X0153572Y0384647D01*
X0153656Y0384513D01*
X0153738Y0384377D01*
X0153816Y0384240D01*
X0153890Y0384100D01*
X0153961Y0383958D01*
X0154029Y0383815D01*
X0154093Y0383670D01*
X0154153Y0383524D01*
X0154209Y0383376D01*
X0154262Y0383227D01*
X0154311Y0383076D01*
X0154356Y0382924D01*
X0154397Y0382771D01*
X0154435Y0382618D01*
X0154468Y0382463D01*
X0154498Y0382307D01*
X0154524Y0382151D01*
X0154545Y0381994D01*
X0154563Y0381837D01*
X0154577Y0381679D01*
X0154587Y0381521D01*
X0154593Y0381363D01*
X0154595Y0381205D01*
X0154593Y0381047D01*
X0154587Y0380889D01*
X0154577Y0380731D01*
X0154563Y0380573D01*
X0154545Y0380416D01*
X0154524Y0380259D01*
X0154498Y0380103D01*
X0154468Y0379947D01*
X0154435Y0379792D01*
X0154397Y0379639D01*
X0154356Y0379486D01*
X0154311Y0379334D01*
X0154262Y0379183D01*
X0154209Y0379034D01*
X0154153Y0378886D01*
X0154093Y0378740D01*
X0154029Y0378595D01*
X0153961Y0378452D01*
X0153890Y0378310D01*
X0153816Y0378170D01*
X0153738Y0378033D01*
X0153656Y0377897D01*
X0153572Y0377763D01*
X0153483Y0377632D01*
X0153392Y0377503D01*
X0153297Y0377376D01*
X0153200Y0377251D01*
X0153099Y0377129D01*
X0152995Y0377010D01*
X0152888Y0376893D01*
X0152778Y0376779D01*
X0152665Y0376668D01*
X0152550Y0376559D01*
X0152432Y0376454D01*
X0152311Y0376352D01*
X0152188Y0376252D01*
X0152062Y0376156D01*
X0151934Y0376063D01*
X0151804Y0375973D01*
X0151671Y0375887D01*
X0151536Y0375803D01*
X0151400Y0375724D01*
X0151261Y0375647D01*
X0151120Y0375575D01*
X0150978Y0375505D01*
X0150834Y0375440D01*
X0150688Y0375378D01*
X0150541Y0375320D01*
X0150392Y0375265D01*
X0150242Y0375214D01*
X0150091Y0375167D01*
X0149939Y0375124D01*
X0149786Y0375085D01*
X0149631Y0375049D01*
X0149476Y0375018D01*
X0149320Y0374990D01*
X0149164Y0374966D01*
X0149007Y0374946D01*
X0148849Y0374930D01*
X0148692Y0374918D01*
X0148533Y0374910D01*
X0148375Y0374906D01*
X0148217Y0374906D01*
X0148059Y0374910D01*
X0147900Y0374918D01*
X0147743Y0374930D01*
X0147585Y0374946D01*
X0147428Y0374966D01*
X0147272Y0374990D01*
X0147116Y0375018D01*
X0146961Y0375049D01*
X0146806Y0375085D01*
X0146653Y0375124D01*
X0146501Y0375167D01*
X0146350Y0375214D01*
X0146200Y0375265D01*
X0146051Y0375320D01*
X0145904Y0375378D01*
X0145758Y0375440D01*
X0145614Y0375505D01*
X0145472Y0375575D01*
X0145331Y0375647D01*
X0145192Y0375724D01*
X0145056Y0375803D01*
X0144921Y0375887D01*
X0144788Y0375973D01*
X0144658Y0376063D01*
X0144530Y0376156D01*
X0144404Y0376252D01*
X0144281Y0376352D01*
X0144160Y0376454D01*
X0144042Y0376559D01*
X0143927Y0376668D01*
X0143814Y0376779D01*
X0143704Y0376893D01*
X0143597Y0377010D01*
X0143493Y0377129D01*
X0143392Y0377251D01*
X0143295Y0377376D01*
X0143200Y0377503D01*
X0143109Y0377632D01*
X0143020Y0377763D01*
X0142936Y0377897D01*
X0142854Y0378033D01*
X0142776Y0378170D01*
X0142702Y0378310D01*
X0142631Y0378452D01*
X0142563Y0378595D01*
X0142499Y0378740D01*
X0142439Y0378886D01*
X0142383Y0379034D01*
X0142330Y0379183D01*
X0142281Y0379334D01*
X0142236Y0379486D01*
X0142195Y0379639D01*
X0142157Y0379792D01*
X0142124Y0379947D01*
X0142094Y0380103D01*
X0142068Y0380259D01*
X0142047Y0380416D01*
X0142029Y0380573D01*
X0142015Y0380731D01*
X0142005Y0380889D01*
X0141999Y0381047D01*
X0141997Y0381205D01*
D12*
X0142300Y0351102D03*
X0142300Y0341102D03*
X0142300Y0331102D03*
X0142300Y0321102D03*
X0142300Y0311102D03*
X0142300Y0301102D03*
X0142300Y0291102D03*
X0142300Y0281102D03*
X0142300Y0271102D03*
X0142300Y0261102D03*
X0161300Y0261102D03*
X0161300Y0271102D03*
X0161300Y0281102D03*
X0161300Y0291102D03*
X0161300Y0301102D03*
X0161300Y0311102D03*
X0161300Y0321102D03*
X0161300Y0331102D03*
X0161300Y0341102D03*
X0161300Y0351102D03*
X0161300Y0170890D03*
X0161300Y0160890D03*
X0161300Y0150890D03*
X0161300Y0140890D03*
X0161300Y0130890D03*
X0161300Y0120890D03*
X0161300Y0110890D03*
X0161300Y0100890D03*
X0161300Y0090890D03*
X0161300Y0080890D03*
X0142300Y0080890D03*
X0142300Y0090890D03*
X0142300Y0100890D03*
X0142300Y0110890D03*
X0142300Y0120890D03*
X0142300Y0130890D03*
X0142300Y0140890D03*
X0142300Y0150890D03*
X0142300Y0160890D03*
X0142300Y0170890D03*
D13*
X0213934Y0366710D03*
X0223934Y0366710D03*
X0233934Y0366710D03*
X0243934Y0366710D03*
X0253934Y0366710D03*
X0253934Y0386960D03*
X0243934Y0386960D03*
X0233934Y0386960D03*
X0223934Y0386960D03*
X0213934Y0386960D03*
D14*
X0241467Y0299000D03*
X0241467Y0294000D03*
X0241467Y0289000D03*
X0241467Y0284000D03*
X0262133Y0284000D03*
X0262133Y0289000D03*
X0262133Y0294000D03*
X0262133Y0299000D03*
X0348967Y0316500D03*
X0348967Y0321500D03*
X0348967Y0326500D03*
X0348967Y0331500D03*
X0369633Y0331500D03*
X0369633Y0326500D03*
X0369633Y0321500D03*
X0369633Y0316500D03*
X0369633Y0256500D03*
X0369633Y0251500D03*
X0369633Y0246500D03*
X0369633Y0241500D03*
X0348967Y0241500D03*
X0348967Y0246500D03*
X0348967Y0251500D03*
X0348967Y0256500D03*
X0262133Y0224000D03*
X0262133Y0219000D03*
X0262133Y0214000D03*
X0262133Y0209000D03*
X0241467Y0209000D03*
X0241467Y0214000D03*
X0241467Y0219000D03*
X0241467Y0224000D03*
X0241467Y0149000D03*
X0241467Y0144000D03*
X0241467Y0139000D03*
X0241467Y0134000D03*
X0262133Y0134000D03*
X0262133Y0139000D03*
X0262133Y0144000D03*
X0262133Y0149000D03*
X0348967Y0111500D03*
X0348967Y0106500D03*
X0348967Y0101500D03*
X0348967Y0096500D03*
X0369633Y0096500D03*
X0369633Y0101500D03*
X0369633Y0106500D03*
X0369633Y0111500D03*
X0262133Y0074000D03*
X0262133Y0069000D03*
X0262133Y0064000D03*
X0262133Y0059000D03*
X0241467Y0059000D03*
X0241467Y0064000D03*
X0241467Y0069000D03*
X0241467Y0074000D03*
D15*
X0251800Y0066500D03*
X0251800Y0141500D03*
X0251800Y0216500D03*
X0251800Y0291500D03*
X0359300Y0324000D03*
X0359300Y0249000D03*
X0359300Y0104000D03*
D16*
X0351175Y0121279D03*
X0351175Y0127971D03*
X0344300Y0127971D03*
X0344300Y0121279D03*
X0313050Y0131904D03*
X0313050Y0138596D03*
X0274300Y0161904D03*
X0266800Y0161904D03*
X0266800Y0168596D03*
X0274300Y0168596D03*
X0243675Y0165471D03*
X0243675Y0158779D03*
X0236800Y0158779D03*
X0236800Y0165471D03*
X0203050Y0168154D03*
X0203050Y0174846D03*
X0236800Y0233779D03*
X0236800Y0240471D03*
X0243675Y0240471D03*
X0243675Y0233779D03*
X0263675Y0236904D03*
X0263675Y0243596D03*
X0272425Y0243596D03*
X0272425Y0236904D03*
X0310550Y0275654D03*
X0310550Y0282346D03*
X0344300Y0272971D03*
X0344300Y0266279D03*
X0351175Y0266279D03*
X0351175Y0272971D03*
X0374300Y0276096D03*
X0381800Y0276096D03*
X0381800Y0269404D03*
X0374300Y0269404D03*
X0439300Y0267346D03*
X0439300Y0260654D03*
X0474300Y0249846D03*
X0474300Y0243154D03*
X0439300Y0229846D03*
X0439300Y0223154D03*
X0474300Y0212346D03*
X0474300Y0205654D03*
X0439300Y0192346D03*
X0439300Y0185654D03*
X0474300Y0174846D03*
X0474300Y0168154D03*
X0439300Y0154846D03*
X0439300Y0148154D03*
X0474300Y0137346D03*
X0474300Y0130654D03*
X0439300Y0117346D03*
X0439300Y0110654D03*
X0474300Y0099846D03*
X0474300Y0093154D03*
X0381800Y0124404D03*
X0374300Y0124404D03*
X0374300Y0131096D03*
X0381800Y0131096D03*
X0274300Y0093596D03*
X0274300Y0086904D03*
X0266800Y0086904D03*
X0266800Y0093596D03*
X0243675Y0090471D03*
X0243675Y0083779D03*
X0236800Y0083779D03*
X0236800Y0090471D03*
X0201550Y0091904D03*
X0201550Y0098596D03*
X0203050Y0242404D03*
X0203050Y0249096D03*
X0236800Y0308779D03*
X0236800Y0315471D03*
X0243675Y0315471D03*
X0243675Y0308779D03*
X0266800Y0311904D03*
X0274300Y0311904D03*
X0274300Y0318596D03*
X0266800Y0318596D03*
X0308050Y0349404D03*
X0308050Y0356096D03*
X0344300Y0347971D03*
X0344300Y0341279D03*
X0351175Y0341279D03*
X0351175Y0347971D03*
X0374300Y0351096D03*
X0374300Y0344404D03*
X0381800Y0344404D03*
X0381800Y0351096D03*
X0439300Y0342346D03*
X0439300Y0335654D03*
X0474300Y0324846D03*
X0474300Y0318154D03*
X0439300Y0304846D03*
X0439300Y0298154D03*
X0474300Y0287346D03*
X0474300Y0280654D03*
X0205550Y0320654D03*
X0205550Y0327346D03*
D17*
X0260550Y0318695D03*
X0260550Y0311805D03*
X0270550Y0286195D03*
X0270550Y0279305D03*
X0258675Y0243695D03*
X0258675Y0236805D03*
X0270550Y0211195D03*
X0270550Y0204305D03*
X0260550Y0168695D03*
X0260550Y0161805D03*
X0270550Y0136195D03*
X0270550Y0129305D03*
X0260550Y0093695D03*
X0260550Y0086805D03*
X0270550Y0061195D03*
X0270550Y0054305D03*
X0368050Y0124305D03*
X0368050Y0131195D03*
X0378050Y0098695D03*
X0378050Y0091805D03*
X0378050Y0236805D03*
X0378050Y0243695D03*
X0368050Y0269305D03*
X0368050Y0276195D03*
X0378050Y0311805D03*
X0378050Y0318695D03*
X0368050Y0344305D03*
X0368050Y0351195D03*
D18*
X0384300Y0336687D03*
X0384300Y0328813D03*
X0384300Y0314187D03*
X0384300Y0306313D03*
X0429300Y0305437D03*
X0429300Y0297563D03*
X0429300Y0267937D03*
X0429300Y0260063D03*
X0429300Y0230437D03*
X0429300Y0222563D03*
X0429300Y0192937D03*
X0429300Y0185063D03*
X0429300Y0155437D03*
X0429300Y0147563D03*
X0429300Y0117937D03*
X0429300Y0110063D03*
X0384300Y0108813D03*
X0384300Y0116687D03*
X0384300Y0094187D03*
X0384300Y0086313D03*
X0276800Y0079187D03*
X0276800Y0071313D03*
X0276800Y0056687D03*
X0276800Y0048813D03*
X0276800Y0123813D03*
X0276800Y0131687D03*
X0276800Y0146313D03*
X0276800Y0154187D03*
X0276800Y0198813D03*
X0276800Y0206687D03*
X0276800Y0221313D03*
X0276800Y0229187D03*
X0276800Y0273813D03*
X0276800Y0281687D03*
X0276800Y0296313D03*
X0276800Y0304187D03*
X0384300Y0261687D03*
X0384300Y0253813D03*
X0384300Y0239187D03*
X0384300Y0231313D03*
X0429300Y0335063D03*
X0429300Y0342937D03*
D19*
X0455855Y0317750D03*
X0462745Y0317750D03*
X0469605Y0330250D03*
X0476495Y0330250D03*
X0487105Y0336500D03*
X0493995Y0336500D03*
X0493995Y0299000D03*
X0487105Y0299000D03*
X0476495Y0292750D03*
X0469605Y0292750D03*
X0462745Y0280250D03*
X0455855Y0280250D03*
X0469605Y0255250D03*
X0476495Y0255250D03*
X0487105Y0261500D03*
X0493995Y0261500D03*
X0462745Y0242750D03*
X0455855Y0242750D03*
X0469605Y0217750D03*
X0476495Y0217750D03*
X0487105Y0224000D03*
X0493995Y0224000D03*
X0462745Y0205250D03*
X0455855Y0205250D03*
X0469605Y0180250D03*
X0476495Y0180250D03*
X0487105Y0186500D03*
X0493995Y0186500D03*
X0462745Y0167750D03*
X0455855Y0167750D03*
X0469605Y0142750D03*
X0476495Y0142750D03*
X0487105Y0149000D03*
X0493995Y0149000D03*
X0462745Y0130250D03*
X0455855Y0130250D03*
X0469605Y0105250D03*
X0476495Y0105250D03*
X0487105Y0111500D03*
X0493995Y0111500D03*
X0462745Y0092750D03*
X0455855Y0092750D03*
X0351495Y0063375D03*
X0344605Y0063375D03*
X0341495Y0135250D03*
X0334605Y0135250D03*
X0327745Y0135250D03*
X0320855Y0135250D03*
X0243995Y0102125D03*
X0237105Y0102125D03*
X0233995Y0096500D03*
X0227105Y0096500D03*
X0220245Y0097750D03*
X0213355Y0097750D03*
X0237105Y0027125D03*
X0243995Y0027125D03*
X0233995Y0171500D03*
X0227105Y0171500D03*
X0220245Y0172750D03*
X0213355Y0172750D03*
X0237105Y0177125D03*
X0243995Y0177125D03*
X0233995Y0246500D03*
X0237105Y0252125D03*
X0227105Y0246500D03*
X0220245Y0247750D03*
X0213355Y0247750D03*
X0243995Y0252125D03*
X0320855Y0280000D03*
X0327745Y0280000D03*
X0334605Y0279500D03*
X0341495Y0279500D03*
X0347730Y0284625D03*
X0354620Y0284625D03*
X0341495Y0355250D03*
X0334605Y0355250D03*
X0327745Y0355250D03*
X0320855Y0355250D03*
X0233995Y0322750D03*
X0227105Y0322750D03*
X0220245Y0322750D03*
X0213355Y0322750D03*
X0343355Y0209625D03*
X0350245Y0209625D03*
D20*
X0347829Y0279000D03*
X0354521Y0279000D03*
X0433454Y0282750D03*
X0440146Y0282750D03*
X0440146Y0290250D03*
X0433454Y0290250D03*
X0433454Y0320250D03*
X0440146Y0320250D03*
X0440146Y0327750D03*
X0433454Y0327750D03*
X0487204Y0329000D03*
X0493896Y0329000D03*
X0493896Y0321500D03*
X0487204Y0321500D03*
X0487204Y0291500D03*
X0493896Y0291500D03*
X0493896Y0284000D03*
X0487204Y0284000D03*
X0487204Y0254000D03*
X0493896Y0254000D03*
X0493896Y0246500D03*
X0487204Y0246500D03*
X0487204Y0216500D03*
X0493896Y0216500D03*
X0493896Y0209000D03*
X0487204Y0209000D03*
X0487204Y0179000D03*
X0493896Y0179000D03*
X0493896Y0171500D03*
X0487204Y0171500D03*
X0487204Y0141500D03*
X0493896Y0141500D03*
X0493896Y0134000D03*
X0487204Y0134000D03*
X0487204Y0104000D03*
X0493896Y0104000D03*
X0493896Y0096500D03*
X0487204Y0096500D03*
X0440146Y0095250D03*
X0433454Y0095250D03*
X0433454Y0102750D03*
X0440146Y0102750D03*
X0440146Y0132750D03*
X0433454Y0132750D03*
X0433454Y0140250D03*
X0440146Y0140250D03*
X0440146Y0170250D03*
X0433454Y0170250D03*
X0433454Y0177750D03*
X0440146Y0177750D03*
X0440146Y0207750D03*
X0433454Y0207750D03*
X0433454Y0215250D03*
X0440146Y0215250D03*
X0440146Y0245250D03*
X0433454Y0245250D03*
X0433454Y0252750D03*
X0440146Y0252750D03*
X0354521Y0355250D03*
X0347829Y0355250D03*
X0247021Y0322750D03*
X0240329Y0322750D03*
X0240329Y0246500D03*
X0247021Y0246500D03*
X0247021Y0171500D03*
X0240329Y0171500D03*
X0240329Y0096500D03*
X0247021Y0096500D03*
X0347829Y0135250D03*
X0354521Y0135250D03*
D21*
X0344733Y0080250D03*
X0373867Y0080250D03*
X0266367Y0042750D03*
X0237233Y0042750D03*
X0237233Y0117750D03*
X0266367Y0117750D03*
X0266367Y0192750D03*
X0237233Y0192750D03*
X0237233Y0267750D03*
X0266367Y0267750D03*
X0344733Y0300250D03*
X0373867Y0300250D03*
X0372617Y0225250D03*
X0343483Y0225250D03*
D22*
X0331111Y0225250D03*
X0307489Y0225250D03*
X0224861Y0192750D03*
X0201239Y0192750D03*
X0201239Y0117750D03*
X0224861Y0117750D03*
X0308739Y0080250D03*
X0332361Y0080250D03*
X0224861Y0042750D03*
X0201239Y0042750D03*
X0201239Y0267750D03*
X0224861Y0267750D03*
X0308739Y0300250D03*
X0332361Y0300250D03*
D23*
X0455620Y0292425D03*
X0455620Y0329925D03*
X0455620Y0254925D03*
X0455620Y0217425D03*
X0455620Y0179925D03*
X0455620Y0142425D03*
X0455620Y0104925D03*
D24*
X0452981Y0104925D03*
X0452981Y0142425D03*
X0452981Y0179925D03*
X0452981Y0217425D03*
X0452981Y0254925D03*
X0452981Y0292425D03*
X0452981Y0329925D03*
D25*
X0455619Y0333075D03*
X0455619Y0295575D03*
X0455619Y0258075D03*
X0455619Y0220575D03*
X0455619Y0183075D03*
X0455619Y0145575D03*
X0455619Y0108075D03*
D26*
X0452981Y0108076D03*
X0452981Y0145576D03*
X0452981Y0183076D03*
X0452981Y0220576D03*
X0452981Y0258076D03*
X0452981Y0295576D03*
X0452981Y0333076D03*
D27*
X0450291Y0332183D02*
X0447009Y0332183D01*
X0447009Y0333377D01*
X0450291Y0333377D01*
X0450291Y0332183D01*
X0450291Y0332282D02*
X0447009Y0332282D01*
X0447009Y0332381D02*
X0450291Y0332381D01*
X0450291Y0332480D02*
X0447009Y0332480D01*
X0447009Y0332579D02*
X0450291Y0332579D01*
X0450291Y0332678D02*
X0447009Y0332678D01*
X0447009Y0332777D02*
X0450291Y0332777D01*
X0450291Y0332876D02*
X0447009Y0332876D01*
X0447009Y0332975D02*
X0450291Y0332975D01*
X0450291Y0333074D02*
X0447009Y0333074D01*
X0447009Y0333173D02*
X0450291Y0333173D01*
X0450291Y0333272D02*
X0447009Y0333272D01*
X0447009Y0333371D02*
X0450291Y0333371D01*
X0450291Y0334742D02*
X0447009Y0334742D01*
X0447009Y0335936D01*
X0450291Y0335936D01*
X0450291Y0334742D01*
X0450291Y0334841D02*
X0447009Y0334841D01*
X0447009Y0334940D02*
X0450291Y0334940D01*
X0450291Y0335039D02*
X0447009Y0335039D01*
X0447009Y0335138D02*
X0450291Y0335138D01*
X0450291Y0335237D02*
X0447009Y0335237D01*
X0447009Y0335336D02*
X0450291Y0335336D01*
X0450291Y0335435D02*
X0447009Y0335435D01*
X0447009Y0335534D02*
X0450291Y0335534D01*
X0450291Y0335633D02*
X0447009Y0335633D01*
X0447009Y0335732D02*
X0450291Y0335732D01*
X0450291Y0335831D02*
X0447009Y0335831D01*
X0447009Y0335930D02*
X0450291Y0335930D01*
X0450291Y0329623D02*
X0447009Y0329623D01*
X0447009Y0330817D01*
X0450291Y0330817D01*
X0450291Y0329623D01*
X0450291Y0329722D02*
X0447009Y0329722D01*
X0447009Y0329821D02*
X0450291Y0329821D01*
X0450291Y0329920D02*
X0447009Y0329920D01*
X0447009Y0330019D02*
X0450291Y0330019D01*
X0450291Y0330118D02*
X0447009Y0330118D01*
X0447009Y0330217D02*
X0450291Y0330217D01*
X0450291Y0330316D02*
X0447009Y0330316D01*
X0447009Y0330415D02*
X0450291Y0330415D01*
X0450291Y0330514D02*
X0447009Y0330514D01*
X0447009Y0330613D02*
X0450291Y0330613D01*
X0450291Y0330712D02*
X0447009Y0330712D01*
X0447009Y0330811D02*
X0450291Y0330811D01*
X0450291Y0327064D02*
X0447009Y0327064D01*
X0447009Y0328258D01*
X0450291Y0328258D01*
X0450291Y0327064D01*
X0450291Y0327163D02*
X0447009Y0327163D01*
X0447009Y0327262D02*
X0450291Y0327262D01*
X0450291Y0327361D02*
X0447009Y0327361D01*
X0447009Y0327460D02*
X0450291Y0327460D01*
X0450291Y0327559D02*
X0447009Y0327559D01*
X0447009Y0327658D02*
X0450291Y0327658D01*
X0450291Y0327757D02*
X0447009Y0327757D01*
X0447009Y0327856D02*
X0450291Y0327856D01*
X0450291Y0327955D02*
X0447009Y0327955D01*
X0447009Y0328054D02*
X0450291Y0328054D01*
X0450291Y0328153D02*
X0447009Y0328153D01*
X0447009Y0328252D02*
X0450291Y0328252D01*
X0458309Y0328258D02*
X0461591Y0328258D01*
X0461591Y0327064D01*
X0458309Y0327064D01*
X0458309Y0328258D01*
X0458309Y0327163D02*
X0461591Y0327163D01*
X0461591Y0327262D02*
X0458309Y0327262D01*
X0458309Y0327361D02*
X0461591Y0327361D01*
X0461591Y0327460D02*
X0458309Y0327460D01*
X0458309Y0327559D02*
X0461591Y0327559D01*
X0461591Y0327658D02*
X0458309Y0327658D01*
X0458309Y0327757D02*
X0461591Y0327757D01*
X0461591Y0327856D02*
X0458309Y0327856D01*
X0458309Y0327955D02*
X0461591Y0327955D01*
X0461591Y0328054D02*
X0458309Y0328054D01*
X0458309Y0328153D02*
X0461591Y0328153D01*
X0461591Y0328252D02*
X0458309Y0328252D01*
X0458309Y0330817D02*
X0461591Y0330817D01*
X0461591Y0329623D01*
X0458309Y0329623D01*
X0458309Y0330817D01*
X0458309Y0329722D02*
X0461591Y0329722D01*
X0461591Y0329821D02*
X0458309Y0329821D01*
X0458309Y0329920D02*
X0461591Y0329920D01*
X0461591Y0330019D02*
X0458309Y0330019D01*
X0458309Y0330118D02*
X0461591Y0330118D01*
X0461591Y0330217D02*
X0458309Y0330217D01*
X0458309Y0330316D02*
X0461591Y0330316D01*
X0461591Y0330415D02*
X0458309Y0330415D01*
X0458309Y0330514D02*
X0461591Y0330514D01*
X0461591Y0330613D02*
X0458309Y0330613D01*
X0458309Y0330712D02*
X0461591Y0330712D01*
X0461591Y0330811D02*
X0458309Y0330811D01*
X0458309Y0333377D02*
X0461591Y0333377D01*
X0461591Y0332183D01*
X0458309Y0332183D01*
X0458309Y0333377D01*
X0458309Y0332282D02*
X0461591Y0332282D01*
X0461591Y0332381D02*
X0458309Y0332381D01*
X0458309Y0332480D02*
X0461591Y0332480D01*
X0461591Y0332579D02*
X0458309Y0332579D01*
X0458309Y0332678D02*
X0461591Y0332678D01*
X0461591Y0332777D02*
X0458309Y0332777D01*
X0458309Y0332876D02*
X0461591Y0332876D01*
X0461591Y0332975D02*
X0458309Y0332975D01*
X0458309Y0333074D02*
X0461591Y0333074D01*
X0461591Y0333173D02*
X0458309Y0333173D01*
X0458309Y0333272D02*
X0461591Y0333272D01*
X0461591Y0333371D02*
X0458309Y0333371D01*
X0458309Y0335936D02*
X0461591Y0335936D01*
X0461591Y0334742D01*
X0458309Y0334742D01*
X0458309Y0335936D01*
X0458309Y0334841D02*
X0461591Y0334841D01*
X0461591Y0334940D02*
X0458309Y0334940D01*
X0458309Y0335039D02*
X0461591Y0335039D01*
X0461591Y0335138D02*
X0458309Y0335138D01*
X0458309Y0335237D02*
X0461591Y0335237D01*
X0461591Y0335336D02*
X0458309Y0335336D01*
X0458309Y0335435D02*
X0461591Y0335435D01*
X0461591Y0335534D02*
X0458309Y0335534D01*
X0458309Y0335633D02*
X0461591Y0335633D01*
X0461591Y0335732D02*
X0458309Y0335732D01*
X0458309Y0335831D02*
X0461591Y0335831D01*
X0461591Y0335930D02*
X0458309Y0335930D01*
X0458309Y0298436D02*
X0461591Y0298436D01*
X0461591Y0297242D01*
X0458309Y0297242D01*
X0458309Y0298436D01*
X0458309Y0297341D02*
X0461591Y0297341D01*
X0461591Y0297440D02*
X0458309Y0297440D01*
X0458309Y0297539D02*
X0461591Y0297539D01*
X0461591Y0297638D02*
X0458309Y0297638D01*
X0458309Y0297737D02*
X0461591Y0297737D01*
X0461591Y0297836D02*
X0458309Y0297836D01*
X0458309Y0297935D02*
X0461591Y0297935D01*
X0461591Y0298034D02*
X0458309Y0298034D01*
X0458309Y0298133D02*
X0461591Y0298133D01*
X0461591Y0298232D02*
X0458309Y0298232D01*
X0458309Y0298331D02*
X0461591Y0298331D01*
X0461591Y0298430D02*
X0458309Y0298430D01*
X0458309Y0295877D02*
X0461591Y0295877D01*
X0461591Y0294683D01*
X0458309Y0294683D01*
X0458309Y0295877D01*
X0458309Y0294782D02*
X0461591Y0294782D01*
X0461591Y0294881D02*
X0458309Y0294881D01*
X0458309Y0294980D02*
X0461591Y0294980D01*
X0461591Y0295079D02*
X0458309Y0295079D01*
X0458309Y0295178D02*
X0461591Y0295178D01*
X0461591Y0295277D02*
X0458309Y0295277D01*
X0458309Y0295376D02*
X0461591Y0295376D01*
X0461591Y0295475D02*
X0458309Y0295475D01*
X0458309Y0295574D02*
X0461591Y0295574D01*
X0461591Y0295673D02*
X0458309Y0295673D01*
X0458309Y0295772D02*
X0461591Y0295772D01*
X0461591Y0295871D02*
X0458309Y0295871D01*
X0458309Y0293317D02*
X0461591Y0293317D01*
X0461591Y0292123D01*
X0458309Y0292123D01*
X0458309Y0293317D01*
X0458309Y0292222D02*
X0461591Y0292222D01*
X0461591Y0292321D02*
X0458309Y0292321D01*
X0458309Y0292420D02*
X0461591Y0292420D01*
X0461591Y0292519D02*
X0458309Y0292519D01*
X0458309Y0292618D02*
X0461591Y0292618D01*
X0461591Y0292717D02*
X0458309Y0292717D01*
X0458309Y0292816D02*
X0461591Y0292816D01*
X0461591Y0292915D02*
X0458309Y0292915D01*
X0458309Y0293014D02*
X0461591Y0293014D01*
X0461591Y0293113D02*
X0458309Y0293113D01*
X0458309Y0293212D02*
X0461591Y0293212D01*
X0461591Y0293311D02*
X0458309Y0293311D01*
X0458309Y0290758D02*
X0461591Y0290758D01*
X0461591Y0289564D01*
X0458309Y0289564D01*
X0458309Y0290758D01*
X0458309Y0289663D02*
X0461591Y0289663D01*
X0461591Y0289762D02*
X0458309Y0289762D01*
X0458309Y0289861D02*
X0461591Y0289861D01*
X0461591Y0289960D02*
X0458309Y0289960D01*
X0458309Y0290059D02*
X0461591Y0290059D01*
X0461591Y0290158D02*
X0458309Y0290158D01*
X0458309Y0290257D02*
X0461591Y0290257D01*
X0461591Y0290356D02*
X0458309Y0290356D01*
X0458309Y0290455D02*
X0461591Y0290455D01*
X0461591Y0290554D02*
X0458309Y0290554D01*
X0458309Y0290653D02*
X0461591Y0290653D01*
X0461591Y0290752D02*
X0458309Y0290752D01*
X0450291Y0289564D02*
X0447009Y0289564D01*
X0447009Y0290758D01*
X0450291Y0290758D01*
X0450291Y0289564D01*
X0450291Y0289663D02*
X0447009Y0289663D01*
X0447009Y0289762D02*
X0450291Y0289762D01*
X0450291Y0289861D02*
X0447009Y0289861D01*
X0447009Y0289960D02*
X0450291Y0289960D01*
X0450291Y0290059D02*
X0447009Y0290059D01*
X0447009Y0290158D02*
X0450291Y0290158D01*
X0450291Y0290257D02*
X0447009Y0290257D01*
X0447009Y0290356D02*
X0450291Y0290356D01*
X0450291Y0290455D02*
X0447009Y0290455D01*
X0447009Y0290554D02*
X0450291Y0290554D01*
X0450291Y0290653D02*
X0447009Y0290653D01*
X0447009Y0290752D02*
X0450291Y0290752D01*
X0450291Y0292123D02*
X0447009Y0292123D01*
X0447009Y0293317D01*
X0450291Y0293317D01*
X0450291Y0292123D01*
X0450291Y0292222D02*
X0447009Y0292222D01*
X0447009Y0292321D02*
X0450291Y0292321D01*
X0450291Y0292420D02*
X0447009Y0292420D01*
X0447009Y0292519D02*
X0450291Y0292519D01*
X0450291Y0292618D02*
X0447009Y0292618D01*
X0447009Y0292717D02*
X0450291Y0292717D01*
X0450291Y0292816D02*
X0447009Y0292816D01*
X0447009Y0292915D02*
X0450291Y0292915D01*
X0450291Y0293014D02*
X0447009Y0293014D01*
X0447009Y0293113D02*
X0450291Y0293113D01*
X0450291Y0293212D02*
X0447009Y0293212D01*
X0447009Y0293311D02*
X0450291Y0293311D01*
X0450291Y0294683D02*
X0447009Y0294683D01*
X0447009Y0295877D01*
X0450291Y0295877D01*
X0450291Y0294683D01*
X0450291Y0294782D02*
X0447009Y0294782D01*
X0447009Y0294881D02*
X0450291Y0294881D01*
X0450291Y0294980D02*
X0447009Y0294980D01*
X0447009Y0295079D02*
X0450291Y0295079D01*
X0450291Y0295178D02*
X0447009Y0295178D01*
X0447009Y0295277D02*
X0450291Y0295277D01*
X0450291Y0295376D02*
X0447009Y0295376D01*
X0447009Y0295475D02*
X0450291Y0295475D01*
X0450291Y0295574D02*
X0447009Y0295574D01*
X0447009Y0295673D02*
X0450291Y0295673D01*
X0450291Y0295772D02*
X0447009Y0295772D01*
X0447009Y0295871D02*
X0450291Y0295871D01*
X0450291Y0297242D02*
X0447009Y0297242D01*
X0447009Y0298436D01*
X0450291Y0298436D01*
X0450291Y0297242D01*
X0450291Y0297341D02*
X0447009Y0297341D01*
X0447009Y0297440D02*
X0450291Y0297440D01*
X0450291Y0297539D02*
X0447009Y0297539D01*
X0447009Y0297638D02*
X0450291Y0297638D01*
X0450291Y0297737D02*
X0447009Y0297737D01*
X0447009Y0297836D02*
X0450291Y0297836D01*
X0450291Y0297935D02*
X0447009Y0297935D01*
X0447009Y0298034D02*
X0450291Y0298034D01*
X0450291Y0298133D02*
X0447009Y0298133D01*
X0447009Y0298232D02*
X0450291Y0298232D01*
X0450291Y0298331D02*
X0447009Y0298331D01*
X0447009Y0298430D02*
X0450291Y0298430D01*
X0450291Y0259742D02*
X0447009Y0259742D01*
X0447009Y0260936D01*
X0450291Y0260936D01*
X0450291Y0259742D01*
X0450291Y0259841D02*
X0447009Y0259841D01*
X0447009Y0259940D02*
X0450291Y0259940D01*
X0450291Y0260039D02*
X0447009Y0260039D01*
X0447009Y0260138D02*
X0450291Y0260138D01*
X0450291Y0260237D02*
X0447009Y0260237D01*
X0447009Y0260336D02*
X0450291Y0260336D01*
X0450291Y0260435D02*
X0447009Y0260435D01*
X0447009Y0260534D02*
X0450291Y0260534D01*
X0450291Y0260633D02*
X0447009Y0260633D01*
X0447009Y0260732D02*
X0450291Y0260732D01*
X0450291Y0260831D02*
X0447009Y0260831D01*
X0447009Y0260930D02*
X0450291Y0260930D01*
X0450291Y0257183D02*
X0447009Y0257183D01*
X0447009Y0258377D01*
X0450291Y0258377D01*
X0450291Y0257183D01*
X0450291Y0257282D02*
X0447009Y0257282D01*
X0447009Y0257381D02*
X0450291Y0257381D01*
X0450291Y0257480D02*
X0447009Y0257480D01*
X0447009Y0257579D02*
X0450291Y0257579D01*
X0450291Y0257678D02*
X0447009Y0257678D01*
X0447009Y0257777D02*
X0450291Y0257777D01*
X0450291Y0257876D02*
X0447009Y0257876D01*
X0447009Y0257975D02*
X0450291Y0257975D01*
X0450291Y0258074D02*
X0447009Y0258074D01*
X0447009Y0258173D02*
X0450291Y0258173D01*
X0450291Y0258272D02*
X0447009Y0258272D01*
X0447009Y0258371D02*
X0450291Y0258371D01*
X0450291Y0254623D02*
X0447009Y0254623D01*
X0447009Y0255817D01*
X0450291Y0255817D01*
X0450291Y0254623D01*
X0450291Y0254722D02*
X0447009Y0254722D01*
X0447009Y0254821D02*
X0450291Y0254821D01*
X0450291Y0254920D02*
X0447009Y0254920D01*
X0447009Y0255019D02*
X0450291Y0255019D01*
X0450291Y0255118D02*
X0447009Y0255118D01*
X0447009Y0255217D02*
X0450291Y0255217D01*
X0450291Y0255316D02*
X0447009Y0255316D01*
X0447009Y0255415D02*
X0450291Y0255415D01*
X0450291Y0255514D02*
X0447009Y0255514D01*
X0447009Y0255613D02*
X0450291Y0255613D01*
X0450291Y0255712D02*
X0447009Y0255712D01*
X0447009Y0255811D02*
X0450291Y0255811D01*
X0450291Y0252064D02*
X0447009Y0252064D01*
X0447009Y0253258D01*
X0450291Y0253258D01*
X0450291Y0252064D01*
X0450291Y0252163D02*
X0447009Y0252163D01*
X0447009Y0252262D02*
X0450291Y0252262D01*
X0450291Y0252361D02*
X0447009Y0252361D01*
X0447009Y0252460D02*
X0450291Y0252460D01*
X0450291Y0252559D02*
X0447009Y0252559D01*
X0447009Y0252658D02*
X0450291Y0252658D01*
X0450291Y0252757D02*
X0447009Y0252757D01*
X0447009Y0252856D02*
X0450291Y0252856D01*
X0450291Y0252955D02*
X0447009Y0252955D01*
X0447009Y0253054D02*
X0450291Y0253054D01*
X0450291Y0253153D02*
X0447009Y0253153D01*
X0447009Y0253252D02*
X0450291Y0253252D01*
X0458309Y0253258D02*
X0461591Y0253258D01*
X0461591Y0252064D01*
X0458309Y0252064D01*
X0458309Y0253258D01*
X0458309Y0252163D02*
X0461591Y0252163D01*
X0461591Y0252262D02*
X0458309Y0252262D01*
X0458309Y0252361D02*
X0461591Y0252361D01*
X0461591Y0252460D02*
X0458309Y0252460D01*
X0458309Y0252559D02*
X0461591Y0252559D01*
X0461591Y0252658D02*
X0458309Y0252658D01*
X0458309Y0252757D02*
X0461591Y0252757D01*
X0461591Y0252856D02*
X0458309Y0252856D01*
X0458309Y0252955D02*
X0461591Y0252955D01*
X0461591Y0253054D02*
X0458309Y0253054D01*
X0458309Y0253153D02*
X0461591Y0253153D01*
X0461591Y0253252D02*
X0458309Y0253252D01*
X0458309Y0255817D02*
X0461591Y0255817D01*
X0461591Y0254623D01*
X0458309Y0254623D01*
X0458309Y0255817D01*
X0458309Y0254722D02*
X0461591Y0254722D01*
X0461591Y0254821D02*
X0458309Y0254821D01*
X0458309Y0254920D02*
X0461591Y0254920D01*
X0461591Y0255019D02*
X0458309Y0255019D01*
X0458309Y0255118D02*
X0461591Y0255118D01*
X0461591Y0255217D02*
X0458309Y0255217D01*
X0458309Y0255316D02*
X0461591Y0255316D01*
X0461591Y0255415D02*
X0458309Y0255415D01*
X0458309Y0255514D02*
X0461591Y0255514D01*
X0461591Y0255613D02*
X0458309Y0255613D01*
X0458309Y0255712D02*
X0461591Y0255712D01*
X0461591Y0255811D02*
X0458309Y0255811D01*
X0458309Y0258377D02*
X0461591Y0258377D01*
X0461591Y0257183D01*
X0458309Y0257183D01*
X0458309Y0258377D01*
X0458309Y0257282D02*
X0461591Y0257282D01*
X0461591Y0257381D02*
X0458309Y0257381D01*
X0458309Y0257480D02*
X0461591Y0257480D01*
X0461591Y0257579D02*
X0458309Y0257579D01*
X0458309Y0257678D02*
X0461591Y0257678D01*
X0461591Y0257777D02*
X0458309Y0257777D01*
X0458309Y0257876D02*
X0461591Y0257876D01*
X0461591Y0257975D02*
X0458309Y0257975D01*
X0458309Y0258074D02*
X0461591Y0258074D01*
X0461591Y0258173D02*
X0458309Y0258173D01*
X0458309Y0258272D02*
X0461591Y0258272D01*
X0461591Y0258371D02*
X0458309Y0258371D01*
X0458309Y0260936D02*
X0461591Y0260936D01*
X0461591Y0259742D01*
X0458309Y0259742D01*
X0458309Y0260936D01*
X0458309Y0259841D02*
X0461591Y0259841D01*
X0461591Y0259940D02*
X0458309Y0259940D01*
X0458309Y0260039D02*
X0461591Y0260039D01*
X0461591Y0260138D02*
X0458309Y0260138D01*
X0458309Y0260237D02*
X0461591Y0260237D01*
X0461591Y0260336D02*
X0458309Y0260336D01*
X0458309Y0260435D02*
X0461591Y0260435D01*
X0461591Y0260534D02*
X0458309Y0260534D01*
X0458309Y0260633D02*
X0461591Y0260633D01*
X0461591Y0260732D02*
X0458309Y0260732D01*
X0458309Y0260831D02*
X0461591Y0260831D01*
X0461591Y0260930D02*
X0458309Y0260930D01*
X0458309Y0223436D02*
X0461591Y0223436D01*
X0461591Y0222242D01*
X0458309Y0222242D01*
X0458309Y0223436D01*
X0458309Y0222341D02*
X0461591Y0222341D01*
X0461591Y0222440D02*
X0458309Y0222440D01*
X0458309Y0222539D02*
X0461591Y0222539D01*
X0461591Y0222638D02*
X0458309Y0222638D01*
X0458309Y0222737D02*
X0461591Y0222737D01*
X0461591Y0222836D02*
X0458309Y0222836D01*
X0458309Y0222935D02*
X0461591Y0222935D01*
X0461591Y0223034D02*
X0458309Y0223034D01*
X0458309Y0223133D02*
X0461591Y0223133D01*
X0461591Y0223232D02*
X0458309Y0223232D01*
X0458309Y0223331D02*
X0461591Y0223331D01*
X0461591Y0223430D02*
X0458309Y0223430D01*
X0458309Y0220877D02*
X0461591Y0220877D01*
X0461591Y0219683D01*
X0458309Y0219683D01*
X0458309Y0220877D01*
X0458309Y0219782D02*
X0461591Y0219782D01*
X0461591Y0219881D02*
X0458309Y0219881D01*
X0458309Y0219980D02*
X0461591Y0219980D01*
X0461591Y0220079D02*
X0458309Y0220079D01*
X0458309Y0220178D02*
X0461591Y0220178D01*
X0461591Y0220277D02*
X0458309Y0220277D01*
X0458309Y0220376D02*
X0461591Y0220376D01*
X0461591Y0220475D02*
X0458309Y0220475D01*
X0458309Y0220574D02*
X0461591Y0220574D01*
X0461591Y0220673D02*
X0458309Y0220673D01*
X0458309Y0220772D02*
X0461591Y0220772D01*
X0461591Y0220871D02*
X0458309Y0220871D01*
X0458309Y0218317D02*
X0461591Y0218317D01*
X0461591Y0217123D01*
X0458309Y0217123D01*
X0458309Y0218317D01*
X0458309Y0217222D02*
X0461591Y0217222D01*
X0461591Y0217321D02*
X0458309Y0217321D01*
X0458309Y0217420D02*
X0461591Y0217420D01*
X0461591Y0217519D02*
X0458309Y0217519D01*
X0458309Y0217618D02*
X0461591Y0217618D01*
X0461591Y0217717D02*
X0458309Y0217717D01*
X0458309Y0217816D02*
X0461591Y0217816D01*
X0461591Y0217915D02*
X0458309Y0217915D01*
X0458309Y0218014D02*
X0461591Y0218014D01*
X0461591Y0218113D02*
X0458309Y0218113D01*
X0458309Y0218212D02*
X0461591Y0218212D01*
X0461591Y0218311D02*
X0458309Y0218311D01*
X0458309Y0215758D02*
X0461591Y0215758D01*
X0461591Y0214564D01*
X0458309Y0214564D01*
X0458309Y0215758D01*
X0458309Y0214663D02*
X0461591Y0214663D01*
X0461591Y0214762D02*
X0458309Y0214762D01*
X0458309Y0214861D02*
X0461591Y0214861D01*
X0461591Y0214960D02*
X0458309Y0214960D01*
X0458309Y0215059D02*
X0461591Y0215059D01*
X0461591Y0215158D02*
X0458309Y0215158D01*
X0458309Y0215257D02*
X0461591Y0215257D01*
X0461591Y0215356D02*
X0458309Y0215356D01*
X0458309Y0215455D02*
X0461591Y0215455D01*
X0461591Y0215554D02*
X0458309Y0215554D01*
X0458309Y0215653D02*
X0461591Y0215653D01*
X0461591Y0215752D02*
X0458309Y0215752D01*
X0450291Y0214564D02*
X0447009Y0214564D01*
X0447009Y0215758D01*
X0450291Y0215758D01*
X0450291Y0214564D01*
X0450291Y0214663D02*
X0447009Y0214663D01*
X0447009Y0214762D02*
X0450291Y0214762D01*
X0450291Y0214861D02*
X0447009Y0214861D01*
X0447009Y0214960D02*
X0450291Y0214960D01*
X0450291Y0215059D02*
X0447009Y0215059D01*
X0447009Y0215158D02*
X0450291Y0215158D01*
X0450291Y0215257D02*
X0447009Y0215257D01*
X0447009Y0215356D02*
X0450291Y0215356D01*
X0450291Y0215455D02*
X0447009Y0215455D01*
X0447009Y0215554D02*
X0450291Y0215554D01*
X0450291Y0215653D02*
X0447009Y0215653D01*
X0447009Y0215752D02*
X0450291Y0215752D01*
X0450291Y0217123D02*
X0447009Y0217123D01*
X0447009Y0218317D01*
X0450291Y0218317D01*
X0450291Y0217123D01*
X0450291Y0217222D02*
X0447009Y0217222D01*
X0447009Y0217321D02*
X0450291Y0217321D01*
X0450291Y0217420D02*
X0447009Y0217420D01*
X0447009Y0217519D02*
X0450291Y0217519D01*
X0450291Y0217618D02*
X0447009Y0217618D01*
X0447009Y0217717D02*
X0450291Y0217717D01*
X0450291Y0217816D02*
X0447009Y0217816D01*
X0447009Y0217915D02*
X0450291Y0217915D01*
X0450291Y0218014D02*
X0447009Y0218014D01*
X0447009Y0218113D02*
X0450291Y0218113D01*
X0450291Y0218212D02*
X0447009Y0218212D01*
X0447009Y0218311D02*
X0450291Y0218311D01*
X0450291Y0219683D02*
X0447009Y0219683D01*
X0447009Y0220877D01*
X0450291Y0220877D01*
X0450291Y0219683D01*
X0450291Y0219782D02*
X0447009Y0219782D01*
X0447009Y0219881D02*
X0450291Y0219881D01*
X0450291Y0219980D02*
X0447009Y0219980D01*
X0447009Y0220079D02*
X0450291Y0220079D01*
X0450291Y0220178D02*
X0447009Y0220178D01*
X0447009Y0220277D02*
X0450291Y0220277D01*
X0450291Y0220376D02*
X0447009Y0220376D01*
X0447009Y0220475D02*
X0450291Y0220475D01*
X0450291Y0220574D02*
X0447009Y0220574D01*
X0447009Y0220673D02*
X0450291Y0220673D01*
X0450291Y0220772D02*
X0447009Y0220772D01*
X0447009Y0220871D02*
X0450291Y0220871D01*
X0450291Y0222242D02*
X0447009Y0222242D01*
X0447009Y0223436D01*
X0450291Y0223436D01*
X0450291Y0222242D01*
X0450291Y0222341D02*
X0447009Y0222341D01*
X0447009Y0222440D02*
X0450291Y0222440D01*
X0450291Y0222539D02*
X0447009Y0222539D01*
X0447009Y0222638D02*
X0450291Y0222638D01*
X0450291Y0222737D02*
X0447009Y0222737D01*
X0447009Y0222836D02*
X0450291Y0222836D01*
X0450291Y0222935D02*
X0447009Y0222935D01*
X0447009Y0223034D02*
X0450291Y0223034D01*
X0450291Y0223133D02*
X0447009Y0223133D01*
X0447009Y0223232D02*
X0450291Y0223232D01*
X0450291Y0223331D02*
X0447009Y0223331D01*
X0447009Y0223430D02*
X0450291Y0223430D01*
X0450291Y0184742D02*
X0447009Y0184742D01*
X0447009Y0185936D01*
X0450291Y0185936D01*
X0450291Y0184742D01*
X0450291Y0184841D02*
X0447009Y0184841D01*
X0447009Y0184940D02*
X0450291Y0184940D01*
X0450291Y0185039D02*
X0447009Y0185039D01*
X0447009Y0185138D02*
X0450291Y0185138D01*
X0450291Y0185237D02*
X0447009Y0185237D01*
X0447009Y0185336D02*
X0450291Y0185336D01*
X0450291Y0185435D02*
X0447009Y0185435D01*
X0447009Y0185534D02*
X0450291Y0185534D01*
X0450291Y0185633D02*
X0447009Y0185633D01*
X0447009Y0185732D02*
X0450291Y0185732D01*
X0450291Y0185831D02*
X0447009Y0185831D01*
X0447009Y0185930D02*
X0450291Y0185930D01*
X0450291Y0182183D02*
X0447009Y0182183D01*
X0447009Y0183377D01*
X0450291Y0183377D01*
X0450291Y0182183D01*
X0450291Y0182282D02*
X0447009Y0182282D01*
X0447009Y0182381D02*
X0450291Y0182381D01*
X0450291Y0182480D02*
X0447009Y0182480D01*
X0447009Y0182579D02*
X0450291Y0182579D01*
X0450291Y0182678D02*
X0447009Y0182678D01*
X0447009Y0182777D02*
X0450291Y0182777D01*
X0450291Y0182876D02*
X0447009Y0182876D01*
X0447009Y0182975D02*
X0450291Y0182975D01*
X0450291Y0183074D02*
X0447009Y0183074D01*
X0447009Y0183173D02*
X0450291Y0183173D01*
X0450291Y0183272D02*
X0447009Y0183272D01*
X0447009Y0183371D02*
X0450291Y0183371D01*
X0450291Y0179623D02*
X0447009Y0179623D01*
X0447009Y0180817D01*
X0450291Y0180817D01*
X0450291Y0179623D01*
X0450291Y0179722D02*
X0447009Y0179722D01*
X0447009Y0179821D02*
X0450291Y0179821D01*
X0450291Y0179920D02*
X0447009Y0179920D01*
X0447009Y0180019D02*
X0450291Y0180019D01*
X0450291Y0180118D02*
X0447009Y0180118D01*
X0447009Y0180217D02*
X0450291Y0180217D01*
X0450291Y0180316D02*
X0447009Y0180316D01*
X0447009Y0180415D02*
X0450291Y0180415D01*
X0450291Y0180514D02*
X0447009Y0180514D01*
X0447009Y0180613D02*
X0450291Y0180613D01*
X0450291Y0180712D02*
X0447009Y0180712D01*
X0447009Y0180811D02*
X0450291Y0180811D01*
X0450291Y0177064D02*
X0447009Y0177064D01*
X0447009Y0178258D01*
X0450291Y0178258D01*
X0450291Y0177064D01*
X0450291Y0177163D02*
X0447009Y0177163D01*
X0447009Y0177262D02*
X0450291Y0177262D01*
X0450291Y0177361D02*
X0447009Y0177361D01*
X0447009Y0177460D02*
X0450291Y0177460D01*
X0450291Y0177559D02*
X0447009Y0177559D01*
X0447009Y0177658D02*
X0450291Y0177658D01*
X0450291Y0177757D02*
X0447009Y0177757D01*
X0447009Y0177856D02*
X0450291Y0177856D01*
X0450291Y0177955D02*
X0447009Y0177955D01*
X0447009Y0178054D02*
X0450291Y0178054D01*
X0450291Y0178153D02*
X0447009Y0178153D01*
X0447009Y0178252D02*
X0450291Y0178252D01*
X0458309Y0178258D02*
X0461591Y0178258D01*
X0461591Y0177064D01*
X0458309Y0177064D01*
X0458309Y0178258D01*
X0458309Y0177163D02*
X0461591Y0177163D01*
X0461591Y0177262D02*
X0458309Y0177262D01*
X0458309Y0177361D02*
X0461591Y0177361D01*
X0461591Y0177460D02*
X0458309Y0177460D01*
X0458309Y0177559D02*
X0461591Y0177559D01*
X0461591Y0177658D02*
X0458309Y0177658D01*
X0458309Y0177757D02*
X0461591Y0177757D01*
X0461591Y0177856D02*
X0458309Y0177856D01*
X0458309Y0177955D02*
X0461591Y0177955D01*
X0461591Y0178054D02*
X0458309Y0178054D01*
X0458309Y0178153D02*
X0461591Y0178153D01*
X0461591Y0178252D02*
X0458309Y0178252D01*
X0458309Y0180817D02*
X0461591Y0180817D01*
X0461591Y0179623D01*
X0458309Y0179623D01*
X0458309Y0180817D01*
X0458309Y0179722D02*
X0461591Y0179722D01*
X0461591Y0179821D02*
X0458309Y0179821D01*
X0458309Y0179920D02*
X0461591Y0179920D01*
X0461591Y0180019D02*
X0458309Y0180019D01*
X0458309Y0180118D02*
X0461591Y0180118D01*
X0461591Y0180217D02*
X0458309Y0180217D01*
X0458309Y0180316D02*
X0461591Y0180316D01*
X0461591Y0180415D02*
X0458309Y0180415D01*
X0458309Y0180514D02*
X0461591Y0180514D01*
X0461591Y0180613D02*
X0458309Y0180613D01*
X0458309Y0180712D02*
X0461591Y0180712D01*
X0461591Y0180811D02*
X0458309Y0180811D01*
X0458309Y0183377D02*
X0461591Y0183377D01*
X0461591Y0182183D01*
X0458309Y0182183D01*
X0458309Y0183377D01*
X0458309Y0182282D02*
X0461591Y0182282D01*
X0461591Y0182381D02*
X0458309Y0182381D01*
X0458309Y0182480D02*
X0461591Y0182480D01*
X0461591Y0182579D02*
X0458309Y0182579D01*
X0458309Y0182678D02*
X0461591Y0182678D01*
X0461591Y0182777D02*
X0458309Y0182777D01*
X0458309Y0182876D02*
X0461591Y0182876D01*
X0461591Y0182975D02*
X0458309Y0182975D01*
X0458309Y0183074D02*
X0461591Y0183074D01*
X0461591Y0183173D02*
X0458309Y0183173D01*
X0458309Y0183272D02*
X0461591Y0183272D01*
X0461591Y0183371D02*
X0458309Y0183371D01*
X0458309Y0185936D02*
X0461591Y0185936D01*
X0461591Y0184742D01*
X0458309Y0184742D01*
X0458309Y0185936D01*
X0458309Y0184841D02*
X0461591Y0184841D01*
X0461591Y0184940D02*
X0458309Y0184940D01*
X0458309Y0185039D02*
X0461591Y0185039D01*
X0461591Y0185138D02*
X0458309Y0185138D01*
X0458309Y0185237D02*
X0461591Y0185237D01*
X0461591Y0185336D02*
X0458309Y0185336D01*
X0458309Y0185435D02*
X0461591Y0185435D01*
X0461591Y0185534D02*
X0458309Y0185534D01*
X0458309Y0185633D02*
X0461591Y0185633D01*
X0461591Y0185732D02*
X0458309Y0185732D01*
X0458309Y0185831D02*
X0461591Y0185831D01*
X0461591Y0185930D02*
X0458309Y0185930D01*
X0458309Y0148436D02*
X0461591Y0148436D01*
X0461591Y0147242D01*
X0458309Y0147242D01*
X0458309Y0148436D01*
X0458309Y0147341D02*
X0461591Y0147341D01*
X0461591Y0147440D02*
X0458309Y0147440D01*
X0458309Y0147539D02*
X0461591Y0147539D01*
X0461591Y0147638D02*
X0458309Y0147638D01*
X0458309Y0147737D02*
X0461591Y0147737D01*
X0461591Y0147836D02*
X0458309Y0147836D01*
X0458309Y0147935D02*
X0461591Y0147935D01*
X0461591Y0148034D02*
X0458309Y0148034D01*
X0458309Y0148133D02*
X0461591Y0148133D01*
X0461591Y0148232D02*
X0458309Y0148232D01*
X0458309Y0148331D02*
X0461591Y0148331D01*
X0461591Y0148430D02*
X0458309Y0148430D01*
X0458309Y0145877D02*
X0461591Y0145877D01*
X0461591Y0144683D01*
X0458309Y0144683D01*
X0458309Y0145877D01*
X0458309Y0144782D02*
X0461591Y0144782D01*
X0461591Y0144881D02*
X0458309Y0144881D01*
X0458309Y0144980D02*
X0461591Y0144980D01*
X0461591Y0145079D02*
X0458309Y0145079D01*
X0458309Y0145178D02*
X0461591Y0145178D01*
X0461591Y0145277D02*
X0458309Y0145277D01*
X0458309Y0145376D02*
X0461591Y0145376D01*
X0461591Y0145475D02*
X0458309Y0145475D01*
X0458309Y0145574D02*
X0461591Y0145574D01*
X0461591Y0145673D02*
X0458309Y0145673D01*
X0458309Y0145772D02*
X0461591Y0145772D01*
X0461591Y0145871D02*
X0458309Y0145871D01*
X0458309Y0143317D02*
X0461591Y0143317D01*
X0461591Y0142123D01*
X0458309Y0142123D01*
X0458309Y0143317D01*
X0458309Y0142222D02*
X0461591Y0142222D01*
X0461591Y0142321D02*
X0458309Y0142321D01*
X0458309Y0142420D02*
X0461591Y0142420D01*
X0461591Y0142519D02*
X0458309Y0142519D01*
X0458309Y0142618D02*
X0461591Y0142618D01*
X0461591Y0142717D02*
X0458309Y0142717D01*
X0458309Y0142816D02*
X0461591Y0142816D01*
X0461591Y0142915D02*
X0458309Y0142915D01*
X0458309Y0143014D02*
X0461591Y0143014D01*
X0461591Y0143113D02*
X0458309Y0143113D01*
X0458309Y0143212D02*
X0461591Y0143212D01*
X0461591Y0143311D02*
X0458309Y0143311D01*
X0458309Y0140758D02*
X0461591Y0140758D01*
X0461591Y0139564D01*
X0458309Y0139564D01*
X0458309Y0140758D01*
X0458309Y0139663D02*
X0461591Y0139663D01*
X0461591Y0139762D02*
X0458309Y0139762D01*
X0458309Y0139861D02*
X0461591Y0139861D01*
X0461591Y0139960D02*
X0458309Y0139960D01*
X0458309Y0140059D02*
X0461591Y0140059D01*
X0461591Y0140158D02*
X0458309Y0140158D01*
X0458309Y0140257D02*
X0461591Y0140257D01*
X0461591Y0140356D02*
X0458309Y0140356D01*
X0458309Y0140455D02*
X0461591Y0140455D01*
X0461591Y0140554D02*
X0458309Y0140554D01*
X0458309Y0140653D02*
X0461591Y0140653D01*
X0461591Y0140752D02*
X0458309Y0140752D01*
X0450291Y0139564D02*
X0447009Y0139564D01*
X0447009Y0140758D01*
X0450291Y0140758D01*
X0450291Y0139564D01*
X0450291Y0139663D02*
X0447009Y0139663D01*
X0447009Y0139762D02*
X0450291Y0139762D01*
X0450291Y0139861D02*
X0447009Y0139861D01*
X0447009Y0139960D02*
X0450291Y0139960D01*
X0450291Y0140059D02*
X0447009Y0140059D01*
X0447009Y0140158D02*
X0450291Y0140158D01*
X0450291Y0140257D02*
X0447009Y0140257D01*
X0447009Y0140356D02*
X0450291Y0140356D01*
X0450291Y0140455D02*
X0447009Y0140455D01*
X0447009Y0140554D02*
X0450291Y0140554D01*
X0450291Y0140653D02*
X0447009Y0140653D01*
X0447009Y0140752D02*
X0450291Y0140752D01*
X0450291Y0142123D02*
X0447009Y0142123D01*
X0447009Y0143317D01*
X0450291Y0143317D01*
X0450291Y0142123D01*
X0450291Y0142222D02*
X0447009Y0142222D01*
X0447009Y0142321D02*
X0450291Y0142321D01*
X0450291Y0142420D02*
X0447009Y0142420D01*
X0447009Y0142519D02*
X0450291Y0142519D01*
X0450291Y0142618D02*
X0447009Y0142618D01*
X0447009Y0142717D02*
X0450291Y0142717D01*
X0450291Y0142816D02*
X0447009Y0142816D01*
X0447009Y0142915D02*
X0450291Y0142915D01*
X0450291Y0143014D02*
X0447009Y0143014D01*
X0447009Y0143113D02*
X0450291Y0143113D01*
X0450291Y0143212D02*
X0447009Y0143212D01*
X0447009Y0143311D02*
X0450291Y0143311D01*
X0450291Y0144683D02*
X0447009Y0144683D01*
X0447009Y0145877D01*
X0450291Y0145877D01*
X0450291Y0144683D01*
X0450291Y0144782D02*
X0447009Y0144782D01*
X0447009Y0144881D02*
X0450291Y0144881D01*
X0450291Y0144980D02*
X0447009Y0144980D01*
X0447009Y0145079D02*
X0450291Y0145079D01*
X0450291Y0145178D02*
X0447009Y0145178D01*
X0447009Y0145277D02*
X0450291Y0145277D01*
X0450291Y0145376D02*
X0447009Y0145376D01*
X0447009Y0145475D02*
X0450291Y0145475D01*
X0450291Y0145574D02*
X0447009Y0145574D01*
X0447009Y0145673D02*
X0450291Y0145673D01*
X0450291Y0145772D02*
X0447009Y0145772D01*
X0447009Y0145871D02*
X0450291Y0145871D01*
X0450291Y0147242D02*
X0447009Y0147242D01*
X0447009Y0148436D01*
X0450291Y0148436D01*
X0450291Y0147242D01*
X0450291Y0147341D02*
X0447009Y0147341D01*
X0447009Y0147440D02*
X0450291Y0147440D01*
X0450291Y0147539D02*
X0447009Y0147539D01*
X0447009Y0147638D02*
X0450291Y0147638D01*
X0450291Y0147737D02*
X0447009Y0147737D01*
X0447009Y0147836D02*
X0450291Y0147836D01*
X0450291Y0147935D02*
X0447009Y0147935D01*
X0447009Y0148034D02*
X0450291Y0148034D01*
X0450291Y0148133D02*
X0447009Y0148133D01*
X0447009Y0148232D02*
X0450291Y0148232D01*
X0450291Y0148331D02*
X0447009Y0148331D01*
X0447009Y0148430D02*
X0450291Y0148430D01*
X0450291Y0109742D02*
X0447009Y0109742D01*
X0447009Y0110936D01*
X0450291Y0110936D01*
X0450291Y0109742D01*
X0450291Y0109841D02*
X0447009Y0109841D01*
X0447009Y0109940D02*
X0450291Y0109940D01*
X0450291Y0110039D02*
X0447009Y0110039D01*
X0447009Y0110138D02*
X0450291Y0110138D01*
X0450291Y0110237D02*
X0447009Y0110237D01*
X0447009Y0110336D02*
X0450291Y0110336D01*
X0450291Y0110435D02*
X0447009Y0110435D01*
X0447009Y0110534D02*
X0450291Y0110534D01*
X0450291Y0110633D02*
X0447009Y0110633D01*
X0447009Y0110732D02*
X0450291Y0110732D01*
X0450291Y0110831D02*
X0447009Y0110831D01*
X0447009Y0110930D02*
X0450291Y0110930D01*
X0450291Y0107183D02*
X0447009Y0107183D01*
X0447009Y0108377D01*
X0450291Y0108377D01*
X0450291Y0107183D01*
X0450291Y0107282D02*
X0447009Y0107282D01*
X0447009Y0107381D02*
X0450291Y0107381D01*
X0450291Y0107480D02*
X0447009Y0107480D01*
X0447009Y0107579D02*
X0450291Y0107579D01*
X0450291Y0107678D02*
X0447009Y0107678D01*
X0447009Y0107777D02*
X0450291Y0107777D01*
X0450291Y0107876D02*
X0447009Y0107876D01*
X0447009Y0107975D02*
X0450291Y0107975D01*
X0450291Y0108074D02*
X0447009Y0108074D01*
X0447009Y0108173D02*
X0450291Y0108173D01*
X0450291Y0108272D02*
X0447009Y0108272D01*
X0447009Y0108371D02*
X0450291Y0108371D01*
X0450291Y0104623D02*
X0447009Y0104623D01*
X0447009Y0105817D01*
X0450291Y0105817D01*
X0450291Y0104623D01*
X0450291Y0104722D02*
X0447009Y0104722D01*
X0447009Y0104821D02*
X0450291Y0104821D01*
X0450291Y0104920D02*
X0447009Y0104920D01*
X0447009Y0105019D02*
X0450291Y0105019D01*
X0450291Y0105118D02*
X0447009Y0105118D01*
X0447009Y0105217D02*
X0450291Y0105217D01*
X0450291Y0105316D02*
X0447009Y0105316D01*
X0447009Y0105415D02*
X0450291Y0105415D01*
X0450291Y0105514D02*
X0447009Y0105514D01*
X0447009Y0105613D02*
X0450291Y0105613D01*
X0450291Y0105712D02*
X0447009Y0105712D01*
X0447009Y0105811D02*
X0450291Y0105811D01*
X0450291Y0102064D02*
X0447009Y0102064D01*
X0447009Y0103258D01*
X0450291Y0103258D01*
X0450291Y0102064D01*
X0450291Y0102163D02*
X0447009Y0102163D01*
X0447009Y0102262D02*
X0450291Y0102262D01*
X0450291Y0102361D02*
X0447009Y0102361D01*
X0447009Y0102460D02*
X0450291Y0102460D01*
X0450291Y0102559D02*
X0447009Y0102559D01*
X0447009Y0102658D02*
X0450291Y0102658D01*
X0450291Y0102757D02*
X0447009Y0102757D01*
X0447009Y0102856D02*
X0450291Y0102856D01*
X0450291Y0102955D02*
X0447009Y0102955D01*
X0447009Y0103054D02*
X0450291Y0103054D01*
X0450291Y0103153D02*
X0447009Y0103153D01*
X0447009Y0103252D02*
X0450291Y0103252D01*
X0458309Y0103258D02*
X0461591Y0103258D01*
X0461591Y0102064D01*
X0458309Y0102064D01*
X0458309Y0103258D01*
X0458309Y0102163D02*
X0461591Y0102163D01*
X0461591Y0102262D02*
X0458309Y0102262D01*
X0458309Y0102361D02*
X0461591Y0102361D01*
X0461591Y0102460D02*
X0458309Y0102460D01*
X0458309Y0102559D02*
X0461591Y0102559D01*
X0461591Y0102658D02*
X0458309Y0102658D01*
X0458309Y0102757D02*
X0461591Y0102757D01*
X0461591Y0102856D02*
X0458309Y0102856D01*
X0458309Y0102955D02*
X0461591Y0102955D01*
X0461591Y0103054D02*
X0458309Y0103054D01*
X0458309Y0103153D02*
X0461591Y0103153D01*
X0461591Y0103252D02*
X0458309Y0103252D01*
X0458309Y0105817D02*
X0461591Y0105817D01*
X0461591Y0104623D01*
X0458309Y0104623D01*
X0458309Y0105817D01*
X0458309Y0104722D02*
X0461591Y0104722D01*
X0461591Y0104821D02*
X0458309Y0104821D01*
X0458309Y0104920D02*
X0461591Y0104920D01*
X0461591Y0105019D02*
X0458309Y0105019D01*
X0458309Y0105118D02*
X0461591Y0105118D01*
X0461591Y0105217D02*
X0458309Y0105217D01*
X0458309Y0105316D02*
X0461591Y0105316D01*
X0461591Y0105415D02*
X0458309Y0105415D01*
X0458309Y0105514D02*
X0461591Y0105514D01*
X0461591Y0105613D02*
X0458309Y0105613D01*
X0458309Y0105712D02*
X0461591Y0105712D01*
X0461591Y0105811D02*
X0458309Y0105811D01*
X0458309Y0108377D02*
X0461591Y0108377D01*
X0461591Y0107183D01*
X0458309Y0107183D01*
X0458309Y0108377D01*
X0458309Y0107282D02*
X0461591Y0107282D01*
X0461591Y0107381D02*
X0458309Y0107381D01*
X0458309Y0107480D02*
X0461591Y0107480D01*
X0461591Y0107579D02*
X0458309Y0107579D01*
X0458309Y0107678D02*
X0461591Y0107678D01*
X0461591Y0107777D02*
X0458309Y0107777D01*
X0458309Y0107876D02*
X0461591Y0107876D01*
X0461591Y0107975D02*
X0458309Y0107975D01*
X0458309Y0108074D02*
X0461591Y0108074D01*
X0461591Y0108173D02*
X0458309Y0108173D01*
X0458309Y0108272D02*
X0461591Y0108272D01*
X0461591Y0108371D02*
X0458309Y0108371D01*
X0458309Y0110936D02*
X0461591Y0110936D01*
X0461591Y0109742D01*
X0458309Y0109742D01*
X0458309Y0110936D01*
X0458309Y0109841D02*
X0461591Y0109841D01*
X0461591Y0109940D02*
X0458309Y0109940D01*
X0458309Y0110039D02*
X0461591Y0110039D01*
X0461591Y0110138D02*
X0458309Y0110138D01*
X0458309Y0110237D02*
X0461591Y0110237D01*
X0461591Y0110336D02*
X0458309Y0110336D01*
X0458309Y0110435D02*
X0461591Y0110435D01*
X0461591Y0110534D02*
X0458309Y0110534D01*
X0458309Y0110633D02*
X0461591Y0110633D01*
X0461591Y0110732D02*
X0458309Y0110732D01*
X0458309Y0110831D02*
X0461591Y0110831D01*
X0461591Y0110930D02*
X0458309Y0110930D01*
D28*
X0455580Y0111569D03*
X0453020Y0111569D03*
X0453020Y0101431D03*
X0455580Y0101431D03*
X0455580Y0138931D03*
X0453020Y0138931D03*
X0453020Y0149069D03*
X0455580Y0149069D03*
X0455580Y0176431D03*
X0453020Y0176431D03*
X0453020Y0186569D03*
X0455580Y0186569D03*
X0455580Y0213931D03*
X0453020Y0213931D03*
X0453020Y0224069D03*
X0455580Y0224069D03*
X0455580Y0251431D03*
X0453020Y0251431D03*
X0453020Y0261569D03*
X0455580Y0261569D03*
X0455580Y0288931D03*
X0453020Y0288931D03*
X0453020Y0299069D03*
X0455580Y0299069D03*
X0455580Y0326431D03*
X0453020Y0326431D03*
X0453020Y0336569D03*
X0455580Y0336569D03*
D29*
X0426790Y0324581D03*
X0419310Y0324581D03*
X0423050Y0315919D03*
X0419310Y0287081D03*
X0426790Y0287081D03*
X0423050Y0278419D03*
X0419310Y0249581D03*
X0426790Y0249581D03*
X0423050Y0240919D03*
X0419310Y0212081D03*
X0426790Y0212081D03*
X0423050Y0203419D03*
X0419310Y0174581D03*
X0426790Y0174581D03*
X0423050Y0165919D03*
X0419310Y0137081D03*
X0426790Y0137081D03*
X0423050Y0128419D03*
X0419310Y0099581D03*
X0426790Y0099581D03*
X0423050Y0090919D03*
D30*
X0469969Y0115250D03*
X0478631Y0111510D03*
X0478631Y0118990D03*
X0478631Y0149010D03*
X0469969Y0152750D03*
X0478631Y0156490D03*
X0478631Y0186510D03*
X0469969Y0190250D03*
X0478631Y0193990D03*
X0478631Y0224010D03*
X0478631Y0231490D03*
X0469969Y0227750D03*
X0478631Y0261510D03*
X0469969Y0265250D03*
X0478631Y0268990D03*
X0478631Y0299010D03*
X0469969Y0302750D03*
X0478631Y0306490D03*
X0478631Y0336510D03*
X0469969Y0340250D03*
X0478631Y0343990D03*
D31*
X0303050Y0349797D03*
X0303050Y0355703D03*
X0305550Y0281953D03*
X0305550Y0276047D03*
X0198050Y0248203D03*
X0198050Y0242297D03*
X0198050Y0174453D03*
X0198050Y0168547D03*
X0196800Y0098203D03*
X0196800Y0092297D03*
X0308050Y0132297D03*
X0308050Y0138203D03*
X0199300Y0321047D03*
X0199300Y0326953D03*
M02*
