G75*
%MOIN*%
%OFA0B0*%
%FSLAX25Y25*%
%IPPOS*%
%LPD*%
%AMOC8*
5,1,8,0,0,1.08239X$1,22.5*
%
%ADD10C,0.00600*%
%ADD11C,0.00000*%
%ADD12C,0.00300*%
%ADD13C,0.00400*%
D10*
X0116800Y0058370D02*
X0116800Y0373331D01*
X0116811Y0374282D01*
X0116846Y0375233D01*
X0116903Y0376183D01*
X0116984Y0377131D01*
X0117087Y0378077D01*
X0117213Y0379020D01*
X0117362Y0379959D01*
X0117533Y0380895D01*
X0117728Y0381826D01*
X0117944Y0382753D01*
X0118183Y0383674D01*
X0118444Y0384589D01*
X0118727Y0385497D01*
X0119032Y0386398D01*
X0119358Y0387292D01*
X0119707Y0388177D01*
X0120076Y0389054D01*
X0120466Y0389922D01*
X0120878Y0390779D01*
X0121310Y0391627D01*
X0121762Y0392464D01*
X0122234Y0393290D01*
X0122726Y0394104D01*
X0123238Y0394906D01*
X0123769Y0395696D01*
X0124319Y0396472D01*
X0124887Y0397235D01*
X0125474Y0397984D01*
X0126079Y0398718D01*
X0126701Y0399438D01*
X0127341Y0400143D01*
X0127997Y0400831D01*
X0128670Y0401504D01*
X0129358Y0402160D01*
X0130063Y0402800D01*
X0130783Y0403422D01*
X0131517Y0404027D01*
X0132266Y0404614D01*
X0133029Y0405182D01*
X0133805Y0405732D01*
X0134595Y0406263D01*
X0135397Y0406775D01*
X0136211Y0407267D01*
X0137037Y0407739D01*
X0137874Y0408191D01*
X0138722Y0408623D01*
X0139579Y0409035D01*
X0140447Y0409425D01*
X0141324Y0409794D01*
X0142209Y0410143D01*
X0143103Y0410469D01*
X0144004Y0410774D01*
X0144912Y0411057D01*
X0145827Y0411318D01*
X0146748Y0411557D01*
X0147675Y0411773D01*
X0148606Y0411968D01*
X0149542Y0412139D01*
X0150481Y0412288D01*
X0151424Y0412414D01*
X0152370Y0412517D01*
X0153318Y0412598D01*
X0154268Y0412655D01*
X0155219Y0412690D01*
X0156170Y0412701D01*
X0471131Y0412701D01*
X0472082Y0412690D01*
X0473033Y0412655D01*
X0473983Y0412598D01*
X0474931Y0412517D01*
X0475877Y0412414D01*
X0476820Y0412288D01*
X0477759Y0412139D01*
X0478695Y0411968D01*
X0479626Y0411773D01*
X0480553Y0411557D01*
X0481474Y0411318D01*
X0482389Y0411057D01*
X0483297Y0410774D01*
X0484198Y0410469D01*
X0485092Y0410143D01*
X0485977Y0409794D01*
X0486854Y0409425D01*
X0487722Y0409035D01*
X0488579Y0408623D01*
X0489427Y0408191D01*
X0490264Y0407739D01*
X0491090Y0407267D01*
X0491904Y0406775D01*
X0492706Y0406263D01*
X0493496Y0405732D01*
X0494272Y0405182D01*
X0495035Y0404614D01*
X0495784Y0404027D01*
X0496518Y0403422D01*
X0497238Y0402800D01*
X0497943Y0402160D01*
X0498631Y0401504D01*
X0499304Y0400831D01*
X0499960Y0400143D01*
X0500600Y0399438D01*
X0501222Y0398718D01*
X0501827Y0397984D01*
X0502414Y0397235D01*
X0502982Y0396472D01*
X0503532Y0395696D01*
X0504063Y0394906D01*
X0504575Y0394104D01*
X0505067Y0393290D01*
X0505539Y0392464D01*
X0505991Y0391627D01*
X0506423Y0390779D01*
X0506835Y0389922D01*
X0507225Y0389054D01*
X0507594Y0388177D01*
X0507943Y0387292D01*
X0508269Y0386398D01*
X0508574Y0385497D01*
X0508857Y0384589D01*
X0509118Y0383674D01*
X0509357Y0382753D01*
X0509573Y0381826D01*
X0509768Y0380895D01*
X0509939Y0379959D01*
X0510088Y0379020D01*
X0510214Y0378077D01*
X0510317Y0377131D01*
X0510398Y0376183D01*
X0510455Y0375233D01*
X0510490Y0374282D01*
X0510501Y0373331D01*
X0510501Y0333961D01*
X0502627Y0318213D01*
X0502627Y0113488D01*
X0510501Y0097740D01*
X0510501Y0058370D01*
X0510490Y0057419D01*
X0510455Y0056468D01*
X0510398Y0055518D01*
X0510317Y0054570D01*
X0510214Y0053624D01*
X0510088Y0052681D01*
X0509939Y0051742D01*
X0509768Y0050806D01*
X0509573Y0049875D01*
X0509357Y0048948D01*
X0509118Y0048027D01*
X0508857Y0047112D01*
X0508574Y0046204D01*
X0508269Y0045303D01*
X0507943Y0044409D01*
X0507594Y0043524D01*
X0507225Y0042647D01*
X0506835Y0041779D01*
X0506423Y0040922D01*
X0505991Y0040074D01*
X0505539Y0039237D01*
X0505067Y0038411D01*
X0504575Y0037597D01*
X0504063Y0036795D01*
X0503532Y0036005D01*
X0502982Y0035229D01*
X0502414Y0034466D01*
X0501827Y0033717D01*
X0501222Y0032983D01*
X0500600Y0032263D01*
X0499960Y0031558D01*
X0499304Y0030870D01*
X0498631Y0030197D01*
X0497943Y0029541D01*
X0497238Y0028901D01*
X0496518Y0028279D01*
X0495784Y0027674D01*
X0495035Y0027087D01*
X0494272Y0026519D01*
X0493496Y0025969D01*
X0492706Y0025438D01*
X0491904Y0024926D01*
X0491090Y0024434D01*
X0490264Y0023962D01*
X0489427Y0023510D01*
X0488579Y0023078D01*
X0487722Y0022666D01*
X0486854Y0022276D01*
X0485977Y0021907D01*
X0485092Y0021558D01*
X0484198Y0021232D01*
X0483297Y0020927D01*
X0482389Y0020644D01*
X0481474Y0020383D01*
X0480553Y0020144D01*
X0479626Y0019928D01*
X0478695Y0019733D01*
X0477759Y0019562D01*
X0476820Y0019413D01*
X0475877Y0019287D01*
X0474931Y0019184D01*
X0473983Y0019103D01*
X0473033Y0019046D01*
X0472082Y0019011D01*
X0471131Y0019000D01*
X0156170Y0019000D01*
X0155219Y0019011D01*
X0154268Y0019046D01*
X0153318Y0019103D01*
X0152370Y0019184D01*
X0151424Y0019287D01*
X0150481Y0019413D01*
X0149542Y0019562D01*
X0148606Y0019733D01*
X0147675Y0019928D01*
X0146748Y0020144D01*
X0145827Y0020383D01*
X0144912Y0020644D01*
X0144004Y0020927D01*
X0143103Y0021232D01*
X0142209Y0021558D01*
X0141324Y0021907D01*
X0140447Y0022276D01*
X0139579Y0022666D01*
X0138722Y0023078D01*
X0137874Y0023510D01*
X0137037Y0023962D01*
X0136211Y0024434D01*
X0135397Y0024926D01*
X0134595Y0025438D01*
X0133805Y0025969D01*
X0133029Y0026519D01*
X0132266Y0027087D01*
X0131517Y0027674D01*
X0130783Y0028279D01*
X0130063Y0028901D01*
X0129358Y0029541D01*
X0128670Y0030197D01*
X0127997Y0030870D01*
X0127341Y0031558D01*
X0126701Y0032263D01*
X0126079Y0032983D01*
X0125474Y0033717D01*
X0124887Y0034466D01*
X0124319Y0035229D01*
X0123769Y0036005D01*
X0123238Y0036795D01*
X0122726Y0037597D01*
X0122234Y0038411D01*
X0121762Y0039237D01*
X0121310Y0040074D01*
X0120878Y0040922D01*
X0120466Y0041779D01*
X0120076Y0042647D01*
X0119707Y0043524D01*
X0119358Y0044409D01*
X0119032Y0045303D01*
X0118727Y0046204D01*
X0118444Y0047112D01*
X0118183Y0048027D01*
X0117944Y0048948D01*
X0117728Y0049875D01*
X0117533Y0050806D01*
X0117362Y0051742D01*
X0117213Y0052681D01*
X0117087Y0053624D01*
X0116984Y0054570D01*
X0116903Y0055518D01*
X0116846Y0056468D01*
X0116811Y0057419D01*
X0116800Y0058370D01*
D11*
X0141997Y0050496D02*
X0141999Y0050654D01*
X0142005Y0050812D01*
X0142015Y0050970D01*
X0142029Y0051128D01*
X0142047Y0051285D01*
X0142068Y0051442D01*
X0142094Y0051598D01*
X0142124Y0051754D01*
X0142157Y0051909D01*
X0142195Y0052062D01*
X0142236Y0052215D01*
X0142281Y0052367D01*
X0142330Y0052518D01*
X0142383Y0052667D01*
X0142439Y0052815D01*
X0142499Y0052961D01*
X0142563Y0053106D01*
X0142631Y0053249D01*
X0142702Y0053391D01*
X0142776Y0053531D01*
X0142854Y0053668D01*
X0142936Y0053804D01*
X0143020Y0053938D01*
X0143109Y0054069D01*
X0143200Y0054198D01*
X0143295Y0054325D01*
X0143392Y0054450D01*
X0143493Y0054572D01*
X0143597Y0054691D01*
X0143704Y0054808D01*
X0143814Y0054922D01*
X0143927Y0055033D01*
X0144042Y0055142D01*
X0144160Y0055247D01*
X0144281Y0055349D01*
X0144404Y0055449D01*
X0144530Y0055545D01*
X0144658Y0055638D01*
X0144788Y0055728D01*
X0144921Y0055814D01*
X0145056Y0055898D01*
X0145192Y0055977D01*
X0145331Y0056054D01*
X0145472Y0056126D01*
X0145614Y0056196D01*
X0145758Y0056261D01*
X0145904Y0056323D01*
X0146051Y0056381D01*
X0146200Y0056436D01*
X0146350Y0056487D01*
X0146501Y0056534D01*
X0146653Y0056577D01*
X0146806Y0056616D01*
X0146961Y0056652D01*
X0147116Y0056683D01*
X0147272Y0056711D01*
X0147428Y0056735D01*
X0147585Y0056755D01*
X0147743Y0056771D01*
X0147900Y0056783D01*
X0148059Y0056791D01*
X0148217Y0056795D01*
X0148375Y0056795D01*
X0148533Y0056791D01*
X0148692Y0056783D01*
X0148849Y0056771D01*
X0149007Y0056755D01*
X0149164Y0056735D01*
X0149320Y0056711D01*
X0149476Y0056683D01*
X0149631Y0056652D01*
X0149786Y0056616D01*
X0149939Y0056577D01*
X0150091Y0056534D01*
X0150242Y0056487D01*
X0150392Y0056436D01*
X0150541Y0056381D01*
X0150688Y0056323D01*
X0150834Y0056261D01*
X0150978Y0056196D01*
X0151120Y0056126D01*
X0151261Y0056054D01*
X0151400Y0055977D01*
X0151536Y0055898D01*
X0151671Y0055814D01*
X0151804Y0055728D01*
X0151934Y0055638D01*
X0152062Y0055545D01*
X0152188Y0055449D01*
X0152311Y0055349D01*
X0152432Y0055247D01*
X0152550Y0055142D01*
X0152665Y0055033D01*
X0152778Y0054922D01*
X0152888Y0054808D01*
X0152995Y0054691D01*
X0153099Y0054572D01*
X0153200Y0054450D01*
X0153297Y0054325D01*
X0153392Y0054198D01*
X0153483Y0054069D01*
X0153572Y0053938D01*
X0153656Y0053804D01*
X0153738Y0053668D01*
X0153816Y0053531D01*
X0153890Y0053391D01*
X0153961Y0053249D01*
X0154029Y0053106D01*
X0154093Y0052961D01*
X0154153Y0052815D01*
X0154209Y0052667D01*
X0154262Y0052518D01*
X0154311Y0052367D01*
X0154356Y0052215D01*
X0154397Y0052062D01*
X0154435Y0051909D01*
X0154468Y0051754D01*
X0154498Y0051598D01*
X0154524Y0051442D01*
X0154545Y0051285D01*
X0154563Y0051128D01*
X0154577Y0050970D01*
X0154587Y0050812D01*
X0154593Y0050654D01*
X0154595Y0050496D01*
X0154593Y0050338D01*
X0154587Y0050180D01*
X0154577Y0050022D01*
X0154563Y0049864D01*
X0154545Y0049707D01*
X0154524Y0049550D01*
X0154498Y0049394D01*
X0154468Y0049238D01*
X0154435Y0049083D01*
X0154397Y0048930D01*
X0154356Y0048777D01*
X0154311Y0048625D01*
X0154262Y0048474D01*
X0154209Y0048325D01*
X0154153Y0048177D01*
X0154093Y0048031D01*
X0154029Y0047886D01*
X0153961Y0047743D01*
X0153890Y0047601D01*
X0153816Y0047461D01*
X0153738Y0047324D01*
X0153656Y0047188D01*
X0153572Y0047054D01*
X0153483Y0046923D01*
X0153392Y0046794D01*
X0153297Y0046667D01*
X0153200Y0046542D01*
X0153099Y0046420D01*
X0152995Y0046301D01*
X0152888Y0046184D01*
X0152778Y0046070D01*
X0152665Y0045959D01*
X0152550Y0045850D01*
X0152432Y0045745D01*
X0152311Y0045643D01*
X0152188Y0045543D01*
X0152062Y0045447D01*
X0151934Y0045354D01*
X0151804Y0045264D01*
X0151671Y0045178D01*
X0151536Y0045094D01*
X0151400Y0045015D01*
X0151261Y0044938D01*
X0151120Y0044866D01*
X0150978Y0044796D01*
X0150834Y0044731D01*
X0150688Y0044669D01*
X0150541Y0044611D01*
X0150392Y0044556D01*
X0150242Y0044505D01*
X0150091Y0044458D01*
X0149939Y0044415D01*
X0149786Y0044376D01*
X0149631Y0044340D01*
X0149476Y0044309D01*
X0149320Y0044281D01*
X0149164Y0044257D01*
X0149007Y0044237D01*
X0148849Y0044221D01*
X0148692Y0044209D01*
X0148533Y0044201D01*
X0148375Y0044197D01*
X0148217Y0044197D01*
X0148059Y0044201D01*
X0147900Y0044209D01*
X0147743Y0044221D01*
X0147585Y0044237D01*
X0147428Y0044257D01*
X0147272Y0044281D01*
X0147116Y0044309D01*
X0146961Y0044340D01*
X0146806Y0044376D01*
X0146653Y0044415D01*
X0146501Y0044458D01*
X0146350Y0044505D01*
X0146200Y0044556D01*
X0146051Y0044611D01*
X0145904Y0044669D01*
X0145758Y0044731D01*
X0145614Y0044796D01*
X0145472Y0044866D01*
X0145331Y0044938D01*
X0145192Y0045015D01*
X0145056Y0045094D01*
X0144921Y0045178D01*
X0144788Y0045264D01*
X0144658Y0045354D01*
X0144530Y0045447D01*
X0144404Y0045543D01*
X0144281Y0045643D01*
X0144160Y0045745D01*
X0144042Y0045850D01*
X0143927Y0045959D01*
X0143814Y0046070D01*
X0143704Y0046184D01*
X0143597Y0046301D01*
X0143493Y0046420D01*
X0143392Y0046542D01*
X0143295Y0046667D01*
X0143200Y0046794D01*
X0143109Y0046923D01*
X0143020Y0047054D01*
X0142936Y0047188D01*
X0142854Y0047324D01*
X0142776Y0047461D01*
X0142702Y0047601D01*
X0142631Y0047743D01*
X0142563Y0047886D01*
X0142499Y0048031D01*
X0142439Y0048177D01*
X0142383Y0048325D01*
X0142330Y0048474D01*
X0142281Y0048625D01*
X0142236Y0048777D01*
X0142195Y0048930D01*
X0142157Y0049083D01*
X0142124Y0049238D01*
X0142094Y0049394D01*
X0142068Y0049550D01*
X0142047Y0049707D01*
X0142029Y0049864D01*
X0142015Y0050022D01*
X0142005Y0050180D01*
X0141999Y0050338D01*
X0141997Y0050496D01*
X0472706Y0050496D02*
X0472708Y0050654D01*
X0472714Y0050812D01*
X0472724Y0050970D01*
X0472738Y0051128D01*
X0472756Y0051285D01*
X0472777Y0051442D01*
X0472803Y0051598D01*
X0472833Y0051754D01*
X0472866Y0051909D01*
X0472904Y0052062D01*
X0472945Y0052215D01*
X0472990Y0052367D01*
X0473039Y0052518D01*
X0473092Y0052667D01*
X0473148Y0052815D01*
X0473208Y0052961D01*
X0473272Y0053106D01*
X0473340Y0053249D01*
X0473411Y0053391D01*
X0473485Y0053531D01*
X0473563Y0053668D01*
X0473645Y0053804D01*
X0473729Y0053938D01*
X0473818Y0054069D01*
X0473909Y0054198D01*
X0474004Y0054325D01*
X0474101Y0054450D01*
X0474202Y0054572D01*
X0474306Y0054691D01*
X0474413Y0054808D01*
X0474523Y0054922D01*
X0474636Y0055033D01*
X0474751Y0055142D01*
X0474869Y0055247D01*
X0474990Y0055349D01*
X0475113Y0055449D01*
X0475239Y0055545D01*
X0475367Y0055638D01*
X0475497Y0055728D01*
X0475630Y0055814D01*
X0475765Y0055898D01*
X0475901Y0055977D01*
X0476040Y0056054D01*
X0476181Y0056126D01*
X0476323Y0056196D01*
X0476467Y0056261D01*
X0476613Y0056323D01*
X0476760Y0056381D01*
X0476909Y0056436D01*
X0477059Y0056487D01*
X0477210Y0056534D01*
X0477362Y0056577D01*
X0477515Y0056616D01*
X0477670Y0056652D01*
X0477825Y0056683D01*
X0477981Y0056711D01*
X0478137Y0056735D01*
X0478294Y0056755D01*
X0478452Y0056771D01*
X0478609Y0056783D01*
X0478768Y0056791D01*
X0478926Y0056795D01*
X0479084Y0056795D01*
X0479242Y0056791D01*
X0479401Y0056783D01*
X0479558Y0056771D01*
X0479716Y0056755D01*
X0479873Y0056735D01*
X0480029Y0056711D01*
X0480185Y0056683D01*
X0480340Y0056652D01*
X0480495Y0056616D01*
X0480648Y0056577D01*
X0480800Y0056534D01*
X0480951Y0056487D01*
X0481101Y0056436D01*
X0481250Y0056381D01*
X0481397Y0056323D01*
X0481543Y0056261D01*
X0481687Y0056196D01*
X0481829Y0056126D01*
X0481970Y0056054D01*
X0482109Y0055977D01*
X0482245Y0055898D01*
X0482380Y0055814D01*
X0482513Y0055728D01*
X0482643Y0055638D01*
X0482771Y0055545D01*
X0482897Y0055449D01*
X0483020Y0055349D01*
X0483141Y0055247D01*
X0483259Y0055142D01*
X0483374Y0055033D01*
X0483487Y0054922D01*
X0483597Y0054808D01*
X0483704Y0054691D01*
X0483808Y0054572D01*
X0483909Y0054450D01*
X0484006Y0054325D01*
X0484101Y0054198D01*
X0484192Y0054069D01*
X0484281Y0053938D01*
X0484365Y0053804D01*
X0484447Y0053668D01*
X0484525Y0053531D01*
X0484599Y0053391D01*
X0484670Y0053249D01*
X0484738Y0053106D01*
X0484802Y0052961D01*
X0484862Y0052815D01*
X0484918Y0052667D01*
X0484971Y0052518D01*
X0485020Y0052367D01*
X0485065Y0052215D01*
X0485106Y0052062D01*
X0485144Y0051909D01*
X0485177Y0051754D01*
X0485207Y0051598D01*
X0485233Y0051442D01*
X0485254Y0051285D01*
X0485272Y0051128D01*
X0485286Y0050970D01*
X0485296Y0050812D01*
X0485302Y0050654D01*
X0485304Y0050496D01*
X0485302Y0050338D01*
X0485296Y0050180D01*
X0485286Y0050022D01*
X0485272Y0049864D01*
X0485254Y0049707D01*
X0485233Y0049550D01*
X0485207Y0049394D01*
X0485177Y0049238D01*
X0485144Y0049083D01*
X0485106Y0048930D01*
X0485065Y0048777D01*
X0485020Y0048625D01*
X0484971Y0048474D01*
X0484918Y0048325D01*
X0484862Y0048177D01*
X0484802Y0048031D01*
X0484738Y0047886D01*
X0484670Y0047743D01*
X0484599Y0047601D01*
X0484525Y0047461D01*
X0484447Y0047324D01*
X0484365Y0047188D01*
X0484281Y0047054D01*
X0484192Y0046923D01*
X0484101Y0046794D01*
X0484006Y0046667D01*
X0483909Y0046542D01*
X0483808Y0046420D01*
X0483704Y0046301D01*
X0483597Y0046184D01*
X0483487Y0046070D01*
X0483374Y0045959D01*
X0483259Y0045850D01*
X0483141Y0045745D01*
X0483020Y0045643D01*
X0482897Y0045543D01*
X0482771Y0045447D01*
X0482643Y0045354D01*
X0482513Y0045264D01*
X0482380Y0045178D01*
X0482245Y0045094D01*
X0482109Y0045015D01*
X0481970Y0044938D01*
X0481829Y0044866D01*
X0481687Y0044796D01*
X0481543Y0044731D01*
X0481397Y0044669D01*
X0481250Y0044611D01*
X0481101Y0044556D01*
X0480951Y0044505D01*
X0480800Y0044458D01*
X0480648Y0044415D01*
X0480495Y0044376D01*
X0480340Y0044340D01*
X0480185Y0044309D01*
X0480029Y0044281D01*
X0479873Y0044257D01*
X0479716Y0044237D01*
X0479558Y0044221D01*
X0479401Y0044209D01*
X0479242Y0044201D01*
X0479084Y0044197D01*
X0478926Y0044197D01*
X0478768Y0044201D01*
X0478609Y0044209D01*
X0478452Y0044221D01*
X0478294Y0044237D01*
X0478137Y0044257D01*
X0477981Y0044281D01*
X0477825Y0044309D01*
X0477670Y0044340D01*
X0477515Y0044376D01*
X0477362Y0044415D01*
X0477210Y0044458D01*
X0477059Y0044505D01*
X0476909Y0044556D01*
X0476760Y0044611D01*
X0476613Y0044669D01*
X0476467Y0044731D01*
X0476323Y0044796D01*
X0476181Y0044866D01*
X0476040Y0044938D01*
X0475901Y0045015D01*
X0475765Y0045094D01*
X0475630Y0045178D01*
X0475497Y0045264D01*
X0475367Y0045354D01*
X0475239Y0045447D01*
X0475113Y0045543D01*
X0474990Y0045643D01*
X0474869Y0045745D01*
X0474751Y0045850D01*
X0474636Y0045959D01*
X0474523Y0046070D01*
X0474413Y0046184D01*
X0474306Y0046301D01*
X0474202Y0046420D01*
X0474101Y0046542D01*
X0474004Y0046667D01*
X0473909Y0046794D01*
X0473818Y0046923D01*
X0473729Y0047054D01*
X0473645Y0047188D01*
X0473563Y0047324D01*
X0473485Y0047461D01*
X0473411Y0047601D01*
X0473340Y0047743D01*
X0473272Y0047886D01*
X0473208Y0048031D01*
X0473148Y0048177D01*
X0473092Y0048325D01*
X0473039Y0048474D01*
X0472990Y0048625D01*
X0472945Y0048777D01*
X0472904Y0048930D01*
X0472866Y0049083D01*
X0472833Y0049238D01*
X0472803Y0049394D01*
X0472777Y0049550D01*
X0472756Y0049707D01*
X0472738Y0049864D01*
X0472724Y0050022D01*
X0472714Y0050180D01*
X0472708Y0050338D01*
X0472706Y0050496D01*
X0472706Y0381205D02*
X0472708Y0381363D01*
X0472714Y0381521D01*
X0472724Y0381679D01*
X0472738Y0381837D01*
X0472756Y0381994D01*
X0472777Y0382151D01*
X0472803Y0382307D01*
X0472833Y0382463D01*
X0472866Y0382618D01*
X0472904Y0382771D01*
X0472945Y0382924D01*
X0472990Y0383076D01*
X0473039Y0383227D01*
X0473092Y0383376D01*
X0473148Y0383524D01*
X0473208Y0383670D01*
X0473272Y0383815D01*
X0473340Y0383958D01*
X0473411Y0384100D01*
X0473485Y0384240D01*
X0473563Y0384377D01*
X0473645Y0384513D01*
X0473729Y0384647D01*
X0473818Y0384778D01*
X0473909Y0384907D01*
X0474004Y0385034D01*
X0474101Y0385159D01*
X0474202Y0385281D01*
X0474306Y0385400D01*
X0474413Y0385517D01*
X0474523Y0385631D01*
X0474636Y0385742D01*
X0474751Y0385851D01*
X0474869Y0385956D01*
X0474990Y0386058D01*
X0475113Y0386158D01*
X0475239Y0386254D01*
X0475367Y0386347D01*
X0475497Y0386437D01*
X0475630Y0386523D01*
X0475765Y0386607D01*
X0475901Y0386686D01*
X0476040Y0386763D01*
X0476181Y0386835D01*
X0476323Y0386905D01*
X0476467Y0386970D01*
X0476613Y0387032D01*
X0476760Y0387090D01*
X0476909Y0387145D01*
X0477059Y0387196D01*
X0477210Y0387243D01*
X0477362Y0387286D01*
X0477515Y0387325D01*
X0477670Y0387361D01*
X0477825Y0387392D01*
X0477981Y0387420D01*
X0478137Y0387444D01*
X0478294Y0387464D01*
X0478452Y0387480D01*
X0478609Y0387492D01*
X0478768Y0387500D01*
X0478926Y0387504D01*
X0479084Y0387504D01*
X0479242Y0387500D01*
X0479401Y0387492D01*
X0479558Y0387480D01*
X0479716Y0387464D01*
X0479873Y0387444D01*
X0480029Y0387420D01*
X0480185Y0387392D01*
X0480340Y0387361D01*
X0480495Y0387325D01*
X0480648Y0387286D01*
X0480800Y0387243D01*
X0480951Y0387196D01*
X0481101Y0387145D01*
X0481250Y0387090D01*
X0481397Y0387032D01*
X0481543Y0386970D01*
X0481687Y0386905D01*
X0481829Y0386835D01*
X0481970Y0386763D01*
X0482109Y0386686D01*
X0482245Y0386607D01*
X0482380Y0386523D01*
X0482513Y0386437D01*
X0482643Y0386347D01*
X0482771Y0386254D01*
X0482897Y0386158D01*
X0483020Y0386058D01*
X0483141Y0385956D01*
X0483259Y0385851D01*
X0483374Y0385742D01*
X0483487Y0385631D01*
X0483597Y0385517D01*
X0483704Y0385400D01*
X0483808Y0385281D01*
X0483909Y0385159D01*
X0484006Y0385034D01*
X0484101Y0384907D01*
X0484192Y0384778D01*
X0484281Y0384647D01*
X0484365Y0384513D01*
X0484447Y0384377D01*
X0484525Y0384240D01*
X0484599Y0384100D01*
X0484670Y0383958D01*
X0484738Y0383815D01*
X0484802Y0383670D01*
X0484862Y0383524D01*
X0484918Y0383376D01*
X0484971Y0383227D01*
X0485020Y0383076D01*
X0485065Y0382924D01*
X0485106Y0382771D01*
X0485144Y0382618D01*
X0485177Y0382463D01*
X0485207Y0382307D01*
X0485233Y0382151D01*
X0485254Y0381994D01*
X0485272Y0381837D01*
X0485286Y0381679D01*
X0485296Y0381521D01*
X0485302Y0381363D01*
X0485304Y0381205D01*
X0485302Y0381047D01*
X0485296Y0380889D01*
X0485286Y0380731D01*
X0485272Y0380573D01*
X0485254Y0380416D01*
X0485233Y0380259D01*
X0485207Y0380103D01*
X0485177Y0379947D01*
X0485144Y0379792D01*
X0485106Y0379639D01*
X0485065Y0379486D01*
X0485020Y0379334D01*
X0484971Y0379183D01*
X0484918Y0379034D01*
X0484862Y0378886D01*
X0484802Y0378740D01*
X0484738Y0378595D01*
X0484670Y0378452D01*
X0484599Y0378310D01*
X0484525Y0378170D01*
X0484447Y0378033D01*
X0484365Y0377897D01*
X0484281Y0377763D01*
X0484192Y0377632D01*
X0484101Y0377503D01*
X0484006Y0377376D01*
X0483909Y0377251D01*
X0483808Y0377129D01*
X0483704Y0377010D01*
X0483597Y0376893D01*
X0483487Y0376779D01*
X0483374Y0376668D01*
X0483259Y0376559D01*
X0483141Y0376454D01*
X0483020Y0376352D01*
X0482897Y0376252D01*
X0482771Y0376156D01*
X0482643Y0376063D01*
X0482513Y0375973D01*
X0482380Y0375887D01*
X0482245Y0375803D01*
X0482109Y0375724D01*
X0481970Y0375647D01*
X0481829Y0375575D01*
X0481687Y0375505D01*
X0481543Y0375440D01*
X0481397Y0375378D01*
X0481250Y0375320D01*
X0481101Y0375265D01*
X0480951Y0375214D01*
X0480800Y0375167D01*
X0480648Y0375124D01*
X0480495Y0375085D01*
X0480340Y0375049D01*
X0480185Y0375018D01*
X0480029Y0374990D01*
X0479873Y0374966D01*
X0479716Y0374946D01*
X0479558Y0374930D01*
X0479401Y0374918D01*
X0479242Y0374910D01*
X0479084Y0374906D01*
X0478926Y0374906D01*
X0478768Y0374910D01*
X0478609Y0374918D01*
X0478452Y0374930D01*
X0478294Y0374946D01*
X0478137Y0374966D01*
X0477981Y0374990D01*
X0477825Y0375018D01*
X0477670Y0375049D01*
X0477515Y0375085D01*
X0477362Y0375124D01*
X0477210Y0375167D01*
X0477059Y0375214D01*
X0476909Y0375265D01*
X0476760Y0375320D01*
X0476613Y0375378D01*
X0476467Y0375440D01*
X0476323Y0375505D01*
X0476181Y0375575D01*
X0476040Y0375647D01*
X0475901Y0375724D01*
X0475765Y0375803D01*
X0475630Y0375887D01*
X0475497Y0375973D01*
X0475367Y0376063D01*
X0475239Y0376156D01*
X0475113Y0376252D01*
X0474990Y0376352D01*
X0474869Y0376454D01*
X0474751Y0376559D01*
X0474636Y0376668D01*
X0474523Y0376779D01*
X0474413Y0376893D01*
X0474306Y0377010D01*
X0474202Y0377129D01*
X0474101Y0377251D01*
X0474004Y0377376D01*
X0473909Y0377503D01*
X0473818Y0377632D01*
X0473729Y0377763D01*
X0473645Y0377897D01*
X0473563Y0378033D01*
X0473485Y0378170D01*
X0473411Y0378310D01*
X0473340Y0378452D01*
X0473272Y0378595D01*
X0473208Y0378740D01*
X0473148Y0378886D01*
X0473092Y0379034D01*
X0473039Y0379183D01*
X0472990Y0379334D01*
X0472945Y0379486D01*
X0472904Y0379639D01*
X0472866Y0379792D01*
X0472833Y0379947D01*
X0472803Y0380103D01*
X0472777Y0380259D01*
X0472756Y0380416D01*
X0472738Y0380573D01*
X0472724Y0380731D01*
X0472714Y0380889D01*
X0472708Y0381047D01*
X0472706Y0381205D01*
X0141997Y0381205D02*
X0141999Y0381363D01*
X0142005Y0381521D01*
X0142015Y0381679D01*
X0142029Y0381837D01*
X0142047Y0381994D01*
X0142068Y0382151D01*
X0142094Y0382307D01*
X0142124Y0382463D01*
X0142157Y0382618D01*
X0142195Y0382771D01*
X0142236Y0382924D01*
X0142281Y0383076D01*
X0142330Y0383227D01*
X0142383Y0383376D01*
X0142439Y0383524D01*
X0142499Y0383670D01*
X0142563Y0383815D01*
X0142631Y0383958D01*
X0142702Y0384100D01*
X0142776Y0384240D01*
X0142854Y0384377D01*
X0142936Y0384513D01*
X0143020Y0384647D01*
X0143109Y0384778D01*
X0143200Y0384907D01*
X0143295Y0385034D01*
X0143392Y0385159D01*
X0143493Y0385281D01*
X0143597Y0385400D01*
X0143704Y0385517D01*
X0143814Y0385631D01*
X0143927Y0385742D01*
X0144042Y0385851D01*
X0144160Y0385956D01*
X0144281Y0386058D01*
X0144404Y0386158D01*
X0144530Y0386254D01*
X0144658Y0386347D01*
X0144788Y0386437D01*
X0144921Y0386523D01*
X0145056Y0386607D01*
X0145192Y0386686D01*
X0145331Y0386763D01*
X0145472Y0386835D01*
X0145614Y0386905D01*
X0145758Y0386970D01*
X0145904Y0387032D01*
X0146051Y0387090D01*
X0146200Y0387145D01*
X0146350Y0387196D01*
X0146501Y0387243D01*
X0146653Y0387286D01*
X0146806Y0387325D01*
X0146961Y0387361D01*
X0147116Y0387392D01*
X0147272Y0387420D01*
X0147428Y0387444D01*
X0147585Y0387464D01*
X0147743Y0387480D01*
X0147900Y0387492D01*
X0148059Y0387500D01*
X0148217Y0387504D01*
X0148375Y0387504D01*
X0148533Y0387500D01*
X0148692Y0387492D01*
X0148849Y0387480D01*
X0149007Y0387464D01*
X0149164Y0387444D01*
X0149320Y0387420D01*
X0149476Y0387392D01*
X0149631Y0387361D01*
X0149786Y0387325D01*
X0149939Y0387286D01*
X0150091Y0387243D01*
X0150242Y0387196D01*
X0150392Y0387145D01*
X0150541Y0387090D01*
X0150688Y0387032D01*
X0150834Y0386970D01*
X0150978Y0386905D01*
X0151120Y0386835D01*
X0151261Y0386763D01*
X0151400Y0386686D01*
X0151536Y0386607D01*
X0151671Y0386523D01*
X0151804Y0386437D01*
X0151934Y0386347D01*
X0152062Y0386254D01*
X0152188Y0386158D01*
X0152311Y0386058D01*
X0152432Y0385956D01*
X0152550Y0385851D01*
X0152665Y0385742D01*
X0152778Y0385631D01*
X0152888Y0385517D01*
X0152995Y0385400D01*
X0153099Y0385281D01*
X0153200Y0385159D01*
X0153297Y0385034D01*
X0153392Y0384907D01*
X0153483Y0384778D01*
X0153572Y0384647D01*
X0153656Y0384513D01*
X0153738Y0384377D01*
X0153816Y0384240D01*
X0153890Y0384100D01*
X0153961Y0383958D01*
X0154029Y0383815D01*
X0154093Y0383670D01*
X0154153Y0383524D01*
X0154209Y0383376D01*
X0154262Y0383227D01*
X0154311Y0383076D01*
X0154356Y0382924D01*
X0154397Y0382771D01*
X0154435Y0382618D01*
X0154468Y0382463D01*
X0154498Y0382307D01*
X0154524Y0382151D01*
X0154545Y0381994D01*
X0154563Y0381837D01*
X0154577Y0381679D01*
X0154587Y0381521D01*
X0154593Y0381363D01*
X0154595Y0381205D01*
X0154593Y0381047D01*
X0154587Y0380889D01*
X0154577Y0380731D01*
X0154563Y0380573D01*
X0154545Y0380416D01*
X0154524Y0380259D01*
X0154498Y0380103D01*
X0154468Y0379947D01*
X0154435Y0379792D01*
X0154397Y0379639D01*
X0154356Y0379486D01*
X0154311Y0379334D01*
X0154262Y0379183D01*
X0154209Y0379034D01*
X0154153Y0378886D01*
X0154093Y0378740D01*
X0154029Y0378595D01*
X0153961Y0378452D01*
X0153890Y0378310D01*
X0153816Y0378170D01*
X0153738Y0378033D01*
X0153656Y0377897D01*
X0153572Y0377763D01*
X0153483Y0377632D01*
X0153392Y0377503D01*
X0153297Y0377376D01*
X0153200Y0377251D01*
X0153099Y0377129D01*
X0152995Y0377010D01*
X0152888Y0376893D01*
X0152778Y0376779D01*
X0152665Y0376668D01*
X0152550Y0376559D01*
X0152432Y0376454D01*
X0152311Y0376352D01*
X0152188Y0376252D01*
X0152062Y0376156D01*
X0151934Y0376063D01*
X0151804Y0375973D01*
X0151671Y0375887D01*
X0151536Y0375803D01*
X0151400Y0375724D01*
X0151261Y0375647D01*
X0151120Y0375575D01*
X0150978Y0375505D01*
X0150834Y0375440D01*
X0150688Y0375378D01*
X0150541Y0375320D01*
X0150392Y0375265D01*
X0150242Y0375214D01*
X0150091Y0375167D01*
X0149939Y0375124D01*
X0149786Y0375085D01*
X0149631Y0375049D01*
X0149476Y0375018D01*
X0149320Y0374990D01*
X0149164Y0374966D01*
X0149007Y0374946D01*
X0148849Y0374930D01*
X0148692Y0374918D01*
X0148533Y0374910D01*
X0148375Y0374906D01*
X0148217Y0374906D01*
X0148059Y0374910D01*
X0147900Y0374918D01*
X0147743Y0374930D01*
X0147585Y0374946D01*
X0147428Y0374966D01*
X0147272Y0374990D01*
X0147116Y0375018D01*
X0146961Y0375049D01*
X0146806Y0375085D01*
X0146653Y0375124D01*
X0146501Y0375167D01*
X0146350Y0375214D01*
X0146200Y0375265D01*
X0146051Y0375320D01*
X0145904Y0375378D01*
X0145758Y0375440D01*
X0145614Y0375505D01*
X0145472Y0375575D01*
X0145331Y0375647D01*
X0145192Y0375724D01*
X0145056Y0375803D01*
X0144921Y0375887D01*
X0144788Y0375973D01*
X0144658Y0376063D01*
X0144530Y0376156D01*
X0144404Y0376252D01*
X0144281Y0376352D01*
X0144160Y0376454D01*
X0144042Y0376559D01*
X0143927Y0376668D01*
X0143814Y0376779D01*
X0143704Y0376893D01*
X0143597Y0377010D01*
X0143493Y0377129D01*
X0143392Y0377251D01*
X0143295Y0377376D01*
X0143200Y0377503D01*
X0143109Y0377632D01*
X0143020Y0377763D01*
X0142936Y0377897D01*
X0142854Y0378033D01*
X0142776Y0378170D01*
X0142702Y0378310D01*
X0142631Y0378452D01*
X0142563Y0378595D01*
X0142499Y0378740D01*
X0142439Y0378886D01*
X0142383Y0379034D01*
X0142330Y0379183D01*
X0142281Y0379334D01*
X0142236Y0379486D01*
X0142195Y0379639D01*
X0142157Y0379792D01*
X0142124Y0379947D01*
X0142094Y0380103D01*
X0142068Y0380259D01*
X0142047Y0380416D01*
X0142029Y0380573D01*
X0142015Y0380731D01*
X0142005Y0380889D01*
X0141999Y0381047D01*
X0141997Y0381205D01*
D12*
X0130417Y0352023D02*
X0130417Y0349964D01*
X0132476Y0351714D01*
X0134123Y0351097D02*
X0134121Y0351029D01*
X0134115Y0350961D01*
X0134106Y0350894D01*
X0134092Y0350827D01*
X0134075Y0350761D01*
X0134054Y0350697D01*
X0134029Y0350633D01*
X0134001Y0350572D01*
X0133969Y0350511D01*
X0133934Y0350453D01*
X0133895Y0350397D01*
X0133854Y0350343D01*
X0133809Y0350292D01*
X0133762Y0350243D01*
X0133712Y0350197D01*
X0133659Y0350154D01*
X0133604Y0350114D01*
X0133547Y0350077D01*
X0133487Y0350044D01*
X0133426Y0350014D01*
X0133364Y0349988D01*
X0133300Y0349965D01*
X0132475Y0351714D02*
X0132520Y0351758D01*
X0132566Y0351798D01*
X0132616Y0351836D01*
X0132667Y0351871D01*
X0132720Y0351902D01*
X0132776Y0351930D01*
X0132833Y0351954D01*
X0132891Y0351975D01*
X0132951Y0351992D01*
X0133011Y0352006D01*
X0133072Y0352015D01*
X0133134Y0352021D01*
X0133196Y0352023D01*
X0133196Y0352024D02*
X0133254Y0352022D01*
X0133312Y0352017D01*
X0133370Y0352008D01*
X0133427Y0351995D01*
X0133482Y0351979D01*
X0133537Y0351959D01*
X0133591Y0351936D01*
X0133643Y0351909D01*
X0133693Y0351880D01*
X0133741Y0351847D01*
X0133787Y0351811D01*
X0133831Y0351773D01*
X0133872Y0351732D01*
X0133910Y0351688D01*
X0133946Y0351642D01*
X0133979Y0351594D01*
X0134008Y0351544D01*
X0134035Y0351492D01*
X0134058Y0351438D01*
X0134078Y0351383D01*
X0134094Y0351328D01*
X0134107Y0351271D01*
X0134116Y0351213D01*
X0134121Y0351155D01*
X0134123Y0351097D01*
X0168963Y0350930D02*
X0168963Y0352987D01*
X0168963Y0351959D02*
X0172666Y0351959D01*
X0171843Y0350930D01*
X0360879Y0355117D02*
X0362938Y0355117D01*
X0361188Y0357176D01*
X0361806Y0358823D02*
X0361874Y0358821D01*
X0361942Y0358815D01*
X0362009Y0358806D01*
X0362076Y0358792D01*
X0362142Y0358775D01*
X0362206Y0358754D01*
X0362270Y0358729D01*
X0362331Y0358701D01*
X0362392Y0358669D01*
X0362450Y0358634D01*
X0362506Y0358595D01*
X0362560Y0358554D01*
X0362611Y0358509D01*
X0362660Y0358462D01*
X0362706Y0358412D01*
X0362749Y0358359D01*
X0362789Y0358304D01*
X0362826Y0358247D01*
X0362859Y0358187D01*
X0362889Y0358126D01*
X0362915Y0358064D01*
X0362938Y0358000D01*
X0361188Y0357175D02*
X0361144Y0357220D01*
X0361104Y0357266D01*
X0361066Y0357316D01*
X0361031Y0357367D01*
X0361000Y0357420D01*
X0360972Y0357476D01*
X0360948Y0357533D01*
X0360927Y0357591D01*
X0360910Y0357651D01*
X0360896Y0357711D01*
X0360887Y0357772D01*
X0360881Y0357834D01*
X0360879Y0357896D01*
X0360881Y0357954D01*
X0360886Y0358012D01*
X0360895Y0358070D01*
X0360908Y0358127D01*
X0360924Y0358182D01*
X0360944Y0358237D01*
X0360967Y0358291D01*
X0360994Y0358343D01*
X0361023Y0358393D01*
X0361056Y0358441D01*
X0361092Y0358487D01*
X0361130Y0358531D01*
X0361171Y0358572D01*
X0361215Y0358610D01*
X0361261Y0358646D01*
X0361309Y0358679D01*
X0361359Y0358708D01*
X0361411Y0358735D01*
X0361465Y0358758D01*
X0361520Y0358778D01*
X0361575Y0358794D01*
X0361632Y0358807D01*
X0361690Y0358816D01*
X0361748Y0358821D01*
X0361806Y0358823D01*
X0361972Y0393663D02*
X0359915Y0393663D01*
X0360944Y0393663D02*
X0360944Y0397366D01*
X0361972Y0396543D01*
X0171536Y0081719D02*
X0169477Y0079969D01*
X0169477Y0082028D01*
X0172360Y0079969D02*
X0172424Y0079992D01*
X0172486Y0080018D01*
X0172547Y0080048D01*
X0172607Y0080081D01*
X0172664Y0080118D01*
X0172719Y0080158D01*
X0172772Y0080201D01*
X0172822Y0080247D01*
X0172869Y0080296D01*
X0172914Y0080347D01*
X0172955Y0080401D01*
X0172994Y0080457D01*
X0173029Y0080515D01*
X0173061Y0080576D01*
X0173089Y0080637D01*
X0173114Y0080701D01*
X0173135Y0080765D01*
X0173152Y0080831D01*
X0173166Y0080898D01*
X0173175Y0080965D01*
X0173181Y0081033D01*
X0173183Y0081101D01*
X0173184Y0081101D02*
X0173182Y0081159D01*
X0173177Y0081217D01*
X0173168Y0081275D01*
X0173155Y0081332D01*
X0173139Y0081387D01*
X0173119Y0081442D01*
X0173096Y0081496D01*
X0173069Y0081548D01*
X0173040Y0081598D01*
X0173007Y0081646D01*
X0172971Y0081692D01*
X0172933Y0081736D01*
X0172892Y0081777D01*
X0172848Y0081815D01*
X0172802Y0081851D01*
X0172754Y0081884D01*
X0172704Y0081913D01*
X0172652Y0081940D01*
X0172598Y0081963D01*
X0172543Y0081983D01*
X0172488Y0081999D01*
X0172431Y0082012D01*
X0172373Y0082021D01*
X0172315Y0082026D01*
X0172257Y0082028D01*
X0172195Y0082026D01*
X0172133Y0082020D01*
X0172072Y0082011D01*
X0172012Y0081997D01*
X0171952Y0081980D01*
X0171894Y0081959D01*
X0171837Y0081935D01*
X0171781Y0081907D01*
X0171728Y0081876D01*
X0171677Y0081841D01*
X0171627Y0081803D01*
X0171581Y0081763D01*
X0171536Y0081719D01*
X0134637Y0080033D02*
X0130934Y0080033D01*
X0130934Y0079005D02*
X0130934Y0081062D01*
X0133814Y0079005D02*
X0134637Y0080033D01*
D13*
X0350000Y0171200D02*
X0352556Y0171200D01*
X0350383Y0173756D01*
X0351150Y0175800D02*
X0351224Y0175798D01*
X0351298Y0175793D01*
X0351372Y0175783D01*
X0351445Y0175770D01*
X0351518Y0175754D01*
X0351589Y0175733D01*
X0351659Y0175709D01*
X0351728Y0175682D01*
X0351796Y0175651D01*
X0351862Y0175617D01*
X0351926Y0175580D01*
X0351988Y0175539D01*
X0352049Y0175495D01*
X0352106Y0175449D01*
X0352162Y0175399D01*
X0352215Y0175347D01*
X0352265Y0175292D01*
X0352312Y0175235D01*
X0352356Y0175175D01*
X0352398Y0175113D01*
X0352436Y0175050D01*
X0352471Y0174984D01*
X0352502Y0174917D01*
X0352530Y0174848D01*
X0352555Y0174778D01*
X0350383Y0173756D02*
X0350336Y0173803D01*
X0350292Y0173853D01*
X0350250Y0173905D01*
X0350211Y0173959D01*
X0350176Y0174015D01*
X0350143Y0174073D01*
X0350113Y0174133D01*
X0350087Y0174194D01*
X0350064Y0174257D01*
X0350045Y0174321D01*
X0350029Y0174385D01*
X0350016Y0174451D01*
X0350007Y0174517D01*
X0350002Y0174583D01*
X0350000Y0174650D01*
X0350002Y0174717D01*
X0350008Y0174784D01*
X0350017Y0174850D01*
X0350031Y0174915D01*
X0350048Y0174980D01*
X0350069Y0175043D01*
X0350094Y0175105D01*
X0350122Y0175166D01*
X0350154Y0175225D01*
X0350189Y0175282D01*
X0350228Y0175337D01*
X0350269Y0175389D01*
X0350314Y0175439D01*
X0350361Y0175486D01*
X0350411Y0175531D01*
X0350463Y0175572D01*
X0350518Y0175611D01*
X0350575Y0175646D01*
X0350634Y0175678D01*
X0350695Y0175706D01*
X0350757Y0175731D01*
X0350820Y0175752D01*
X0350885Y0175769D01*
X0350950Y0175783D01*
X0351016Y0175792D01*
X0351083Y0175798D01*
X0351150Y0175800D01*
X0351278Y0211200D02*
X0351278Y0215800D01*
X0352556Y0214778D01*
X0352556Y0211200D02*
X0350000Y0211200D01*
X0254689Y0354035D02*
X0252134Y0354035D01*
X0254689Y0354035D02*
X0252517Y0356590D01*
X0253284Y0358634D02*
X0253358Y0358632D01*
X0253432Y0358627D01*
X0253506Y0358617D01*
X0253579Y0358604D01*
X0253652Y0358588D01*
X0253723Y0358567D01*
X0253793Y0358543D01*
X0253862Y0358516D01*
X0253930Y0358485D01*
X0253996Y0358451D01*
X0254060Y0358414D01*
X0254122Y0358373D01*
X0254183Y0358329D01*
X0254240Y0358283D01*
X0254296Y0358233D01*
X0254349Y0358181D01*
X0254399Y0358126D01*
X0254446Y0358069D01*
X0254490Y0358009D01*
X0254532Y0357947D01*
X0254570Y0357884D01*
X0254605Y0357818D01*
X0254636Y0357751D01*
X0254664Y0357682D01*
X0254689Y0357612D01*
X0252517Y0356591D02*
X0252470Y0356638D01*
X0252426Y0356688D01*
X0252384Y0356740D01*
X0252345Y0356794D01*
X0252310Y0356850D01*
X0252277Y0356908D01*
X0252247Y0356968D01*
X0252221Y0357029D01*
X0252198Y0357092D01*
X0252179Y0357156D01*
X0252163Y0357220D01*
X0252150Y0357286D01*
X0252141Y0357352D01*
X0252136Y0357418D01*
X0252134Y0357485D01*
X0252136Y0357552D01*
X0252142Y0357619D01*
X0252151Y0357685D01*
X0252165Y0357750D01*
X0252182Y0357815D01*
X0252203Y0357878D01*
X0252228Y0357940D01*
X0252256Y0358001D01*
X0252288Y0358060D01*
X0252323Y0358117D01*
X0252362Y0358172D01*
X0252403Y0358224D01*
X0252448Y0358274D01*
X0252495Y0358321D01*
X0252545Y0358366D01*
X0252597Y0358407D01*
X0252652Y0358446D01*
X0252709Y0358481D01*
X0252768Y0358513D01*
X0252829Y0358541D01*
X0252891Y0358566D01*
X0252954Y0358587D01*
X0253019Y0358604D01*
X0253084Y0358618D01*
X0253150Y0358627D01*
X0253217Y0358633D01*
X0253284Y0358635D01*
X0253412Y0394035D02*
X0253412Y0398635D01*
X0254689Y0397612D01*
X0254689Y0394035D02*
X0252134Y0394035D01*
M02*
