%
M48
M72
T01C0.01181
T02C0.01378
T03C0.03543
T04C0.12598
%
T01
X249300Y296500
X254300Y296500
X254300Y291500
X254300Y286500
X249300Y286500
X249300Y291500
X249300Y221500
X249300Y216500
X249300Y211500
X254300Y211500
X254300Y216500
X254300Y221500
X254300Y146500
X249300Y146500
X249300Y141500
X249300Y136500
X254300Y136500
X254300Y141500
X254300Y71500
X254300Y66500
X254300Y61500
X249300Y61500
X249300Y66500
X249300Y71500
X356800Y99000
X356800Y104000
X356800Y109000
X361800Y109000
X361800Y104000
X361800Y99000
X361800Y244000
X356800Y244000
X356800Y249000
X356800Y254000
X361800Y254000
X361800Y249000
X361800Y319000
X361800Y324000
X361800Y329000
X356800Y329000
X356800Y324000
X356800Y319000
T02
X127750Y61200
X133750Y73200
X133800Y80890
X133800Y90890
X133800Y100890
X133800Y110890
X127750Y109200
X133800Y120890
X133800Y130890
X127750Y133200
X133800Y140890
X133800Y150890
X128050Y150875
X128050Y155875
X128050Y160875
X128050Y165875
X128050Y170875
X133800Y170890
X133800Y160890
X151750Y157200
X169800Y160890
X178050Y154625
X178050Y150875
X178050Y147125
X178050Y143375
X178050Y139625
X175750Y133200
X169800Y130890
X169800Y140890
X169800Y150890
X181500Y160075
X181750Y169200
X188250Y172950
X193750Y169200
X194000Y160075
X212750Y166325
X222750Y167575
X236175Y153375
X249000Y153200
X254000Y153200
X249000Y158825
X270550Y177750
X277750Y178200
X277750Y193200
X263050Y205250
X255875Y202575
X250125Y202575
X255125Y195825
X250125Y193825
X250800Y186750
X258375Y187575
X217125Y200075
X217125Y205075
X201800Y212750
X198050Y216500
X194300Y212750
X190550Y216500
X194300Y220250
X201800Y220250
X210750Y234950
X211500Y239450
X195250Y238200
X196000Y253200
X169300Y261000
X169800Y271102
X169800Y281102
X174300Y280250
X174300Y284000
X174300Y287750
X169800Y291102
X178050Y297750
X178050Y304000
X175550Y307750
X169800Y311102
X175550Y314000
X169800Y321102
X169800Y331102
X175550Y331500
X175550Y336500
X175550Y341500
X175550Y346500
X175550Y351500
X169800Y351102
X169800Y341102
X175550Y360250
X175550Y364000
X175550Y367750
X175550Y371500
X181750Y385200
X175750Y397200
X163750Y397200
X139750Y397200
X187750Y397200
X199750Y397200
X213934Y394835
X223934Y394835
X233934Y394835
X243934Y394835
X253934Y394835
X259750Y397200
X271750Y397200
X283750Y397200
X295750Y397200
X307750Y397200
X319750Y397200
X331750Y397200
X343750Y397200
X355750Y397200
X367750Y397200
X379750Y397200
X391750Y397200
X403750Y397200
X415750Y397200
X427750Y397200
X439750Y397200
X451750Y397200
X463750Y397200
X499750Y373200
X504500Y361200
X493750Y361200
X481750Y361200
X499750Y349200
X504500Y337200
X499750Y327075
X494300Y315250
X490550Y332750
X455550Y329625
X453050Y333375
X444300Y341500
X435333Y332533
X444300Y319000
X445750Y313200
X444300Y301500
X453050Y295875
X455550Y292125
X463750Y301200
X467750Y280950
X462750Y272200
X457750Y265200
X453050Y258375
X455550Y254625
X465250Y260950
X469750Y241200
X481750Y241200
X494300Y239000
X490550Y220250
X481750Y217200
X481500Y204700
X494300Y201500
X490550Y182750
X481750Y169200
X469750Y169200
X457625Y159700
X444300Y154000
X453050Y145875
X455550Y142125
X451750Y133200
X444300Y131500
X457750Y122450
X469125Y122450
X466250Y111075
X455550Y104625
X453050Y108375
X444300Y116500
X434925Y107750
X421750Y121200
X428375Y128200
X418050Y129000
X422375Y144575
X423050Y150250
X415750Y157200
X405625Y159075
X409750Y169200
X397750Y169200
X391500Y173075
X391750Y179950
X379750Y179950
X379625Y173700
X370250Y173700
X370250Y179950
X366800Y189000
X366800Y194000
X361800Y194000
X361800Y199000
X366800Y199000
X358050Y214000
X360550Y218375
X360550Y224000
X360550Y228375
X360550Y233375
X370550Y237750
X386175Y225250
X376800Y214000
X346800Y196500
X336800Y196500
X326800Y196500
X311800Y194000
X301800Y191500
X301800Y184000
X301800Y176500
X304300Y171500
X309300Y171500
X314300Y171500
X331500Y173700
X341500Y173700
X351500Y173700
X370550Y139000
X378050Y135250
X386750Y128700
X361750Y121200
X344300Y115250
X325550Y100875
X316800Y100875
X316800Y107125
X309300Y107125
X309300Y100875
X309300Y113375
X316800Y113375
X313050Y126500
X317742Y139308
X270500Y106700
X275875Y99075
X278675Y86500
X270000Y80325
X255250Y78825
X249000Y78825
X255250Y88825
X253750Y97200
X255000Y102200
X249300Y106500
X252750Y111950
X252750Y118200
X257750Y118200
X257750Y124450
X252750Y124450
X257750Y129450
X263050Y130250
X262750Y105075
X262500Y99700
X236175Y78375
X220250Y91325
X210250Y91325
X206250Y97200
X223750Y105450
X214300Y113375
X214300Y123375
X215550Y132750
X181750Y121200
X176800Y112750
X176800Y109000
X176800Y105250
X176800Y101500
X176800Y97750
X169800Y100890
X169800Y110890
X169800Y120890
X151750Y133200
X169800Y170890
X175750Y205200
X169750Y217200
X157750Y217200
X151750Y205200
X139750Y205200
X133750Y217200
X139750Y229200
X151750Y229200
X157750Y241200
X169750Y241200
X151750Y253200
X139750Y253200
X127750Y253200
X133750Y241200
X133800Y271102
X133800Y281102
X127750Y280950
X133800Y291102
X133800Y301102
X127750Y301200
X133800Y311102
X133800Y321102
X133800Y331102
X126800Y336500
X126800Y341500
X126800Y346500
X126800Y351500
X133800Y351102
X133800Y341102
X127750Y373200
X199750Y373200
X207000Y362450
X213934Y358835
X223934Y358835
X223750Y350450
X235750Y350450
X233934Y358835
X243934Y358835
X247750Y350450
X253934Y358835
X259750Y350450
X271750Y350450
X283750Y350450
X294500Y350450
X289750Y361200
X283750Y373200
X289750Y385200
X307750Y373200
X313750Y361200
X319750Y349200
X331750Y349200
X337750Y361200
X331750Y373200
X337750Y385200
X355750Y373200
X366500Y357200
X360250Y347200
X361750Y337200
X356500Y337200
X344300Y335875
X361750Y313200
X357750Y307200
X363000Y302950
X357750Y297200
X361800Y291500
X360550Y283375
X371500Y283450
X373750Y289200
X385750Y289200
X386175Y279625
X386800Y270250
X378625Y260825
X373750Y265200
X361750Y265200
X361500Y273450
X344300Y261500
X326500Y273450
X339300Y286500
X336500Y290450
X325750Y289200
X324000Y297200
X324000Y304950
X325750Y313200
X300550Y316500
X300550Y321500
X296800Y320250
X296800Y325250
X300550Y326500
X301800Y330250
X296800Y330250
X298050Y334000
X285000Y318950
X279875Y318950
X289750Y313200
X283050Y307750
X269375Y305075
X255250Y301950
X247750Y301200
X253750Y313200
X256000Y321450
X251500Y323200
X266800Y322750
X233050Y304343
X221500Y316950
X230250Y318200
X214000Y315700
X205550Y309000
X202425Y305875
X199300Y302750
X203050Y299000
X206175Y302125
X209300Y305250
X183050Y280250
X178675Y280250
X169800Y301102
X251375Y277075
X256375Y277075
X263050Y280250
X251375Y270825
X251800Y265250
X275125Y264575
X268050Y239000
X267125Y230075
X277125Y233825
X255875Y228825
X252125Y233825
X248875Y237325
X247750Y229200
X236800Y229000
X301800Y206500
X301800Y199000
X309300Y215250
X322375Y222450
X322375Y229950
X324300Y244000
X326800Y247750
X320550Y247750
X318050Y244000
X314300Y247750
X311800Y244000
X308050Y247750
X306000Y272450
X313750Y289200
X270875Y295075
X265750Y361200
X259750Y373200
X265750Y385200
X313750Y385200
X376500Y376325
X381800Y355875
X395250Y348200
X401500Y355950
X410875Y346950
X390250Y336950
X391800Y329000
X373750Y337200
X370550Y312750
X419000Y305950
X419000Y297200
X434539Y295250
X444300Y281500
X439750Y277200
X444300Y266500
X434925Y257125
X423050Y256500
X419500Y255075
X421750Y265200
X421800Y271500
X451125Y279700
X490550Y295250
X494300Y277750
X490522Y257770
X444300Y244000
X444300Y229000
X453050Y220875
X455550Y217125
X444300Y206500
X450250Y205950
X440250Y200950
X444300Y191500
X453050Y183375
X455550Y179625
X444300Y169000
X434925Y182125
X421750Y193200
X411000Y192575
X415750Y181200
X403750Y181200
X417625Y205200
X427750Y205200
X423050Y216500
X434925Y219625
X417000Y229825
X467750Y204700
X464000Y189700
X494300Y164000
X490550Y145250
X481375Y135950
X494300Y126500
X499750Y85200
X494300Y87750
X487750Y83950
X475750Y83950
X481750Y73200
X499750Y61200
X503250Y73200
X481750Y97200
X468500Y95950
X457750Y97200
X444300Y94000
X439750Y85200
X427750Y85200
X423050Y82750
X415750Y85200
X409125Y75075
X403750Y85200
X391750Y85200
X385750Y73200
X380550Y65250
X373750Y69450
X367750Y61200
X381000Y59950
X391750Y61200
X403750Y61200
X415750Y61200
X427750Y61200
X439750Y61200
X451750Y61200
X463750Y61200
X457750Y49200
X451750Y37200
X445750Y25200
X433750Y25200
X421750Y25200
X409750Y25200
X397750Y25200
X385750Y25200
X373750Y25200
X361750Y25200
X349750Y25200
X337750Y25200
X325750Y25200
X313750Y25200
X301750Y25200
X289750Y25200
X277750Y25200
X265750Y25200
X253750Y25200
X250550Y31500
X250250Y37575
X256500Y37575
X256500Y45075
X250250Y45075
X250250Y52575
X256500Y52575
X263050Y55250
X274250Y37200
X283750Y37200
X289750Y49200
X306750Y47950
X313750Y49200
X316000Y57450
X307750Y61200
X315550Y65250
X323625Y76200
X323625Y84950
X335250Y68200
X331750Y61200
X343750Y53700
X337750Y49200
X331750Y37200
X307750Y37200
X355750Y37200
X361750Y49200
X355750Y61200
X356800Y72750
X357750Y81325
X365250Y85075
X364000Y90075
X357750Y90075
X370550Y92750
X365250Y77575
X397750Y73200
X385750Y49200
X379750Y37200
X403750Y37200
X409750Y49200
X427750Y37200
X433750Y49200
X433750Y73200
X452500Y84450
X463750Y83950
X457750Y73200
X490550Y107750
X465125Y148450
X434925Y145250
X485250Y30950
X469750Y25200
X457750Y25200
X229750Y25200
X217750Y25200
X205750Y25200
X193750Y25200
X187750Y30950
X181750Y25200
X169750Y25200
X157750Y25200
X163750Y37200
X175750Y37200
X169750Y49200
X181750Y49200
X175750Y61200
X163750Y61200
X145750Y73200
X157750Y73200
X169750Y73200
X169800Y80890
X169800Y90890
X151750Y85200
X189925Y65250
X195550Y64000
X199300Y67750
X194300Y69000
X198050Y72750
X217750Y49200
X217750Y40075
X457750Y362450
X463750Y371325
X487750Y397200
X205750Y385200
T03
X216800Y310265
X216800Y296485
X216800Y235265
X216800Y221485
X216800Y160265
X216800Y146485
X216800Y85265
X216800Y71485
X299300Y55890
X299300Y42110
X324300Y108985
X324300Y122765
X324300Y253985
X324300Y267765
X324300Y328985
X324300Y342765
X405550Y337110
X405550Y350890
T04
X148296Y50496
X479005Y50496
X479005Y381205
X148296Y381205
M30
