G04 EAGLE Gerber RS-274X export*
G75*
%MOMM*%
%FSLAX34Y34*%
%LPD*%
%IN*%
%IPPOS*%
%AMOC8*
5,1,8,0,0,1.08239X$1,22.5*%
G01*
%ADD10C,0.254000*%


D10*
X0Y100000D02*
X381Y91284D01*
X1519Y82635D01*
X3407Y74118D01*
X6031Y65798D01*
X9369Y57738D01*
X13397Y50000D01*
X18085Y42642D01*
X23396Y35721D01*
X29289Y29289D01*
X35721Y23396D01*
X42642Y18085D01*
X50000Y13397D01*
X57738Y9369D01*
X65798Y6031D01*
X74118Y3407D01*
X82635Y1519D01*
X91284Y381D01*
X100000Y0D01*
X900000Y0D01*
X908716Y381D01*
X917365Y1519D01*
X925882Y3407D01*
X934202Y6031D01*
X942262Y9369D01*
X950000Y13397D01*
X957358Y18085D01*
X964279Y23396D01*
X970711Y29289D01*
X976604Y35721D01*
X981915Y42642D01*
X986603Y50000D01*
X990631Y57738D01*
X993969Y65798D01*
X996593Y74118D01*
X998481Y82635D01*
X999619Y91284D01*
X1000000Y100000D01*
X1000000Y200000D01*
X980000Y240000D01*
X980000Y760000D01*
X1000000Y800000D01*
X1000000Y900000D01*
X999619Y908716D01*
X998481Y917365D01*
X996593Y925882D01*
X993969Y934202D01*
X990631Y942262D01*
X986603Y950000D01*
X981915Y957358D01*
X976604Y964279D01*
X970711Y970711D01*
X964279Y976604D01*
X957358Y981915D01*
X950000Y986603D01*
X942262Y990631D01*
X934202Y993969D01*
X925882Y996593D01*
X917365Y998481D01*
X908716Y999619D01*
X900000Y1000000D01*
X100000Y1000000D01*
X91284Y999619D01*
X82635Y998481D01*
X74118Y996593D01*
X65798Y993969D01*
X57738Y990631D01*
X50000Y986603D01*
X42642Y981915D01*
X35721Y976604D01*
X29289Y970711D01*
X23396Y964279D01*
X18085Y957358D01*
X13397Y950000D01*
X9369Y942262D01*
X6031Y934202D01*
X3407Y925882D01*
X1519Y917365D01*
X381Y908716D01*
X0Y900000D01*
X0Y100000D01*
X96000Y919476D02*
X95932Y918431D01*
X95795Y917392D01*
X95590Y916365D01*
X95319Y915353D01*
X94983Y914361D01*
X94582Y913393D01*
X94118Y912454D01*
X93595Y911546D01*
X93013Y910675D01*
X92375Y909844D01*
X91684Y909057D01*
X90943Y908316D01*
X90156Y907625D01*
X89325Y906988D01*
X88454Y906406D01*
X87546Y905882D01*
X86607Y905418D01*
X85639Y905017D01*
X84647Y904681D01*
X83635Y904410D01*
X82608Y904205D01*
X81569Y904069D01*
X80524Y904000D01*
X79476Y904000D01*
X78431Y904069D01*
X77392Y904205D01*
X76365Y904410D01*
X75353Y904681D01*
X74361Y905017D01*
X73393Y905418D01*
X72454Y905882D01*
X71546Y906406D01*
X70675Y906988D01*
X69844Y907625D01*
X69057Y908316D01*
X68316Y909057D01*
X67625Y909844D01*
X66988Y910675D01*
X66406Y911546D01*
X65882Y912454D01*
X65418Y913393D01*
X65017Y914361D01*
X64681Y915353D01*
X64410Y916365D01*
X64205Y917392D01*
X64069Y918431D01*
X64000Y919476D01*
X64000Y920524D01*
X64069Y921569D01*
X64205Y922608D01*
X64410Y923635D01*
X64681Y924647D01*
X65017Y925639D01*
X65418Y926607D01*
X65882Y927546D01*
X66406Y928454D01*
X66988Y929325D01*
X67625Y930156D01*
X68316Y930943D01*
X69057Y931684D01*
X69844Y932375D01*
X70675Y933013D01*
X71546Y933595D01*
X72454Y934118D01*
X73393Y934582D01*
X74361Y934983D01*
X75353Y935319D01*
X76365Y935590D01*
X77392Y935795D01*
X78431Y935932D01*
X79476Y936000D01*
X80524Y936000D01*
X81569Y935932D01*
X82608Y935795D01*
X83635Y935590D01*
X84647Y935319D01*
X85639Y934983D01*
X86607Y934582D01*
X87546Y934118D01*
X88454Y933595D01*
X89325Y933013D01*
X90156Y932375D01*
X90943Y931684D01*
X91684Y930943D01*
X92375Y930156D01*
X93013Y929325D01*
X93595Y928454D01*
X94118Y927546D01*
X94582Y926607D01*
X94983Y925639D01*
X95319Y924647D01*
X95590Y923635D01*
X95795Y922608D01*
X95932Y921569D01*
X96000Y920524D01*
X96000Y919476D01*
X96000Y79476D02*
X95932Y78431D01*
X95795Y77392D01*
X95590Y76365D01*
X95319Y75353D01*
X94983Y74361D01*
X94582Y73393D01*
X94118Y72454D01*
X93595Y71546D01*
X93013Y70675D01*
X92375Y69844D01*
X91684Y69057D01*
X90943Y68316D01*
X90156Y67625D01*
X89325Y66988D01*
X88454Y66406D01*
X87546Y65882D01*
X86607Y65418D01*
X85639Y65017D01*
X84647Y64681D01*
X83635Y64410D01*
X82608Y64205D01*
X81569Y64069D01*
X80524Y64000D01*
X79476Y64000D01*
X78431Y64069D01*
X77392Y64205D01*
X76365Y64410D01*
X75353Y64681D01*
X74361Y65017D01*
X73393Y65418D01*
X72454Y65882D01*
X71546Y66406D01*
X70675Y66988D01*
X69844Y67625D01*
X69057Y68316D01*
X68316Y69057D01*
X67625Y69844D01*
X66988Y70675D01*
X66406Y71546D01*
X65882Y72454D01*
X65418Y73393D01*
X65017Y74361D01*
X64681Y75353D01*
X64410Y76365D01*
X64205Y77392D01*
X64069Y78431D01*
X64000Y79476D01*
X64000Y80524D01*
X64069Y81569D01*
X64205Y82608D01*
X64410Y83635D01*
X64681Y84647D01*
X65017Y85639D01*
X65418Y86607D01*
X65882Y87546D01*
X66406Y88454D01*
X66988Y89325D01*
X67625Y90156D01*
X68316Y90943D01*
X69057Y91684D01*
X69844Y92375D01*
X70675Y93013D01*
X71546Y93595D01*
X72454Y94118D01*
X73393Y94582D01*
X74361Y94983D01*
X75353Y95319D01*
X76365Y95590D01*
X77392Y95795D01*
X78431Y95932D01*
X79476Y96000D01*
X80524Y96000D01*
X81569Y95932D01*
X82608Y95795D01*
X83635Y95590D01*
X84647Y95319D01*
X85639Y94983D01*
X86607Y94582D01*
X87546Y94118D01*
X88454Y93595D01*
X89325Y93013D01*
X90156Y92375D01*
X90943Y91684D01*
X91684Y90943D01*
X92375Y90156D01*
X93013Y89325D01*
X93595Y88454D01*
X94118Y87546D01*
X94582Y86607D01*
X94983Y85639D01*
X95319Y84647D01*
X95590Y83635D01*
X95795Y82608D01*
X95932Y81569D01*
X96000Y80524D01*
X96000Y79476D01*
X936000Y79476D02*
X935932Y78431D01*
X935795Y77392D01*
X935590Y76365D01*
X935319Y75353D01*
X934983Y74361D01*
X934582Y73393D01*
X934118Y72454D01*
X933595Y71546D01*
X933013Y70675D01*
X932375Y69844D01*
X931684Y69057D01*
X930943Y68316D01*
X930156Y67625D01*
X929325Y66988D01*
X928454Y66406D01*
X927546Y65882D01*
X926607Y65418D01*
X925639Y65017D01*
X924647Y64681D01*
X923635Y64410D01*
X922608Y64205D01*
X921569Y64069D01*
X920524Y64000D01*
X919476Y64000D01*
X918431Y64069D01*
X917392Y64205D01*
X916365Y64410D01*
X915353Y64681D01*
X914361Y65017D01*
X913393Y65418D01*
X912454Y65882D01*
X911546Y66406D01*
X910675Y66988D01*
X909844Y67625D01*
X909057Y68316D01*
X908316Y69057D01*
X907625Y69844D01*
X906988Y70675D01*
X906406Y71546D01*
X905882Y72454D01*
X905418Y73393D01*
X905017Y74361D01*
X904681Y75353D01*
X904410Y76365D01*
X904205Y77392D01*
X904069Y78431D01*
X904000Y79476D01*
X904000Y80524D01*
X904069Y81569D01*
X904205Y82608D01*
X904410Y83635D01*
X904681Y84647D01*
X905017Y85639D01*
X905418Y86607D01*
X905882Y87546D01*
X906406Y88454D01*
X906988Y89325D01*
X907625Y90156D01*
X908316Y90943D01*
X909057Y91684D01*
X909844Y92375D01*
X910675Y93013D01*
X911546Y93595D01*
X912454Y94118D01*
X913393Y94582D01*
X914361Y94983D01*
X915353Y95319D01*
X916365Y95590D01*
X917392Y95795D01*
X918431Y95932D01*
X919476Y96000D01*
X920524Y96000D01*
X921569Y95932D01*
X922608Y95795D01*
X923635Y95590D01*
X924647Y95319D01*
X925639Y94983D01*
X926607Y94582D01*
X927546Y94118D01*
X928454Y93595D01*
X929325Y93013D01*
X930156Y92375D01*
X930943Y91684D01*
X931684Y90943D01*
X932375Y90156D01*
X933013Y89325D01*
X933595Y88454D01*
X934118Y87546D01*
X934582Y86607D01*
X934983Y85639D01*
X935319Y84647D01*
X935590Y83635D01*
X935795Y82608D01*
X935932Y81569D01*
X936000Y80524D01*
X936000Y79476D01*
X936000Y919476D02*
X935932Y918431D01*
X935795Y917392D01*
X935590Y916365D01*
X935319Y915353D01*
X934983Y914361D01*
X934582Y913393D01*
X934118Y912454D01*
X933595Y911546D01*
X933013Y910675D01*
X932375Y909844D01*
X931684Y909057D01*
X930943Y908316D01*
X930156Y907625D01*
X929325Y906988D01*
X928454Y906406D01*
X927546Y905882D01*
X926607Y905418D01*
X925639Y905017D01*
X924647Y904681D01*
X923635Y904410D01*
X922608Y904205D01*
X921569Y904069D01*
X920524Y904000D01*
X919476Y904000D01*
X918431Y904069D01*
X917392Y904205D01*
X916365Y904410D01*
X915353Y904681D01*
X914361Y905017D01*
X913393Y905418D01*
X912454Y905882D01*
X911546Y906406D01*
X910675Y906988D01*
X909844Y907625D01*
X909057Y908316D01*
X908316Y909057D01*
X907625Y909844D01*
X906988Y910675D01*
X906406Y911546D01*
X905882Y912454D01*
X905418Y913393D01*
X905017Y914361D01*
X904681Y915353D01*
X904410Y916365D01*
X904205Y917392D01*
X904069Y918431D01*
X904000Y919476D01*
X904000Y920524D01*
X904069Y921569D01*
X904205Y922608D01*
X904410Y923635D01*
X904681Y924647D01*
X905017Y925639D01*
X905418Y926607D01*
X905882Y927546D01*
X906406Y928454D01*
X906988Y929325D01*
X907625Y930156D01*
X908316Y930943D01*
X909057Y931684D01*
X909844Y932375D01*
X910675Y933013D01*
X911546Y933595D01*
X912454Y934118D01*
X913393Y934582D01*
X914361Y934983D01*
X915353Y935319D01*
X916365Y935590D01*
X917392Y935795D01*
X918431Y935932D01*
X919476Y936000D01*
X920524Y936000D01*
X921569Y935932D01*
X922608Y935795D01*
X923635Y935590D01*
X924647Y935319D01*
X925639Y934983D01*
X926607Y934582D01*
X927546Y934118D01*
X928454Y933595D01*
X929325Y933013D01*
X930156Y932375D01*
X930943Y931684D01*
X931684Y930943D01*
X932375Y930156D01*
X933013Y929325D01*
X933595Y928454D01*
X934118Y927546D01*
X934582Y926607D01*
X934983Y925639D01*
X935319Y924647D01*
X935590Y923635D01*
X935795Y922608D01*
X935932Y921569D01*
X936000Y920524D01*
X936000Y919476D01*
M02*
