G04 EAGLE Gerber RS-274X export*
G75*
%MOMM*%
%FSLAX34Y34*%
%LPD*%
%INSilkscreen Bottom*%
%IPPOS*%
%AMOC8*
5,1,8,0,0,1.08239X$1,22.5*%
G01*
%ADD10R,0.050800X0.152400*%
%ADD11R,0.050800X0.406400*%
%ADD12R,0.050800X0.508000*%
%ADD13R,0.050800X0.660400*%
%ADD14R,0.050800X0.355600*%
%ADD15R,0.050800X0.254000*%
%ADD16R,0.050800X1.371600*%
%ADD17R,0.050800X0.101600*%
%ADD18R,0.050800X0.203200*%
%ADD19R,0.050800X2.133600*%
%ADD20R,0.050800X0.863600*%
%ADD21R,0.050800X0.762000*%
%ADD22R,0.050800X0.558800*%
%ADD23R,0.050800X0.457200*%
%ADD24R,0.050800X0.609600*%
%ADD25R,0.050800X0.304800*%
%ADD26R,0.050800X0.050800*%
%ADD27R,0.050800X0.711200*%
%ADD28R,0.050800X0.812800*%
%ADD29R,0.050800X1.016000*%
%ADD30R,0.050800X0.965200*%
%ADD31R,0.050800X1.117600*%
%ADD32R,0.050800X1.270000*%
%ADD33R,0.050800X1.219200*%
%ADD34R,0.050800X1.168400*%
%ADD35R,0.050800X1.320800*%
%ADD36R,0.050800X1.066800*%
%ADD37R,0.050800X1.473200*%
%ADD38R,0.050800X1.778000*%
%ADD39R,0.050800X2.997200*%
%ADD40R,0.050800X2.438400*%
%ADD41R,0.050800X1.930400*%
%ADD42R,0.050800X1.422400*%
%ADD43R,0.050800X1.727200*%
%ADD44R,0.050800X1.879600*%
%ADD45R,0.050800X5.486400*%
%ADD46R,0.050800X4.521200*%
%ADD47R,0.050800X3.200400*%
%ADD48R,0.050800X3.759200*%
%ADD49R,0.050800X3.048000*%
%ADD50R,0.050800X2.082800*%
%ADD51R,0.050800X0.914400*%
%ADD52C,0.203200*%
%ADD53R,0.025400X0.050800*%
%ADD54R,0.025400X0.076200*%
%ADD55R,0.025400X0.101600*%
%ADD56R,0.025400X0.127000*%
%ADD57R,0.025400X0.177800*%
%ADD58R,0.025400X0.203200*%
%ADD59R,0.025400X0.228600*%
%ADD60R,0.025400X0.254000*%
%ADD61R,0.025400X0.279400*%
%ADD62R,0.025400X0.304800*%
%ADD63R,0.025400X0.330200*%
%ADD64R,0.025400X0.355600*%
%ADD65R,0.025400X1.346200*%
%ADD66R,0.025400X0.381000*%
%ADD67R,0.025400X0.406400*%
%ADD68R,0.025400X0.431800*%
%ADD69R,0.025400X0.457200*%
%ADD70R,0.025400X0.482600*%
%ADD71R,0.025400X0.508000*%
%ADD72R,0.025400X0.533400*%
%ADD73R,0.025400X0.558800*%
%ADD74R,0.025400X0.635000*%
%ADD75R,0.025400X0.660400*%
%ADD76R,0.025400X0.711200*%
%ADD77R,0.025400X0.685800*%
%ADD78R,0.025400X0.736600*%
%ADD79R,0.025400X0.787400*%
%ADD80R,0.025400X0.762000*%
%ADD81R,0.025400X0.812800*%
%ADD82R,0.025400X0.889000*%
%ADD83R,0.025400X0.863600*%
%ADD84R,0.025400X0.914400*%
%ADD85R,0.025400X0.939800*%
%ADD86R,0.025400X2.286000*%
%ADD87R,0.025400X3.251200*%
%ADD88R,0.025400X3.225800*%
%ADD89R,0.025400X3.200400*%
%ADD90R,0.025400X3.175000*%
%ADD91R,0.025400X3.149600*%
%ADD92R,0.025400X3.124200*%
%ADD93R,0.025400X3.098800*%
%ADD94R,0.025400X3.073400*%
%ADD95R,0.025400X3.048000*%
%ADD96R,0.025400X0.025400*%
%ADD97R,0.025400X2.997200*%
%ADD98R,0.025400X2.971800*%
%ADD99R,0.025400X2.946400*%
%ADD100R,0.025400X2.895600*%
%ADD101R,0.025400X2.870200*%
%ADD102R,0.025400X2.844800*%
%ADD103R,0.025400X2.819400*%
%ADD104R,0.025400X2.794000*%
%ADD105R,0.025400X2.768600*%
%ADD106R,0.025400X2.743200*%
%ADD107R,0.025400X2.717800*%
%ADD108R,0.025400X2.667000*%
%ADD109R,0.025400X2.641600*%
%ADD110R,0.025400X2.616200*%
%ADD111R,0.025400X2.590800*%
%ADD112R,0.025400X2.565400*%
%ADD113R,0.025400X2.540000*%
%ADD114R,0.025400X2.489200*%
%ADD115R,0.025400X2.438400*%
%ADD116R,0.025400X2.413000*%
%ADD117R,0.025400X2.387600*%
%ADD118R,0.025400X2.336800*%
%ADD119R,0.025400X0.152400*%
%ADD120R,0.025400X2.311400*%
%ADD121R,0.025400X2.260600*%
%ADD122R,0.025400X2.235200*%
%ADD123R,0.025400X2.209800*%
%ADD124R,0.025400X2.159000*%
%ADD125R,0.025400X2.133600*%
%ADD126R,0.025400X2.108200*%
%ADD127R,0.025400X2.082800*%
%ADD128R,0.025400X0.609600*%
%ADD129R,0.025400X2.032000*%
%ADD130R,0.025400X2.006600*%
%ADD131R,0.025400X0.584200*%
%ADD132R,0.025400X1.955800*%
%ADD133R,0.025400X1.930400*%
%ADD134R,0.025400X1.879600*%
%ADD135R,0.025400X1.854200*%
%ADD136R,0.025400X1.828800*%
%ADD137R,0.025400X1.752600*%
%ADD138R,0.025400X1.701800*%
%ADD139R,0.025400X1.676400*%
%ADD140R,0.025400X1.651000*%
%ADD141R,0.025400X1.600200*%
%ADD142R,0.025400X1.549400*%
%ADD143R,0.025400X1.524000*%
%ADD144R,0.025400X1.498600*%
%ADD145R,0.025400X0.990600*%
%ADD146R,0.025400X1.244600*%
%ADD147R,0.025400X1.270000*%
%ADD148R,0.025400X1.447800*%
%ADD149R,0.025400X1.422400*%
%ADD150R,0.025400X1.397000*%
%ADD151R,0.025400X1.473200*%
%ADD152R,0.025400X1.574800*%
%ADD153R,0.025400X0.838200*%
%ADD154R,0.025400X1.625600*%
%ADD155R,0.025400X1.727200*%
%ADD156R,0.025400X1.168400*%
%ADD157R,0.025400X1.193800*%
%ADD158R,0.025400X1.371600*%
%ADD159R,0.025400X1.320800*%
%ADD160R,0.025400X1.143000*%
%ADD161R,0.025400X1.016000*%
%ADD162R,0.025400X1.092200*%
%ADD163R,0.025400X1.778000*%
%ADD164R,0.025400X0.965200*%
%ADD165R,0.025400X3.276600*%
%ADD166R,0.025400X1.295400*%
%ADD167R,0.025400X1.219200*%
%ADD168R,0.025400X1.066800*%
%ADD169R,0.025400X1.803400*%
%ADD170R,0.025400X1.905000*%
%ADD171R,0.025400X1.041400*%
%ADD172R,0.025400X1.117600*%
%ADD173R,0.025400X2.057400*%
%ADD174R,0.025400X1.981200*%
%ADD175R,0.025400X2.463800*%
%ADD176R,0.025400X2.692400*%
%ADD177R,0.025400X6.451600*%
%ADD178R,0.025400X6.096000*%
%ADD179R,0.025400X5.892800*%
%ADD180R,0.025400X5.511800*%
%ADD181R,0.025400X4.851400*%
%ADD182R,0.025400X4.394200*%
%ADD183R,0.025400X3.835400*%
%ADD184R,0.025400X3.530600*%
%ADD185C,0.076200*%
%ADD186C,0.101600*%


D10*
X917829Y770636D03*
D11*
X917321Y771398D03*
D12*
X916813Y772414D03*
D13*
X916305Y773684D03*
D14*
X915797Y776224D03*
D15*
X915797Y772160D03*
D16*
X915797Y759968D03*
D17*
X915289Y783590D03*
D15*
X915289Y777748D03*
D18*
X915289Y772922D03*
D19*
X915289Y759206D03*
D10*
X914781Y783844D03*
D15*
X914781Y778764D03*
D20*
X914781Y770128D03*
D21*
X914781Y750316D03*
D18*
X914273Y784098D03*
X914273Y779526D03*
D22*
X914273Y772160D03*
D12*
X914273Y747014D03*
D15*
X913765Y784352D03*
D10*
X913765Y780288D03*
D23*
X913765Y773684D03*
D24*
X913765Y742950D03*
D25*
X913257Y784606D03*
D10*
X913257Y780796D03*
D11*
X913257Y774954D03*
D22*
X913257Y740156D03*
D25*
X912749Y784606D03*
D10*
X912749Y781304D03*
D14*
X912749Y775716D03*
X912749Y738124D03*
D25*
X912241Y784606D03*
D10*
X912241Y781812D03*
D11*
X912241Y775970D03*
D14*
X912241Y736600D03*
D25*
X911733Y785114D03*
D10*
X911733Y782320D03*
D14*
X911733Y776732D03*
D11*
X911733Y734822D03*
D10*
X911225Y786384D03*
D17*
X911225Y784606D03*
D10*
X911225Y782828D03*
D15*
X911225Y777240D03*
D25*
X911225Y733298D03*
D17*
X910717Y786638D03*
X910717Y784606D03*
X910717Y783082D03*
D10*
X910717Y777748D03*
D18*
X910717Y731774D03*
D10*
X910209Y786892D03*
D15*
X910209Y783844D03*
D18*
X910209Y730250D03*
D10*
X909701Y787400D03*
D18*
X909701Y784098D03*
X909701Y729234D03*
D17*
X909193Y787654D03*
D18*
X909193Y784098D03*
X909193Y728218D03*
D10*
X908685Y787908D03*
D18*
X908685Y784606D03*
D10*
X908685Y726948D03*
D17*
X908177Y788162D03*
D18*
X908177Y784606D03*
D17*
X908177Y726186D03*
X907669Y788162D03*
D10*
X907669Y784860D03*
D17*
X907669Y725170D03*
X907161Y788670D03*
D10*
X907161Y784860D03*
X907161Y723900D03*
D17*
X906653Y788670D03*
D15*
X906653Y784860D03*
D10*
X906653Y723392D03*
D17*
X906145Y788670D03*
D18*
X906145Y785114D03*
D26*
X906145Y722376D03*
D17*
X905637Y788670D03*
D18*
X905637Y785114D03*
D17*
X905637Y722122D03*
D10*
X905129Y788924D03*
D18*
X905129Y785114D03*
D26*
X905129Y721360D03*
D17*
X904621Y789178D03*
D18*
X904621Y785114D03*
D26*
X904621Y720852D03*
D17*
X904113Y789178D03*
D10*
X904113Y785368D03*
D17*
X904113Y720090D03*
X903605Y791718D03*
X903605Y789178D03*
D10*
X903605Y785368D03*
D17*
X903605Y719582D03*
D10*
X903097Y791464D03*
D17*
X903097Y789178D03*
D10*
X903097Y785368D03*
X903097Y719328D03*
X902589Y791464D03*
X902589Y788924D03*
X902589Y718820D03*
D18*
X902081Y791210D03*
D10*
X902081Y788924D03*
X902081Y718312D03*
D11*
X901573Y790194D03*
D10*
X901573Y717804D03*
D17*
X901065Y794258D03*
D11*
X901065Y790194D03*
D10*
X901065Y717296D03*
D18*
X900557Y793750D03*
D11*
X900557Y790194D03*
D10*
X900557Y716788D03*
D24*
X900049Y791210D03*
D10*
X900049Y716280D03*
D22*
X899541Y790448D03*
D10*
X899541Y715772D03*
D12*
X899033Y789686D03*
D17*
X899033Y715518D03*
D12*
X898525Y789178D03*
D10*
X898525Y715264D03*
D23*
X898017Y788924D03*
D10*
X898017Y714756D03*
D12*
X897509Y788670D03*
D23*
X897509Y725932D03*
D10*
X897509Y714248D03*
X897001Y790448D03*
D14*
X897001Y786892D03*
D13*
X897001Y726440D03*
D17*
X897001Y713994D03*
X896493Y790194D03*
D23*
X896493Y785876D03*
D17*
X896493Y767334D03*
D15*
X896493Y729488D03*
D10*
X896493Y723392D03*
X896493Y713740D03*
D17*
X895985Y790194D03*
D12*
X895985Y785114D03*
D10*
X895985Y767080D03*
D18*
X895985Y730250D03*
X895985Y722630D03*
D10*
X895985Y713232D03*
D17*
X895477Y790194D03*
D22*
X895477Y784352D03*
D10*
X895477Y766572D03*
X895477Y731012D03*
X895477Y721868D03*
X895477Y712724D03*
D17*
X894969Y790194D03*
D26*
X894969Y785876D03*
D23*
X894969Y782320D03*
D18*
X894969Y766318D03*
D10*
X894969Y731520D03*
X894969Y721360D03*
D17*
X894969Y712470D03*
D10*
X894461Y789940D03*
D23*
X894461Y781304D03*
D18*
X894461Y765810D03*
D17*
X894461Y731774D03*
X894461Y721106D03*
D10*
X894461Y712216D03*
D17*
X893953Y789686D03*
D23*
X893953Y780288D03*
D15*
X893953Y765556D03*
D17*
X893953Y731774D03*
X893953Y720598D03*
D10*
X893953Y711708D03*
D17*
X893445Y789686D03*
D12*
X893445Y779018D03*
D25*
X893445Y764794D03*
D17*
X893445Y731774D03*
D10*
X893445Y720344D03*
D17*
X893445Y711454D03*
X892937Y789686D03*
D12*
X892937Y778002D03*
D25*
X892937Y764286D03*
D17*
X892937Y731774D03*
X892937Y720090D03*
D10*
X892937Y711200D03*
D17*
X892429Y789178D03*
D22*
X892429Y776732D03*
D14*
X892429Y763524D03*
D17*
X892429Y731774D03*
X892429Y720090D03*
X892429Y710946D03*
X891921Y801370D03*
X891921Y789178D03*
D12*
X891921Y775462D03*
D14*
X891921Y763016D03*
D17*
X891921Y731774D03*
D10*
X891921Y719836D03*
X891921Y710692D03*
D15*
X891413Y800608D03*
D17*
X891413Y789178D03*
D22*
X891413Y774192D03*
D14*
X891413Y762000D03*
D10*
X891413Y732028D03*
D17*
X891413Y723646D03*
X891413Y719582D03*
X891413Y710438D03*
D25*
X890905Y799846D03*
D17*
X890905Y788670D03*
D24*
X890905Y772922D03*
D11*
X890905Y761238D03*
D25*
X890905Y732790D03*
D10*
X890905Y723392D03*
D17*
X890905Y719582D03*
X890905Y709930D03*
D14*
X890397Y798576D03*
D17*
X890397Y788670D03*
D22*
X890397Y771652D03*
D11*
X890397Y760222D03*
D23*
X890397Y733552D03*
D10*
X890397Y723392D03*
D17*
X890397Y719582D03*
D10*
X890397Y709676D03*
D11*
X889889Y797306D03*
D10*
X889889Y788416D03*
D22*
X889889Y770128D03*
D23*
X889889Y758952D03*
X889889Y734060D03*
D10*
X889889Y723392D03*
D17*
X889889Y719582D03*
X889889Y709422D03*
D23*
X889381Y796036D03*
D17*
X889381Y788162D03*
D24*
X889381Y768858D03*
D23*
X889381Y757936D03*
D12*
X889381Y734314D03*
D10*
X889381Y723392D03*
D17*
X889381Y719582D03*
D10*
X889381Y709168D03*
D12*
X888873Y794766D03*
D10*
X888873Y787908D03*
D24*
X888873Y767334D03*
D12*
X888873Y756666D03*
D15*
X888873Y736092D03*
D17*
X888873Y732282D03*
D10*
X888873Y723392D03*
D17*
X888873Y719582D03*
X888873Y708914D03*
D22*
X888365Y793496D03*
D17*
X888365Y787654D03*
D24*
X888365Y765810D03*
D12*
X888365Y755650D03*
D17*
X888365Y736854D03*
X888365Y732282D03*
D10*
X888365Y723392D03*
D17*
X888365Y719582D03*
D10*
X888365Y708660D03*
D24*
X887857Y791718D03*
D10*
X887857Y787400D03*
D24*
X887857Y764286D03*
D12*
X887857Y754126D03*
D17*
X887857Y732282D03*
D10*
X887857Y723392D03*
D17*
X887857Y719582D03*
X887857Y708406D03*
D27*
X887349Y790194D03*
D13*
X887349Y762508D03*
D22*
X887349Y752856D03*
D17*
X887349Y732282D03*
D10*
X887349Y723392D03*
D17*
X887349Y719582D03*
X887349Y708406D03*
D26*
X887349Y704596D03*
D27*
X886841Y788670D03*
D13*
X886841Y760984D03*
D24*
X886841Y751078D03*
D17*
X886841Y732282D03*
D18*
X886841Y723646D03*
D10*
X886841Y719328D03*
X886841Y708152D03*
X886841Y704596D03*
D21*
X886333Y786892D03*
D27*
X886333Y759206D03*
D24*
X886333Y749554D03*
D17*
X886333Y732282D03*
D18*
X886333Y723646D03*
X886333Y719074D03*
D17*
X886333Y707898D03*
D18*
X886333Y704342D03*
D28*
X885825Y785114D03*
D27*
X885825Y757682D03*
D24*
X885825Y747522D03*
D10*
X885825Y732536D03*
D18*
X885825Y723646D03*
X885825Y719074D03*
D10*
X885825Y707644D03*
D18*
X885825Y704342D03*
D20*
X885317Y782828D03*
D27*
X885317Y755650D03*
D24*
X885317Y745998D03*
D10*
X885317Y732536D03*
D18*
X885317Y723646D03*
D15*
X885317Y718820D03*
D17*
X885317Y707390D03*
D15*
X885317Y704088D03*
D29*
X884809Y781050D03*
D27*
X884809Y753618D03*
D12*
X884809Y744474D03*
D17*
X884809Y732790D03*
D18*
X884809Y723646D03*
D15*
X884809Y718820D03*
D17*
X884809Y707390D03*
D25*
X884809Y704342D03*
D10*
X884301Y785368D03*
D30*
X884301Y778256D03*
D28*
X884301Y751586D03*
D12*
X884301Y742950D03*
D17*
X884301Y732790D03*
D18*
X884301Y723646D03*
D25*
X884301Y718566D03*
D10*
X884301Y707136D03*
D14*
X884301Y704088D03*
D10*
X883793Y784860D03*
D29*
X883793Y775970D03*
D28*
X883793Y749046D03*
D12*
X883793Y741934D03*
D17*
X883793Y732790D03*
D18*
X883793Y723646D03*
D25*
X883793Y718566D03*
D17*
X883793Y706882D03*
D15*
X883793Y704088D03*
D10*
X883285Y784352D03*
D31*
X883285Y772922D03*
D32*
X883285Y744728D03*
D22*
X883285Y730504D03*
D10*
X883285Y723900D03*
D17*
X883285Y719582D03*
D10*
X883285Y717804D03*
D17*
X883285Y706882D03*
X883285Y704850D03*
X883285Y703326D03*
D10*
X882777Y783844D03*
D33*
X882777Y769874D03*
D34*
X882777Y743204D03*
D21*
X882777Y730504D03*
D18*
X882777Y724154D03*
D17*
X882777Y719582D03*
X882777Y717550D03*
D10*
X882777Y706628D03*
D17*
X882777Y704850D03*
D10*
X882777Y703072D03*
X882269Y783336D03*
D35*
X882269Y766318D03*
D36*
X882269Y741172D03*
D10*
X882269Y734060D03*
D15*
X882269Y726948D03*
D18*
X882269Y724154D03*
D17*
X882269Y719582D03*
D10*
X882269Y717296D03*
D15*
X882269Y705612D03*
D17*
X882269Y702818D03*
D10*
X881761Y782828D03*
D37*
X881761Y762508D03*
D34*
X881761Y738124D03*
D11*
X881761Y725170D03*
D17*
X881761Y719582D03*
D10*
X881761Y717296D03*
D18*
X881761Y705866D03*
D17*
X881761Y702818D03*
D18*
X881253Y782574D03*
D38*
X881253Y757428D03*
D20*
X881253Y736600D03*
D25*
X881253Y724662D03*
D17*
X881253Y719582D03*
X881253Y717042D03*
D18*
X881253Y705866D03*
D17*
X881253Y702818D03*
D14*
X880745Y799084D03*
D15*
X880745Y782320D03*
D39*
X880745Y747268D03*
D15*
X880745Y724916D03*
D17*
X880745Y719582D03*
X880745Y717042D03*
D18*
X880745Y705866D03*
D17*
X880745Y702818D03*
D21*
X880237Y797052D03*
D17*
X880237Y783082D03*
D18*
X880237Y781050D03*
D40*
X880237Y744982D03*
D15*
X880237Y724408D03*
D10*
X880237Y719836D03*
D15*
X880237Y705612D03*
D17*
X880237Y702818D03*
D36*
X879729Y794004D03*
D17*
X879729Y783082D03*
D18*
X879729Y780542D03*
D41*
X879729Y741934D03*
D11*
X879729Y723646D03*
D17*
X879729Y720090D03*
D25*
X879729Y705866D03*
D17*
X879729Y702818D03*
D42*
X879221Y789686D03*
D18*
X879221Y779526D03*
D33*
X879221Y738378D03*
D12*
X879221Y723646D03*
D17*
X879221Y720090D03*
D15*
X879221Y705612D03*
D17*
X879221Y702818D03*
D43*
X878713Y785622D03*
D29*
X878713Y737362D03*
D10*
X878713Y724916D03*
D15*
X878713Y720852D03*
X878713Y705612D03*
D17*
X878713Y702818D03*
D40*
X878205Y779018D03*
D44*
X878205Y742188D03*
D10*
X878205Y724916D03*
D18*
X878205Y720598D03*
X878205Y705866D03*
D17*
X878205Y702818D03*
D45*
X877697Y760222D03*
D17*
X877697Y725170D03*
D18*
X877697Y720090D03*
X877697Y705866D03*
D17*
X877697Y702818D03*
D26*
X877697Y701548D03*
D46*
X877189Y761492D03*
D17*
X877189Y733298D03*
D18*
X877189Y720090D03*
X877189Y705866D03*
D15*
X877189Y702056D03*
D10*
X876681Y783336D03*
D47*
X876681Y762000D03*
D17*
X876681Y733298D03*
D25*
X876681Y727710D03*
D18*
X876681Y719582D03*
D17*
X876681Y705866D03*
D25*
X876681Y702310D03*
D17*
X876173Y783590D03*
D12*
X876173Y771906D03*
D30*
X876173Y762508D03*
D22*
X876173Y728472D03*
D18*
X876173Y719582D03*
D17*
X876173Y705866D03*
D25*
X876173Y702310D03*
D17*
X875665Y783590D03*
D24*
X875665Y769874D03*
D25*
X875665Y730250D03*
D17*
X875665Y726186D03*
D18*
X875665Y719582D03*
D14*
X875665Y702056D03*
D17*
X875157Y783590D03*
D29*
X875157Y765810D03*
D15*
X875157Y732028D03*
D17*
X875157Y725678D03*
D18*
X875157Y722122D03*
X875157Y719582D03*
D14*
X875157Y702056D03*
D17*
X874649Y783590D03*
D48*
X874649Y749046D03*
D17*
X874649Y725678D03*
D12*
X874649Y721106D03*
D14*
X874649Y702056D03*
D17*
X874141Y783590D03*
D49*
X874141Y747014D03*
D10*
X874141Y730504D03*
D17*
X874141Y725678D03*
D12*
X874141Y721106D03*
D11*
X874141Y702310D03*
D17*
X873633Y783590D03*
D42*
X873633Y749554D03*
D10*
X873633Y738632D03*
X873633Y729996D03*
D17*
X873633Y725678D03*
D22*
X873633Y721360D03*
D14*
X873633Y702564D03*
D10*
X873125Y783844D03*
D21*
X873125Y753364D03*
D17*
X873125Y744982D03*
D10*
X873125Y738632D03*
X873125Y729488D03*
D17*
X873125Y725678D03*
D22*
X873125Y721360D03*
D25*
X873125Y702818D03*
D17*
X872617Y784098D03*
D28*
X872617Y753618D03*
D17*
X872617Y744982D03*
D10*
X872617Y738124D03*
D18*
X872617Y728726D03*
D17*
X872617Y725678D03*
D22*
X872617Y720852D03*
D18*
X872617Y703834D03*
D17*
X872617Y701802D03*
X872109Y784098D03*
D28*
X872109Y754126D03*
D17*
X872109Y745490D03*
D10*
X872109Y737616D03*
D11*
X872109Y727202D03*
D13*
X872109Y720344D03*
D18*
X872109Y704342D03*
D17*
X872109Y701802D03*
X871601Y784098D03*
D20*
X871601Y754380D03*
D17*
X871601Y745490D03*
X871601Y739902D03*
D15*
X871601Y737108D03*
X871601Y726948D03*
D21*
X871601Y719836D03*
D18*
X871601Y704342D03*
D17*
X871601Y701802D03*
X871093Y784098D03*
D10*
X871093Y758444D03*
D13*
X871093Y753872D03*
D17*
X871093Y745490D03*
D10*
X871093Y739648D03*
D15*
X871093Y736600D03*
D17*
X871093Y727202D03*
D28*
X871093Y719074D03*
D15*
X871093Y704596D03*
D17*
X871093Y702310D03*
D10*
X870585Y784352D03*
X870585Y758952D03*
D13*
X870585Y753872D03*
D10*
X870585Y745744D03*
D18*
X870585Y739394D03*
D15*
X870585Y736092D03*
D17*
X870585Y727202D03*
D30*
X870585Y718312D03*
D15*
X870585Y704596D03*
D17*
X870585Y702310D03*
X870077Y784606D03*
X870077Y759206D03*
D13*
X870077Y754380D03*
D17*
X870077Y745998D03*
D18*
X870077Y738886D03*
D14*
X870077Y735584D03*
D10*
X870077Y727456D03*
X870077Y721868D03*
D20*
X870077Y716280D03*
D15*
X870077Y705104D03*
D10*
X870077Y702564D03*
D17*
X870077Y700786D03*
X869569Y784606D03*
D10*
X869569Y759460D03*
D24*
X869569Y754634D03*
D17*
X869569Y745998D03*
D21*
X869569Y736092D03*
D17*
X869569Y727710D03*
D18*
X869569Y721614D03*
D15*
X869569Y718820D03*
D12*
X869569Y714502D03*
D18*
X869569Y705358D03*
D17*
X869569Y702818D03*
D10*
X869569Y701040D03*
D17*
X869061Y784606D03*
D10*
X869061Y759968D03*
D22*
X869061Y754888D03*
D10*
X869061Y746252D03*
D29*
X869061Y734314D03*
D17*
X869061Y727710D03*
D10*
X869061Y721360D03*
D15*
X869061Y718312D03*
D25*
X869061Y715010D03*
D10*
X869061Y705612D03*
X869061Y703072D03*
X869061Y701040D03*
D17*
X868553Y784606D03*
D10*
X868553Y760476D03*
D12*
X868553Y755142D03*
D17*
X868553Y746506D03*
D34*
X868553Y733044D03*
D18*
X868553Y721106D03*
D15*
X868553Y717804D03*
D25*
X868553Y714502D03*
D10*
X868553Y706120D03*
D14*
X868553Y702056D03*
D10*
X868045Y784860D03*
X868045Y760984D03*
D23*
X868045Y755396D03*
D17*
X868045Y746506D03*
D14*
X868045Y736092D03*
D25*
X868045Y732282D03*
D15*
X868045Y728472D03*
D10*
X868045Y720852D03*
D15*
X868045Y717296D03*
X868045Y713740D03*
D26*
X868045Y706120D03*
D23*
X868045Y702564D03*
D17*
X867537Y785114D03*
D10*
X867537Y761492D03*
D14*
X867537Y755396D03*
D17*
X867537Y747014D03*
X867537Y735838D03*
D25*
X867537Y728726D03*
D18*
X867537Y720598D03*
D15*
X867537Y716788D03*
D25*
X867537Y712978D03*
D23*
X867537Y703072D03*
D17*
X867029Y785114D03*
D10*
X867029Y762000D03*
D18*
X867029Y755650D03*
D17*
X867029Y747014D03*
D25*
X867029Y729234D03*
D10*
X867029Y720344D03*
D15*
X867029Y716280D03*
D25*
X867029Y712470D03*
D12*
X867029Y703326D03*
D17*
X866521Y785114D03*
X866521Y762254D03*
D10*
X866521Y747268D03*
D25*
X866521Y729234D03*
D18*
X866521Y720090D03*
D15*
X866521Y715772D03*
D14*
X866521Y711708D03*
D12*
X866521Y703834D03*
D17*
X866013Y785114D03*
D10*
X866013Y762508D03*
D17*
X866013Y747522D03*
D14*
X866013Y729488D03*
D18*
X866013Y719582D03*
D25*
X866013Y715518D03*
X866013Y710946D03*
D12*
X866013Y704342D03*
D10*
X865505Y785368D03*
X865505Y763016D03*
X865505Y747776D03*
D11*
X865505Y729742D03*
D18*
X865505Y719582D03*
D25*
X865505Y715010D03*
D14*
X865505Y710184D03*
D23*
X865505Y704596D03*
D17*
X864997Y785622D03*
D10*
X864997Y763524D03*
D17*
X864997Y748030D03*
D23*
X864997Y729996D03*
D18*
X864997Y719074D03*
D25*
X864997Y714502D03*
X864997Y709422D03*
D10*
X864997Y703580D03*
D17*
X864489Y785622D03*
X864489Y763778D03*
D10*
X864489Y748284D03*
D23*
X864489Y730504D03*
D18*
X864489Y719074D03*
D25*
X864489Y713994D03*
D14*
X864489Y708660D03*
D10*
X864489Y704088D03*
D17*
X863981Y785622D03*
X863981Y764286D03*
D10*
X863981Y748792D03*
D12*
X863981Y730758D03*
D18*
X863981Y718566D03*
D25*
X863981Y713486D03*
D11*
X863981Y707898D03*
D10*
X863981Y704596D03*
D17*
X863473Y785622D03*
D10*
X863473Y764540D03*
D17*
X863473Y749046D03*
D22*
X863473Y731012D03*
D18*
X863473Y718058D03*
D25*
X863473Y712978D03*
D23*
X863473Y706628D03*
D10*
X862965Y785876D03*
X862965Y765048D03*
X862965Y749300D03*
D22*
X862965Y731520D03*
D18*
X862965Y718058D03*
D25*
X862965Y712470D03*
D11*
X862965Y706374D03*
D17*
X862457Y786130D03*
X862457Y765302D03*
X862457Y749554D03*
D22*
X862457Y731520D03*
D18*
X862457Y717550D03*
D25*
X862457Y711962D03*
D11*
X862457Y705358D03*
D17*
X861949Y786130D03*
X861949Y765810D03*
D10*
X861949Y749808D03*
D22*
X861949Y732028D03*
D18*
X861949Y717550D03*
D25*
X861949Y711454D03*
D22*
X861949Y705612D03*
D17*
X861441Y786130D03*
D10*
X861441Y766064D03*
X861441Y750316D03*
X861441Y734568D03*
D11*
X861441Y731266D03*
D18*
X861441Y717042D03*
D22*
X861441Y709676D03*
D11*
X861441Y703834D03*
D17*
X860933Y786130D03*
D10*
X860933Y766572D03*
D17*
X860933Y750570D03*
D10*
X860933Y735076D03*
D22*
X860933Y730504D03*
D18*
X860933Y716534D03*
D11*
X860933Y709930D03*
X860933Y702818D03*
D17*
X860425Y786130D03*
X860425Y766826D03*
D10*
X860425Y750824D03*
D17*
X860425Y735330D03*
D20*
X860425Y728980D03*
D15*
X860425Y716280D03*
D12*
X860425Y710438D03*
D11*
X860425Y701802D03*
D17*
X859917Y786130D03*
D10*
X859917Y767080D03*
X859917Y751332D03*
X859917Y735584D03*
D26*
X859917Y732028D03*
D17*
X859917Y730758D03*
D50*
X859917Y717804D03*
D23*
X859917Y701040D03*
D10*
X859409Y786384D03*
X859409Y767588D03*
D17*
X859409Y751586D03*
D10*
X859409Y736092D03*
X859409Y731012D03*
D32*
X859409Y718820D03*
D25*
X859409Y708406D03*
D23*
X859409Y700024D03*
D10*
X858901Y786384D03*
D17*
X858901Y767842D03*
D10*
X858901Y751840D03*
X858901Y736600D03*
D17*
X858901Y731266D03*
D24*
X858901Y717042D03*
D25*
X858901Y707898D03*
D23*
X858901Y699008D03*
D10*
X858393Y786384D03*
D17*
X858393Y771906D03*
D10*
X858393Y768096D03*
X858393Y752348D03*
D17*
X858393Y736854D03*
D10*
X858393Y731520D03*
D18*
X858393Y715010D03*
D25*
X858393Y707390D03*
D23*
X858393Y697992D03*
D17*
X857885Y786638D03*
D10*
X857885Y772160D03*
D17*
X857885Y768350D03*
D10*
X857885Y752856D03*
X857885Y737108D03*
X857885Y732028D03*
D18*
X857885Y714502D03*
D25*
X857885Y706882D03*
D23*
X857885Y696976D03*
D17*
X857377Y786638D03*
D10*
X857377Y772668D03*
X857377Y768604D03*
D17*
X857377Y753110D03*
D10*
X857377Y737616D03*
D17*
X857377Y732282D03*
D15*
X857377Y714248D03*
D14*
X857377Y706120D03*
D23*
X857377Y695960D03*
D17*
X856869Y786638D03*
D10*
X856869Y773176D03*
D17*
X856869Y768858D03*
D10*
X856869Y753364D03*
X856869Y738124D03*
X856869Y732536D03*
D15*
X856869Y713740D03*
D25*
X856869Y705358D03*
D11*
X856869Y694690D03*
D10*
X856361Y786384D03*
D18*
X856361Y773430D03*
D10*
X856361Y769112D03*
X856361Y753872D03*
D17*
X856361Y738378D03*
D10*
X856361Y733044D03*
D18*
X856361Y713486D03*
D25*
X856361Y704850D03*
D23*
X856361Y693420D03*
D10*
X855853Y786384D03*
X855853Y773684D03*
D17*
X855853Y769366D03*
D10*
X855853Y754380D03*
X855853Y738632D03*
D17*
X855853Y733298D03*
D18*
X855853Y712978D03*
D25*
X855853Y704342D03*
D11*
X855853Y692150D03*
D10*
X855345Y786384D03*
D18*
X855345Y773938D03*
D10*
X855345Y769620D03*
X855345Y754888D03*
X855345Y739140D03*
X855345Y733552D03*
D15*
X855345Y712724D03*
D25*
X855345Y703834D03*
D14*
X855345Y690880D03*
D17*
X854837Y786130D03*
X854837Y776478D03*
D10*
X854837Y774192D03*
D17*
X854837Y769874D03*
D10*
X854837Y755396D03*
D17*
X854837Y739394D03*
D10*
X854837Y734060D03*
D15*
X854837Y712216D03*
D14*
X854837Y703072D03*
D15*
X854837Y689864D03*
D17*
X854329Y786130D03*
X854329Y776478D03*
D18*
X854329Y774446D03*
D10*
X854329Y770128D03*
D17*
X854329Y755650D03*
D10*
X854329Y739648D03*
D17*
X854329Y734314D03*
D15*
X854329Y711708D03*
D25*
X854329Y702310D03*
D17*
X853821Y786130D03*
D14*
X853821Y775716D03*
D17*
X853821Y770382D03*
D10*
X853821Y755904D03*
X853821Y740156D03*
X853821Y734568D03*
D15*
X853821Y711200D03*
D25*
X853821Y701802D03*
D17*
X853313Y786130D03*
D14*
X853313Y775716D03*
D17*
X853313Y770382D03*
D10*
X853313Y756412D03*
D17*
X853313Y740410D03*
D10*
X853313Y735076D03*
D15*
X853313Y711200D03*
D25*
X853313Y701294D03*
D17*
X852805Y786130D03*
D11*
X852805Y775970D03*
D17*
X852805Y770890D03*
D10*
X852805Y756920D03*
X852805Y740664D03*
X852805Y735584D03*
D15*
X852805Y710692D03*
D25*
X852805Y700278D03*
D10*
X852297Y785876D03*
D14*
X852297Y776224D03*
D17*
X852297Y770890D03*
D10*
X852297Y757428D03*
D17*
X852297Y740918D03*
D10*
X852297Y736092D03*
D15*
X852297Y710184D03*
D25*
X852297Y699770D03*
D17*
X851789Y785622D03*
D14*
X851789Y776224D03*
D17*
X851789Y770890D03*
D10*
X851789Y757936D03*
X851789Y741172D03*
D17*
X851789Y736346D03*
D15*
X851789Y709676D03*
D25*
X851789Y699262D03*
D17*
X851281Y785622D03*
D14*
X851281Y776732D03*
D10*
X851281Y771144D03*
X851281Y758444D03*
D17*
X851281Y741426D03*
X851281Y736854D03*
D15*
X851281Y709168D03*
X851281Y698500D03*
D10*
X850773Y785368D03*
D14*
X850773Y776732D03*
D17*
X850773Y771398D03*
D10*
X850773Y758952D03*
X850773Y741680D03*
D18*
X850773Y737362D03*
D15*
X850773Y708660D03*
D25*
X850773Y697738D03*
D17*
X850265Y785114D03*
D14*
X850265Y776732D03*
D17*
X850265Y771398D03*
D10*
X850265Y759460D03*
D17*
X850265Y741934D03*
D18*
X850265Y737870D03*
D15*
X850265Y708152D03*
D25*
X850265Y697230D03*
D11*
X849757Y783590D03*
D14*
X849757Y776732D03*
D17*
X849757Y771398D03*
D18*
X849757Y760222D03*
D17*
X849757Y741934D03*
D10*
X849757Y738632D03*
D15*
X849757Y707644D03*
X849757Y696468D03*
D14*
X849249Y783336D03*
D25*
X849249Y776986D03*
D17*
X849249Y771398D03*
D18*
X849249Y760730D03*
D10*
X849249Y742188D03*
D18*
X849249Y739394D03*
X849249Y707390D03*
D25*
X849249Y695706D03*
X848741Y783590D03*
X848741Y776986D03*
D10*
X848741Y771652D03*
X848741Y761492D03*
D23*
X848741Y740664D03*
D18*
X848741Y706882D03*
D15*
X848741Y694944D03*
X848233Y783844D03*
D25*
X848233Y776986D03*
D10*
X848233Y771652D03*
D18*
X848233Y762254D03*
D23*
X848233Y741172D03*
D18*
X848233Y706374D03*
D15*
X848233Y694436D03*
X847725Y784352D03*
D25*
X847725Y776986D03*
D10*
X847725Y771652D03*
D18*
X847725Y762762D03*
D26*
X847725Y747268D03*
D17*
X847725Y745490D03*
D11*
X847725Y741426D03*
D18*
X847725Y705866D03*
D15*
X847725Y693420D03*
D10*
X847217Y785368D03*
D15*
X847217Y776732D03*
D10*
X847217Y771652D03*
D18*
X847217Y763778D03*
D25*
X847217Y746506D03*
D10*
X847217Y742696D03*
D17*
X847217Y740410D03*
D18*
X847217Y705358D03*
D15*
X847217Y692912D03*
D10*
X846709Y785876D03*
D18*
X846709Y776986D03*
D10*
X846709Y771652D03*
D15*
X846709Y764540D03*
D14*
X846709Y746760D03*
D10*
X846709Y742696D03*
X846709Y740664D03*
D18*
X846709Y704850D03*
X846709Y692150D03*
D17*
X846201Y786130D03*
D18*
X846201Y776986D03*
D10*
X846201Y771652D03*
D15*
X846201Y765556D03*
D14*
X846201Y747268D03*
D17*
X846201Y742950D03*
D10*
X846201Y741172D03*
D18*
X846201Y704342D03*
D10*
X846201Y691388D03*
X845693Y786384D03*
D18*
X845693Y776986D03*
X845693Y771398D03*
D14*
X845693Y767080D03*
X845693Y747268D03*
D10*
X845693Y741680D03*
D18*
X845693Y703834D03*
D17*
X845693Y691134D03*
D10*
X845185Y786892D03*
D15*
X845185Y777240D03*
D24*
X845185Y769366D03*
D14*
X845185Y747268D03*
D10*
X845185Y742188D03*
D18*
X845185Y703326D03*
D17*
X844677Y787146D03*
D15*
X844677Y777240D03*
D11*
X844677Y770382D03*
D14*
X844677Y747268D03*
D10*
X844677Y742696D03*
D18*
X844677Y702818D03*
D17*
X844169Y787654D03*
D15*
X844169Y777240D03*
D10*
X844169Y771652D03*
D14*
X844169Y747268D03*
D10*
X844169Y743204D03*
D18*
X844169Y702310D03*
D10*
X843661Y787908D03*
D15*
X843661Y777240D03*
D10*
X843661Y771652D03*
D23*
X843661Y747776D03*
D10*
X843661Y743712D03*
D18*
X843661Y701802D03*
D17*
X843153Y788162D03*
D15*
X843153Y777240D03*
D26*
X843153Y771652D03*
D17*
X843153Y765302D03*
D15*
X843153Y749808D03*
D23*
X843153Y745744D03*
D10*
X843153Y701040D03*
X842645Y788416D03*
D15*
X842645Y777240D03*
D10*
X842645Y765556D03*
D15*
X842645Y750824D03*
X842645Y745236D03*
D10*
X842645Y700532D03*
X842137Y788924D03*
D15*
X842137Y777240D03*
D10*
X842137Y766064D03*
D25*
X842137Y752094D03*
D10*
X842137Y700024D03*
D17*
X841629Y789178D03*
D15*
X841629Y777240D03*
D10*
X841629Y766572D03*
D23*
X841629Y753872D03*
D10*
X841121Y789432D03*
D25*
X841121Y777494D03*
D15*
X841121Y767080D03*
D31*
X841121Y758698D03*
D17*
X840613Y789686D03*
D25*
X840613Y777494D03*
D15*
X840613Y767588D03*
D20*
X840613Y759968D03*
D10*
X840105Y789940D03*
D14*
X840105Y777748D03*
X840105Y767588D03*
D18*
X840105Y763270D03*
D10*
X840105Y756920D03*
D17*
X839597Y790194D03*
X839597Y779018D03*
D15*
X839597Y776732D03*
D12*
X839597Y767842D03*
D10*
X839597Y763016D03*
D17*
X839597Y756666D03*
X839089Y790194D03*
X839089Y779526D03*
D25*
X839089Y776478D03*
D13*
X839089Y768096D03*
D10*
X839089Y762508D03*
X839089Y756412D03*
X838581Y790448D03*
X838581Y779780D03*
D51*
X838581Y772922D03*
D14*
X838581Y766064D03*
D10*
X838581Y762000D03*
D17*
X838581Y756158D03*
X838073Y790702D03*
X838073Y780034D03*
D20*
X838073Y772668D03*
D14*
X838073Y766064D03*
D18*
X838073Y761238D03*
D10*
X838073Y755904D03*
X837565Y790956D03*
D17*
X837565Y780034D03*
D35*
X837565Y770382D03*
D10*
X837565Y760476D03*
D17*
X837565Y758190D03*
D10*
X837565Y755396D03*
D17*
X837057Y791210D03*
X837057Y780542D03*
D42*
X837057Y769874D03*
D24*
X837057Y757682D03*
D17*
X836549Y791210D03*
X836549Y780542D03*
X836549Y775970D03*
D25*
X836549Y772922D03*
D14*
X836549Y769112D03*
D18*
X836549Y765810D03*
D14*
X836549Y762508D03*
D27*
X836549Y756666D03*
D10*
X836041Y791464D03*
X836041Y780796D03*
D17*
X836041Y775970D03*
D15*
X836041Y772668D03*
X836041Y769112D03*
D17*
X836041Y765302D03*
D29*
X836041Y758190D03*
D17*
X835533Y791718D03*
X835533Y781050D03*
X835533Y775970D03*
D15*
X835533Y772668D03*
X835533Y769112D03*
D17*
X835533Y764794D03*
X835533Y762762D03*
D28*
X835533Y757174D03*
D17*
X835025Y791718D03*
X835025Y781050D03*
X835025Y775970D03*
D25*
X835025Y772414D03*
D18*
X835025Y768350D03*
D10*
X835025Y764540D03*
D17*
X835025Y762762D03*
D13*
X835025Y756412D03*
D10*
X834517Y791972D03*
D17*
X834517Y781558D03*
X834517Y775970D03*
D25*
X834517Y771906D03*
D15*
X834517Y768096D03*
X834517Y763524D03*
X834517Y757936D03*
D10*
X834517Y753364D03*
D17*
X834009Y792226D03*
X834009Y781558D03*
D10*
X834009Y775716D03*
X834009Y772668D03*
X834009Y770636D03*
D15*
X834009Y767588D03*
D18*
X834009Y763270D03*
D10*
X834009Y757936D03*
X834009Y752856D03*
D17*
X833501Y792226D03*
D10*
X833501Y781812D03*
D17*
X833501Y775462D03*
X833501Y772414D03*
X833501Y770382D03*
D25*
X833501Y767334D03*
D10*
X833501Y763016D03*
X833501Y757428D03*
X833501Y752348D03*
D17*
X832993Y792226D03*
X832993Y782066D03*
X832993Y775462D03*
D10*
X832993Y772160D03*
X832993Y770128D03*
D17*
X832993Y767842D03*
D10*
X832993Y766064D03*
X832993Y762508D03*
D17*
X832993Y757174D03*
X832993Y752094D03*
D10*
X832485Y792480D03*
D17*
X832485Y782066D03*
X832485Y775462D03*
X832485Y771906D03*
D10*
X832485Y769620D03*
D17*
X832485Y767842D03*
D10*
X832485Y765556D03*
X832485Y762000D03*
X832485Y756920D03*
D17*
X832485Y751586D03*
X831977Y792734D03*
X831977Y782066D03*
D10*
X831977Y775208D03*
D17*
X831977Y771906D03*
D25*
X831977Y768350D03*
D10*
X831977Y765048D03*
X831977Y761492D03*
X831977Y756412D03*
X831977Y751332D03*
D17*
X831469Y792734D03*
X831469Y782574D03*
X831469Y774954D03*
X831469Y771906D03*
D15*
X831469Y768096D03*
D18*
X831469Y764286D03*
X831469Y760730D03*
D10*
X831469Y755904D03*
X831469Y750824D03*
D17*
X830961Y792734D03*
X830961Y782574D03*
X830961Y774954D03*
D10*
X830961Y771652D03*
D14*
X830961Y767588D03*
D18*
X830961Y763270D03*
D14*
X830961Y759460D03*
D10*
X830961Y755396D03*
X830961Y750316D03*
D17*
X830453Y792734D03*
X830453Y782574D03*
X830453Y774954D03*
X830453Y771398D03*
D11*
X830453Y767334D03*
D15*
X830453Y762508D03*
D11*
X830453Y758698D03*
D10*
X830453Y754888D03*
X830453Y749808D03*
X829945Y792988D03*
D17*
X829945Y782574D03*
X829945Y774954D03*
X829945Y771398D03*
D11*
X829945Y767334D03*
D51*
X829945Y758190D03*
D10*
X829945Y749300D03*
D17*
X829437Y793242D03*
X829437Y783082D03*
X829437Y774446D03*
D10*
X829437Y771144D03*
D23*
X829437Y767080D03*
D51*
X829437Y757682D03*
D17*
X829437Y749046D03*
X828929Y793242D03*
X828929Y783082D03*
X828929Y774446D03*
X828929Y770890D03*
D23*
X828929Y767080D03*
D17*
X828929Y761746D03*
D27*
X828929Y756666D03*
D10*
X828929Y748792D03*
D17*
X828421Y793242D03*
X828421Y783082D03*
X828421Y774446D03*
X828421Y770890D03*
D23*
X828421Y766572D03*
D17*
X828421Y761746D03*
D27*
X828421Y756158D03*
D10*
X828421Y748284D03*
D17*
X827913Y793242D03*
X827913Y783082D03*
D10*
X827913Y774192D03*
D17*
X827913Y770890D03*
X827913Y768350D03*
D25*
X827913Y765810D03*
D17*
X827913Y761238D03*
D10*
X827913Y752856D03*
X827913Y747776D03*
D17*
X827405Y793242D03*
X827405Y783082D03*
X827405Y773938D03*
X827405Y770382D03*
X827405Y768350D03*
D25*
X827405Y765302D03*
D17*
X827405Y761238D03*
D10*
X827405Y752348D03*
X827405Y747268D03*
D17*
X826897Y793242D03*
D10*
X826897Y783336D03*
D17*
X826897Y773938D03*
X826897Y770382D03*
X826897Y768350D03*
D18*
X826897Y764794D03*
D17*
X826897Y761238D03*
D10*
X826897Y751840D03*
X826897Y746760D03*
X826389Y793496D03*
D17*
X826389Y783590D03*
X826389Y773938D03*
X826389Y770382D03*
X826389Y768350D03*
D18*
X826389Y764286D03*
D17*
X826389Y760730D03*
D10*
X826389Y751332D03*
X826389Y746252D03*
X825881Y793496D03*
D17*
X825881Y783590D03*
D10*
X825881Y773684D03*
X825881Y770128D03*
D17*
X825881Y767842D03*
D18*
X825881Y763778D03*
D17*
X825881Y760730D03*
D10*
X825881Y750824D03*
X825881Y745744D03*
D17*
X825373Y793750D03*
X825373Y783590D03*
X825373Y773430D03*
X825373Y769874D03*
X825373Y767842D03*
D26*
X825373Y763524D03*
D10*
X825373Y760476D03*
X825373Y750316D03*
X825373Y745236D03*
D17*
X824865Y793750D03*
X824865Y783590D03*
X824865Y773430D03*
X824865Y769874D03*
X824865Y767842D03*
X824865Y760222D03*
D10*
X824865Y749808D03*
X824865Y744728D03*
D17*
X824357Y793750D03*
X824357Y783590D03*
X824357Y773430D03*
D10*
X824357Y769620D03*
D17*
X824357Y767842D03*
X824357Y760222D03*
X824357Y749554D03*
D10*
X824357Y744220D03*
D17*
X823849Y793750D03*
X823849Y783590D03*
X823849Y772922D03*
X823849Y769366D03*
D10*
X823849Y767588D03*
X823849Y759968D03*
D17*
X823849Y749046D03*
X823849Y743966D03*
X823341Y793750D03*
X823341Y783590D03*
X823341Y772922D03*
X823341Y769366D03*
X823341Y767334D03*
X823341Y759714D03*
D10*
X823341Y748792D03*
D17*
X823341Y743458D03*
X822833Y793750D03*
D10*
X822833Y783844D03*
D17*
X822833Y772922D03*
D10*
X822833Y769112D03*
D17*
X822833Y767334D03*
D10*
X822833Y759460D03*
X822833Y748284D03*
D17*
X822833Y742950D03*
X822325Y793750D03*
D10*
X822325Y783844D03*
X822325Y772668D03*
D17*
X822325Y768858D03*
X822325Y767334D03*
X822325Y759206D03*
D10*
X822325Y747776D03*
X822325Y742696D03*
D17*
X821817Y793750D03*
D10*
X821817Y783844D03*
D17*
X821817Y772414D03*
X821817Y768858D03*
X821817Y766826D03*
D10*
X821817Y758952D03*
X821817Y747268D03*
X821817Y742188D03*
D17*
X821309Y793750D03*
D10*
X821309Y783844D03*
D17*
X821309Y772414D03*
D10*
X821309Y768604D03*
D17*
X821309Y766826D03*
X821309Y758698D03*
D10*
X821309Y746760D03*
X821309Y741680D03*
D17*
X820801Y793750D03*
X820801Y784098D03*
D10*
X820801Y772160D03*
D17*
X820801Y768350D03*
X820801Y766826D03*
D10*
X820801Y758444D03*
X820801Y746252D03*
X820801Y741172D03*
D17*
X820293Y793750D03*
X820293Y784098D03*
X820293Y771906D03*
X820293Y768350D03*
X820293Y766318D03*
X820293Y758190D03*
D10*
X820293Y745744D03*
X820293Y740664D03*
D17*
X819785Y793750D03*
X819785Y784098D03*
X819785Y771906D03*
X819785Y767842D03*
X819785Y766318D03*
D10*
X819785Y757936D03*
X819785Y745236D03*
X819785Y740156D03*
D17*
X819277Y793750D03*
X819277Y784098D03*
X819277Y771906D03*
X819277Y767842D03*
X819277Y766318D03*
X819277Y757682D03*
D10*
X819277Y744728D03*
X819277Y739648D03*
D17*
X818769Y793750D03*
X818769Y784098D03*
X818769Y771398D03*
X818769Y767842D03*
X818769Y765810D03*
D10*
X818769Y757428D03*
X818769Y744220D03*
X818769Y739140D03*
D17*
X818261Y793750D03*
X818261Y784098D03*
X818261Y771398D03*
X818261Y767334D03*
X818261Y765810D03*
X818261Y757174D03*
D10*
X818261Y743712D03*
X818261Y738632D03*
D17*
X817753Y793750D03*
X817753Y784098D03*
X817753Y771398D03*
X817753Y767334D03*
D10*
X817753Y765556D03*
X817753Y756920D03*
X817753Y743204D03*
X817753Y738124D03*
D17*
X817245Y793750D03*
X817245Y784098D03*
X817245Y770890D03*
D10*
X817245Y767080D03*
D17*
X817245Y765302D03*
X817245Y756666D03*
X817245Y742950D03*
D10*
X817245Y737616D03*
D17*
X816737Y793750D03*
D10*
X816737Y783844D03*
D17*
X816737Y770890D03*
X816737Y766826D03*
X816737Y765302D03*
D10*
X816737Y756412D03*
D17*
X816737Y742442D03*
D10*
X816737Y737108D03*
D17*
X816229Y793750D03*
D10*
X816229Y783844D03*
D17*
X816229Y770890D03*
X816229Y766826D03*
X816229Y764794D03*
X816229Y756158D03*
D10*
X816229Y742188D03*
X816229Y736600D03*
D17*
X815721Y793750D03*
D10*
X815721Y783844D03*
X815721Y770636D03*
X815721Y766572D03*
D17*
X815721Y764794D03*
D10*
X815721Y755904D03*
X815721Y741680D03*
X815721Y736092D03*
X815213Y793496D03*
X815213Y783844D03*
D17*
X815213Y770382D03*
X815213Y766318D03*
D10*
X815213Y764540D03*
D17*
X815213Y755650D03*
D10*
X815213Y741172D03*
X815213Y735584D03*
X814705Y793496D03*
X814705Y783844D03*
D17*
X814705Y770382D03*
X814705Y766318D03*
X814705Y764286D03*
D10*
X814705Y755396D03*
X814705Y740664D03*
D17*
X814705Y735330D03*
D10*
X814197Y793496D03*
D17*
X814197Y783590D03*
D10*
X814197Y770128D03*
X814197Y766064D03*
X814197Y764032D03*
X814197Y754888D03*
X814197Y740156D03*
X814197Y735076D03*
D17*
X813689Y793242D03*
X813689Y783590D03*
X813689Y769874D03*
X813689Y765810D03*
X813689Y763778D03*
X813689Y754634D03*
D10*
X813689Y739648D03*
X813689Y734568D03*
D17*
X813181Y793242D03*
X813181Y783590D03*
X813181Y769874D03*
X813181Y765810D03*
D10*
X813181Y763524D03*
X813181Y754380D03*
X813181Y739140D03*
X813181Y734060D03*
D17*
X812673Y793242D03*
X812673Y783590D03*
X812673Y769874D03*
D10*
X812673Y765556D03*
D17*
X812673Y763270D03*
X812673Y754126D03*
D10*
X812673Y738632D03*
X812673Y733552D03*
D17*
X812165Y793242D03*
X812165Y783590D03*
D10*
X812165Y769620D03*
D17*
X812165Y765302D03*
D10*
X812165Y763016D03*
X812165Y753872D03*
X812165Y738124D03*
D17*
X812165Y733298D03*
X811657Y793242D03*
X811657Y783590D03*
X811657Y769366D03*
X811657Y765302D03*
D10*
X811657Y762508D03*
D17*
X811657Y753618D03*
D10*
X811657Y737616D03*
X811657Y733044D03*
D17*
X811149Y793242D03*
X811149Y783590D03*
X811149Y769366D03*
X811149Y765302D03*
X811149Y762254D03*
D10*
X811149Y753364D03*
D17*
X811149Y737362D03*
D10*
X811149Y732536D03*
X810641Y792988D03*
D17*
X810641Y783590D03*
X810641Y769366D03*
X810641Y764794D03*
D10*
X810641Y762000D03*
X810641Y752856D03*
X810641Y737108D03*
X810641Y732028D03*
X810133Y792988D03*
D17*
X810133Y783590D03*
X810133Y768858D03*
X810133Y764794D03*
X810133Y761746D03*
X810133Y752602D03*
D10*
X810133Y736600D03*
D17*
X810133Y731774D03*
X809625Y792734D03*
X809625Y783590D03*
X809625Y768858D03*
X809625Y764794D03*
D10*
X809625Y761492D03*
X809625Y752348D03*
X809625Y736092D03*
X809625Y731520D03*
D17*
X809117Y792734D03*
X809117Y783590D03*
X809117Y768858D03*
D10*
X809117Y764540D03*
D17*
X809117Y761238D03*
X809117Y752094D03*
D10*
X809117Y735584D03*
X809117Y731012D03*
D17*
X808609Y792734D03*
D10*
X808609Y783336D03*
D17*
X808609Y768858D03*
X808609Y764286D03*
X808609Y760730D03*
D10*
X808609Y751840D03*
D17*
X808609Y735330D03*
X808609Y730758D03*
X808101Y792734D03*
D10*
X808101Y783336D03*
D17*
X808101Y768350D03*
X808101Y764286D03*
D10*
X808101Y760476D03*
D17*
X808101Y751586D03*
D10*
X808101Y735076D03*
X808101Y730504D03*
D17*
X807593Y792734D03*
D10*
X807593Y783336D03*
D17*
X807593Y768350D03*
X807593Y764286D03*
X807593Y760222D03*
D10*
X807593Y751332D03*
X807593Y734568D03*
X807593Y729996D03*
X807085Y792480D03*
D17*
X807085Y783082D03*
X807085Y768350D03*
D10*
X807085Y764032D03*
X807085Y759968D03*
X807085Y750824D03*
D17*
X807085Y734314D03*
X807085Y729742D03*
X806577Y792226D03*
X806577Y783082D03*
X806577Y768350D03*
X806577Y763778D03*
X806577Y759714D03*
X806577Y750570D03*
X806577Y733806D03*
D10*
X806577Y729488D03*
D17*
X806069Y792226D03*
X806069Y783082D03*
X806069Y767842D03*
X806069Y763778D03*
X806069Y759206D03*
D10*
X806069Y750316D03*
X806069Y733552D03*
X806069Y728980D03*
D17*
X805561Y792226D03*
X805561Y783082D03*
X805561Y767842D03*
X805561Y763778D03*
D10*
X805561Y758952D03*
D17*
X805561Y750062D03*
D10*
X805561Y733044D03*
D17*
X805561Y728726D03*
X805053Y792226D03*
X805053Y783082D03*
X805053Y767842D03*
D10*
X805053Y763524D03*
D17*
X805053Y758698D03*
D10*
X805053Y749808D03*
D17*
X805053Y732790D03*
D10*
X805053Y728472D03*
X804545Y791972D03*
D17*
X804545Y783082D03*
X804545Y767842D03*
X804545Y763270D03*
D10*
X804545Y758444D03*
X804545Y749300D03*
X804545Y732536D03*
D17*
X804545Y728218D03*
X804037Y791718D03*
X804037Y783082D03*
D10*
X804037Y767588D03*
D17*
X804037Y763270D03*
X804037Y758190D03*
X804037Y749046D03*
X804037Y732282D03*
D10*
X804037Y727964D03*
D17*
X803529Y791718D03*
D10*
X803529Y782828D03*
D17*
X803529Y767334D03*
X803529Y763270D03*
X803529Y757682D03*
D10*
X803529Y748792D03*
X803529Y732028D03*
D17*
X803529Y727710D03*
X803021Y791718D03*
D10*
X803021Y782828D03*
D17*
X803021Y767334D03*
X803021Y763270D03*
D10*
X803021Y757428D03*
D17*
X803021Y748538D03*
D10*
X803021Y731520D03*
D17*
X803021Y727202D03*
X802513Y791718D03*
X802513Y782574D03*
X802513Y767334D03*
X802513Y762762D03*
X802513Y757174D03*
D10*
X802513Y748284D03*
D17*
X802513Y731266D03*
D10*
X802513Y726948D03*
X802005Y791464D03*
D17*
X802005Y782574D03*
D10*
X802005Y767080D03*
D17*
X802005Y762762D03*
D10*
X802005Y756920D03*
X802005Y747776D03*
X802005Y731012D03*
D17*
X802005Y726694D03*
X801497Y791210D03*
X801497Y782574D03*
X801497Y766826D03*
X801497Y762762D03*
D10*
X801497Y756412D03*
D17*
X801497Y747522D03*
X801497Y730758D03*
D10*
X801497Y726440D03*
D17*
X800989Y791210D03*
X800989Y782574D03*
X800989Y766826D03*
X800989Y762762D03*
X800989Y756158D03*
D10*
X800989Y747268D03*
X800989Y730504D03*
D17*
X800989Y726186D03*
X800481Y791210D03*
X800481Y782574D03*
X800481Y766826D03*
D10*
X800481Y762508D03*
X800481Y755904D03*
X800481Y746760D03*
D17*
X800481Y730250D03*
X800481Y726186D03*
D10*
X799973Y790956D03*
D17*
X799973Y782574D03*
X799973Y766826D03*
X799973Y762254D03*
X799973Y755650D03*
X799973Y746506D03*
D10*
X799973Y729996D03*
D17*
X799973Y725678D03*
X799465Y790702D03*
D10*
X799465Y782320D03*
X799465Y766572D03*
D17*
X799465Y762254D03*
D10*
X799465Y755396D03*
X799465Y746252D03*
D17*
X799465Y729742D03*
X799465Y725678D03*
X798957Y790702D03*
X798957Y782066D03*
X798957Y766318D03*
X798957Y762254D03*
D10*
X798957Y754888D03*
D17*
X798957Y745998D03*
D10*
X798957Y729488D03*
X798957Y725424D03*
D17*
X798449Y790702D03*
X798449Y782066D03*
X798449Y766318D03*
X798449Y762254D03*
X798449Y754634D03*
D10*
X798449Y745744D03*
D17*
X798449Y729234D03*
X798449Y725170D03*
D10*
X797941Y790448D03*
D17*
X797941Y782066D03*
X797941Y766318D03*
D10*
X797941Y762000D03*
X797941Y754380D03*
X797941Y745236D03*
X797941Y728980D03*
X797941Y724916D03*
D17*
X797433Y790194D03*
X797433Y782066D03*
X797433Y766318D03*
X797433Y761746D03*
D10*
X797433Y753872D03*
D17*
X797433Y744982D03*
X797433Y728726D03*
X797433Y724662D03*
X796925Y790194D03*
X796925Y782066D03*
X796925Y766318D03*
X796925Y761746D03*
X796925Y753618D03*
D10*
X796925Y744728D03*
X796925Y728472D03*
D17*
X796925Y724662D03*
X796417Y790194D03*
D10*
X796417Y781812D03*
X796417Y766064D03*
D17*
X796417Y761746D03*
D10*
X796417Y753364D03*
X796417Y744220D03*
D17*
X796417Y728218D03*
X796417Y724154D03*
D10*
X795909Y789940D03*
D17*
X795909Y781558D03*
X795909Y765810D03*
X795909Y761746D03*
X795909Y753110D03*
X795909Y743966D03*
D10*
X795909Y727964D03*
D17*
X795909Y724154D03*
X795401Y789686D03*
X795401Y781558D03*
X795401Y765810D03*
X795401Y761746D03*
D10*
X795401Y752856D03*
X795401Y743712D03*
D17*
X795401Y727710D03*
D10*
X795401Y723900D03*
D17*
X794893Y789686D03*
X794893Y781558D03*
X794893Y765810D03*
D10*
X794893Y761492D03*
X794893Y752348D03*
X794893Y743204D03*
D17*
X794893Y727710D03*
X794893Y723646D03*
X794385Y789686D03*
X794385Y781558D03*
X794385Y765810D03*
X794385Y761238D03*
X794385Y752094D03*
X794385Y742950D03*
X794385Y727202D03*
X794385Y723646D03*
D10*
X793877Y789432D03*
D17*
X793877Y781558D03*
X793877Y765810D03*
X793877Y761238D03*
D10*
X793877Y751840D03*
X793877Y742696D03*
D17*
X793877Y727202D03*
D10*
X793877Y723392D03*
D17*
X793369Y789178D03*
D10*
X793369Y781304D03*
X793369Y765556D03*
D17*
X793369Y761238D03*
D10*
X793369Y751332D03*
X793369Y742188D03*
D17*
X793369Y727202D03*
X793369Y723138D03*
X792861Y789178D03*
X792861Y781050D03*
D10*
X792861Y765556D03*
D17*
X792861Y761238D03*
X792861Y751078D03*
X792861Y741934D03*
X792861Y726694D03*
X792861Y723138D03*
X792353Y789178D03*
X792353Y781050D03*
X792353Y765302D03*
X792353Y761238D03*
D10*
X792353Y750824D03*
X792353Y741680D03*
D17*
X792353Y726694D03*
D10*
X792353Y722884D03*
X791845Y788924D03*
D17*
X791845Y781050D03*
X791845Y765302D03*
X791845Y761238D03*
D10*
X791845Y750316D03*
X791845Y741172D03*
D17*
X791845Y726694D03*
X791845Y722630D03*
X791337Y788670D03*
X791337Y781050D03*
X791337Y765302D03*
D10*
X791337Y760984D03*
D17*
X791337Y750062D03*
X791337Y740918D03*
X791337Y726186D03*
X791337Y722630D03*
X790829Y788670D03*
D10*
X790829Y780796D03*
D17*
X790829Y765302D03*
D10*
X790829Y760984D03*
X790829Y749808D03*
X790829Y740664D03*
D17*
X790829Y726186D03*
X790829Y722630D03*
X790321Y788670D03*
X790321Y780542D03*
X790321Y765302D03*
X790321Y760730D03*
X790321Y749554D03*
D10*
X790321Y740156D03*
D17*
X790321Y726186D03*
X790321Y722122D03*
D10*
X789813Y788416D03*
D17*
X789813Y780542D03*
X789813Y765302D03*
X789813Y760730D03*
X789813Y749046D03*
X789813Y739902D03*
X789813Y725678D03*
X789813Y722122D03*
X789305Y788162D03*
X789305Y780542D03*
X789305Y765302D03*
X789305Y760730D03*
D10*
X789305Y748792D03*
X789305Y739648D03*
D17*
X789305Y725678D03*
X789305Y722122D03*
X788797Y788162D03*
X788797Y780542D03*
D10*
X788797Y765048D03*
D17*
X788797Y760730D03*
D10*
X788797Y748284D03*
D17*
X788797Y739394D03*
X788797Y725678D03*
D10*
X788797Y721868D03*
D17*
X788289Y788162D03*
D10*
X788289Y780288D03*
X788289Y765048D03*
D17*
X788289Y760730D03*
X788289Y748030D03*
X788289Y738886D03*
X788289Y725678D03*
X788289Y721614D03*
D10*
X787781Y787908D03*
D17*
X787781Y780034D03*
D10*
X787781Y765048D03*
D17*
X787781Y760730D03*
D10*
X787781Y747776D03*
X787781Y738632D03*
D17*
X787781Y725170D03*
X787781Y721614D03*
X787273Y787654D03*
X787273Y780034D03*
X787273Y764794D03*
X787273Y760730D03*
D10*
X787273Y747268D03*
D17*
X787273Y738378D03*
X787273Y725170D03*
X787273Y721614D03*
X786765Y787654D03*
X786765Y780034D03*
X786765Y764794D03*
X786765Y760730D03*
X786765Y747014D03*
D10*
X786765Y738124D03*
D17*
X786765Y725170D03*
X786765Y721106D03*
X786257Y787654D03*
X786257Y780034D03*
X786257Y764794D03*
X786257Y760730D03*
D10*
X786257Y746760D03*
X786257Y737616D03*
D17*
X786257Y725170D03*
X786257Y721106D03*
D10*
X785749Y787400D03*
X785749Y779780D03*
D17*
X785749Y764794D03*
D10*
X785749Y760476D03*
X785749Y746252D03*
D17*
X785749Y737362D03*
X785749Y724662D03*
X785749Y721106D03*
X785241Y787146D03*
X785241Y779526D03*
X785241Y764794D03*
D10*
X785241Y760476D03*
D17*
X785241Y745998D03*
D10*
X785241Y737108D03*
D17*
X785241Y724662D03*
D10*
X785241Y720852D03*
D17*
X784733Y787146D03*
X784733Y779526D03*
X784733Y764794D03*
D10*
X784733Y760476D03*
X784733Y745744D03*
X784733Y736600D03*
D17*
X784733Y724662D03*
X784733Y720598D03*
X784225Y787146D03*
X784225Y779526D03*
X784225Y764794D03*
D10*
X784225Y760476D03*
X784225Y745236D03*
D17*
X784225Y736346D03*
X784225Y724662D03*
X784225Y720598D03*
D10*
X783717Y786892D03*
X783717Y779272D03*
D17*
X783717Y764794D03*
X783717Y760222D03*
X783717Y744982D03*
D10*
X783717Y736092D03*
D17*
X783717Y724154D03*
X783717Y720598D03*
X783209Y786638D03*
X783209Y779018D03*
X783209Y764794D03*
X783209Y760222D03*
D10*
X783209Y744728D03*
X783209Y735584D03*
D17*
X783209Y724154D03*
X783209Y720090D03*
X782701Y786638D03*
X782701Y779018D03*
X782701Y764794D03*
X782701Y760222D03*
X782701Y744474D03*
X782701Y735330D03*
X782701Y724154D03*
X782701Y720090D03*
X782193Y786638D03*
X782193Y779018D03*
X782193Y764794D03*
X782193Y760222D03*
D10*
X782193Y744220D03*
X782193Y735076D03*
D17*
X782193Y724154D03*
X782193Y720090D03*
D10*
X781685Y786384D03*
X781685Y778764D03*
D17*
X781685Y764794D03*
X781685Y760222D03*
D10*
X781685Y743712D03*
D17*
X781685Y734822D03*
D10*
X781685Y723900D03*
D17*
X781685Y720090D03*
X781177Y786130D03*
X781177Y778510D03*
X781177Y764794D03*
X781177Y760222D03*
X781177Y743458D03*
X781177Y734314D03*
X781177Y723646D03*
D10*
X781177Y719836D03*
D17*
X780669Y786130D03*
X780669Y778510D03*
X780669Y764794D03*
X780669Y760222D03*
D10*
X780669Y743204D03*
X780669Y734060D03*
D17*
X780669Y723646D03*
X780669Y719582D03*
X780161Y786130D03*
X780161Y778510D03*
X780161Y764794D03*
X780161Y760222D03*
D10*
X780161Y742696D03*
D17*
X780161Y733806D03*
X780161Y723646D03*
X780161Y719582D03*
D10*
X779653Y785876D03*
X779653Y778256D03*
D17*
X779653Y764794D03*
X779653Y760222D03*
X779653Y742442D03*
D10*
X779653Y733552D03*
D17*
X779653Y723646D03*
X779653Y719582D03*
X779145Y785622D03*
X779145Y778002D03*
X779145Y764794D03*
X779145Y760222D03*
D10*
X779145Y742188D03*
X779145Y733044D03*
X779145Y723392D03*
X779145Y719328D03*
D17*
X778637Y785622D03*
X778637Y778002D03*
X778637Y764794D03*
X778637Y760222D03*
X778637Y741934D03*
X778637Y732790D03*
X778637Y723138D03*
X778637Y719074D03*
X778129Y785622D03*
X778129Y778002D03*
X778129Y764794D03*
X778129Y760222D03*
D10*
X778129Y741680D03*
X778129Y732536D03*
D17*
X778129Y723138D03*
X778129Y719074D03*
X777621Y785622D03*
D10*
X777621Y777748D03*
D17*
X777621Y764794D03*
X777621Y760222D03*
D10*
X777621Y741172D03*
X777621Y732028D03*
D17*
X777621Y723138D03*
X777621Y719074D03*
D10*
X777113Y785368D03*
D17*
X777113Y777494D03*
X777113Y764794D03*
X777113Y760222D03*
X777113Y740918D03*
X777113Y731774D03*
X777113Y723138D03*
X777113Y719074D03*
X776605Y785114D03*
X776605Y777494D03*
X776605Y764794D03*
X776605Y760222D03*
D10*
X776605Y740664D03*
X776605Y731520D03*
X776605Y722884D03*
X776605Y718820D03*
D17*
X776097Y785114D03*
X776097Y777494D03*
X776097Y764794D03*
X776097Y760222D03*
X776097Y740410D03*
D10*
X776097Y731012D03*
D17*
X776097Y722630D03*
X776097Y718566D03*
X775589Y785114D03*
D10*
X775589Y777240D03*
D17*
X775589Y764794D03*
D10*
X775589Y760476D03*
X775589Y740156D03*
D17*
X775589Y730758D03*
X775589Y722630D03*
X775589Y718566D03*
D10*
X775081Y784860D03*
D17*
X775081Y776986D03*
X775081Y764794D03*
D10*
X775081Y760476D03*
D17*
X775081Y739902D03*
D10*
X775081Y730504D03*
D17*
X775081Y722630D03*
X775081Y718566D03*
X774573Y784606D03*
X774573Y776986D03*
X774573Y764794D03*
D10*
X774573Y760476D03*
X774573Y739648D03*
D17*
X774573Y730250D03*
X774573Y722630D03*
X774573Y718566D03*
X774065Y784606D03*
X774065Y776986D03*
X774065Y764794D03*
D10*
X774065Y760476D03*
D17*
X774065Y739394D03*
D10*
X774065Y729996D03*
D17*
X774065Y722630D03*
X774065Y718566D03*
X773557Y784606D03*
X773557Y776986D03*
X773557Y764794D03*
X773557Y760730D03*
X773557Y738886D03*
D10*
X773557Y729488D03*
D17*
X773557Y722630D03*
D10*
X773557Y718312D03*
D17*
X773049Y784606D03*
D10*
X773049Y776732D03*
D17*
X773049Y764794D03*
X773049Y760730D03*
D10*
X773049Y738632D03*
D17*
X773049Y729234D03*
D10*
X773049Y722376D03*
X773049Y718312D03*
X772541Y784352D03*
D17*
X772541Y776478D03*
X772541Y764794D03*
X772541Y760730D03*
X772541Y738378D03*
D10*
X772541Y728980D03*
X772541Y722376D03*
D17*
X772541Y718058D03*
X772033Y784098D03*
X772033Y776478D03*
X772033Y764794D03*
X772033Y760730D03*
D10*
X772033Y738124D03*
D17*
X772033Y728726D03*
X772033Y722122D03*
X772033Y718058D03*
X771525Y784098D03*
X771525Y776478D03*
X771525Y764794D03*
X771525Y760730D03*
X771525Y737870D03*
D10*
X771525Y728472D03*
D17*
X771525Y722122D03*
X771525Y718058D03*
X771017Y784098D03*
D10*
X771017Y776224D03*
D17*
X771017Y764794D03*
X771017Y760730D03*
D10*
X771017Y737616D03*
X771017Y727964D03*
D17*
X771017Y722122D03*
X771017Y718058D03*
X770509Y784098D03*
X770509Y775970D03*
D10*
X770509Y765048D03*
D17*
X770509Y760730D03*
X770509Y737362D03*
X770509Y727710D03*
X770509Y722122D03*
X770509Y718058D03*
D10*
X770001Y783844D03*
D17*
X770001Y775970D03*
D10*
X770001Y765048D03*
D17*
X770001Y760730D03*
D10*
X770001Y737108D03*
X770001Y727456D03*
D17*
X770001Y722122D03*
X770001Y718058D03*
X769493Y783590D03*
X769493Y775970D03*
D10*
X769493Y765048D03*
X769493Y760984D03*
D17*
X769493Y736854D03*
X769493Y727202D03*
X769493Y722122D03*
D10*
X769493Y717804D03*
D17*
X768985Y783590D03*
X768985Y775970D03*
X768985Y765302D03*
D10*
X768985Y760984D03*
X768985Y736600D03*
X768985Y726948D03*
D17*
X768985Y722122D03*
D10*
X768985Y717804D03*
D17*
X768477Y783590D03*
D10*
X768477Y775716D03*
D17*
X768477Y765302D03*
X768477Y761238D03*
X768477Y736346D03*
X768477Y726694D03*
D10*
X768477Y721868D03*
D17*
X768477Y717550D03*
X767969Y783590D03*
X767969Y775462D03*
X767969Y765302D03*
X767969Y761238D03*
D10*
X767969Y736092D03*
X767969Y726440D03*
X767969Y721868D03*
D17*
X767969Y717550D03*
D10*
X767461Y783336D03*
D17*
X767461Y775462D03*
X767461Y765302D03*
X767461Y761238D03*
X767461Y735838D03*
X767461Y726186D03*
D10*
X767461Y721868D03*
D17*
X767461Y717550D03*
D10*
X766953Y783336D03*
D17*
X766953Y775462D03*
X766953Y765302D03*
X766953Y761238D03*
D10*
X766953Y735584D03*
X766953Y725932D03*
D17*
X766953Y721614D03*
X766953Y717550D03*
X766445Y783082D03*
D10*
X766445Y775208D03*
D17*
X766445Y765302D03*
X766445Y761238D03*
X766445Y735330D03*
X766445Y725678D03*
X766445Y721614D03*
X766445Y717550D03*
X765937Y783082D03*
X765937Y774954D03*
X765937Y765302D03*
X765937Y761238D03*
X765937Y735330D03*
D10*
X765937Y725424D03*
D17*
X765937Y721614D03*
X765937Y717550D03*
X765429Y783082D03*
X765429Y774954D03*
X765429Y765302D03*
D10*
X765429Y761492D03*
X765429Y735076D03*
D17*
X765429Y725170D03*
X765429Y721614D03*
X765429Y717550D03*
X764921Y783082D03*
X764921Y774954D03*
D10*
X764921Y765556D03*
D17*
X764921Y761746D03*
X764921Y734822D03*
D10*
X764921Y724916D03*
D17*
X764921Y721614D03*
X764921Y717550D03*
D10*
X764413Y782828D03*
D17*
X764413Y774954D03*
D10*
X764413Y765556D03*
D17*
X764413Y761746D03*
D10*
X764413Y734568D03*
D17*
X764413Y724662D03*
X764413Y721614D03*
X764413Y717550D03*
X763905Y782574D03*
D10*
X763905Y774700D03*
D17*
X763905Y765810D03*
X763905Y761746D03*
X763905Y734314D03*
D10*
X763905Y724408D03*
D17*
X763905Y721614D03*
D10*
X763905Y717296D03*
D17*
X763397Y782574D03*
X763397Y774446D03*
X763397Y765810D03*
X763397Y761746D03*
D10*
X763397Y734060D03*
D17*
X763397Y724154D03*
X763397Y721614D03*
D10*
X763397Y717296D03*
D17*
X762889Y782574D03*
X762889Y774446D03*
X762889Y765810D03*
D10*
X762889Y762000D03*
D17*
X762889Y733806D03*
D10*
X762889Y723900D03*
D17*
X762889Y721614D03*
D10*
X762889Y717296D03*
D17*
X762381Y782574D03*
X762381Y774446D03*
X762381Y765810D03*
X762381Y762254D03*
X762381Y733806D03*
X762381Y723646D03*
X762381Y721614D03*
D10*
X762381Y717296D03*
D17*
X761873Y782574D03*
X761873Y774446D03*
X761873Y765810D03*
X761873Y762254D03*
D10*
X761873Y733552D03*
X761873Y723392D03*
D17*
X761873Y721614D03*
X761873Y717042D03*
X761365Y782574D03*
X761365Y774446D03*
X761365Y765810D03*
X761365Y762254D03*
X761365Y733298D03*
X761365Y723138D03*
X761365Y721614D03*
X761365Y717042D03*
D10*
X760857Y782320D03*
X760857Y774192D03*
X760857Y766064D03*
D17*
X760857Y762254D03*
X760857Y733298D03*
X760857Y723138D03*
X760857Y721614D03*
X760857Y717042D03*
X760349Y782066D03*
X760349Y773938D03*
X760349Y766318D03*
X760349Y762254D03*
X760349Y732790D03*
D15*
X760349Y722376D03*
D17*
X760349Y717042D03*
X759841Y782066D03*
X759841Y773938D03*
X759841Y766318D03*
D10*
X759841Y762508D03*
D17*
X759841Y732790D03*
D18*
X759841Y722122D03*
D17*
X759841Y717042D03*
X759333Y782066D03*
X759333Y773938D03*
X759333Y766318D03*
X759333Y762762D03*
X759333Y732790D03*
D18*
X759333Y722122D03*
D17*
X759333Y717042D03*
X758825Y782066D03*
X758825Y773938D03*
X758825Y766318D03*
X758825Y762762D03*
X758825Y732282D03*
D10*
X758825Y721868D03*
D17*
X758825Y717042D03*
X758317Y782066D03*
D10*
X758317Y773684D03*
X758317Y766572D03*
D17*
X758317Y762762D03*
X758317Y732282D03*
D18*
X758317Y721614D03*
D17*
X758317Y717042D03*
D10*
X757809Y781812D03*
D17*
X757809Y773430D03*
X757809Y766826D03*
X757809Y762762D03*
X757809Y732282D03*
D18*
X757809Y721614D03*
D17*
X757809Y717042D03*
X757301Y781558D03*
X757301Y773430D03*
X757301Y766826D03*
D10*
X757301Y763016D03*
D17*
X757301Y731774D03*
D10*
X757301Y721360D03*
D17*
X757301Y717042D03*
X756793Y781558D03*
X756793Y773430D03*
X756793Y766826D03*
X756793Y763270D03*
X756793Y731774D03*
D10*
X756793Y721360D03*
D17*
X756793Y717042D03*
X756285Y781558D03*
X756285Y773430D03*
X756285Y766826D03*
X756285Y763270D03*
X756285Y731774D03*
D10*
X756285Y721360D03*
D17*
X756285Y717042D03*
X755777Y781558D03*
X755777Y773430D03*
D10*
X755777Y767080D03*
D17*
X755777Y763270D03*
X755777Y731266D03*
D10*
X755777Y721360D03*
D17*
X755777Y717042D03*
D10*
X755269Y781304D03*
X755269Y773176D03*
D17*
X755269Y767334D03*
X755269Y763270D03*
X755269Y731266D03*
D18*
X755269Y721106D03*
D17*
X755269Y717042D03*
X754761Y781050D03*
X754761Y772922D03*
X754761Y767334D03*
D10*
X754761Y763524D03*
D17*
X754761Y731266D03*
D18*
X754761Y721106D03*
D17*
X754761Y717042D03*
X754253Y781050D03*
X754253Y772922D03*
X754253Y767334D03*
X754253Y763778D03*
X754253Y730758D03*
D10*
X754253Y720852D03*
D17*
X754253Y717042D03*
X753745Y781050D03*
X753745Y772922D03*
X753745Y767334D03*
X753745Y763778D03*
X753745Y730758D03*
D10*
X753745Y720852D03*
D17*
X753745Y717042D03*
X753237Y781050D03*
X753237Y772922D03*
X753237Y767842D03*
X753237Y763778D03*
X753237Y730758D03*
D10*
X753237Y720852D03*
D17*
X753237Y717042D03*
X752729Y781050D03*
X752729Y772922D03*
X752729Y767842D03*
X752729Y763778D03*
X752729Y730250D03*
D10*
X752729Y720852D03*
D17*
X752729Y717042D03*
D10*
X752221Y780796D03*
D17*
X752221Y772922D03*
X752221Y767842D03*
X752221Y764286D03*
X752221Y730250D03*
D10*
X752221Y720852D03*
D17*
X752221Y717042D03*
D10*
X751713Y780796D03*
X751713Y772668D03*
X751713Y768096D03*
D17*
X751713Y764286D03*
X751713Y730250D03*
D26*
X751713Y720852D03*
D17*
X751713Y717042D03*
X751205Y780542D03*
X751205Y772414D03*
X751205Y768350D03*
X751205Y764286D03*
X751205Y729742D03*
X751205Y717042D03*
X750697Y780542D03*
X750697Y772414D03*
X750697Y768350D03*
X750697Y764286D03*
X750697Y729742D03*
X750697Y717042D03*
X750189Y780542D03*
X750189Y772414D03*
X750189Y768350D03*
D10*
X750189Y764540D03*
D17*
X750189Y729742D03*
X750189Y717042D03*
X749681Y780542D03*
X749681Y772414D03*
D10*
X749681Y768604D03*
D17*
X749681Y764794D03*
X749681Y729234D03*
X749681Y717042D03*
X749173Y780542D03*
X749173Y772414D03*
X749173Y768858D03*
X749173Y764794D03*
X749173Y729234D03*
X749173Y717042D03*
D10*
X748665Y780288D03*
D17*
X748665Y772414D03*
X748665Y768858D03*
X748665Y764794D03*
D10*
X748665Y728980D03*
D17*
X748665Y717042D03*
X748157Y780034D03*
D10*
X748157Y772160D03*
X748157Y769112D03*
X748157Y765048D03*
D17*
X748157Y728726D03*
X748157Y717042D03*
X747649Y780034D03*
D10*
X747649Y772160D03*
D17*
X747649Y769366D03*
X747649Y765302D03*
X747649Y728726D03*
D10*
X747649Y717296D03*
D17*
X747141Y780034D03*
X747141Y771906D03*
X747141Y769366D03*
X747141Y765302D03*
D10*
X747141Y728472D03*
X747141Y717296D03*
D17*
X746633Y780034D03*
X746633Y771906D03*
D10*
X746633Y769620D03*
D17*
X746633Y765302D03*
X746633Y728218D03*
D10*
X746633Y717296D03*
D17*
X746125Y780034D03*
X746125Y771906D03*
X746125Y769874D03*
X746125Y765810D03*
X746125Y728218D03*
D10*
X746125Y717296D03*
D17*
X745617Y780034D03*
X745617Y771906D03*
X745617Y769874D03*
X745617Y765810D03*
D10*
X745617Y727964D03*
X745617Y717296D03*
D17*
X745109Y780034D03*
X745109Y771906D03*
D10*
X745109Y770128D03*
D17*
X745109Y765810D03*
X745109Y727710D03*
X745109Y717550D03*
D10*
X744601Y779780D03*
D17*
X744601Y771906D03*
X744601Y770382D03*
X744601Y766318D03*
X744601Y727710D03*
X744601Y717550D03*
X744093Y779526D03*
D15*
X744093Y771144D03*
D17*
X744093Y766318D03*
D10*
X744093Y727456D03*
D17*
X744093Y717550D03*
X743585Y779526D03*
D18*
X743585Y771398D03*
D17*
X743585Y766318D03*
X743585Y727202D03*
X743585Y717550D03*
X743077Y779526D03*
D18*
X743077Y771398D03*
D10*
X743077Y766572D03*
D17*
X743077Y727202D03*
X743077Y717550D03*
X742569Y779526D03*
D18*
X742569Y771398D03*
D17*
X742569Y766826D03*
D10*
X742569Y726948D03*
D17*
X742569Y717550D03*
X742061Y779526D03*
D18*
X742061Y771398D03*
D17*
X742061Y766826D03*
X742061Y726694D03*
X742061Y717550D03*
X741553Y779526D03*
D18*
X741553Y771398D03*
D17*
X741553Y767334D03*
X741553Y726694D03*
X741553Y717550D03*
X741045Y779526D03*
D18*
X741045Y771398D03*
D17*
X741045Y767334D03*
D10*
X741045Y726440D03*
D17*
X741045Y717550D03*
X740537Y779526D03*
D18*
X740537Y771398D03*
D10*
X740537Y767588D03*
D17*
X740537Y726186D03*
X740537Y717550D03*
D10*
X740029Y779272D03*
D18*
X740029Y771398D03*
D17*
X740029Y767842D03*
X740029Y726186D03*
X740029Y717550D03*
D10*
X739521Y779272D03*
X739521Y771652D03*
D17*
X739521Y767842D03*
X739521Y725678D03*
D10*
X739521Y717804D03*
D17*
X739013Y779018D03*
D10*
X739013Y771652D03*
D17*
X739013Y767842D03*
X739013Y725678D03*
X739013Y718058D03*
X738505Y779018D03*
D10*
X738505Y771652D03*
D17*
X738505Y768350D03*
X738505Y725678D03*
X738505Y718058D03*
X737997Y779018D03*
D10*
X737997Y771652D03*
D17*
X737997Y768350D03*
X737997Y725170D03*
X737997Y718058D03*
X737489Y779018D03*
D26*
X737489Y771652D03*
D17*
X737489Y768350D03*
X737489Y725170D03*
X737489Y718058D03*
X736981Y779018D03*
D10*
X736981Y768604D03*
X736981Y724916D03*
D17*
X736981Y718058D03*
X736473Y779018D03*
X736473Y768858D03*
X736473Y724662D03*
D10*
X736473Y718312D03*
D17*
X735965Y779018D03*
X735965Y768858D03*
D10*
X735965Y724408D03*
D17*
X735965Y718566D03*
X735457Y779018D03*
D10*
X735457Y769112D03*
D17*
X735457Y724154D03*
X735457Y718566D03*
D10*
X734949Y778764D03*
D17*
X734949Y769366D03*
D10*
X734949Y723900D03*
D17*
X734949Y718566D03*
D10*
X734441Y778764D03*
D17*
X734441Y769366D03*
X734441Y723646D03*
D10*
X734441Y718820D03*
D17*
X733933Y778510D03*
D10*
X733933Y769620D03*
X733933Y723392D03*
D17*
X733933Y719074D03*
X733425Y778510D03*
X733425Y769874D03*
D10*
X733425Y722884D03*
X733425Y719328D03*
D17*
X732917Y778510D03*
X732917Y769874D03*
D10*
X732917Y722376D03*
D17*
X732917Y719582D03*
X732409Y778510D03*
D10*
X732409Y770128D03*
D14*
X732409Y720852D03*
D17*
X731901Y778510D03*
X731901Y770382D03*
D18*
X731901Y720598D03*
D17*
X731393Y778510D03*
X731393Y770382D03*
X730885Y778510D03*
D10*
X730885Y770636D03*
D17*
X730377Y778510D03*
X730377Y770890D03*
X729869Y778510D03*
X729869Y770890D03*
X729361Y778510D03*
X729361Y771398D03*
D10*
X728853Y778256D03*
D17*
X728853Y771398D03*
D10*
X728345Y778256D03*
X728345Y771652D03*
X727837Y778256D03*
D17*
X727837Y771906D03*
X727329Y778002D03*
D10*
X727329Y772160D03*
D17*
X726821Y778002D03*
X726821Y772414D03*
X726313Y778002D03*
D10*
X726313Y772668D03*
D17*
X725805Y778002D03*
X725805Y772922D03*
X725297Y778002D03*
D10*
X725297Y773176D03*
D17*
X724789Y778002D03*
D10*
X724789Y773684D03*
D17*
X724281Y778002D03*
D10*
X724281Y774192D03*
X723773Y777748D03*
X723773Y774700D03*
D11*
X723265Y775970D03*
D15*
X722757Y776224D03*
D52*
X869808Y667753D02*
X869808Y661262D01*
X869810Y661103D01*
X869816Y660944D01*
X869826Y660784D01*
X869839Y660626D01*
X869857Y660467D01*
X869878Y660310D01*
X869904Y660152D01*
X869933Y659996D01*
X869966Y659840D01*
X870003Y659685D01*
X870043Y659531D01*
X870088Y659378D01*
X870136Y659226D01*
X870187Y659075D01*
X870243Y658926D01*
X870302Y658778D01*
X870365Y658632D01*
X870431Y658487D01*
X870501Y658344D01*
X870574Y658202D01*
X870651Y658063D01*
X870731Y657925D01*
X870815Y657789D01*
X870902Y657656D01*
X870992Y657524D01*
X871085Y657395D01*
X871182Y657269D01*
X871281Y657144D01*
X871384Y657022D01*
X871489Y656903D01*
X871598Y656786D01*
X871709Y656672D01*
X871823Y656561D01*
X871940Y656452D01*
X872059Y656347D01*
X872181Y656244D01*
X872306Y656145D01*
X872432Y656048D01*
X872561Y655955D01*
X872693Y655865D01*
X872826Y655778D01*
X872962Y655694D01*
X873100Y655614D01*
X873239Y655537D01*
X873381Y655464D01*
X873524Y655394D01*
X873669Y655328D01*
X873815Y655265D01*
X873963Y655206D01*
X874112Y655150D01*
X874263Y655099D01*
X874415Y655051D01*
X874568Y655006D01*
X874722Y654966D01*
X874877Y654929D01*
X875033Y654896D01*
X875189Y654867D01*
X875347Y654841D01*
X875504Y654820D01*
X875663Y654802D01*
X875821Y654789D01*
X875981Y654779D01*
X876140Y654773D01*
X876299Y654771D01*
X876458Y654773D01*
X876617Y654779D01*
X876777Y654789D01*
X876935Y654802D01*
X877094Y654820D01*
X877251Y654841D01*
X877409Y654867D01*
X877565Y654896D01*
X877721Y654929D01*
X877876Y654966D01*
X878030Y655006D01*
X878183Y655051D01*
X878335Y655099D01*
X878486Y655150D01*
X878635Y655206D01*
X878783Y655265D01*
X878929Y655328D01*
X879074Y655394D01*
X879217Y655464D01*
X879359Y655537D01*
X879498Y655614D01*
X879636Y655694D01*
X879772Y655778D01*
X879905Y655865D01*
X880037Y655955D01*
X880166Y656048D01*
X880292Y656145D01*
X880417Y656244D01*
X880539Y656347D01*
X880658Y656452D01*
X880775Y656561D01*
X880889Y656672D01*
X881000Y656786D01*
X881109Y656903D01*
X881214Y657022D01*
X881317Y657144D01*
X881416Y657269D01*
X881513Y657395D01*
X881606Y657524D01*
X881696Y657656D01*
X881783Y657789D01*
X881867Y657925D01*
X881947Y658063D01*
X882024Y658202D01*
X882097Y658344D01*
X882167Y658487D01*
X882233Y658632D01*
X882296Y658778D01*
X882355Y658926D01*
X882411Y659075D01*
X882462Y659226D01*
X882510Y659378D01*
X882555Y659531D01*
X882595Y659685D01*
X882632Y659840D01*
X882665Y659996D01*
X882694Y660152D01*
X882720Y660310D01*
X882741Y660467D01*
X882759Y660626D01*
X882772Y660784D01*
X882782Y660944D01*
X882788Y661103D01*
X882790Y661262D01*
X882790Y667753D01*
X859422Y667753D01*
X859422Y661262D01*
X859424Y661119D01*
X859430Y660976D01*
X859440Y660833D01*
X859454Y660691D01*
X859471Y660549D01*
X859493Y660407D01*
X859518Y660266D01*
X859548Y660126D01*
X859581Y659987D01*
X859618Y659849D01*
X859659Y659712D01*
X859703Y659576D01*
X859752Y659441D01*
X859804Y659308D01*
X859859Y659176D01*
X859919Y659046D01*
X859982Y658917D01*
X860048Y658790D01*
X860118Y658666D01*
X860191Y658543D01*
X860268Y658422D01*
X860348Y658303D01*
X860431Y658187D01*
X860517Y658072D01*
X860606Y657961D01*
X860699Y657851D01*
X860794Y657745D01*
X860893Y657641D01*
X860994Y657540D01*
X861098Y657441D01*
X861204Y657346D01*
X861314Y657253D01*
X861425Y657164D01*
X861540Y657078D01*
X861656Y656995D01*
X861775Y656915D01*
X861896Y656838D01*
X862019Y656765D01*
X862143Y656695D01*
X862270Y656629D01*
X862399Y656566D01*
X862529Y656506D01*
X862661Y656451D01*
X862794Y656399D01*
X862929Y656350D01*
X863065Y656306D01*
X863202Y656265D01*
X863340Y656228D01*
X863479Y656195D01*
X863619Y656165D01*
X863760Y656140D01*
X863902Y656118D01*
X864044Y656101D01*
X864186Y656087D01*
X864329Y656077D01*
X864472Y656071D01*
X864615Y656069D01*
X864758Y656071D01*
X864901Y656077D01*
X865044Y656087D01*
X865186Y656101D01*
X865328Y656118D01*
X865470Y656140D01*
X865611Y656165D01*
X865751Y656195D01*
X865890Y656228D01*
X866028Y656265D01*
X866165Y656306D01*
X866301Y656350D01*
X866436Y656399D01*
X866569Y656451D01*
X866701Y656506D01*
X866831Y656566D01*
X866960Y656629D01*
X867087Y656695D01*
X867211Y656765D01*
X867334Y656838D01*
X867455Y656915D01*
X867574Y656995D01*
X867690Y657078D01*
X867805Y657164D01*
X867916Y657253D01*
X868026Y657346D01*
X868132Y657441D01*
X868236Y657540D01*
X868337Y657641D01*
X868436Y657745D01*
X868531Y657851D01*
X868624Y657961D01*
X868713Y658072D01*
X868799Y658187D01*
X868882Y658303D01*
X868962Y658422D01*
X869039Y658543D01*
X869112Y658665D01*
X869182Y658790D01*
X869248Y658917D01*
X869311Y659046D01*
X869371Y659176D01*
X869426Y659308D01*
X869478Y659441D01*
X869527Y659576D01*
X869571Y659712D01*
X869612Y659849D01*
X869649Y659987D01*
X869682Y660126D01*
X869712Y660266D01*
X869737Y660407D01*
X869759Y660549D01*
X869776Y660691D01*
X869790Y660833D01*
X869800Y660976D01*
X869806Y661119D01*
X869808Y661262D01*
X867211Y647116D02*
X878895Y647116D01*
X879017Y647114D01*
X879140Y647108D01*
X879262Y647099D01*
X879383Y647085D01*
X879504Y647068D01*
X879625Y647047D01*
X879745Y647022D01*
X879864Y646994D01*
X879982Y646961D01*
X880099Y646925D01*
X880214Y646886D01*
X880329Y646842D01*
X880442Y646796D01*
X880553Y646745D01*
X880663Y646691D01*
X880771Y646634D01*
X880878Y646574D01*
X880982Y646510D01*
X881084Y646442D01*
X881184Y646372D01*
X881282Y646299D01*
X881378Y646222D01*
X881471Y646143D01*
X881561Y646060D01*
X881649Y645975D01*
X881734Y645887D01*
X881817Y645797D01*
X881896Y645704D01*
X881973Y645608D01*
X882046Y645510D01*
X882116Y645410D01*
X882184Y645308D01*
X882248Y645204D01*
X882308Y645097D01*
X882365Y644989D01*
X882419Y644879D01*
X882470Y644768D01*
X882516Y644655D01*
X882560Y644540D01*
X882599Y644425D01*
X882635Y644308D01*
X882668Y644190D01*
X882696Y644071D01*
X882721Y643951D01*
X882742Y643830D01*
X882759Y643709D01*
X882773Y643588D01*
X882782Y643466D01*
X882788Y643343D01*
X882790Y643221D01*
X882790Y636730D01*
X867211Y636730D01*
X882790Y624416D02*
X882790Y619223D01*
X882790Y624416D02*
X882788Y624538D01*
X882782Y624661D01*
X882773Y624783D01*
X882759Y624904D01*
X882742Y625025D01*
X882721Y625146D01*
X882696Y625266D01*
X882668Y625385D01*
X882635Y625503D01*
X882599Y625620D01*
X882560Y625735D01*
X882516Y625850D01*
X882470Y625963D01*
X882419Y626074D01*
X882365Y626184D01*
X882308Y626292D01*
X882248Y626399D01*
X882184Y626503D01*
X882116Y626605D01*
X882046Y626705D01*
X881973Y626803D01*
X881896Y626899D01*
X881817Y626992D01*
X881734Y627082D01*
X881649Y627170D01*
X881561Y627255D01*
X881471Y627338D01*
X881378Y627417D01*
X881282Y627494D01*
X881184Y627567D01*
X881084Y627637D01*
X880982Y627705D01*
X880878Y627769D01*
X880771Y627829D01*
X880663Y627886D01*
X880553Y627940D01*
X880442Y627991D01*
X880329Y628037D01*
X880214Y628081D01*
X880099Y628120D01*
X879982Y628156D01*
X879864Y628189D01*
X879745Y628217D01*
X879625Y628242D01*
X879504Y628263D01*
X879383Y628280D01*
X879262Y628294D01*
X879140Y628303D01*
X879017Y628309D01*
X878895Y628311D01*
X878895Y628310D02*
X871106Y628310D01*
X871106Y628311D02*
X870984Y628309D01*
X870861Y628303D01*
X870739Y628294D01*
X870618Y628280D01*
X870497Y628263D01*
X870376Y628242D01*
X870256Y628217D01*
X870137Y628189D01*
X870019Y628156D01*
X869902Y628120D01*
X869787Y628081D01*
X869672Y628037D01*
X869559Y627991D01*
X869448Y627940D01*
X869338Y627886D01*
X869230Y627829D01*
X869123Y627769D01*
X869019Y627705D01*
X868917Y627637D01*
X868817Y627567D01*
X868719Y627494D01*
X868623Y627417D01*
X868530Y627338D01*
X868440Y627255D01*
X868352Y627170D01*
X868267Y627082D01*
X868184Y626992D01*
X868105Y626899D01*
X868028Y626803D01*
X867955Y626705D01*
X867885Y626605D01*
X867817Y626503D01*
X867753Y626399D01*
X867693Y626292D01*
X867636Y626184D01*
X867582Y626074D01*
X867531Y625963D01*
X867485Y625850D01*
X867441Y625735D01*
X867402Y625620D01*
X867366Y625503D01*
X867333Y625385D01*
X867305Y625266D01*
X867280Y625146D01*
X867259Y625025D01*
X867242Y624904D01*
X867228Y624783D01*
X867219Y624661D01*
X867213Y624538D01*
X867211Y624416D01*
X867211Y619223D01*
X859422Y611504D02*
X882790Y611504D01*
X875000Y611504D02*
X867211Y601118D01*
X871755Y606960D02*
X882790Y601118D01*
X873702Y592276D02*
X876299Y585785D01*
X873702Y592276D02*
X873658Y592382D01*
X873609Y592487D01*
X873557Y592590D01*
X873502Y592691D01*
X873443Y592791D01*
X873381Y592888D01*
X873316Y592983D01*
X873247Y593075D01*
X873175Y593166D01*
X873101Y593253D01*
X873023Y593339D01*
X872942Y593421D01*
X872859Y593501D01*
X872773Y593577D01*
X872684Y593651D01*
X872593Y593722D01*
X872499Y593789D01*
X872403Y593853D01*
X872305Y593914D01*
X872206Y593972D01*
X872104Y594026D01*
X872000Y594076D01*
X871895Y594123D01*
X871788Y594167D01*
X871679Y594206D01*
X871570Y594242D01*
X871459Y594274D01*
X871347Y594303D01*
X871235Y594327D01*
X871121Y594348D01*
X871007Y594364D01*
X870892Y594377D01*
X870777Y594386D01*
X870662Y594391D01*
X870547Y594392D01*
X870432Y594389D01*
X870316Y594382D01*
X870202Y594371D01*
X870087Y594356D01*
X869974Y594337D01*
X869860Y594315D01*
X869748Y594288D01*
X869637Y594258D01*
X869527Y594224D01*
X869418Y594186D01*
X869310Y594145D01*
X869204Y594099D01*
X869100Y594050D01*
X868997Y593998D01*
X868896Y593942D01*
X868797Y593883D01*
X868700Y593820D01*
X868606Y593754D01*
X868513Y593685D01*
X868423Y593613D01*
X868336Y593538D01*
X868251Y593459D01*
X868169Y593378D01*
X868090Y593294D01*
X868014Y593208D01*
X867941Y593119D01*
X867871Y593027D01*
X867804Y592933D01*
X867740Y592837D01*
X867680Y592739D01*
X867623Y592639D01*
X867569Y592537D01*
X867519Y592433D01*
X867473Y592327D01*
X867430Y592220D01*
X867391Y592111D01*
X867356Y592002D01*
X867324Y591891D01*
X867296Y591779D01*
X867272Y591666D01*
X867252Y591552D01*
X867236Y591438D01*
X867224Y591324D01*
X867216Y591209D01*
X867212Y591093D01*
X867211Y590978D01*
X867212Y590978D02*
X867221Y590623D01*
X867239Y590269D01*
X867265Y589916D01*
X867300Y589563D01*
X867343Y589211D01*
X867395Y588860D01*
X867455Y588511D01*
X867524Y588163D01*
X867601Y587817D01*
X867686Y587473D01*
X867779Y587131D01*
X867881Y586792D01*
X867991Y586455D01*
X868108Y586120D01*
X868234Y585789D01*
X868368Y585461D01*
X868510Y585136D01*
X876299Y585785D02*
X876343Y585679D01*
X876392Y585574D01*
X876444Y585471D01*
X876499Y585370D01*
X876558Y585270D01*
X876620Y585173D01*
X876685Y585078D01*
X876754Y584986D01*
X876826Y584895D01*
X876900Y584808D01*
X876978Y584722D01*
X877059Y584640D01*
X877142Y584560D01*
X877228Y584484D01*
X877317Y584410D01*
X877408Y584339D01*
X877502Y584272D01*
X877598Y584208D01*
X877696Y584147D01*
X877795Y584089D01*
X877897Y584035D01*
X878001Y583985D01*
X878106Y583938D01*
X878213Y583894D01*
X878322Y583855D01*
X878431Y583819D01*
X878542Y583787D01*
X878654Y583758D01*
X878766Y583734D01*
X878880Y583713D01*
X878994Y583697D01*
X879109Y583684D01*
X879224Y583675D01*
X879339Y583670D01*
X879454Y583669D01*
X879569Y583672D01*
X879685Y583679D01*
X879799Y583690D01*
X879914Y583705D01*
X880027Y583724D01*
X880141Y583746D01*
X880253Y583773D01*
X880364Y583803D01*
X880474Y583837D01*
X880583Y583875D01*
X880691Y583916D01*
X880797Y583962D01*
X880901Y584011D01*
X881004Y584063D01*
X881105Y584119D01*
X881204Y584178D01*
X881301Y584241D01*
X881395Y584307D01*
X881488Y584376D01*
X881578Y584448D01*
X881665Y584523D01*
X881750Y584602D01*
X881832Y584683D01*
X881911Y584767D01*
X881987Y584853D01*
X882060Y584942D01*
X882130Y585034D01*
X882197Y585128D01*
X882261Y585224D01*
X882321Y585322D01*
X882378Y585422D01*
X882432Y585524D01*
X882482Y585628D01*
X882528Y585734D01*
X882571Y585841D01*
X882610Y585950D01*
X882645Y586059D01*
X882677Y586170D01*
X882705Y586282D01*
X882729Y586395D01*
X882749Y586509D01*
X882765Y586623D01*
X882777Y586737D01*
X882785Y586853D01*
X882789Y586968D01*
X882790Y587083D01*
X882776Y587603D01*
X882750Y588123D01*
X882712Y588643D01*
X882662Y589161D01*
X882599Y589678D01*
X882524Y590193D01*
X882437Y590707D01*
X882338Y591218D01*
X882226Y591726D01*
X882103Y592232D01*
X881968Y592735D01*
X881821Y593235D01*
X881662Y593731D01*
X881492Y594223D01*
X882790Y559730D02*
X882790Y554537D01*
X882790Y559730D02*
X882788Y559873D01*
X882782Y560016D01*
X882772Y560159D01*
X882758Y560301D01*
X882741Y560443D01*
X882719Y560585D01*
X882694Y560726D01*
X882664Y560866D01*
X882631Y561005D01*
X882594Y561143D01*
X882553Y561280D01*
X882509Y561416D01*
X882460Y561551D01*
X882408Y561684D01*
X882353Y561816D01*
X882293Y561946D01*
X882230Y562075D01*
X882164Y562202D01*
X882094Y562327D01*
X882021Y562449D01*
X881944Y562570D01*
X881864Y562689D01*
X881781Y562805D01*
X881695Y562920D01*
X881606Y563031D01*
X881513Y563141D01*
X881418Y563247D01*
X881319Y563351D01*
X881218Y563452D01*
X881114Y563551D01*
X881008Y563646D01*
X880898Y563739D01*
X880787Y563828D01*
X880672Y563914D01*
X880556Y563997D01*
X880437Y564077D01*
X880316Y564154D01*
X880194Y564227D01*
X880069Y564297D01*
X879942Y564363D01*
X879813Y564426D01*
X879683Y564486D01*
X879551Y564541D01*
X879418Y564593D01*
X879283Y564642D01*
X879147Y564686D01*
X879010Y564727D01*
X878872Y564764D01*
X878733Y564797D01*
X878593Y564827D01*
X878452Y564852D01*
X878310Y564874D01*
X878168Y564891D01*
X878026Y564905D01*
X877883Y564915D01*
X877740Y564921D01*
X877597Y564923D01*
X864615Y564923D01*
X864472Y564921D01*
X864329Y564915D01*
X864186Y564905D01*
X864044Y564891D01*
X863902Y564874D01*
X863760Y564852D01*
X863619Y564827D01*
X863479Y564797D01*
X863340Y564764D01*
X863202Y564727D01*
X863065Y564686D01*
X862929Y564642D01*
X862794Y564593D01*
X862661Y564541D01*
X862529Y564486D01*
X862399Y564426D01*
X862270Y564363D01*
X862143Y564297D01*
X862019Y564227D01*
X861896Y564154D01*
X861775Y564077D01*
X861656Y563998D01*
X861540Y563914D01*
X861425Y563828D01*
X861314Y563739D01*
X861205Y563646D01*
X861098Y563551D01*
X860994Y563452D01*
X860893Y563351D01*
X860794Y563247D01*
X860699Y563141D01*
X860606Y563031D01*
X860517Y562920D01*
X860431Y562806D01*
X860348Y562689D01*
X860268Y562570D01*
X860191Y562449D01*
X860118Y562327D01*
X860048Y562202D01*
X859982Y562075D01*
X859919Y561946D01*
X859859Y561816D01*
X859804Y561684D01*
X859752Y561551D01*
X859703Y561416D01*
X859659Y561280D01*
X859618Y561143D01*
X859581Y561005D01*
X859548Y560866D01*
X859518Y560726D01*
X859493Y560585D01*
X859471Y560443D01*
X859454Y560301D01*
X859440Y560159D01*
X859430Y560016D01*
X859424Y559873D01*
X859422Y559730D01*
X859422Y554537D01*
X872404Y547594D02*
X877597Y547594D01*
X872404Y547594D02*
X872261Y547592D01*
X872118Y547586D01*
X871975Y547576D01*
X871833Y547562D01*
X871691Y547545D01*
X871549Y547523D01*
X871408Y547498D01*
X871268Y547468D01*
X871129Y547435D01*
X870991Y547398D01*
X870854Y547357D01*
X870718Y547313D01*
X870583Y547264D01*
X870450Y547212D01*
X870318Y547157D01*
X870188Y547097D01*
X870059Y547034D01*
X869932Y546968D01*
X869808Y546898D01*
X869685Y546825D01*
X869564Y546748D01*
X869445Y546668D01*
X869329Y546585D01*
X869214Y546499D01*
X869103Y546410D01*
X868993Y546317D01*
X868887Y546222D01*
X868783Y546123D01*
X868682Y546022D01*
X868583Y545918D01*
X868488Y545812D01*
X868395Y545702D01*
X868306Y545591D01*
X868220Y545476D01*
X868137Y545360D01*
X868057Y545241D01*
X867980Y545120D01*
X867907Y544998D01*
X867837Y544873D01*
X867771Y544746D01*
X867708Y544617D01*
X867648Y544487D01*
X867593Y544355D01*
X867541Y544222D01*
X867492Y544087D01*
X867448Y543951D01*
X867407Y543814D01*
X867370Y543676D01*
X867337Y543537D01*
X867307Y543397D01*
X867282Y543256D01*
X867260Y543114D01*
X867243Y542972D01*
X867229Y542830D01*
X867219Y542687D01*
X867213Y542544D01*
X867211Y542401D01*
X867213Y542258D01*
X867219Y542115D01*
X867229Y541972D01*
X867243Y541830D01*
X867260Y541688D01*
X867282Y541546D01*
X867307Y541405D01*
X867337Y541265D01*
X867370Y541126D01*
X867407Y540988D01*
X867448Y540851D01*
X867492Y540715D01*
X867541Y540580D01*
X867593Y540447D01*
X867648Y540315D01*
X867708Y540185D01*
X867771Y540056D01*
X867837Y539929D01*
X867907Y539805D01*
X867980Y539682D01*
X868057Y539561D01*
X868137Y539442D01*
X868220Y539326D01*
X868306Y539211D01*
X868395Y539100D01*
X868488Y538990D01*
X868583Y538884D01*
X868682Y538780D01*
X868783Y538679D01*
X868887Y538580D01*
X868993Y538485D01*
X869103Y538392D01*
X869214Y538303D01*
X869329Y538217D01*
X869445Y538134D01*
X869564Y538054D01*
X869685Y537977D01*
X869807Y537904D01*
X869932Y537834D01*
X870059Y537768D01*
X870188Y537705D01*
X870318Y537645D01*
X870450Y537590D01*
X870583Y537538D01*
X870718Y537489D01*
X870854Y537445D01*
X870991Y537404D01*
X871129Y537367D01*
X871268Y537334D01*
X871408Y537304D01*
X871549Y537279D01*
X871691Y537257D01*
X871833Y537240D01*
X871975Y537226D01*
X872118Y537216D01*
X872261Y537210D01*
X872404Y537208D01*
X877597Y537208D01*
X877740Y537210D01*
X877883Y537216D01*
X878026Y537226D01*
X878168Y537240D01*
X878310Y537257D01*
X878452Y537279D01*
X878593Y537304D01*
X878733Y537334D01*
X878872Y537367D01*
X879010Y537404D01*
X879147Y537445D01*
X879283Y537489D01*
X879418Y537538D01*
X879551Y537590D01*
X879683Y537645D01*
X879813Y537705D01*
X879942Y537768D01*
X880069Y537834D01*
X880194Y537904D01*
X880316Y537977D01*
X880437Y538054D01*
X880556Y538134D01*
X880672Y538217D01*
X880787Y538303D01*
X880898Y538392D01*
X881008Y538485D01*
X881114Y538580D01*
X881218Y538679D01*
X881319Y538780D01*
X881418Y538884D01*
X881513Y538990D01*
X881606Y539100D01*
X881695Y539211D01*
X881781Y539326D01*
X881864Y539442D01*
X881944Y539561D01*
X882021Y539682D01*
X882094Y539805D01*
X882164Y539929D01*
X882230Y540056D01*
X882293Y540185D01*
X882353Y540315D01*
X882408Y540447D01*
X882460Y540580D01*
X882509Y540715D01*
X882553Y540851D01*
X882594Y540988D01*
X882631Y541126D01*
X882664Y541265D01*
X882694Y541405D01*
X882719Y541546D01*
X882741Y541688D01*
X882758Y541830D01*
X882772Y541972D01*
X882782Y542115D01*
X882788Y542258D01*
X882790Y542401D01*
X882788Y542544D01*
X882782Y542687D01*
X882772Y542830D01*
X882758Y542972D01*
X882741Y543114D01*
X882719Y543256D01*
X882694Y543397D01*
X882664Y543537D01*
X882631Y543676D01*
X882594Y543814D01*
X882553Y543951D01*
X882509Y544087D01*
X882460Y544222D01*
X882408Y544355D01*
X882353Y544487D01*
X882293Y544617D01*
X882230Y544746D01*
X882164Y544873D01*
X882094Y544997D01*
X882021Y545120D01*
X881944Y545241D01*
X881864Y545360D01*
X881781Y545476D01*
X881695Y545591D01*
X881606Y545702D01*
X881513Y545812D01*
X881418Y545918D01*
X881319Y546022D01*
X881218Y546123D01*
X881114Y546222D01*
X881008Y546317D01*
X880898Y546410D01*
X880787Y546499D01*
X880672Y546585D01*
X880556Y546668D01*
X880437Y546748D01*
X880316Y546825D01*
X880194Y546898D01*
X880069Y546968D01*
X879942Y547034D01*
X879813Y547097D01*
X879683Y547157D01*
X879551Y547212D01*
X879418Y547264D01*
X879283Y547313D01*
X879147Y547357D01*
X879010Y547398D01*
X878872Y547435D01*
X878733Y547468D01*
X878593Y547498D01*
X878452Y547523D01*
X878310Y547545D01*
X878168Y547562D01*
X878026Y547576D01*
X877883Y547586D01*
X877740Y547592D01*
X877597Y547594D01*
X882790Y528803D02*
X867211Y528803D01*
X867211Y522312D01*
X867213Y522190D01*
X867219Y522067D01*
X867228Y521945D01*
X867242Y521824D01*
X867259Y521703D01*
X867280Y521582D01*
X867305Y521462D01*
X867333Y521343D01*
X867366Y521225D01*
X867402Y521108D01*
X867441Y520993D01*
X867485Y520878D01*
X867531Y520765D01*
X867582Y520654D01*
X867636Y520544D01*
X867693Y520436D01*
X867753Y520329D01*
X867817Y520225D01*
X867885Y520123D01*
X867955Y520023D01*
X868028Y519925D01*
X868105Y519829D01*
X868184Y519736D01*
X868267Y519646D01*
X868352Y519558D01*
X868440Y519473D01*
X868530Y519390D01*
X868623Y519311D01*
X868719Y519234D01*
X868817Y519161D01*
X868917Y519091D01*
X869019Y519023D01*
X869123Y518959D01*
X869230Y518899D01*
X869338Y518842D01*
X869448Y518788D01*
X869559Y518737D01*
X869672Y518691D01*
X869787Y518647D01*
X869902Y518608D01*
X870019Y518572D01*
X870137Y518539D01*
X870256Y518511D01*
X870376Y518486D01*
X870497Y518465D01*
X870618Y518448D01*
X870739Y518434D01*
X870861Y518425D01*
X870984Y518419D01*
X871106Y518417D01*
X882790Y518417D01*
X882790Y505515D02*
X867211Y510708D01*
X867211Y500322D02*
X882790Y505515D01*
X882790Y489414D02*
X882790Y482923D01*
X882790Y489414D02*
X882788Y489536D01*
X882782Y489659D01*
X882773Y489781D01*
X882759Y489902D01*
X882742Y490023D01*
X882721Y490144D01*
X882696Y490264D01*
X882668Y490383D01*
X882635Y490501D01*
X882599Y490618D01*
X882560Y490733D01*
X882516Y490848D01*
X882470Y490961D01*
X882419Y491072D01*
X882365Y491182D01*
X882308Y491290D01*
X882248Y491397D01*
X882184Y491501D01*
X882116Y491603D01*
X882046Y491703D01*
X881973Y491801D01*
X881896Y491897D01*
X881817Y491990D01*
X881734Y492080D01*
X881649Y492168D01*
X881561Y492253D01*
X881471Y492336D01*
X881378Y492415D01*
X881282Y492492D01*
X881184Y492565D01*
X881084Y492635D01*
X880982Y492703D01*
X880878Y492767D01*
X880771Y492827D01*
X880663Y492884D01*
X880553Y492938D01*
X880442Y492989D01*
X880329Y493035D01*
X880214Y493079D01*
X880099Y493118D01*
X879982Y493154D01*
X879864Y493187D01*
X879745Y493215D01*
X879625Y493240D01*
X879504Y493261D01*
X879383Y493278D01*
X879262Y493292D01*
X879140Y493301D01*
X879017Y493307D01*
X878895Y493309D01*
X872404Y493309D01*
X872261Y493307D01*
X872118Y493301D01*
X871975Y493291D01*
X871833Y493277D01*
X871691Y493260D01*
X871549Y493238D01*
X871408Y493213D01*
X871268Y493183D01*
X871129Y493150D01*
X870991Y493113D01*
X870854Y493072D01*
X870718Y493028D01*
X870583Y492979D01*
X870450Y492927D01*
X870318Y492872D01*
X870188Y492812D01*
X870059Y492749D01*
X869932Y492683D01*
X869808Y492613D01*
X869685Y492540D01*
X869564Y492463D01*
X869445Y492383D01*
X869329Y492300D01*
X869214Y492214D01*
X869103Y492125D01*
X868993Y492032D01*
X868887Y491937D01*
X868783Y491838D01*
X868682Y491737D01*
X868583Y491633D01*
X868488Y491527D01*
X868395Y491417D01*
X868306Y491306D01*
X868220Y491191D01*
X868137Y491075D01*
X868057Y490956D01*
X867980Y490835D01*
X867907Y490713D01*
X867837Y490588D01*
X867771Y490461D01*
X867708Y490332D01*
X867648Y490202D01*
X867593Y490070D01*
X867541Y489937D01*
X867492Y489802D01*
X867448Y489666D01*
X867407Y489529D01*
X867370Y489391D01*
X867337Y489252D01*
X867307Y489112D01*
X867282Y488971D01*
X867260Y488829D01*
X867243Y488687D01*
X867229Y488545D01*
X867219Y488402D01*
X867213Y488259D01*
X867211Y488116D01*
X867213Y487973D01*
X867219Y487830D01*
X867229Y487687D01*
X867243Y487545D01*
X867260Y487403D01*
X867282Y487261D01*
X867307Y487120D01*
X867337Y486980D01*
X867370Y486841D01*
X867407Y486703D01*
X867448Y486566D01*
X867492Y486430D01*
X867541Y486295D01*
X867593Y486162D01*
X867648Y486030D01*
X867708Y485900D01*
X867771Y485771D01*
X867837Y485644D01*
X867907Y485520D01*
X867980Y485397D01*
X868057Y485276D01*
X868137Y485157D01*
X868220Y485041D01*
X868306Y484926D01*
X868395Y484815D01*
X868488Y484705D01*
X868583Y484599D01*
X868682Y484495D01*
X868783Y484394D01*
X868887Y484295D01*
X868993Y484200D01*
X869103Y484107D01*
X869214Y484018D01*
X869329Y483932D01*
X869445Y483849D01*
X869564Y483769D01*
X869685Y483692D01*
X869807Y483619D01*
X869932Y483549D01*
X870059Y483483D01*
X870188Y483420D01*
X870318Y483360D01*
X870450Y483305D01*
X870583Y483253D01*
X870718Y483204D01*
X870854Y483160D01*
X870991Y483119D01*
X871129Y483082D01*
X871268Y483049D01*
X871408Y483019D01*
X871549Y482994D01*
X871691Y482972D01*
X871833Y482955D01*
X871975Y482941D01*
X872118Y482931D01*
X872261Y482925D01*
X872404Y482923D01*
X875000Y482923D01*
X875000Y493309D01*
X882790Y474454D02*
X867211Y474454D01*
X867211Y466665D01*
X869808Y466665D01*
X867211Y462169D02*
X867211Y454379D01*
X859422Y459572D02*
X878895Y459572D01*
X879017Y459570D01*
X879140Y459564D01*
X879262Y459555D01*
X879383Y459541D01*
X879504Y459524D01*
X879625Y459503D01*
X879745Y459478D01*
X879864Y459450D01*
X879982Y459417D01*
X880099Y459381D01*
X880214Y459342D01*
X880329Y459298D01*
X880442Y459252D01*
X880553Y459201D01*
X880663Y459147D01*
X880771Y459090D01*
X880878Y459030D01*
X880982Y458966D01*
X881084Y458898D01*
X881184Y458828D01*
X881282Y458755D01*
X881378Y458678D01*
X881471Y458599D01*
X881561Y458516D01*
X881649Y458431D01*
X881734Y458343D01*
X881817Y458253D01*
X881896Y458160D01*
X881973Y458064D01*
X882046Y457966D01*
X882116Y457866D01*
X882184Y457764D01*
X882248Y457660D01*
X882308Y457553D01*
X882365Y457445D01*
X882419Y457335D01*
X882470Y457224D01*
X882516Y457111D01*
X882560Y456996D01*
X882599Y456881D01*
X882635Y456764D01*
X882668Y456646D01*
X882696Y456527D01*
X882721Y456407D01*
X882742Y456286D01*
X882759Y456165D01*
X882773Y456044D01*
X882782Y455922D01*
X882788Y455799D01*
X882790Y455677D01*
X882790Y454379D01*
X882790Y443481D02*
X882790Y436990D01*
X882790Y443481D02*
X882788Y443603D01*
X882782Y443726D01*
X882773Y443848D01*
X882759Y443969D01*
X882742Y444090D01*
X882721Y444211D01*
X882696Y444331D01*
X882668Y444450D01*
X882635Y444568D01*
X882599Y444685D01*
X882560Y444800D01*
X882516Y444915D01*
X882470Y445028D01*
X882419Y445139D01*
X882365Y445249D01*
X882308Y445357D01*
X882248Y445464D01*
X882184Y445568D01*
X882116Y445670D01*
X882046Y445770D01*
X881973Y445868D01*
X881896Y445964D01*
X881817Y446057D01*
X881734Y446147D01*
X881649Y446235D01*
X881561Y446320D01*
X881471Y446403D01*
X881378Y446482D01*
X881282Y446559D01*
X881184Y446632D01*
X881084Y446702D01*
X880982Y446770D01*
X880878Y446834D01*
X880771Y446894D01*
X880663Y446951D01*
X880553Y447005D01*
X880442Y447056D01*
X880329Y447102D01*
X880214Y447146D01*
X880099Y447185D01*
X879982Y447221D01*
X879864Y447254D01*
X879745Y447282D01*
X879625Y447307D01*
X879504Y447328D01*
X879383Y447345D01*
X879262Y447359D01*
X879140Y447368D01*
X879017Y447374D01*
X878895Y447376D01*
X872404Y447376D01*
X872261Y447374D01*
X872118Y447368D01*
X871975Y447358D01*
X871833Y447344D01*
X871691Y447327D01*
X871549Y447305D01*
X871408Y447280D01*
X871268Y447250D01*
X871129Y447217D01*
X870991Y447180D01*
X870854Y447139D01*
X870718Y447095D01*
X870583Y447046D01*
X870450Y446994D01*
X870318Y446939D01*
X870188Y446879D01*
X870059Y446816D01*
X869932Y446750D01*
X869808Y446680D01*
X869685Y446607D01*
X869564Y446530D01*
X869445Y446450D01*
X869329Y446367D01*
X869214Y446281D01*
X869103Y446192D01*
X868993Y446099D01*
X868887Y446004D01*
X868783Y445905D01*
X868682Y445804D01*
X868583Y445700D01*
X868488Y445594D01*
X868395Y445484D01*
X868306Y445373D01*
X868220Y445258D01*
X868137Y445142D01*
X868057Y445023D01*
X867980Y444902D01*
X867907Y444780D01*
X867837Y444655D01*
X867771Y444528D01*
X867708Y444399D01*
X867648Y444269D01*
X867593Y444137D01*
X867541Y444004D01*
X867492Y443869D01*
X867448Y443733D01*
X867407Y443596D01*
X867370Y443458D01*
X867337Y443319D01*
X867307Y443179D01*
X867282Y443038D01*
X867260Y442896D01*
X867243Y442754D01*
X867229Y442612D01*
X867219Y442469D01*
X867213Y442326D01*
X867211Y442183D01*
X867213Y442040D01*
X867219Y441897D01*
X867229Y441754D01*
X867243Y441612D01*
X867260Y441470D01*
X867282Y441328D01*
X867307Y441187D01*
X867337Y441047D01*
X867370Y440908D01*
X867407Y440770D01*
X867448Y440633D01*
X867492Y440497D01*
X867541Y440362D01*
X867593Y440229D01*
X867648Y440097D01*
X867708Y439967D01*
X867771Y439838D01*
X867837Y439711D01*
X867907Y439587D01*
X867980Y439464D01*
X868057Y439343D01*
X868137Y439224D01*
X868220Y439108D01*
X868306Y438993D01*
X868395Y438882D01*
X868488Y438772D01*
X868583Y438666D01*
X868682Y438562D01*
X868783Y438461D01*
X868887Y438362D01*
X868993Y438267D01*
X869103Y438174D01*
X869214Y438085D01*
X869329Y437999D01*
X869445Y437916D01*
X869564Y437836D01*
X869685Y437759D01*
X869807Y437686D01*
X869932Y437616D01*
X870059Y437550D01*
X870188Y437487D01*
X870318Y437427D01*
X870450Y437372D01*
X870583Y437320D01*
X870718Y437271D01*
X870854Y437227D01*
X870991Y437186D01*
X871129Y437149D01*
X871268Y437116D01*
X871408Y437086D01*
X871549Y437061D01*
X871691Y437039D01*
X871833Y437022D01*
X871975Y437008D01*
X872118Y436998D01*
X872261Y436992D01*
X872404Y436990D01*
X875000Y436990D01*
X875000Y447376D01*
X882790Y428521D02*
X867211Y428521D01*
X867211Y420732D01*
X869808Y420732D01*
D53*
X914908Y208153D03*
D54*
X914654Y208026D03*
D53*
X914654Y174117D03*
D55*
X914400Y207899D03*
D53*
X914400Y174117D03*
D56*
X914146Y207772D03*
D55*
X914146Y174371D03*
D56*
X913892Y207518D03*
X913892Y174498D03*
D57*
X913638Y207264D03*
X913638Y174752D03*
D58*
X913384Y207137D03*
X913384Y174879D03*
D59*
X913130Y207010D03*
D58*
X913130Y175133D03*
D60*
X912876Y206629D03*
D59*
X912876Y175260D03*
D61*
X912622Y206502D03*
X912622Y175514D03*
D62*
X912368Y206375D03*
D61*
X912368Y175514D03*
D62*
X912114Y206375D03*
D63*
X912114Y175768D03*
D64*
X911860Y206121D03*
D65*
X911860Y191008D03*
D63*
X911860Y175768D03*
D66*
X911606Y205994D03*
D65*
X911606Y191008D03*
D67*
X911606Y176149D03*
D68*
X911352Y205740D03*
D65*
X911352Y191008D03*
D67*
X911352Y176403D03*
D69*
X911098Y205613D03*
D65*
X911098Y191008D03*
D67*
X911098Y176403D03*
D70*
X910844Y205486D03*
D65*
X910844Y191008D03*
D69*
X910844Y176657D03*
D70*
X910590Y205232D03*
D65*
X910590Y191008D03*
D70*
X910590Y176784D03*
D71*
X910336Y205105D03*
D65*
X910336Y191008D03*
D70*
X910336Y177038D03*
D72*
X910082Y204978D03*
D65*
X910082Y191008D03*
D71*
X910082Y177165D03*
D73*
X909828Y204851D03*
D65*
X909828Y191008D03*
D72*
X909828Y177292D03*
D73*
X909574Y204851D03*
D65*
X909574Y191008D03*
D73*
X909574Y177419D03*
D74*
X909320Y204470D03*
D65*
X909320Y191008D03*
D74*
X909320Y177800D03*
D75*
X909066Y204343D03*
D65*
X909066Y191008D03*
D74*
X909066Y177800D03*
D76*
X908812Y204089D03*
D65*
X908812Y191008D03*
D77*
X908812Y178054D03*
D76*
X908558Y203835D03*
D65*
X908558Y191008D03*
D76*
X908558Y178181D03*
X908304Y203835D03*
D65*
X908304Y191008D03*
D76*
X908304Y178435D03*
D78*
X908050Y203708D03*
D65*
X908050Y191008D03*
D78*
X908050Y178562D03*
D79*
X907796Y203454D03*
D65*
X907796Y191008D03*
D80*
X907796Y178689D03*
D79*
X907542Y203454D03*
D65*
X907542Y191008D03*
D80*
X907542Y178689D03*
D81*
X907288Y203327D03*
D65*
X907288Y191008D03*
D81*
X907288Y178943D03*
D82*
X907034Y202946D03*
D65*
X907034Y191008D03*
D83*
X907034Y179197D03*
D84*
X906780Y202819D03*
D65*
X906780Y191008D03*
D84*
X906780Y179451D03*
D85*
X906526Y202692D03*
D86*
X906526Y186309D03*
D85*
X906272Y202692D03*
D86*
X906272Y186309D03*
D87*
X906018Y191135D03*
X905764Y191135D03*
X905510Y191135D03*
D88*
X905256Y191008D03*
D89*
X905002Y191135D03*
X904748Y191135D03*
X904494Y191135D03*
X904240Y191135D03*
X903986Y191135D03*
X903732Y191135D03*
X903478Y191135D03*
D90*
X903224Y191262D03*
D91*
X902970Y191135D03*
X902716Y191135D03*
X902462Y191135D03*
D92*
X902208Y191008D03*
X901954Y191008D03*
D93*
X901700Y191135D03*
D94*
X901446Y191008D03*
D95*
X901192Y191135D03*
D96*
X901192Y133604D03*
D95*
X900938Y191135D03*
D96*
X900938Y133604D03*
D97*
X900684Y191135D03*
D96*
X900684Y133604D03*
D97*
X900430Y191135D03*
D96*
X900430Y133604D03*
D98*
X900176Y191008D03*
D96*
X900176Y133604D03*
D99*
X899922Y191135D03*
D96*
X899922Y133604D03*
D100*
X899668Y191135D03*
D53*
X899668Y133731D03*
D100*
X899414Y191135D03*
D53*
X899414Y133731D03*
D101*
X899160Y191008D03*
D53*
X899160Y133731D03*
D102*
X898906Y191135D03*
D54*
X898906Y133858D03*
D103*
X898652Y191008D03*
D53*
X898652Y133985D03*
D103*
X898398Y191008D03*
D53*
X898398Y133985D03*
D104*
X898144Y191135D03*
D53*
X898144Y133985D03*
D104*
X897890Y191135D03*
D53*
X897890Y133985D03*
D105*
X897636Y191008D03*
D53*
X897636Y134239D03*
D106*
X897382Y191135D03*
D53*
X897382Y134239D03*
D107*
X897128Y191008D03*
D53*
X897128Y134239D03*
D107*
X896874Y191008D03*
D53*
X896874Y134239D03*
D108*
X896620Y191008D03*
D53*
X896620Y134239D03*
D109*
X896366Y191135D03*
D54*
X896366Y134366D03*
D109*
X896112Y191135D03*
D54*
X896112Y134366D03*
D110*
X895858Y191008D03*
D53*
X895858Y134493D03*
D111*
X895604Y191135D03*
D54*
X895604Y134620D03*
D112*
X895350Y191008D03*
D54*
X895350Y134620D03*
D113*
X895096Y191135D03*
D54*
X895096Y134620D03*
D114*
X894842Y191135D03*
D54*
X894842Y134620D03*
D114*
X894588Y191135D03*
D54*
X894588Y134620D03*
D114*
X894334Y191135D03*
D55*
X894334Y134747D03*
D115*
X894080Y191135D03*
D54*
X894080Y134874D03*
D116*
X893826Y191008D03*
D54*
X893826Y134874D03*
D116*
X893572Y191008D03*
D54*
X893572Y134874D03*
D117*
X893318Y191135D03*
D55*
X893318Y135001D03*
D118*
X893064Y191135D03*
D54*
X893064Y135128D03*
D53*
X892810Y360553D03*
D118*
X892810Y191135D03*
D55*
X892810Y135255D03*
D54*
X892556Y360426D03*
D118*
X892556Y191135D03*
D55*
X892556Y135255D03*
D119*
X892302Y360045D03*
D120*
X892302Y191008D03*
D55*
X892302Y135255D03*
D58*
X892048Y360045D03*
D120*
X892048Y191008D03*
D55*
X892048Y135255D03*
D59*
X891794Y359918D03*
D86*
X891794Y191135D03*
D55*
X891794Y135255D03*
D62*
X891540Y359791D03*
D121*
X891540Y191008D03*
D55*
X891540Y135509D03*
D64*
X891286Y359791D03*
D122*
X891286Y191135D03*
D55*
X891286Y135509D03*
D68*
X891032Y359410D03*
D123*
X891032Y191008D03*
D55*
X891032Y135509D03*
D69*
X890778Y359283D03*
D124*
X890778Y191008D03*
D55*
X890778Y135509D03*
D70*
X890524Y359156D03*
D124*
X890524Y191008D03*
D55*
X890524Y135509D03*
D71*
X890270Y359029D03*
D125*
X890270Y191135D03*
D55*
X890270Y135509D03*
D72*
X890016Y359156D03*
D126*
X890016Y191008D03*
D55*
X890016Y135763D03*
D73*
X889762Y359283D03*
D127*
X889762Y191135D03*
D55*
X889762Y135763D03*
D128*
X889508Y359029D03*
D127*
X889508Y191135D03*
D55*
X889508Y135763D03*
D74*
X889254Y358902D03*
D129*
X889254Y191135D03*
D54*
X889254Y135890D03*
D74*
X889000Y358902D03*
D130*
X889000Y191008D03*
D54*
X889000Y135890D03*
D74*
X888746Y358394D03*
D130*
X888746Y191008D03*
D55*
X888746Y136017D03*
D131*
X888492Y358140D03*
D132*
X888492Y191008D03*
D55*
X888492Y136017D03*
D131*
X888238Y357886D03*
D133*
X888238Y191135D03*
D55*
X888238Y136017D03*
D73*
X887984Y357505D03*
D133*
X887984Y191135D03*
D54*
X887984Y136144D03*
D72*
X887730Y357378D03*
D134*
X887730Y191135D03*
D54*
X887730Y136144D03*
D72*
X887476Y357124D03*
D134*
X887476Y191135D03*
D55*
X887476Y136271D03*
D72*
X887222Y356870D03*
D134*
X887222Y191135D03*
D55*
X887222Y136271D03*
D71*
X886968Y356743D03*
D134*
X886968Y191135D03*
D56*
X886968Y136398D03*
D71*
X886714Y356743D03*
D135*
X886714Y191008D03*
D56*
X886714Y136398D03*
D70*
X886460Y356616D03*
D136*
X886460Y191135D03*
D56*
X886460Y136398D03*
D70*
X886206Y356362D03*
D136*
X886206Y191135D03*
D56*
X886206Y136398D03*
D69*
X885952Y355981D03*
D137*
X885952Y191008D03*
D56*
X885952Y136652D03*
D69*
X885698Y355981D03*
D137*
X885698Y191008D03*
D56*
X885698Y136652D03*
D68*
X885444Y355854D03*
D137*
X885444Y191008D03*
D56*
X885444Y136652D03*
D69*
X885190Y355727D03*
D138*
X885190Y191008D03*
D56*
X885190Y136652D03*
D68*
X884936Y355600D03*
D139*
X884936Y191135D03*
D119*
X884936Y136779D03*
D68*
X884682Y355346D03*
D139*
X884682Y191135D03*
D119*
X884682Y136779D03*
D68*
X884428Y355346D03*
D140*
X884428Y191008D03*
D119*
X884428Y137033D03*
D68*
X884174Y355092D03*
D141*
X884174Y191008D03*
D119*
X884174Y137033D03*
D68*
X883920Y355092D03*
D141*
X883920Y191008D03*
D119*
X883920Y137033D03*
D66*
X883666Y354838D03*
D142*
X883666Y191008D03*
D119*
X883666Y137033D03*
D67*
X883412Y354711D03*
D143*
X883412Y191135D03*
D57*
X883412Y137160D03*
D68*
X883158Y354584D03*
D143*
X883158Y191135D03*
D119*
X883158Y137287D03*
D68*
X882904Y354584D03*
D144*
X882904Y191008D03*
D119*
X882904Y137287D03*
D68*
X882650Y354584D03*
D144*
X882650Y191008D03*
D119*
X882650Y137287D03*
D69*
X882396Y378079D03*
D68*
X882396Y354584D03*
D69*
X882396Y331343D03*
D72*
X882396Y308610D03*
D70*
X882396Y289306D03*
D68*
X882396Y273304D03*
X882396Y258572D03*
X882396Y243840D03*
D69*
X882396Y227203D03*
D144*
X882396Y191008D03*
D119*
X882396Y137541D03*
D75*
X882142Y378333D03*
D69*
X882142Y354457D03*
D77*
X882142Y331216D03*
D131*
X882142Y308864D03*
D76*
X882142Y289179D03*
D68*
X882142Y273304D03*
X882142Y258572D03*
X882142Y243840D03*
D75*
X882142Y227203D03*
D144*
X882142Y191008D03*
D119*
X882142Y137541D03*
D145*
X881888Y378460D03*
D69*
X881888Y354457D03*
D85*
X881888Y331470D03*
D75*
X881888Y309245D03*
D145*
X881888Y288798D03*
D68*
X881888Y273304D03*
X881888Y258572D03*
X881888Y243840D03*
D145*
X881888Y227584D03*
D144*
X881888Y191008D03*
D119*
X881888Y137541D03*
D146*
X881634Y378714D03*
D70*
X881634Y354330D03*
D147*
X881634Y331851D03*
D78*
X881634Y309626D03*
D146*
X881634Y288798D03*
D68*
X881634Y273304D03*
X881634Y258572D03*
X881634Y243840D03*
D147*
X881634Y227711D03*
D144*
X881634Y191008D03*
D119*
X881634Y137541D03*
D148*
X881380Y378968D03*
D70*
X881380Y354330D03*
D149*
X881380Y331851D03*
D80*
X881380Y309753D03*
D150*
X881380Y288798D03*
D68*
X881380Y273304D03*
X881380Y258572D03*
X881380Y243840D03*
D149*
X881380Y227965D03*
D144*
X881380Y191008D03*
D56*
X881380Y137668D03*
D144*
X881126Y378968D03*
D70*
X881126Y354330D03*
D144*
X881126Y331978D03*
D80*
X881126Y309753D03*
D149*
X881126Y288925D03*
D68*
X881126Y273304D03*
X881126Y258572D03*
X881126Y243840D03*
D151*
X881126Y227965D03*
D144*
X881126Y191008D03*
D56*
X881126Y137668D03*
D142*
X880872Y378714D03*
D71*
X880872Y354457D03*
D143*
X880872Y331851D03*
D81*
X880872Y310007D03*
D151*
X880872Y289179D03*
D68*
X880872Y273304D03*
X880872Y258572D03*
X880872Y243840D03*
D143*
X880872Y227711D03*
D144*
X880872Y191008D03*
D119*
X880872Y137795D03*
D152*
X880618Y378587D03*
D72*
X880618Y354584D03*
D152*
X880618Y331597D03*
D153*
X880618Y310134D03*
D143*
X880618Y289433D03*
D68*
X880618Y273304D03*
X880618Y258572D03*
X880618Y243840D03*
D142*
X880618Y227584D03*
D144*
X880618Y191008D03*
D119*
X880618Y137795D03*
D141*
X880364Y378460D03*
D72*
X880364Y354584D03*
D152*
X880364Y331597D03*
D153*
X880364Y310134D03*
D143*
X880364Y289433D03*
D68*
X880364Y273304D03*
X880364Y258572D03*
X880364Y243840D03*
D152*
X880364Y227457D03*
D143*
X880364Y191135D03*
D119*
X880364Y137795D03*
D154*
X880110Y378333D03*
D73*
X880110Y354457D03*
D154*
X880110Y331343D03*
D83*
X880110Y310261D03*
D142*
X880110Y289560D03*
D68*
X880110Y273304D03*
X880110Y258572D03*
X880110Y243840D03*
D154*
X880110Y227203D03*
D143*
X880110Y191135D03*
D119*
X880110Y137795D03*
D140*
X879856Y378206D03*
D73*
X879856Y354457D03*
D140*
X879856Y331216D03*
D82*
X879856Y310388D03*
D141*
X879856Y289814D03*
D68*
X879856Y273304D03*
X879856Y258572D03*
X879856Y243840D03*
D140*
X879856Y227076D03*
D143*
X879856Y191135D03*
D119*
X879856Y138049D03*
D140*
X879602Y378206D03*
D131*
X879602Y354584D03*
D140*
X879602Y331216D03*
D82*
X879602Y310388D03*
D141*
X879602Y289814D03*
D68*
X879602Y273304D03*
X879602Y258572D03*
X879602Y243840D03*
D140*
X879602Y227076D03*
D143*
X879602Y191135D03*
D119*
X879602Y138049D03*
D138*
X879348Y377952D03*
D128*
X879348Y354457D03*
D155*
X879348Y330835D03*
D84*
X879348Y310515D03*
D139*
X879348Y290195D03*
D68*
X879348Y273304D03*
X879348Y258572D03*
X879348Y243840D03*
D139*
X879348Y226949D03*
D143*
X879348Y191135D03*
D57*
X879348Y138176D03*
D138*
X879094Y377952D03*
D74*
X879094Y354330D03*
D155*
X879094Y330835D03*
D84*
X879094Y310515D03*
D139*
X879094Y290195D03*
D68*
X879094Y273304D03*
X879094Y258572D03*
X879094Y243840D03*
D139*
X879094Y226949D03*
D143*
X879094Y191135D03*
D119*
X879094Y138303D03*
D155*
X878840Y377825D03*
D75*
X878840Y354457D03*
D155*
X878840Y330835D03*
D85*
X878840Y310642D03*
D155*
X878840Y290449D03*
D68*
X878840Y273304D03*
X878840Y258572D03*
X878840Y243840D03*
D138*
X878840Y226822D03*
D143*
X878840Y191135D03*
D119*
X878840Y138303D03*
D137*
X878586Y377698D03*
D75*
X878586Y354457D03*
D155*
X878586Y330835D03*
D85*
X878586Y310642D03*
D155*
X878586Y290449D03*
D68*
X878586Y273304D03*
X878586Y258572D03*
X878586Y243840D03*
D155*
X878586Y226695D03*
D143*
X878586Y191135D03*
D57*
X878586Y138430D03*
D76*
X878332Y382905D03*
D81*
X878332Y372999D03*
D77*
X878332Y354584D03*
D76*
X878332Y335915D03*
D79*
X878332Y326136D03*
D128*
X878332Y312293D03*
D84*
X878332Y294767D03*
D128*
X878332Y284861D03*
D68*
X878332Y273304D03*
X878332Y258572D03*
X878332Y243840D03*
D76*
X878332Y231775D03*
D79*
X878332Y221996D03*
D143*
X878332Y191135D03*
D119*
X878332Y138557D03*
D131*
X878078Y383540D03*
D76*
X878078Y372237D03*
X878078Y354457D03*
D131*
X878078Y336550D03*
D76*
X878078Y325501D03*
D73*
X878078Y312547D03*
D79*
X878078Y295402D03*
D68*
X878078Y283972D03*
X878078Y273304D03*
X878078Y258572D03*
X878078Y243840D03*
D73*
X878078Y232537D03*
D76*
X878078Y221361D03*
D143*
X878078Y191135D03*
D119*
X878078Y138557D03*
D67*
X877824Y384429D03*
D74*
X877824Y371856D03*
D76*
X877824Y354457D03*
D67*
X877824Y337439D03*
D74*
X877824Y324866D03*
D71*
X877824Y312801D03*
D76*
X877824Y296037D03*
D60*
X877824Y283083D03*
D68*
X877824Y273304D03*
X877824Y258572D03*
X877824Y243840D03*
D66*
X877824Y233426D03*
D128*
X877824Y220853D03*
D143*
X877824Y191135D03*
D119*
X877824Y138557D03*
D61*
X877570Y385064D03*
D73*
X877570Y371475D03*
D76*
X877570Y354457D03*
D61*
X877570Y338074D03*
D73*
X877570Y324485D03*
D70*
X877570Y312928D03*
D74*
X877570Y296418D03*
D119*
X877570Y282575D03*
D68*
X877570Y273304D03*
X877570Y258572D03*
X877570Y243840D03*
D61*
X877570Y233934D03*
D73*
X877570Y220599D03*
D143*
X877570Y191135D03*
D119*
X877570Y138557D03*
D59*
X877316Y385318D03*
D73*
X877316Y371221D03*
D80*
X877316Y354457D03*
D59*
X877316Y338328D03*
D72*
X877316Y324358D03*
D71*
X877316Y313055D03*
D74*
X877316Y296672D03*
D55*
X877316Y282321D03*
D68*
X877316Y273304D03*
X877316Y258572D03*
X877316Y243840D03*
D59*
X877316Y234188D03*
D73*
X877316Y220345D03*
D143*
X877316Y191135D03*
D57*
X877316Y138684D03*
D119*
X877062Y385699D03*
D72*
X877062Y370840D03*
D79*
X877062Y354330D03*
D56*
X877062Y338836D03*
D72*
X877062Y324104D03*
D70*
X877062Y313182D03*
D73*
X877062Y297053D03*
D68*
X877062Y273304D03*
X877062Y258572D03*
X877062Y243840D03*
D56*
X877062Y234696D03*
D72*
X877062Y219964D03*
D143*
X877062Y191135D03*
D58*
X877062Y138811D03*
D70*
X876808Y370586D03*
D81*
X876808Y354457D03*
D70*
X876808Y323850D03*
D69*
X876808Y313309D03*
D72*
X876808Y297434D03*
D68*
X876808Y273304D03*
X876808Y258572D03*
X876808Y243840D03*
D70*
X876808Y219710D03*
D143*
X876808Y191135D03*
D57*
X876808Y138938D03*
D70*
X876554Y370586D03*
D81*
X876554Y354457D03*
D69*
X876554Y323723D03*
X876554Y313309D03*
D72*
X876554Y297688D03*
D68*
X876554Y273304D03*
X876554Y258572D03*
X876554Y243840D03*
D70*
X876554Y219710D03*
D143*
X876554Y191135D03*
D57*
X876554Y138938D03*
D70*
X876300Y370586D03*
D153*
X876300Y354584D03*
D69*
X876300Y323723D03*
D68*
X876300Y313436D03*
D71*
X876300Y297815D03*
D68*
X876300Y273304D03*
X876300Y258572D03*
X876300Y243840D03*
D69*
X876300Y219583D03*
D143*
X876300Y191135D03*
D57*
X876300Y138938D03*
D69*
X876046Y370459D03*
D83*
X876046Y354457D03*
D68*
X876046Y323596D03*
X876046Y313436D03*
D71*
X876046Y298069D03*
D68*
X876046Y273304D03*
X876046Y258572D03*
X876046Y243840D03*
X876046Y219456D03*
D143*
X876046Y191135D03*
D58*
X876046Y139065D03*
D69*
X875792Y370459D03*
D83*
X875792Y354457D03*
D68*
X875792Y323596D03*
X875792Y313436D03*
D70*
X875792Y298196D03*
D68*
X875792Y273304D03*
X875792Y258572D03*
X875792Y243840D03*
X875792Y219456D03*
D143*
X875792Y191135D03*
D58*
X875792Y139065D03*
D69*
X875538Y370459D03*
D83*
X875538Y354457D03*
D68*
X875538Y323596D03*
X875538Y313436D03*
D69*
X875538Y298323D03*
D68*
X875538Y273304D03*
X875538Y258572D03*
X875538Y243840D03*
X875538Y219456D03*
D143*
X875538Y191135D03*
D58*
X875538Y139065D03*
D69*
X875284Y370459D03*
X875284Y356743D03*
D68*
X875284Y352044D03*
D69*
X875284Y323469D03*
D68*
X875284Y313436D03*
D69*
X875284Y298323D03*
D68*
X875284Y273304D03*
X875284Y258572D03*
X875284Y243840D03*
D69*
X875284Y219329D03*
D143*
X875284Y191135D03*
D57*
X875284Y139192D03*
D68*
X875030Y370332D03*
D69*
X875030Y356743D03*
X875030Y351917D03*
D68*
X875030Y323342D03*
X875030Y313436D03*
D69*
X875030Y298577D03*
D68*
X875030Y273304D03*
X875030Y258572D03*
X875030Y243840D03*
X875030Y219202D03*
D143*
X875030Y191135D03*
D58*
X875030Y139319D03*
D68*
X874776Y370332D03*
D69*
X874776Y356743D03*
D68*
X874776Y351790D03*
X874776Y323342D03*
X874776Y313436D03*
D69*
X874776Y298831D03*
D68*
X874776Y273304D03*
X874776Y258572D03*
X874776Y243840D03*
X874776Y219202D03*
D143*
X874776Y191135D03*
D59*
X874776Y139446D03*
D68*
X874522Y370332D03*
D69*
X874522Y356997D03*
D68*
X874522Y351790D03*
X874522Y323342D03*
X874522Y313436D03*
X874522Y298958D03*
X874522Y273304D03*
X874522Y258572D03*
X874522Y243840D03*
X874522Y219202D03*
D143*
X874522Y191135D03*
D59*
X874522Y139446D03*
D68*
X874268Y370332D03*
D69*
X874268Y356997D03*
D67*
X874268Y351663D03*
D68*
X874268Y323342D03*
X874268Y313436D03*
X874268Y298958D03*
X874268Y273304D03*
X874268Y258572D03*
X874268Y243840D03*
X874268Y219202D03*
D143*
X874268Y191135D03*
D58*
X874268Y139573D03*
D68*
X874014Y370332D03*
X874014Y357124D03*
D67*
X874014Y351663D03*
D68*
X874014Y323342D03*
X874014Y313436D03*
X874014Y298958D03*
X874014Y273304D03*
X874014Y258572D03*
X874014Y243840D03*
X874014Y219202D03*
D143*
X874014Y191135D03*
D58*
X874014Y139573D03*
D68*
X873760Y370332D03*
X873760Y357124D03*
D67*
X873760Y351663D03*
D68*
X873760Y323342D03*
X873760Y313436D03*
D69*
X873760Y299085D03*
D68*
X873760Y273304D03*
X873760Y258572D03*
X873760Y243840D03*
X873760Y219202D03*
D143*
X873760Y191135D03*
D57*
X873760Y139700D03*
D68*
X873506Y370332D03*
X873506Y357124D03*
D66*
X873506Y351536D03*
D68*
X873506Y323342D03*
X873506Y313436D03*
D69*
X873506Y299085D03*
D68*
X873506Y273304D03*
X873506Y258572D03*
X873506Y243840D03*
X873506Y219202D03*
D143*
X873506Y191135D03*
D57*
X873506Y139700D03*
D69*
X873252Y370459D03*
X873252Y357251D03*
D67*
X873252Y351409D03*
D69*
X873252Y323469D03*
D68*
X873252Y313436D03*
D69*
X873252Y299085D03*
D68*
X873252Y273304D03*
X873252Y258572D03*
X873252Y243840D03*
D69*
X873252Y219329D03*
D143*
X873252Y191135D03*
D57*
X873252Y139700D03*
D69*
X872998Y370459D03*
D68*
X872998Y357378D03*
X872998Y351282D03*
X872998Y323596D03*
X872998Y313436D03*
X872998Y299212D03*
X872998Y273304D03*
X872998Y258572D03*
X872998Y243840D03*
X872998Y219456D03*
D142*
X872998Y191008D03*
D58*
X872998Y139827D03*
D69*
X872744Y370459D03*
D68*
X872744Y357378D03*
D67*
X872744Y351155D03*
D68*
X872744Y323596D03*
X872744Y313436D03*
X872744Y299212D03*
X872744Y273304D03*
X872744Y258572D03*
X872744Y243840D03*
X872744Y219456D03*
D142*
X872744Y191008D03*
D57*
X872744Y139954D03*
D70*
X872490Y370586D03*
D69*
X872490Y357505D03*
D67*
X872490Y351155D03*
D69*
X872490Y323723D03*
D68*
X872490Y313436D03*
D69*
X872490Y299339D03*
D68*
X872490Y273304D03*
X872490Y258572D03*
X872490Y243840D03*
D70*
X872490Y219710D03*
D142*
X872490Y191008D03*
D58*
X872490Y140081D03*
D70*
X872236Y370586D03*
D68*
X872236Y357632D03*
X872236Y351028D03*
D69*
X872236Y323723D03*
D68*
X872236Y313436D03*
X872236Y299466D03*
X872236Y273304D03*
X872236Y258572D03*
X872236Y243840D03*
D70*
X872236Y219710D03*
D142*
X872236Y191008D03*
D58*
X872236Y140081D03*
D71*
X871982Y370713D03*
D69*
X871982Y357759D03*
D67*
X871982Y350901D03*
D71*
X871982Y323977D03*
D68*
X871982Y313436D03*
X871982Y299466D03*
X871982Y273304D03*
X871982Y258572D03*
X871982Y243840D03*
D71*
X871982Y219837D03*
D142*
X871982Y191008D03*
D58*
X871982Y140081D03*
D72*
X871728Y370840D03*
D68*
X871728Y357886D03*
D67*
X871728Y350901D03*
D72*
X871728Y324104D03*
D68*
X871728Y313436D03*
X871728Y299466D03*
X871728Y273304D03*
X871728Y258572D03*
X871728Y243840D03*
D72*
X871728Y219964D03*
D142*
X871728Y191008D03*
D58*
X871728Y140335D03*
D72*
X871474Y371094D03*
D68*
X871474Y357886D03*
D66*
X871474Y350774D03*
D71*
X871474Y324231D03*
D68*
X871474Y313436D03*
X871474Y299466D03*
X871474Y273304D03*
X871474Y258572D03*
X871474Y243840D03*
D72*
X871474Y220218D03*
D142*
X871474Y191008D03*
D58*
X871474Y140335D03*
D131*
X871220Y371348D03*
D69*
X871220Y358013D03*
D67*
X871220Y350647D03*
D73*
X871220Y324485D03*
D68*
X871220Y313436D03*
X871220Y299466D03*
X871220Y273304D03*
X871220Y258572D03*
X871220Y243840D03*
D131*
X871220Y220472D03*
D142*
X871220Y191008D03*
D58*
X871220Y140335D03*
D77*
X870966Y371856D03*
D69*
X870966Y358013D03*
D68*
X870966Y350520D03*
D74*
X870966Y324866D03*
D68*
X870966Y313436D03*
X870966Y299466D03*
X870966Y273304D03*
X870966Y258572D03*
X870966Y243840D03*
D75*
X870966Y220853D03*
D142*
X870966Y191008D03*
D57*
X870966Y140462D03*
D156*
X870712Y374523D03*
D68*
X870712Y358140D03*
X870712Y350520D03*
D157*
X870712Y327660D03*
D68*
X870712Y313436D03*
X870712Y299466D03*
X870712Y273304D03*
X870712Y258572D03*
X870712Y243840D03*
D156*
X870712Y223647D03*
D142*
X870712Y191008D03*
D58*
X870712Y140589D03*
D65*
X870458Y375412D03*
D68*
X870458Y358140D03*
D67*
X870458Y350393D03*
D158*
X870458Y328549D03*
D68*
X870458Y313436D03*
X870458Y299466D03*
X870458Y273304D03*
X870458Y258572D03*
X870458Y243840D03*
D65*
X870458Y224536D03*
D142*
X870458Y191008D03*
D58*
X870458Y140589D03*
D151*
X870204Y376047D03*
D69*
X870204Y358267D03*
D68*
X870204Y350266D03*
D148*
X870204Y329184D03*
D68*
X870204Y313436D03*
X870204Y299466D03*
X870204Y273304D03*
X870204Y258572D03*
X870204Y243840D03*
D151*
X870204Y225171D03*
D142*
X870204Y191008D03*
D59*
X870204Y140716D03*
D143*
X869950Y376555D03*
D69*
X869950Y358521D03*
D68*
X869950Y350266D03*
D151*
X869950Y329565D03*
D68*
X869950Y313436D03*
D127*
X869950Y291211D03*
D68*
X869950Y273304D03*
X869950Y258572D03*
X869950Y243840D03*
D144*
X869950Y225552D03*
D142*
X869950Y191008D03*
D58*
X869950Y140843D03*
D143*
X869696Y376809D03*
D69*
X869696Y358521D03*
D67*
X869696Y350139D03*
D143*
X869696Y329819D03*
D68*
X869696Y313436D03*
D127*
X869696Y291211D03*
D68*
X869696Y273304D03*
X869696Y258572D03*
X869696Y243840D03*
D144*
X869696Y225806D03*
D142*
X869696Y191008D03*
D58*
X869696Y140843D03*
D143*
X869442Y377063D03*
D68*
X869442Y358648D03*
X869442Y350012D03*
D142*
X869442Y329946D03*
D68*
X869442Y313436D03*
D127*
X869442Y291211D03*
D68*
X869442Y273304D03*
X869442Y258572D03*
X869442Y243840D03*
D143*
X869442Y226187D03*
D142*
X869442Y191008D03*
D59*
X869442Y140970D03*
D142*
X869188Y377190D03*
D68*
X869188Y358648D03*
X869188Y350012D03*
D141*
X869188Y330200D03*
D68*
X869188Y313436D03*
D127*
X869188Y291211D03*
D68*
X869188Y273304D03*
X869188Y258572D03*
X869188Y243840D03*
D142*
X869188Y226314D03*
X869188Y191008D03*
D58*
X869188Y141097D03*
D142*
X868934Y377444D03*
D69*
X868934Y358775D03*
X868934Y349885D03*
D152*
X868934Y330581D03*
D68*
X868934Y313436D03*
D127*
X868934Y291211D03*
D68*
X868934Y273304D03*
X868934Y258572D03*
X868934Y243840D03*
D152*
X868934Y226441D03*
D142*
X868934Y191008D03*
D58*
X868934Y141097D03*
D152*
X868680Y377571D03*
D69*
X868680Y358775D03*
X868680Y349885D03*
D152*
X868680Y330581D03*
D68*
X868680Y313436D03*
D127*
X868680Y291211D03*
D68*
X868680Y273304D03*
X868680Y258572D03*
X868680Y243840D03*
D141*
X868680Y226568D03*
D142*
X868680Y191008D03*
D58*
X868680Y141351D03*
D152*
X868426Y377825D03*
D69*
X868426Y358775D03*
X868426Y349885D03*
D152*
X868426Y330835D03*
D68*
X868426Y313436D03*
D127*
X868426Y291211D03*
D68*
X868426Y273304D03*
X868426Y258572D03*
X868426Y243840D03*
D141*
X868426Y226822D03*
D142*
X868426Y191008D03*
D58*
X868426Y141351D03*
D142*
X868172Y377952D03*
D70*
X868172Y358902D03*
D69*
X868172Y349631D03*
D142*
X868172Y330962D03*
D68*
X868172Y313436D03*
D127*
X868172Y291211D03*
D68*
X868172Y273304D03*
X868172Y258572D03*
X868172Y243840D03*
D152*
X868172Y226949D03*
D142*
X868172Y191008D03*
D59*
X868172Y141478D03*
D152*
X867918Y378333D03*
D71*
X867918Y359029D03*
D69*
X867918Y349631D03*
D142*
X867918Y331216D03*
D68*
X867918Y313436D03*
D127*
X867918Y291211D03*
D68*
X867918Y273304D03*
X867918Y258572D03*
X867918Y243840D03*
D152*
X867918Y227203D03*
D142*
X867918Y191008D03*
D59*
X867918Y141478D03*
D142*
X867664Y378714D03*
D70*
X867664Y359156D03*
D68*
X867664Y349504D03*
D143*
X867664Y331851D03*
D68*
X867664Y313436D03*
D127*
X867664Y291211D03*
D68*
X867664Y273304D03*
X867664Y258572D03*
X867664Y243840D03*
D143*
X867664Y227711D03*
D152*
X867664Y190881D03*
D60*
X867664Y141605D03*
D144*
X867410Y378968D03*
D69*
X867410Y359283D03*
D68*
X867410Y349504D03*
D144*
X867410Y331978D03*
D68*
X867410Y313436D03*
D127*
X867410Y291211D03*
D68*
X867410Y273304D03*
X867410Y258572D03*
X867410Y243840D03*
D151*
X867410Y227965D03*
D141*
X867410Y191008D03*
D60*
X867410Y141605D03*
D144*
X867156Y378968D03*
D69*
X867156Y359283D03*
D67*
X867156Y349377D03*
D144*
X867156Y331978D03*
D68*
X867156Y313436D03*
D127*
X867156Y291211D03*
D68*
X867156Y273304D03*
X867156Y258572D03*
X867156Y243840D03*
D151*
X867156Y227965D03*
D141*
X867156Y191008D03*
D60*
X867156Y141605D03*
D148*
X866902Y379476D03*
D69*
X866902Y359283D03*
D68*
X866902Y349250D03*
D148*
X866902Y332486D03*
D68*
X866902Y313436D03*
D127*
X866902Y291211D03*
D68*
X866902Y273304D03*
X866902Y258572D03*
X866902Y243840D03*
D148*
X866902Y228346D03*
D141*
X866902Y191008D03*
D60*
X866902Y141605D03*
D150*
X866648Y379730D03*
D69*
X866648Y359283D03*
D68*
X866648Y349250D03*
D158*
X866648Y332867D03*
D68*
X866648Y313436D03*
D127*
X866648Y291211D03*
D68*
X866648Y273304D03*
X866648Y258572D03*
X866648Y243840D03*
D158*
X866648Y228727D03*
D141*
X866648Y191008D03*
D59*
X866648Y141732D03*
D159*
X866394Y380111D03*
D69*
X866394Y359283D03*
D68*
X866394Y349250D03*
D159*
X866394Y333121D03*
D68*
X866394Y313436D03*
D127*
X866394Y291211D03*
D68*
X866394Y273304D03*
X866394Y258572D03*
X866394Y243840D03*
D159*
X866394Y229235D03*
D141*
X866394Y191008D03*
D59*
X866394Y141732D03*
D160*
X866140Y381000D03*
D68*
X866140Y359410D03*
X866140Y348996D03*
D160*
X866140Y334264D03*
D68*
X866140Y313436D03*
D127*
X866140Y291211D03*
D68*
X866140Y273304D03*
X866140Y258572D03*
X866140Y243840D03*
D160*
X866140Y230124D03*
D141*
X866140Y191008D03*
D59*
X866140Y141986D03*
D72*
X865886Y384048D03*
D69*
X865886Y359537D03*
D68*
X865886Y348996D03*
D73*
X865886Y337185D03*
D68*
X865886Y313436D03*
D127*
X865886Y291211D03*
D68*
X865886Y273304D03*
X865886Y258572D03*
X865886Y243840D03*
D73*
X865886Y233045D03*
D141*
X865886Y191008D03*
D59*
X865886Y141986D03*
D72*
X865632Y384302D03*
D70*
X865632Y359664D03*
D68*
X865632Y348996D03*
D73*
X865632Y337439D03*
D68*
X865632Y313436D03*
D127*
X865632Y291211D03*
D68*
X865632Y273304D03*
X865632Y258572D03*
X865632Y243840D03*
D73*
X865632Y233299D03*
D141*
X865632Y191008D03*
D60*
X865632Y142113D03*
D69*
X865378Y384683D03*
X865378Y359791D03*
D68*
X865378Y348742D03*
D70*
X865378Y337820D03*
D68*
X865378Y313436D03*
X865378Y299466D03*
X865378Y282956D03*
X865378Y273304D03*
X865378Y258572D03*
X865378Y243840D03*
D69*
X865378Y233807D03*
D141*
X865378Y191008D03*
D59*
X865378Y142240D03*
D69*
X865124Y384683D03*
D68*
X865124Y359918D03*
X865124Y348742D03*
D70*
X865124Y337820D03*
D68*
X865124Y313436D03*
X865124Y299466D03*
X865124Y282956D03*
X865124Y273304D03*
X865124Y258572D03*
X865124Y243840D03*
D69*
X865124Y233807D03*
D141*
X865124Y191008D03*
D59*
X865124Y142240D03*
D68*
X864870Y384810D03*
D69*
X864870Y360045D03*
D68*
X864870Y348488D03*
X864870Y338074D03*
X864870Y313436D03*
X864870Y299466D03*
X864870Y282956D03*
X864870Y273304D03*
X864870Y258572D03*
X864870Y243840D03*
X864870Y233934D03*
D141*
X864870Y191008D03*
D60*
X864870Y142367D03*
D68*
X864616Y384810D03*
D69*
X864616Y360045D03*
D68*
X864616Y348488D03*
X864616Y338074D03*
X864616Y313436D03*
X864616Y299466D03*
X864616Y282956D03*
X864616Y273304D03*
X864616Y258572D03*
X864616Y243840D03*
X864616Y233934D03*
D141*
X864616Y191008D03*
D60*
X864616Y142367D03*
D68*
X864362Y384810D03*
D69*
X864362Y360045D03*
D68*
X864362Y348488D03*
X864362Y338074D03*
X864362Y313436D03*
X864362Y299466D03*
X864362Y282956D03*
X864362Y273304D03*
X864362Y258572D03*
X864362Y243840D03*
X864362Y233934D03*
D141*
X864362Y191008D03*
D60*
X864362Y142621D03*
D68*
X864108Y385064D03*
X864108Y360172D03*
X864108Y348234D03*
D69*
X864108Y338201D03*
D68*
X864108Y313436D03*
X864108Y299466D03*
D69*
X864108Y283083D03*
D68*
X864108Y273304D03*
X864108Y258572D03*
X864108Y243840D03*
X864108Y234188D03*
D141*
X864108Y191008D03*
D60*
X864108Y142621D03*
D67*
X863854Y385191D03*
D69*
X863854Y360299D03*
D68*
X863854Y348234D03*
D69*
X863854Y338201D03*
D68*
X863854Y313436D03*
X863854Y299466D03*
D69*
X863854Y283083D03*
D68*
X863854Y273304D03*
X863854Y258572D03*
D69*
X863854Y243967D03*
D67*
X863854Y234315D03*
D141*
X863854Y191008D03*
D59*
X863854Y142748D03*
D67*
X863600Y385191D03*
D69*
X863600Y360299D03*
D68*
X863600Y348234D03*
D69*
X863600Y338201D03*
D68*
X863600Y313436D03*
D69*
X863600Y299339D03*
X863600Y283083D03*
D68*
X863600Y273304D03*
X863600Y258572D03*
D69*
X863600Y243967D03*
D67*
X863600Y234315D03*
D141*
X863600Y191008D03*
D59*
X863600Y142748D03*
D67*
X863346Y385191D03*
D70*
X863346Y360426D03*
D69*
X863346Y348107D03*
X863346Y338201D03*
D68*
X863346Y313436D03*
D69*
X863346Y299085D03*
X863346Y283083D03*
D68*
X863346Y273304D03*
X863346Y258572D03*
D69*
X863346Y243967D03*
D67*
X863346Y234315D03*
D141*
X863346Y191008D03*
D60*
X863346Y142875D03*
D67*
X863092Y385191D03*
D69*
X863092Y360553D03*
X863092Y347853D03*
D68*
X863092Y338328D03*
X863092Y313436D03*
D69*
X863092Y299085D03*
D68*
X863092Y283210D03*
X863092Y273304D03*
X863092Y258572D03*
D69*
X863092Y243967D03*
D67*
X863092Y234315D03*
D141*
X863092Y191008D03*
D59*
X863092Y143002D03*
D67*
X862838Y385191D03*
D68*
X862838Y360680D03*
X862838Y347726D03*
X862838Y338328D03*
X862838Y313436D03*
D69*
X862838Y299085D03*
X862838Y283337D03*
D68*
X862838Y273304D03*
X862838Y258572D03*
D69*
X862838Y243967D03*
D67*
X862838Y234315D03*
D141*
X862838Y191008D03*
D60*
X862838Y143129D03*
D67*
X862584Y385191D03*
D69*
X862584Y360807D03*
D68*
X862584Y347726D03*
X862584Y338328D03*
X862584Y313436D03*
D69*
X862584Y299085D03*
X862584Y283337D03*
D68*
X862584Y273304D03*
X862584Y258572D03*
D69*
X862584Y243967D03*
D67*
X862584Y234315D03*
D141*
X862584Y191008D03*
D60*
X862584Y143129D03*
D67*
X862330Y385191D03*
D69*
X862330Y360807D03*
D68*
X862330Y347726D03*
X862330Y338328D03*
X862330Y313436D03*
X862330Y298958D03*
D69*
X862330Y283337D03*
D68*
X862330Y273304D03*
D69*
X862330Y258699D03*
X862330Y243967D03*
D67*
X862330Y234315D03*
D141*
X862330Y191008D03*
D61*
X862330Y143256D03*
D67*
X862076Y385191D03*
D69*
X862076Y360807D03*
X862076Y347599D03*
D68*
X862076Y338328D03*
X862076Y313436D03*
X862076Y298958D03*
D69*
X862076Y283337D03*
X862076Y273177D03*
D70*
X862076Y258572D03*
X862076Y244094D03*
D67*
X862076Y234315D03*
D141*
X862076Y191008D03*
D60*
X862076Y143383D03*
D67*
X861822Y385191D03*
D68*
X861822Y360934D03*
D69*
X861822Y347599D03*
D68*
X861822Y338328D03*
X861822Y313436D03*
X861822Y298958D03*
D69*
X861822Y283337D03*
X861822Y273177D03*
D71*
X861822Y258445D03*
D70*
X861822Y244094D03*
D67*
X861822Y234315D03*
D141*
X861822Y191008D03*
D59*
X861822Y143510D03*
D67*
X861568Y385191D03*
D69*
X861568Y361061D03*
X861568Y347599D03*
X861568Y338201D03*
D68*
X861568Y313436D03*
D69*
X861568Y298831D03*
X861568Y283591D03*
D70*
X861568Y273050D03*
D73*
X861568Y258445D03*
D69*
X861568Y244221D03*
D67*
X861568Y234315D03*
D141*
X861568Y191008D03*
D60*
X861568Y143637D03*
D67*
X861314Y385191D03*
D70*
X861314Y361188D03*
X861314Y347472D03*
D69*
X861314Y338201D03*
D68*
X861314Y313436D03*
D69*
X861314Y298577D03*
X861314Y283591D03*
D72*
X861314Y272796D03*
D131*
X861314Y258318D03*
D69*
X861314Y244221D03*
D67*
X861314Y234315D03*
D141*
X861314Y191008D03*
D60*
X861314Y143637D03*
D68*
X861060Y384810D03*
D70*
X861060Y361188D03*
D69*
X861060Y347345D03*
D68*
X861060Y338074D03*
X861060Y313436D03*
D70*
X861060Y298450D03*
D69*
X861060Y283845D03*
D73*
X861060Y272669D03*
D74*
X861060Y258318D03*
D70*
X861060Y244348D03*
D68*
X861060Y233934D03*
D141*
X861060Y191008D03*
D61*
X861060Y143764D03*
D68*
X860806Y384810D03*
D69*
X860806Y361315D03*
D68*
X860806Y347218D03*
X860806Y338074D03*
X860806Y313436D03*
D70*
X860806Y298196D03*
X860806Y283972D03*
D128*
X860806Y272415D03*
D75*
X860806Y258191D03*
D70*
X860806Y244348D03*
D68*
X860806Y233934D03*
D141*
X860806Y191008D03*
D60*
X860806Y143891D03*
D68*
X860552Y384810D03*
D70*
X860552Y361442D03*
D68*
X860552Y347218D03*
X860552Y338074D03*
X860552Y313436D03*
D71*
X860552Y298069D03*
X860552Y284099D03*
D128*
X860552Y272415D03*
D76*
X860552Y258191D03*
D70*
X860552Y244348D03*
D68*
X860552Y233934D03*
D141*
X860552Y191008D03*
D61*
X860552Y144018D03*
D69*
X860298Y384683D03*
D96*
X860298Y369062D03*
D70*
X860298Y361442D03*
D68*
X860298Y347218D03*
D70*
X860298Y337820D03*
D96*
X860298Y322326D03*
D68*
X860298Y313436D03*
D71*
X860298Y297815D03*
D70*
X860298Y284226D03*
D74*
X860298Y272288D03*
D79*
X860298Y258064D03*
D70*
X860298Y244602D03*
D69*
X860298Y233807D03*
D96*
X860298Y218186D03*
D141*
X860298Y191008D03*
D61*
X860298Y144018D03*
D71*
X860044Y384429D03*
D55*
X860044Y369443D03*
D70*
X860044Y361442D03*
D69*
X860044Y347091D03*
D71*
X860044Y337693D03*
D54*
X860044Y322580D03*
D68*
X860044Y313436D03*
D72*
X860044Y297688D03*
D71*
X860044Y284353D03*
D77*
X860044Y272034D03*
D153*
X860044Y258064D03*
D71*
X860044Y244729D03*
X860044Y233553D03*
D54*
X860044Y218440D03*
D141*
X860044Y191008D03*
D61*
X860044Y144018D03*
D70*
X859790Y384302D03*
D119*
X859790Y369697D03*
D70*
X859790Y361442D03*
D68*
X859790Y346964D03*
D70*
X859790Y337566D03*
D56*
X859790Y322834D03*
D68*
X859790Y313436D03*
D72*
X859790Y297434D03*
X859790Y284480D03*
D77*
X859790Y272034D03*
D83*
X859790Y257937D03*
D71*
X859790Y244983D03*
D70*
X859790Y233426D03*
D56*
X859790Y218694D03*
D141*
X859790Y191008D03*
D60*
X859790Y144145D03*
D71*
X859536Y384175D03*
D59*
X859536Y370078D03*
D69*
X859536Y361569D03*
D68*
X859536Y346964D03*
D72*
X859536Y337312D03*
D59*
X859536Y323342D03*
D68*
X859536Y313436D03*
D73*
X859536Y297307D03*
X859536Y284861D03*
D80*
X859536Y271653D03*
D85*
X859536Y257810D03*
D72*
X859536Y245110D03*
X859536Y233172D03*
D59*
X859536Y219202D03*
D141*
X859536Y191008D03*
D60*
X859536Y144145D03*
D73*
X859282Y383921D03*
D64*
X859282Y370713D03*
D69*
X859282Y361569D03*
X859282Y346837D03*
D131*
X859282Y336804D03*
D63*
X859282Y323850D03*
D68*
X859282Y313436D03*
D131*
X859282Y296926D03*
D73*
X859282Y285115D03*
D81*
X859282Y271399D03*
D161*
X859282Y257683D03*
D131*
X859282Y245364D03*
D73*
X859282Y233045D03*
D63*
X859282Y219710D03*
D141*
X859282Y191008D03*
D60*
X859282Y144145D03*
D128*
X859028Y383667D03*
D67*
X859028Y370967D03*
D70*
X859028Y361696D03*
D69*
X859028Y346837D03*
D128*
X859028Y336677D03*
D66*
X859028Y324104D03*
D68*
X859028Y313436D03*
D128*
X859028Y296799D03*
D131*
X859028Y285242D03*
D83*
X859028Y271145D03*
D162*
X859028Y257810D03*
D131*
X859028Y245618D03*
D128*
X859028Y232791D03*
D67*
X859028Y220091D03*
D141*
X859028Y191008D03*
D61*
X859028Y144272D03*
D163*
X858774Y377825D03*
D70*
X858774Y361696D03*
D69*
X858774Y346583D03*
D137*
X858774Y330962D03*
D164*
X858774Y310769D03*
D155*
X858774Y290957D03*
D165*
X858774Y259080D03*
D137*
X858774Y226822D03*
D141*
X858774Y191008D03*
D61*
X858774Y144526D03*
D137*
X858520Y377698D03*
D68*
X858520Y361950D03*
X858520Y346456D03*
D155*
X858520Y330835D03*
D164*
X858520Y310769D03*
D140*
X858520Y291084D03*
D87*
X858520Y259207D03*
D155*
X858520Y226695D03*
D141*
X858520Y191008D03*
D61*
X858520Y144526D03*
D137*
X858266Y377698D03*
D69*
X858266Y362077D03*
D68*
X858266Y346456D03*
D155*
X858266Y330835D03*
D164*
X858266Y310769D03*
D140*
X858266Y291084D03*
D163*
X858266Y266573D03*
D149*
X858266Y250317D03*
D155*
X858266Y226695D03*
D141*
X858266Y191008D03*
D60*
X858266Y144653D03*
D155*
X858012Y377571D03*
D69*
X858012Y362077D03*
X858012Y346329D03*
D139*
X858012Y330581D03*
D164*
X858012Y310769D03*
D141*
X858012Y291084D03*
D163*
X858012Y266573D03*
D150*
X858012Y250190D03*
D138*
X858012Y226568D03*
D141*
X858012Y191008D03*
D61*
X858012Y144780D03*
D138*
X857758Y377444D03*
D69*
X857758Y362077D03*
D68*
X857758Y346202D03*
D139*
X857758Y330581D03*
D164*
X857758Y310769D03*
D141*
X857758Y291084D03*
D163*
X857758Y266573D03*
D65*
X857758Y250190D03*
D138*
X857758Y226568D03*
D141*
X857758Y191008D03*
D60*
X857758Y144907D03*
D139*
X857504Y377317D03*
D70*
X857504Y362204D03*
D68*
X857504Y346202D03*
D140*
X857504Y330454D03*
D164*
X857504Y310769D03*
D152*
X857504Y290957D03*
D64*
X857504Y273685D03*
D150*
X857504Y264668D03*
D159*
X857504Y250063D03*
D139*
X857504Y226441D03*
D141*
X857504Y191008D03*
D60*
X857504Y144907D03*
D139*
X857250Y377317D03*
D69*
X857250Y362331D03*
X857250Y346075D03*
D140*
X857250Y330454D03*
D164*
X857250Y310769D03*
D144*
X857250Y291084D03*
D64*
X857250Y273685D03*
D166*
X857250Y264668D03*
D147*
X857250Y250063D03*
D139*
X857250Y226441D03*
D141*
X857250Y191008D03*
D61*
X857250Y145034D03*
D140*
X856996Y377190D03*
D70*
X856996Y362458D03*
D69*
X856996Y346075D03*
D154*
X856996Y330327D03*
D164*
X856996Y310769D03*
D148*
X856996Y291084D03*
D64*
X856996Y273685D03*
D147*
X856996Y264541D03*
D157*
X856996Y249936D03*
D140*
X856996Y226314D03*
D141*
X856996Y191008D03*
D60*
X856996Y145161D03*
D154*
X856742Y377063D03*
D70*
X856742Y362458D03*
X856742Y345948D03*
D154*
X856742Y330327D03*
D164*
X856742Y310769D03*
D149*
X856742Y290957D03*
D64*
X856742Y273685D03*
D167*
X856742Y264541D03*
D157*
X856742Y249936D03*
D154*
X856742Y226187D03*
D141*
X856742Y191008D03*
D61*
X856742Y145288D03*
D141*
X856488Y376936D03*
D70*
X856488Y362458D03*
D69*
X856488Y345821D03*
D141*
X856488Y330200D03*
D164*
X856488Y310769D03*
D159*
X856488Y290957D03*
D64*
X856488Y273685D03*
D160*
X856488Y264414D03*
D156*
X856488Y249809D03*
D141*
X856488Y226060D03*
X856488Y191008D03*
D61*
X856488Y145288D03*
D142*
X856234Y376682D03*
D70*
X856234Y362712D03*
D69*
X856234Y345567D03*
D142*
X856234Y329946D03*
D164*
X856234Y310769D03*
D147*
X856234Y290957D03*
D64*
X856234Y273685D03*
D162*
X856234Y264414D03*
D168*
X856234Y249809D03*
D142*
X856234Y225806D03*
D141*
X856234Y191008D03*
D62*
X856234Y145415D03*
D144*
X855980Y376428D03*
D69*
X855980Y362839D03*
X855980Y345567D03*
D151*
X855980Y329565D03*
D164*
X855980Y310769D03*
D160*
X855980Y291084D03*
D63*
X855980Y273812D03*
D164*
X855980Y264541D03*
X855980Y249809D03*
D151*
X855980Y225425D03*
D141*
X855980Y191008D03*
D61*
X855980Y145542D03*
D65*
X855726Y376682D03*
D69*
X855726Y362839D03*
X855726Y345567D03*
D159*
X855726Y329565D03*
D164*
X855726Y310769D03*
D168*
X855726Y290957D03*
D63*
X855726Y273812D03*
D82*
X855726Y264414D03*
D153*
X855726Y249682D03*
D158*
X855726Y225679D03*
D141*
X855726Y191008D03*
D60*
X855726Y145669D03*
D146*
X855472Y376682D03*
D70*
X855472Y362966D03*
D68*
X855472Y345440D03*
D147*
X855472Y329819D03*
D164*
X855472Y310769D03*
D145*
X855472Y290830D03*
D63*
X855472Y273812D03*
D153*
X855472Y264414D03*
D79*
X855472Y249682D03*
D147*
X855472Y225679D03*
D141*
X855472Y191008D03*
D61*
X855472Y145796D03*
D168*
X855218Y376809D03*
D69*
X855218Y363093D03*
X855218Y345313D03*
D162*
X855218Y329946D03*
D164*
X855218Y310769D03*
D153*
X855218Y290830D03*
D63*
X855218Y273812D03*
D76*
X855218Y264287D03*
D77*
X855218Y249682D03*
D168*
X855218Y225933D03*
D141*
X855218Y191008D03*
D62*
X855218Y145923D03*
D83*
X854964Y377063D03*
D69*
X854964Y363093D03*
X854964Y345313D03*
D153*
X854964Y330200D03*
D164*
X854964Y310769D03*
D75*
X854964Y290957D03*
D63*
X854964Y273812D03*
D73*
X854964Y264287D03*
X854964Y249555D03*
D83*
X854964Y226187D03*
D141*
X854964Y191008D03*
D61*
X854964Y146050D03*
D77*
X854710Y377190D03*
D70*
X854710Y363220D03*
X854710Y345186D03*
D76*
X854710Y330327D03*
D164*
X854710Y310769D03*
D73*
X854710Y290957D03*
D62*
X854710Y273939D03*
D70*
X854710Y264414D03*
D68*
X854710Y249682D03*
D77*
X854710Y226314D03*
D141*
X854710Y191008D03*
D61*
X854710Y146050D03*
D64*
X854456Y313817D03*
D141*
X854456Y191008D03*
D62*
X854456Y146177D03*
D64*
X854202Y313817D03*
D141*
X854202Y191008D03*
D61*
X854202Y146304D03*
D63*
X853948Y313944D03*
D141*
X853948Y191008D03*
D61*
X853948Y146304D03*
D63*
X853694Y313944D03*
D154*
X853694Y190881D03*
D61*
X853694Y146558D03*
D62*
X853440Y314071D03*
D154*
X853440Y190881D03*
D61*
X853440Y146558D03*
D62*
X853186Y314071D03*
D154*
X853186Y190881D03*
D61*
X853186Y146558D03*
D62*
X852932Y314071D03*
D154*
X852932Y190881D03*
D62*
X852932Y146685D03*
X852678Y314071D03*
D154*
X852678Y190881D03*
D62*
X852678Y146685D03*
X852424Y314071D03*
D154*
X852424Y190881D03*
D62*
X852424Y146939D03*
X852170Y314071D03*
D154*
X852170Y190881D03*
D62*
X852170Y146939D03*
D61*
X851916Y314198D03*
D154*
X851916Y190881D03*
D62*
X851916Y147193D03*
D61*
X851662Y314198D03*
D154*
X851662Y190881D03*
D62*
X851662Y147193D03*
D61*
X851408Y314198D03*
D154*
X851408Y190881D03*
D62*
X851408Y147447D03*
D61*
X851154Y314198D03*
D154*
X851154Y190881D03*
D62*
X851154Y147447D03*
D61*
X850900Y314198D03*
D154*
X850900Y190881D03*
D62*
X850900Y147447D03*
D61*
X850646Y314198D03*
D154*
X850646Y190881D03*
D62*
X850646Y147701D03*
D61*
X850392Y314198D03*
D154*
X850392Y190881D03*
D63*
X850392Y147828D03*
D61*
X850138Y314198D03*
D154*
X850138Y190881D03*
D62*
X850138Y147955D03*
D154*
X849884Y190881D03*
D62*
X849884Y147955D03*
D154*
X849630Y190881D03*
D63*
X849630Y148082D03*
D154*
X849376Y190881D03*
D62*
X849376Y148209D03*
D154*
X849122Y190881D03*
D63*
X849122Y148336D03*
D154*
X848868Y190881D03*
D62*
X848868Y148463D03*
D154*
X848614Y190881D03*
D62*
X848614Y148463D03*
D154*
X848360Y190881D03*
D62*
X848360Y148717D03*
D154*
X848106Y190881D03*
D62*
X848106Y148717D03*
D154*
X847852Y190881D03*
D62*
X847852Y148717D03*
D154*
X847598Y190881D03*
D62*
X847598Y148971D03*
D154*
X847344Y190881D03*
D62*
X847344Y148971D03*
D154*
X847090Y190881D03*
D63*
X847090Y149098D03*
D154*
X846836Y190881D03*
D63*
X846836Y149352D03*
D154*
X846582Y190881D03*
D63*
X846582Y149352D03*
D154*
X846328Y190881D03*
D63*
X846328Y149606D03*
D154*
X846074Y190881D03*
D63*
X846074Y149606D03*
D154*
X845820Y190881D03*
D64*
X845820Y149733D03*
D154*
X845566Y190881D03*
D63*
X845566Y149860D03*
D154*
X845312Y190881D03*
D62*
X845312Y149987D03*
D154*
X845058Y190881D03*
D63*
X845058Y150114D03*
D154*
X844804Y190881D03*
D64*
X844804Y150241D03*
D154*
X844550Y190881D03*
D64*
X844550Y150495D03*
D154*
X844296Y190881D03*
D64*
X844296Y150495D03*
D154*
X844042Y190881D03*
D63*
X844042Y150622D03*
D154*
X843788Y190881D03*
D63*
X843788Y150622D03*
D154*
X843534Y190881D03*
D62*
X843534Y150749D03*
D154*
X843280Y190881D03*
D62*
X843280Y150749D03*
D154*
X843026Y190881D03*
D62*
X843026Y151003D03*
D69*
X842772Y312801D03*
D154*
X842772Y190881D03*
D63*
X842772Y151130D03*
D69*
X842518Y312801D03*
D154*
X842518Y190881D03*
D64*
X842518Y151257D03*
D69*
X842264Y312801D03*
D154*
X842264Y190881D03*
D63*
X842264Y151384D03*
D69*
X842010Y312801D03*
D154*
X842010Y190881D03*
D63*
X842010Y151384D03*
D69*
X841756Y312801D03*
D154*
X841756Y190881D03*
D64*
X841756Y151511D03*
D69*
X841502Y312801D03*
D154*
X841502Y190881D03*
D64*
X841502Y151765D03*
D69*
X841248Y312801D03*
D154*
X841248Y190881D03*
D64*
X841248Y151765D03*
D69*
X840994Y312801D03*
D154*
X840994Y190881D03*
D66*
X840994Y151892D03*
D69*
X840740Y312801D03*
D154*
X840740Y190881D03*
D64*
X840740Y152019D03*
D69*
X840486Y312801D03*
D154*
X840486Y190881D03*
D63*
X840486Y152146D03*
D69*
X840232Y312801D03*
D154*
X840232Y190881D03*
D66*
X840232Y152400D03*
D69*
X839978Y312801D03*
D154*
X839978Y190881D03*
D64*
X839978Y152527D03*
D69*
X839724Y312801D03*
D154*
X839724Y190881D03*
D66*
X839724Y152654D03*
D69*
X839470Y312801D03*
D154*
X839470Y190881D03*
D64*
X839470Y152781D03*
D69*
X839216Y312801D03*
D154*
X839216Y190881D03*
D63*
X839216Y152908D03*
D69*
X838962Y312801D03*
D154*
X838962Y190881D03*
D64*
X838962Y153035D03*
D69*
X838708Y312801D03*
D154*
X838708Y190881D03*
D64*
X838708Y153035D03*
D69*
X838454Y312801D03*
D154*
X838454Y190881D03*
D63*
X838454Y153162D03*
D69*
X838200Y312801D03*
D154*
X838200Y190881D03*
D64*
X838200Y153289D03*
D69*
X837946Y312801D03*
D154*
X837946Y190881D03*
D64*
X837946Y153543D03*
D69*
X837692Y312801D03*
D154*
X837692Y190881D03*
D64*
X837692Y153797D03*
D69*
X837438Y312801D03*
D154*
X837438Y190881D03*
D64*
X837438Y153797D03*
D69*
X837184Y312801D03*
D154*
X837184Y190881D03*
D66*
X837184Y153924D03*
D69*
X836930Y312801D03*
D154*
X836930Y190881D03*
D66*
X836930Y153924D03*
D69*
X836676Y312801D03*
D154*
X836676Y190881D03*
D66*
X836676Y154178D03*
D69*
X836422Y312801D03*
D154*
X836422Y190881D03*
D64*
X836422Y154305D03*
D69*
X836168Y312801D03*
D154*
X836168Y190881D03*
D66*
X836168Y154432D03*
D69*
X835914Y312801D03*
D154*
X835914Y190881D03*
D66*
X835914Y154432D03*
D69*
X835660Y312801D03*
D154*
X835660Y190881D03*
D66*
X835660Y154686D03*
D69*
X835406Y312801D03*
D154*
X835406Y190881D03*
D66*
X835406Y154940D03*
D69*
X835152Y312801D03*
D154*
X835152Y190881D03*
D64*
X835152Y155067D03*
D69*
X834898Y312801D03*
D154*
X834898Y190881D03*
D64*
X834898Y155067D03*
D69*
X834644Y312801D03*
D154*
X834644Y190881D03*
D66*
X834644Y155194D03*
D69*
X834390Y312801D03*
D154*
X834390Y190881D03*
D64*
X834390Y155321D03*
D69*
X834136Y312801D03*
D154*
X834136Y190881D03*
D66*
X834136Y155448D03*
D69*
X833882Y312801D03*
D154*
X833882Y190881D03*
D66*
X833882Y155702D03*
D69*
X833628Y312801D03*
D154*
X833628Y190881D03*
D64*
X833628Y155829D03*
D70*
X833374Y330200D03*
D69*
X833374Y312801D03*
D64*
X833374Y305181D03*
X833374Y281305D03*
D60*
X833374Y270891D03*
D70*
X833374Y251206D03*
X833374Y228854D03*
D154*
X833374Y190881D03*
D66*
X833374Y155956D03*
D76*
X833120Y330327D03*
D69*
X833120Y312801D03*
D73*
X833120Y305181D03*
D72*
X833120Y281178D03*
D60*
X833120Y270891D03*
D75*
X833120Y251333D03*
D78*
X833120Y228854D03*
D154*
X833120Y190881D03*
D64*
X833120Y156083D03*
D145*
X832866Y330708D03*
D69*
X832866Y312801D03*
D78*
X832866Y305054D03*
X832866Y281178D03*
D61*
X832866Y271018D03*
D164*
X832866Y251079D03*
D161*
X832866Y228473D03*
D154*
X832866Y190881D03*
D66*
X832866Y156210D03*
D157*
X832612Y330708D03*
D69*
X832612Y312801D03*
D84*
X832612Y304927D03*
D82*
X832612Y281178D03*
D61*
X832612Y271018D03*
D156*
X832612Y251079D03*
D167*
X832612Y228473D03*
D154*
X832612Y190881D03*
D67*
X832612Y156337D03*
D166*
X832358Y330962D03*
D69*
X832358Y312801D03*
D145*
X832358Y305054D03*
D164*
X832358Y281051D03*
D62*
X832358Y271145D03*
D167*
X832358Y251333D03*
D166*
X832358Y228346D03*
D154*
X832358Y190881D03*
D66*
X832358Y156464D03*
D148*
X832104Y331216D03*
D142*
X832104Y307340D03*
D168*
X832104Y281051D03*
D63*
X832104Y271272D03*
D147*
X832104Y251587D03*
D150*
X832104Y228346D03*
D154*
X832104Y190881D03*
D67*
X832104Y156591D03*
D143*
X831850Y331089D03*
D141*
X831850Y307086D03*
D156*
X831850Y281051D03*
D63*
X831850Y271272D03*
D159*
X831850Y251841D03*
D148*
X831850Y228600D03*
D154*
X831850Y190881D03*
D66*
X831850Y156718D03*
D142*
X831596Y330962D03*
D154*
X831596Y306959D03*
D157*
X831596Y280924D03*
D63*
X831596Y271272D03*
D65*
X831596Y251968D03*
D151*
X831596Y228727D03*
D154*
X831596Y190881D03*
D67*
X831596Y156845D03*
D141*
X831342Y330708D03*
D139*
X831342Y306705D03*
D166*
X831342Y280924D03*
D64*
X831342Y271399D03*
D150*
X831342Y252222D03*
D143*
X831342Y228981D03*
D154*
X831342Y190881D03*
D68*
X831342Y156972D03*
D140*
X831088Y330454D03*
D155*
X831088Y306451D03*
D150*
X831088Y280924D03*
D66*
X831088Y271526D03*
D151*
X831088Y252603D03*
D141*
X831088Y229362D03*
D154*
X831088Y190881D03*
D67*
X831088Y157099D03*
D140*
X830834Y330454D03*
D137*
X830834Y306324D03*
D136*
X830834Y278765D03*
D144*
X830834Y252730D03*
D141*
X830834Y229362D03*
D154*
X830834Y190881D03*
D66*
X830834Y157226D03*
D139*
X830580Y330327D03*
D163*
X830580Y306197D03*
D135*
X830580Y278892D03*
D144*
X830580Y252730D03*
D140*
X830580Y229616D03*
D154*
X830580Y190881D03*
D66*
X830580Y157480D03*
D138*
X830326Y330200D03*
D169*
X830326Y306070D03*
D135*
X830326Y278892D03*
D143*
X830326Y252857D03*
D140*
X830326Y229616D03*
D154*
X830326Y190881D03*
D67*
X830326Y157607D03*
D138*
X830072Y330200D03*
D136*
X830072Y305943D03*
D134*
X830072Y279019D03*
D142*
X830072Y252984D03*
D139*
X830072Y229743D03*
D154*
X830072Y190881D03*
D66*
X830072Y157734D03*
D155*
X829818Y330073D03*
D136*
X829818Y305943D03*
D170*
X829818Y279146D03*
D152*
X829818Y253111D03*
D155*
X829818Y229997D03*
D154*
X829818Y190881D03*
D66*
X829818Y157988D03*
D155*
X829564Y330073D03*
D136*
X829564Y305943D03*
D170*
X829564Y279146D03*
D141*
X829564Y253238D03*
D155*
X829564Y229997D03*
D154*
X829564Y190881D03*
D66*
X829564Y157988D03*
D137*
X829310Y329946D03*
D134*
X829310Y305689D03*
D170*
X829310Y279146D03*
D154*
X829310Y253365D03*
D137*
X829310Y230124D03*
D154*
X829310Y190881D03*
D67*
X829310Y158115D03*
D131*
X829056Y335788D03*
D76*
X829056Y324485D03*
D134*
X829056Y305689D03*
D74*
X829056Y285750D03*
D85*
X829056Y274320D03*
D79*
X829056Y257556D03*
D64*
X829056Y247015D03*
D81*
X829056Y234823D03*
D68*
X829056Y223520D03*
D154*
X829056Y190881D03*
D67*
X829056Y158369D03*
X828802Y336677D03*
D128*
X828802Y323977D03*
D79*
X828802Y311150D03*
D80*
X828802Y299847D03*
D131*
X828802Y286004D03*
D153*
X828802Y273812D03*
D77*
X828802Y258318D03*
D119*
X828802Y245999D03*
D77*
X828802Y235712D03*
D60*
X828802Y222631D03*
D154*
X828802Y190881D03*
D66*
X828802Y158496D03*
D63*
X828548Y337058D03*
D128*
X828548Y323723D03*
D76*
X828548Y311531D03*
D78*
X828548Y299466D03*
D73*
X828548Y286385D03*
D79*
X828548Y273558D03*
D76*
X828548Y258699D03*
D55*
X828548Y245745D03*
D76*
X828548Y236093D03*
D58*
X828548Y222377D03*
D154*
X828548Y190881D03*
D67*
X828548Y158623D03*
D119*
X828294Y337947D03*
D71*
X828294Y323215D03*
D72*
X828294Y312420D03*
D128*
X828294Y298577D03*
D70*
X828294Y286766D03*
D75*
X828294Y272923D03*
D128*
X828294Y259207D03*
D131*
X828294Y236728D03*
D154*
X828294Y190881D03*
D67*
X828294Y158877D03*
D55*
X828040Y338201D03*
D71*
X828040Y323215D03*
X828040Y312547D03*
D128*
X828040Y298577D03*
D71*
X828040Y286893D03*
D74*
X828040Y272796D03*
D128*
X828040Y259461D03*
D73*
X828040Y236855D03*
D154*
X828040Y190881D03*
D68*
X828040Y159004D03*
D69*
X827786Y322961D03*
X827786Y312801D03*
D131*
X827786Y298196D03*
D70*
X827786Y287020D03*
D131*
X827786Y272542D03*
D73*
X827786Y259715D03*
D71*
X827786Y237109D03*
D154*
X827786Y190881D03*
D68*
X827786Y159004D03*
D69*
X827532Y322961D03*
X827532Y312801D03*
D73*
X827532Y298069D03*
D69*
X827532Y287147D03*
D72*
X827532Y272288D03*
X827532Y259842D03*
D71*
X827532Y237363D03*
D154*
X827532Y190881D03*
D68*
X827532Y159258D03*
D69*
X827278Y322707D03*
X827278Y312801D03*
D72*
X827278Y297942D03*
D69*
X827278Y287147D03*
D71*
X827278Y272161D03*
X827278Y259969D03*
X827278Y237363D03*
D154*
X827278Y190881D03*
D67*
X827278Y159385D03*
D69*
X827024Y322707D03*
X827024Y312801D03*
D72*
X827024Y297688D03*
D68*
X827024Y287274D03*
D69*
X827024Y271907D03*
D71*
X827024Y260223D03*
X827024Y237617D03*
D154*
X827024Y190881D03*
D68*
X827024Y159512D03*
X826770Y322580D03*
D69*
X826770Y312801D03*
D71*
X826770Y297561D03*
D68*
X826770Y287274D03*
D69*
X826770Y271907D03*
D71*
X826770Y260223D03*
D70*
X826770Y237744D03*
D154*
X826770Y190881D03*
D67*
X826770Y159639D03*
D68*
X826516Y322580D03*
D69*
X826516Y312801D03*
D71*
X826516Y297307D03*
D69*
X826516Y287401D03*
D68*
X826516Y271780D03*
D71*
X826516Y260223D03*
D69*
X826516Y237871D03*
D154*
X826516Y190881D03*
D67*
X826516Y159639D03*
D69*
X826262Y322453D03*
X826262Y312801D03*
D71*
X826262Y297307D03*
D69*
X826262Y287401D03*
D68*
X826262Y271780D03*
D70*
X826262Y260604D03*
X826262Y237998D03*
D154*
X826262Y190881D03*
D67*
X826262Y159893D03*
D69*
X826008Y322453D03*
X826008Y312801D03*
D71*
X826008Y297053D03*
D68*
X826008Y287528D03*
X826008Y271780D03*
D70*
X826008Y260858D03*
X826008Y238252D03*
D154*
X826008Y190881D03*
D68*
X826008Y160274D03*
D69*
X825754Y322453D03*
X825754Y312801D03*
D70*
X825754Y296926D03*
D68*
X825754Y287528D03*
X825754Y271780D03*
D70*
X825754Y260858D03*
D69*
X825754Y238379D03*
D154*
X825754Y190881D03*
D67*
X825754Y160401D03*
D69*
X825500Y322453D03*
X825500Y312801D03*
D70*
X825500Y296926D03*
D68*
X825500Y287528D03*
X825500Y271780D03*
D69*
X825500Y260985D03*
D68*
X825500Y238506D03*
D154*
X825500Y190881D03*
D68*
X825500Y160528D03*
D69*
X825246Y322453D03*
X825246Y312801D03*
D70*
X825246Y296926D03*
D68*
X825246Y287528D03*
X825246Y271780D03*
D70*
X825246Y261112D03*
D68*
X825246Y238506D03*
D154*
X825246Y190881D03*
D67*
X825246Y160655D03*
D69*
X824992Y322453D03*
X824992Y312801D03*
X824992Y296799D03*
D68*
X824992Y287528D03*
X824992Y271780D03*
D69*
X824992Y261239D03*
D68*
X824992Y238760D03*
D154*
X824992Y190881D03*
D67*
X824992Y160909D03*
D69*
X824738Y322453D03*
X824738Y312801D03*
X824738Y296799D03*
D68*
X824738Y287528D03*
X824738Y271780D03*
D69*
X824738Y261239D03*
D68*
X824738Y238760D03*
D154*
X824738Y190881D03*
D68*
X824738Y161036D03*
D69*
X824484Y322453D03*
X824484Y312801D03*
X824484Y296799D03*
D68*
X824484Y287528D03*
X824484Y271780D03*
D69*
X824484Y261239D03*
D68*
X824484Y238760D03*
D154*
X824484Y190881D03*
D68*
X824484Y161036D03*
D59*
X824230Y364744D03*
D68*
X824230Y322580D03*
D69*
X824230Y312801D03*
X824230Y296545D03*
D68*
X824230Y287528D03*
X824230Y271780D03*
X824230Y261366D03*
X824230Y238760D03*
D154*
X824230Y190881D03*
D69*
X824230Y161163D03*
D62*
X823976Y387985D03*
X823976Y375031D03*
D76*
X823976Y364871D03*
D61*
X823976Y356362D03*
X823976Y345694D03*
D69*
X823976Y322707D03*
X823976Y312801D03*
X823976Y296545D03*
X823976Y287401D03*
D68*
X823976Y271780D03*
D69*
X823976Y261493D03*
D67*
X823976Y238887D03*
D154*
X823976Y190881D03*
D69*
X823976Y161417D03*
D62*
X823722Y387985D03*
X823722Y375285D03*
D153*
X823722Y364744D03*
D61*
X823722Y356362D03*
X823722Y345694D03*
D69*
X823722Y322707D03*
X823722Y312801D03*
D68*
X823722Y296418D03*
X823722Y287274D03*
X823722Y271780D03*
X823722Y261620D03*
D67*
X823722Y239141D03*
D154*
X823722Y190881D03*
D68*
X823722Y161544D03*
D61*
X823468Y387858D03*
D62*
X823468Y375285D03*
D82*
X823468Y364744D03*
D61*
X823468Y356362D03*
X823468Y345694D03*
D70*
X823468Y322834D03*
D69*
X823468Y312801D03*
D68*
X823468Y296418D03*
X823468Y287274D03*
X823468Y271780D03*
D69*
X823468Y261747D03*
D67*
X823468Y239141D03*
D154*
X823468Y190881D03*
D67*
X823468Y161671D03*
D60*
X823214Y387731D03*
D62*
X823214Y375285D03*
D164*
X823214Y365125D03*
D61*
X823214Y356362D03*
X823214Y345694D03*
D69*
X823214Y322961D03*
X823214Y312801D03*
D68*
X823214Y296418D03*
X823214Y287274D03*
X823214Y271780D03*
D69*
X823214Y261747D03*
D67*
X823214Y239141D03*
D154*
X823214Y190881D03*
D68*
X823214Y161798D03*
D61*
X822960Y387604D03*
D62*
X822960Y375539D03*
D161*
X822960Y365379D03*
D61*
X822960Y356362D03*
X822960Y345694D03*
D71*
X822960Y323215D03*
D69*
X822960Y312801D03*
D68*
X822960Y296418D03*
D69*
X822960Y287147D03*
D68*
X822960Y271780D03*
X822960Y261874D03*
X822960Y239268D03*
D154*
X822960Y190881D03*
D68*
X822960Y162052D03*
D61*
X822706Y387604D03*
D62*
X822706Y375793D03*
D161*
X822706Y365379D03*
D61*
X822706Y356362D03*
X822706Y345694D03*
D71*
X822706Y323215D03*
D69*
X822706Y312801D03*
D67*
X822706Y296291D03*
D70*
X822706Y287020D03*
D68*
X822706Y271780D03*
X822706Y261874D03*
X822706Y239268D03*
D154*
X822706Y190881D03*
D68*
X822706Y162306D03*
D61*
X822452Y387604D03*
D62*
X822452Y375793D03*
D171*
X822452Y365506D03*
D61*
X822452Y356362D03*
X822452Y345694D03*
D131*
X822452Y323596D03*
D69*
X822452Y312801D03*
D68*
X822452Y296164D03*
D70*
X822452Y287020D03*
D68*
X822452Y271780D03*
X822452Y261874D03*
X822452Y239268D03*
D154*
X822452Y190881D03*
D68*
X822452Y162306D03*
D62*
X822198Y387477D03*
X822198Y375793D03*
D168*
X822198Y365633D03*
D61*
X822198Y356362D03*
X822198Y345694D03*
D74*
X822198Y323850D03*
D69*
X822198Y312801D03*
D68*
X822198Y296164D03*
D71*
X822198Y286893D03*
D68*
X822198Y271780D03*
X822198Y261874D03*
X822198Y239268D03*
D154*
X822198Y190881D03*
D68*
X822198Y162560D03*
D62*
X821944Y387477D03*
X821944Y376047D03*
D162*
X821944Y365760D03*
D61*
X821944Y356362D03*
X821944Y345694D03*
D77*
X821944Y324358D03*
D69*
X821944Y312801D03*
D68*
X821944Y296164D03*
D70*
X821944Y286766D03*
D68*
X821944Y271780D03*
X821944Y261874D03*
X821944Y239268D03*
D154*
X821944Y190881D03*
D67*
X821944Y162687D03*
D62*
X821690Y387223D03*
X821690Y376047D03*
D73*
X821690Y368935D03*
D62*
X821690Y361823D03*
D61*
X821690Y356362D03*
X821690Y345694D03*
D148*
X821690Y328168D03*
D69*
X821690Y312801D03*
D68*
X821690Y296164D03*
D131*
X821690Y286258D03*
D68*
X821690Y271780D03*
X821690Y261874D03*
X821690Y239268D03*
D154*
X821690Y190881D03*
D69*
X821690Y162941D03*
D61*
X821436Y387096D03*
X821436Y376174D03*
D64*
X821436Y369951D03*
D61*
X821436Y361696D03*
X821436Y356362D03*
X821436Y345694D03*
D148*
X821436Y328422D03*
D69*
X821436Y312801D03*
D68*
X821436Y296164D03*
D131*
X821436Y286004D03*
D68*
X821436Y271780D03*
D67*
X821436Y262001D03*
D68*
X821436Y239268D03*
D154*
X821436Y190881D03*
D68*
X821436Y163322D03*
D62*
X821182Y386969D03*
D61*
X821182Y376428D03*
D66*
X821182Y370078D03*
D61*
X821182Y361696D03*
X821182Y356362D03*
X821182Y345694D03*
D144*
X821182Y328676D03*
D69*
X821182Y312801D03*
D68*
X821182Y296164D03*
D74*
X821182Y285750D03*
D72*
X821182Y272288D03*
D68*
X821182Y262128D03*
D127*
X821182Y231013D03*
D154*
X821182Y190881D03*
D68*
X821182Y163322D03*
D61*
X820928Y386842D03*
X820928Y376428D03*
D64*
X820928Y370459D03*
D61*
X820928Y361696D03*
X820928Y356362D03*
X820928Y345694D03*
D143*
X820928Y329057D03*
D69*
X820928Y312801D03*
D68*
X820928Y296164D03*
D80*
X820928Y284861D03*
D81*
X820928Y273685D03*
D68*
X820928Y262128D03*
D127*
X820928Y231013D03*
D154*
X820928Y190881D03*
D69*
X820928Y163449D03*
D61*
X820674Y386842D03*
X820674Y376428D03*
D63*
X820674Y370586D03*
D61*
X820674Y361696D03*
X820674Y356362D03*
X820674Y345694D03*
D143*
X820674Y329311D03*
D69*
X820674Y312801D03*
D68*
X820674Y296164D03*
D170*
X820674Y279146D03*
D68*
X820674Y262128D03*
D127*
X820674Y231013D03*
D154*
X820674Y190881D03*
D69*
X820674Y163703D03*
D62*
X820420Y386715D03*
X820420Y376555D03*
D64*
X820420Y370713D03*
D61*
X820420Y361696D03*
X820420Y356362D03*
X820420Y345694D03*
D142*
X820420Y329438D03*
D69*
X820420Y312801D03*
D67*
X820420Y296037D03*
D134*
X820420Y279019D03*
D68*
X820420Y262128D03*
D127*
X820420Y231013D03*
D154*
X820420Y190881D03*
D69*
X820420Y163703D03*
D61*
X820166Y386588D03*
D62*
X820166Y376555D03*
X820166Y370967D03*
D61*
X820166Y361696D03*
X820166Y356362D03*
X820166Y345694D03*
D142*
X820166Y329692D03*
D69*
X820166Y312801D03*
D67*
X820166Y296037D03*
D135*
X820166Y278892D03*
D68*
X820166Y262128D03*
D127*
X820166Y231013D03*
D154*
X820166Y190881D03*
D68*
X820166Y163830D03*
D60*
X819912Y386461D03*
D62*
X819912Y376555D03*
D63*
X819912Y371094D03*
D61*
X819912Y361696D03*
X819912Y356362D03*
X819912Y345694D03*
D142*
X819912Y329946D03*
D69*
X819912Y312801D03*
D67*
X819912Y296037D03*
D135*
X819912Y278892D03*
D68*
X819912Y262128D03*
D127*
X819912Y231013D03*
D154*
X819912Y190881D03*
D68*
X819912Y163830D03*
D61*
X819658Y386334D03*
D62*
X819658Y376809D03*
X819658Y371221D03*
D61*
X819658Y361696D03*
X819658Y356362D03*
X819658Y345694D03*
D152*
X819658Y330073D03*
D69*
X819658Y312801D03*
D67*
X819658Y296037D03*
D136*
X819658Y278765D03*
D68*
X819658Y262128D03*
D127*
X819658Y231013D03*
D154*
X819658Y190881D03*
D69*
X819658Y164211D03*
D62*
X819404Y386207D03*
D81*
X819404Y379603D03*
D62*
X819404Y371221D03*
D61*
X819404Y361696D03*
X819404Y356362D03*
X819404Y345694D03*
D141*
X819404Y330200D03*
D69*
X819404Y312801D03*
D67*
X819404Y296037D03*
D136*
X819404Y278765D03*
D68*
X819404Y262128D03*
D127*
X819404Y231013D03*
D154*
X819404Y190881D03*
D69*
X819404Y164465D03*
D61*
X819150Y386080D03*
D81*
X819150Y379603D03*
D61*
X819150Y371602D03*
X819150Y361696D03*
X819150Y356362D03*
X819150Y345694D03*
D152*
X819150Y330581D03*
D69*
X819150Y312801D03*
D67*
X819150Y296037D03*
D169*
X819150Y278638D03*
D68*
X819150Y262128D03*
D127*
X819150Y231013D03*
D154*
X819150Y190881D03*
D68*
X819150Y164592D03*
D62*
X818896Y385953D03*
D80*
X818896Y379603D03*
D61*
X818896Y371602D03*
X818896Y361696D03*
X818896Y356362D03*
X818896Y345694D03*
D143*
X818896Y330835D03*
D69*
X818896Y312801D03*
D67*
X818896Y296037D03*
D163*
X818896Y278511D03*
D68*
X818896Y262128D03*
D127*
X818896Y231013D03*
D154*
X818896Y190881D03*
D70*
X818896Y164846D03*
D61*
X818642Y385826D03*
D80*
X818642Y379603D03*
D61*
X818642Y371602D03*
X818642Y361696D03*
X818642Y356362D03*
X818642Y345694D03*
D151*
X818642Y331089D03*
D69*
X818642Y312801D03*
D67*
X818642Y296037D03*
D155*
X818642Y278257D03*
D68*
X818642Y262128D03*
D127*
X818642Y231013D03*
D154*
X818642Y190881D03*
D68*
X818642Y165100D03*
D61*
X818388Y385826D03*
D80*
X818388Y379603D03*
D61*
X818388Y371602D03*
X818388Y361696D03*
X818388Y356362D03*
X818388Y345694D03*
D151*
X818388Y331343D03*
D69*
X818388Y312801D03*
D67*
X818388Y296037D03*
D138*
X818388Y278130D03*
D68*
X818388Y262128D03*
D127*
X818388Y231013D03*
D154*
X818388Y190881D03*
D69*
X818388Y165227D03*
D61*
X818134Y385572D03*
D78*
X818134Y379730D03*
D60*
X818134Y371729D03*
D61*
X818134Y361696D03*
X818134Y356362D03*
X818134Y345694D03*
D149*
X818134Y331597D03*
D69*
X818134Y312801D03*
D67*
X818134Y296037D03*
D140*
X818134Y277876D03*
D68*
X818134Y262128D03*
D127*
X818134Y231013D03*
D154*
X818134Y190881D03*
D68*
X818134Y165354D03*
D61*
X817880Y385572D03*
D77*
X817880Y379730D03*
D60*
X817880Y371729D03*
D61*
X817880Y361696D03*
X817880Y356362D03*
X817880Y345694D03*
D65*
X817880Y332232D03*
D69*
X817880Y312801D03*
D67*
X817880Y296037D03*
D141*
X817880Y277622D03*
D68*
X817880Y262128D03*
D127*
X817880Y231013D03*
D154*
X817880Y190881D03*
D69*
X817880Y165481D03*
D60*
X817626Y385445D03*
D77*
X817626Y379730D03*
D60*
X817626Y371729D03*
D61*
X817626Y361696D03*
X817626Y356362D03*
X817626Y345694D03*
D166*
X817626Y332486D03*
D69*
X817626Y312801D03*
D68*
X817626Y296164D03*
D141*
X817626Y277622D03*
D68*
X817626Y262128D03*
D127*
X817626Y231013D03*
D154*
X817626Y190881D03*
D69*
X817626Y165735D03*
D60*
X817372Y385445D03*
D75*
X817372Y379603D03*
D60*
X817372Y371729D03*
D61*
X817372Y361696D03*
X817372Y356362D03*
X817372Y345694D03*
D74*
X817372Y335788D03*
D69*
X817372Y312801D03*
D68*
X817372Y296164D03*
D143*
X817372Y277241D03*
D68*
X817372Y262128D03*
D127*
X817372Y231013D03*
D154*
X817372Y190881D03*
D70*
X817372Y165862D03*
D61*
X817118Y385318D03*
D74*
X817118Y379730D03*
D60*
X817118Y371729D03*
D61*
X817118Y361696D03*
D65*
X817118Y351028D03*
D73*
X817118Y336423D03*
D69*
X817118Y312801D03*
D68*
X817118Y296164D03*
D164*
X817118Y279019D03*
D68*
X817118Y271780D03*
X817118Y261874D03*
D127*
X817118Y231013D03*
D154*
X817118Y190881D03*
D69*
X817118Y165989D03*
D60*
X816864Y385191D03*
D62*
X816864Y378079D03*
D60*
X816864Y371729D03*
D61*
X816864Y361696D03*
D65*
X816864Y351028D03*
D70*
X816864Y336804D03*
D69*
X816864Y312801D03*
D68*
X816864Y296164D03*
D60*
X816864Y279781D03*
D68*
X816864Y271780D03*
X816864Y261874D03*
X816864Y239268D03*
D67*
X816864Y222631D03*
D154*
X816864Y190881D03*
D69*
X816864Y166243D03*
D61*
X816610Y385064D03*
X816610Y378206D03*
D60*
X816610Y371729D03*
D65*
X816610Y351028D03*
D69*
X816610Y336931D03*
X816610Y312801D03*
D68*
X816610Y296164D03*
X816610Y271780D03*
X816610Y261874D03*
X816610Y239268D03*
D67*
X816610Y222631D03*
D154*
X816610Y190881D03*
D69*
X816610Y166497D03*
D61*
X816356Y385064D03*
D62*
X816356Y378333D03*
D60*
X816356Y371729D03*
D65*
X816356Y351028D03*
D70*
X816356Y337058D03*
D69*
X816356Y312801D03*
D68*
X816356Y296164D03*
X816356Y271780D03*
X816356Y261874D03*
X816356Y239268D03*
D67*
X816356Y222631D03*
D154*
X816356Y190881D03*
D69*
X816356Y166497D03*
D61*
X816102Y384810D03*
X816102Y378460D03*
D60*
X816102Y371729D03*
D65*
X816102Y351028D03*
D69*
X816102Y337185D03*
X816102Y312801D03*
D68*
X816102Y296164D03*
X816102Y271780D03*
X816102Y261874D03*
X816102Y239268D03*
D67*
X816102Y222631D03*
D154*
X816102Y190881D03*
D69*
X816102Y166751D03*
D61*
X815848Y384810D03*
X815848Y378460D03*
D60*
X815848Y371729D03*
D65*
X815848Y351028D03*
D68*
X815848Y337312D03*
D69*
X815848Y312801D03*
D68*
X815848Y296164D03*
X815848Y271780D03*
X815848Y261874D03*
D67*
X815848Y239141D03*
X815848Y222631D03*
D154*
X815848Y190881D03*
D70*
X815848Y166878D03*
D61*
X815594Y384810D03*
D60*
X815594Y378587D03*
X815594Y371729D03*
D65*
X815594Y351028D03*
D68*
X815594Y337312D03*
D69*
X815594Y312801D03*
D68*
X815594Y296418D03*
X815594Y271780D03*
D69*
X815594Y261747D03*
D67*
X815594Y239141D03*
X815594Y222631D03*
D154*
X815594Y190881D03*
D70*
X815594Y167132D03*
D61*
X815340Y384556D03*
X815340Y378714D03*
D60*
X815340Y371729D03*
D65*
X815340Y351028D03*
D67*
X815340Y337439D03*
D69*
X815340Y312801D03*
D68*
X815340Y296418D03*
X815340Y271780D03*
D69*
X815340Y261747D03*
D67*
X815340Y239141D03*
D68*
X815340Y222758D03*
D154*
X815340Y190881D03*
D69*
X815340Y167259D03*
D61*
X815086Y384556D03*
X815086Y378714D03*
D60*
X815086Y371729D03*
D65*
X815086Y351028D03*
D67*
X815086Y337439D03*
D69*
X815086Y312801D03*
D68*
X815086Y296418D03*
X815086Y271780D03*
D69*
X815086Y261493D03*
D68*
X815086Y239014D03*
X815086Y222758D03*
D154*
X815086Y190881D03*
D69*
X815086Y167513D03*
D61*
X814832Y384302D03*
D62*
X814832Y378841D03*
D60*
X814832Y371729D03*
D61*
X814832Y356362D03*
X814832Y345694D03*
D67*
X814832Y337439D03*
D69*
X814832Y312801D03*
X814832Y296545D03*
D68*
X814832Y271780D03*
D69*
X814832Y261493D03*
D67*
X814832Y238887D03*
D68*
X814832Y222758D03*
D154*
X814832Y190881D03*
D70*
X814832Y167640D03*
D62*
X814578Y384175D03*
D61*
X814578Y378968D03*
D60*
X814578Y371729D03*
D61*
X814578Y356362D03*
X814578Y345694D03*
D67*
X814578Y337439D03*
D69*
X814578Y312801D03*
X814578Y296545D03*
D68*
X814578Y271780D03*
X814578Y261366D03*
X814578Y238760D03*
D67*
X814578Y222885D03*
D154*
X814578Y190881D03*
D69*
X814578Y168021D03*
D61*
X814324Y384048D03*
D62*
X814324Y379095D03*
D60*
X814324Y371729D03*
D61*
X814324Y356362D03*
X814324Y345694D03*
D67*
X814324Y337439D03*
D69*
X814324Y312801D03*
X814324Y296799D03*
D68*
X814324Y271780D03*
D69*
X814324Y261239D03*
D68*
X814324Y238760D03*
X814324Y223012D03*
D154*
X814324Y190881D03*
D70*
X814324Y168148D03*
D61*
X814070Y384048D03*
X814070Y379222D03*
D60*
X814070Y371729D03*
D61*
X814070Y356362D03*
X814070Y345694D03*
D67*
X814070Y337439D03*
D69*
X814070Y312801D03*
X814070Y296799D03*
X814070Y271907D03*
X814070Y261239D03*
D68*
X814070Y238760D03*
X814070Y223012D03*
D154*
X814070Y190881D03*
D70*
X814070Y168148D03*
D62*
X813816Y383921D03*
D61*
X813816Y379222D03*
X813816Y371602D03*
X813816Y356362D03*
X813816Y345694D03*
D67*
X813816Y337439D03*
D69*
X813816Y312801D03*
X813816Y296799D03*
X813816Y271907D03*
D70*
X813816Y261112D03*
D69*
X813816Y238633D03*
D68*
X813816Y223012D03*
D154*
X813816Y190881D03*
D70*
X813816Y168402D03*
D61*
X813562Y383794D03*
D62*
X813562Y379349D03*
D61*
X813562Y371602D03*
X813562Y356362D03*
X813562Y345694D03*
D67*
X813562Y337439D03*
D69*
X813562Y312801D03*
D70*
X813562Y296926D03*
D69*
X813562Y271907D03*
D70*
X813562Y260858D03*
D68*
X813562Y238506D03*
X813562Y223012D03*
D154*
X813562Y190881D03*
D70*
X813562Y168656D03*
D60*
X813308Y383667D03*
D61*
X813308Y379476D03*
X813308Y371602D03*
X813308Y356362D03*
X813308Y345694D03*
D67*
X813308Y337439D03*
D69*
X813308Y312801D03*
D70*
X813308Y296926D03*
D69*
X813308Y271907D03*
D70*
X813308Y260858D03*
D68*
X813308Y238506D03*
D69*
X813308Y223139D03*
D154*
X813308Y190881D03*
D69*
X813308Y168783D03*
D61*
X813054Y383540D03*
D62*
X813054Y379603D03*
X813054Y371475D03*
D61*
X813054Y356362D03*
X813054Y345694D03*
D67*
X813054Y337439D03*
D69*
X813054Y312801D03*
D70*
X813054Y296926D03*
D69*
X813054Y271907D03*
D71*
X813054Y260731D03*
D69*
X813054Y238379D03*
X813054Y223139D03*
D154*
X813054Y190881D03*
D70*
X813054Y168910D03*
D62*
X812800Y383413D03*
D61*
X812800Y379730D03*
D62*
X812800Y371221D03*
D61*
X812800Y356362D03*
X812800Y345694D03*
D67*
X812800Y337439D03*
D69*
X812800Y312801D03*
D71*
X812800Y297053D03*
D69*
X812800Y271907D03*
D71*
X812800Y260731D03*
D69*
X812800Y238125D03*
D70*
X812800Y223266D03*
D154*
X812800Y190881D03*
D70*
X812800Y169164D03*
D61*
X812546Y383286D03*
D62*
X812546Y379857D03*
D63*
X812546Y371094D03*
D61*
X812546Y356362D03*
X812546Y345694D03*
D68*
X812546Y337312D03*
D69*
X812546Y312801D03*
D71*
X812546Y297307D03*
D69*
X812546Y272161D03*
D72*
X812546Y260350D03*
D70*
X812546Y237998D03*
D69*
X812546Y223393D03*
D154*
X812546Y190881D03*
D71*
X812546Y169545D03*
D60*
X812292Y383159D03*
D61*
X812292Y379984D03*
D63*
X812292Y371094D03*
D61*
X812292Y356362D03*
X812292Y345694D03*
D68*
X812292Y337312D03*
D69*
X812292Y312801D03*
D73*
X812292Y297561D03*
D70*
X812292Y272288D03*
D71*
X812292Y260223D03*
D70*
X812292Y237744D03*
X812292Y223520D03*
D141*
X812292Y190754D03*
D70*
X812292Y169672D03*
D60*
X812038Y383159D03*
D62*
X812038Y380111D03*
D63*
X812038Y370840D03*
D61*
X812038Y356362D03*
X812038Y345694D03*
D69*
X812038Y337185D03*
X812038Y312801D03*
D72*
X812038Y297688D03*
D71*
X812038Y272415D03*
D72*
X812038Y260096D03*
D71*
X812038Y237617D03*
D70*
X812038Y223520D03*
D141*
X812038Y190754D03*
D70*
X812038Y169926D03*
D60*
X811784Y383159D03*
D61*
X811784Y380238D03*
D64*
X811784Y370713D03*
D61*
X811784Y356362D03*
X811784Y345694D03*
D69*
X811784Y336931D03*
X811784Y312801D03*
D72*
X811784Y297942D03*
D71*
X811784Y272415D03*
D72*
X811784Y259842D03*
D70*
X811784Y237490D03*
X811784Y223774D03*
D141*
X811784Y190754D03*
D70*
X811784Y170180D03*
D73*
X811530Y381635D03*
D66*
X811530Y370332D03*
D61*
X811530Y356362D03*
X811530Y345694D03*
D70*
X811530Y336804D03*
D55*
X811530Y321945D03*
D69*
X811530Y312801D03*
D131*
X811530Y298196D03*
D96*
X811530Y287528D03*
D72*
X811530Y272796D03*
D131*
X811530Y259588D03*
D71*
X811530Y237363D03*
X811530Y223901D03*
D141*
X811530Y190754D03*
D71*
X811530Y170307D03*
X811276Y381635D03*
D66*
X811276Y370078D03*
D53*
X811276Y360553D03*
D61*
X811276Y356362D03*
X811276Y345694D03*
D70*
X811276Y336550D03*
D55*
X811276Y321945D03*
D69*
X811276Y312801D03*
D128*
X811276Y298323D03*
D53*
X811276Y287401D03*
D73*
X811276Y272923D03*
D128*
X811276Y259461D03*
D71*
X811276Y237109D03*
D72*
X811276Y224028D03*
D141*
X811276Y190754D03*
D70*
X811276Y170434D03*
D71*
X811022Y381635D03*
D68*
X811022Y369824D03*
D56*
X811022Y360934D03*
D61*
X811022Y356362D03*
X811022Y345694D03*
D72*
X811022Y336296D03*
D59*
X811022Y322580D03*
D69*
X811022Y312801D03*
D128*
X811022Y298577D03*
D57*
X811022Y286766D03*
D131*
X811022Y273050D03*
D74*
X811022Y259080D03*
D72*
X811022Y236982D03*
D73*
X811022Y224409D03*
D141*
X811022Y190754D03*
D70*
X811022Y170434D03*
X810768Y381762D03*
X810768Y369316D03*
D58*
X810768Y361315D03*
D61*
X810768Y356362D03*
X810768Y345694D03*
D73*
X810768Y336169D03*
D63*
X810768Y323088D03*
D71*
X810768Y312547D03*
D77*
X810768Y298958D03*
D60*
X810768Y286385D03*
D128*
X810768Y273431D03*
D77*
X810768Y258826D03*
D56*
X810768Y245872D03*
D128*
X810768Y236601D03*
D131*
X810768Y224790D03*
D141*
X810768Y190754D03*
D71*
X810768Y170815D03*
D69*
X810514Y381635D03*
D72*
X810514Y368808D03*
D61*
X810514Y361696D03*
X810514Y356362D03*
X810514Y345694D03*
D128*
X810514Y335915D03*
D66*
X810514Y323342D03*
D131*
X810514Y312166D03*
D76*
X810514Y299339D03*
D63*
X810514Y286004D03*
D74*
X810514Y273812D03*
D76*
X810514Y258445D03*
D57*
X810514Y246126D03*
D74*
X810514Y236474D03*
D128*
X810514Y224917D03*
D141*
X810514Y190754D03*
D70*
X810514Y170942D03*
D69*
X810260Y381635D03*
D162*
X810260Y365760D03*
D61*
X810260Y356362D03*
X810260Y345694D03*
D155*
X810260Y330073D03*
D170*
X810260Y305562D03*
D138*
X810260Y279146D03*
D139*
X810260Y253619D03*
D137*
X810260Y230632D03*
D141*
X810260Y190754D03*
D72*
X810260Y171196D03*
D67*
X810006Y381635D03*
D171*
X810006Y365506D03*
D61*
X810006Y356362D03*
X810006Y345694D03*
D138*
X810006Y329946D03*
D134*
X810006Y305689D03*
D139*
X810006Y279273D03*
D154*
X810006Y253365D03*
D140*
X810006Y230632D03*
D141*
X810006Y190754D03*
D71*
X810006Y171577D03*
D67*
X809752Y381635D03*
D171*
X809752Y365506D03*
D61*
X809752Y356362D03*
X809752Y345694D03*
D138*
X809752Y329946D03*
D135*
X809752Y305816D03*
D139*
X809752Y279273D03*
D141*
X809752Y253238D03*
D154*
X809752Y230759D03*
D141*
X809752Y190754D03*
D71*
X809752Y171577D03*
D66*
X809498Y381508D03*
D161*
X809498Y365379D03*
D61*
X809498Y356362D03*
X809498Y345694D03*
D138*
X809498Y329946D03*
D136*
X809498Y305943D03*
D140*
X809498Y279400D03*
D152*
X809498Y253111D03*
D141*
X809498Y230632D03*
D152*
X809498Y190881D03*
D71*
X809498Y171831D03*
D64*
X809244Y381635D03*
D85*
X809244Y364998D03*
D61*
X809244Y356362D03*
X809244Y345694D03*
D139*
X809244Y329819D03*
D136*
X809244Y305943D03*
D154*
X809244Y279527D03*
D142*
X809244Y252984D03*
X809244Y230632D03*
D152*
X809244Y190881D03*
D70*
X809244Y172212D03*
D64*
X808990Y381635D03*
D84*
X808990Y364871D03*
D61*
X808990Y356362D03*
X808990Y345694D03*
D139*
X808990Y329819D03*
D136*
X808990Y305943D03*
D154*
X808990Y279527D03*
D143*
X808990Y252857D03*
X808990Y230505D03*
D152*
X808990Y190881D03*
D71*
X808990Y172339D03*
D63*
X808736Y381508D03*
D79*
X808736Y364744D03*
D61*
X808736Y356362D03*
X808736Y345694D03*
D154*
X808736Y329565D03*
D163*
X808736Y306197D03*
D141*
X808736Y279654D03*
D144*
X808736Y252730D03*
D151*
X808736Y230505D03*
D152*
X808736Y190881D03*
D71*
X808736Y172593D03*
D61*
X808482Y381508D03*
D128*
X808482Y364871D03*
D61*
X808482Y356362D03*
X808482Y345694D03*
D141*
X808482Y329438D03*
D137*
X808482Y306324D03*
D152*
X808482Y279781D03*
D151*
X808482Y252603D03*
D149*
X808482Y230505D03*
D152*
X808482Y190881D03*
D70*
X808482Y172720D03*
D61*
X808228Y381508D03*
D69*
X808228Y364871D03*
D61*
X808228Y356362D03*
X808228Y345694D03*
D141*
X808228Y329438D03*
D155*
X808228Y306451D03*
D142*
X808228Y279908D03*
D151*
X808228Y252603D03*
D158*
X808228Y230505D03*
D152*
X808228Y190881D03*
D71*
X808228Y172847D03*
D142*
X807974Y329184D03*
D138*
X807974Y306578D03*
D144*
X807974Y280162D03*
D149*
X807974Y252349D03*
D65*
X807974Y230632D03*
D152*
X807974Y190881D03*
D72*
X807974Y172974D03*
D151*
X807720Y328803D03*
D154*
X807720Y306959D03*
D149*
X807720Y280543D03*
D65*
X807720Y251968D03*
D157*
X807720Y230632D03*
D152*
X807720Y190881D03*
D72*
X807720Y173228D03*
D148*
X807466Y328930D03*
D152*
X807466Y307213D03*
D158*
X807466Y280543D03*
D147*
X807466Y251587D03*
D162*
X807466Y230632D03*
D152*
X807466Y190881D03*
D71*
X807466Y173609D03*
D166*
X807212Y328930D03*
D149*
X807212Y306959D03*
D167*
X807212Y280289D03*
X807212Y251333D03*
D145*
X807212Y230378D03*
D152*
X807212Y190881D03*
D71*
X807212Y173863D03*
D157*
X806958Y328930D03*
D166*
X806958Y306832D03*
D172*
X806958Y280289D03*
D157*
X806958Y251206D03*
D84*
X806958Y230505D03*
D152*
X806958Y190881D03*
D72*
X806958Y173990D03*
D85*
X806704Y329184D03*
D168*
X806704Y306451D03*
D84*
X806704Y280289D03*
D164*
X806704Y251079D03*
D79*
X806704Y230632D03*
D152*
X806704Y190881D03*
D72*
X806704Y174244D03*
D75*
X806450Y329565D03*
D78*
X806450Y306070D03*
D74*
X806450Y280162D03*
D75*
X806450Y251333D03*
D72*
X806450Y230378D03*
D152*
X806450Y190881D03*
D71*
X806450Y174371D03*
D68*
X806196Y329438D03*
D70*
X806196Y305816D03*
D66*
X806196Y280162D03*
D68*
X806196Y251460D03*
D66*
X806196Y230632D03*
D152*
X806196Y190881D03*
D71*
X806196Y174625D03*
D152*
X805942Y190881D03*
D72*
X805942Y174752D03*
D152*
X805688Y190881D03*
D70*
X805688Y175006D03*
D152*
X805434Y190881D03*
D70*
X805434Y175006D03*
D152*
X805180Y190881D03*
D69*
X805180Y175133D03*
D152*
X804926Y190881D03*
D68*
X804926Y175260D03*
D152*
X804672Y190881D03*
D67*
X804672Y175387D03*
D152*
X804418Y190881D03*
D66*
X804418Y175514D03*
D152*
X804164Y190881D03*
D66*
X804164Y175514D03*
D152*
X803910Y190881D03*
D64*
X803910Y175641D03*
D152*
X803656Y190881D03*
D63*
X803656Y175768D03*
D152*
X803402Y190881D03*
D62*
X803402Y175895D03*
D152*
X803148Y190881D03*
D60*
X803148Y176149D03*
D152*
X802894Y190881D03*
D60*
X802894Y176149D03*
D152*
X802640Y190881D03*
D59*
X802640Y176276D03*
D152*
X802386Y190881D03*
D58*
X802386Y176403D03*
D152*
X802132Y190881D03*
D58*
X802132Y176403D03*
D142*
X801878Y190754D03*
D57*
X801878Y176530D03*
D142*
X801624Y190754D03*
D119*
X801624Y176657D03*
D142*
X801370Y190754D03*
D56*
X801370Y176784D03*
D142*
X801116Y190754D03*
D55*
X801116Y176911D03*
D142*
X800862Y190754D03*
D54*
X800862Y177038D03*
D142*
X800608Y190754D03*
D96*
X800608Y177292D03*
D142*
X800354Y190754D03*
X800100Y190754D03*
X799846Y190754D03*
X799592Y190754D03*
X799338Y190754D03*
X799084Y190754D03*
X798830Y190754D03*
X798576Y190754D03*
X798322Y190754D03*
D143*
X798068Y190881D03*
D144*
X797814Y190754D03*
X797560Y190754D03*
X797306Y190754D03*
X797052Y190754D03*
X796798Y190754D03*
X796544Y190754D03*
X796290Y190754D03*
X796036Y190754D03*
X795782Y190754D03*
X795528Y190754D03*
X795274Y190754D03*
X795020Y190754D03*
X794766Y190754D03*
X794512Y190754D03*
X794258Y190754D03*
X794004Y190754D03*
D96*
X794004Y159512D03*
D151*
X793750Y190881D03*
D96*
X793750Y159512D03*
D151*
X793496Y190881D03*
D96*
X793496Y159512D03*
D151*
X793242Y190881D03*
D96*
X793242Y159512D03*
D151*
X792988Y190881D03*
D54*
X792988Y159512D03*
D151*
X792734Y190881D03*
D54*
X792734Y159512D03*
D151*
X792480Y190881D03*
D54*
X792480Y159512D03*
D151*
X792226Y190881D03*
D54*
X792226Y159512D03*
D151*
X791972Y190881D03*
D55*
X791972Y159385D03*
D151*
X791718Y190881D03*
D55*
X791718Y159385D03*
D151*
X791464Y190881D03*
D56*
X791464Y159512D03*
D151*
X791210Y190881D03*
D56*
X791210Y159512D03*
D151*
X790956Y190881D03*
D119*
X790956Y159639D03*
D151*
X790702Y190881D03*
D119*
X790702Y159639D03*
D151*
X790448Y190881D03*
D119*
X790448Y159639D03*
D151*
X790194Y190881D03*
D119*
X790194Y159639D03*
D151*
X789940Y190881D03*
D119*
X789940Y159639D03*
D151*
X789686Y190881D03*
D58*
X789686Y159639D03*
D151*
X789432Y190881D03*
D59*
X789432Y159512D03*
D151*
X789178Y190881D03*
D60*
X789178Y159639D03*
D151*
X788924Y190881D03*
D60*
X788924Y159639D03*
D151*
X788670Y190881D03*
D62*
X788670Y159639D03*
D151*
X788416Y190881D03*
D62*
X788416Y159639D03*
D151*
X788162Y190881D03*
D63*
X788162Y159512D03*
D151*
X787908Y190881D03*
D64*
X787908Y159639D03*
D151*
X787654Y190881D03*
D66*
X787654Y159512D03*
D151*
X787400Y190881D03*
D66*
X787400Y159512D03*
D151*
X787146Y190881D03*
D68*
X787146Y159512D03*
D148*
X786892Y191008D03*
D70*
X786892Y159512D03*
D148*
X786638Y191008D03*
D71*
X786638Y159385D03*
D148*
X786384Y191008D03*
D72*
X786384Y159512D03*
D148*
X786130Y191008D03*
D131*
X786130Y159512D03*
D148*
X785876Y191008D03*
D131*
X785876Y159512D03*
D148*
X785622Y191008D03*
D74*
X785622Y159512D03*
D148*
X785368Y191008D03*
D76*
X785368Y159639D03*
D149*
X785114Y190881D03*
D76*
X785114Y159639D03*
D149*
X784860Y190881D03*
D153*
X784860Y159512D03*
D149*
X784606Y190881D03*
D82*
X784606Y159512D03*
D149*
X784352Y190881D03*
D145*
X784352Y159512D03*
D149*
X784098Y190881D03*
D172*
X784098Y159639D03*
D149*
X783844Y190881D03*
D157*
X783844Y159512D03*
D53*
X783590Y203327D03*
D149*
X783590Y190881D03*
D172*
X783590Y159639D03*
D56*
X783336Y203454D03*
D149*
X783336Y190881D03*
D145*
X783336Y159512D03*
D119*
X783082Y203581D03*
D149*
X783082Y190881D03*
D153*
X783082Y159512D03*
D57*
X782828Y203708D03*
D149*
X782828Y190881D03*
D153*
X782828Y159512D03*
D59*
X782574Y203962D03*
D150*
X782574Y190754D03*
D80*
X782574Y159639D03*
D61*
X782320Y204216D03*
D150*
X782320Y190754D03*
D75*
X782320Y159639D03*
D63*
X782066Y204470D03*
D150*
X782066Y190754D03*
D128*
X782066Y159639D03*
D64*
X781812Y204597D03*
D150*
X781812Y190754D03*
D131*
X781812Y159512D03*
D67*
X781558Y204851D03*
D150*
X781558Y190754D03*
D131*
X781558Y159512D03*
D69*
X781304Y205105D03*
D150*
X781304Y190754D03*
D71*
X781304Y159385D03*
D69*
X781050Y205105D03*
D158*
X781050Y190881D03*
D70*
X781050Y159512D03*
D71*
X780796Y205359D03*
D158*
X780796Y190881D03*
D69*
X780796Y159385D03*
D131*
X780542Y205486D03*
D158*
X780542Y190881D03*
D68*
X780542Y159512D03*
D75*
X780288Y205867D03*
D158*
X780288Y190881D03*
D66*
X780288Y159512D03*
D76*
X780034Y206121D03*
D158*
X780034Y190881D03*
D66*
X780034Y159512D03*
D76*
X779780Y206121D03*
D158*
X779780Y190881D03*
D64*
X779780Y159639D03*
D80*
X779526Y206375D03*
D158*
X779526Y190881D03*
D62*
X779526Y159639D03*
D81*
X779272Y206629D03*
D158*
X779272Y190881D03*
D62*
X779272Y159639D03*
D81*
X779018Y206883D03*
D158*
X779018Y190881D03*
D62*
X779018Y159639D03*
D153*
X778764Y207264D03*
D158*
X778764Y190881D03*
D60*
X778764Y159639D03*
D153*
X778510Y207772D03*
D158*
X778510Y190881D03*
D59*
X778510Y159512D03*
D79*
X778256Y208026D03*
D158*
X778256Y190881D03*
D59*
X778256Y159512D03*
D82*
X778002Y208788D03*
D65*
X778002Y190754D03*
D59*
X778002Y159512D03*
D153*
X777748Y209296D03*
D65*
X777748Y190754D03*
D119*
X777748Y159639D03*
D83*
X777494Y209677D03*
D65*
X777494Y190754D03*
D119*
X777494Y159639D03*
D153*
X777240Y210058D03*
D65*
X777240Y190754D03*
D119*
X777240Y159639D03*
D81*
X776986Y210439D03*
D65*
X776986Y190754D03*
D119*
X776986Y159639D03*
D83*
X776732Y210947D03*
D65*
X776732Y190754D03*
D119*
X776732Y159639D03*
D83*
X776478Y211455D03*
D65*
X776478Y190754D03*
D56*
X776478Y159512D03*
D83*
X776224Y211709D03*
D65*
X776224Y190754D03*
D56*
X776224Y159512D03*
D82*
X775970Y212090D03*
D65*
X775970Y190754D03*
D55*
X775970Y159385D03*
D84*
X775716Y212725D03*
D65*
X775716Y190754D03*
D55*
X775716Y159385D03*
D84*
X775462Y213487D03*
D65*
X775462Y190754D03*
D54*
X775462Y159512D03*
D84*
X775208Y213995D03*
D65*
X775208Y190754D03*
D54*
X775208Y159512D03*
D82*
X774954Y214376D03*
D65*
X774954Y190754D03*
D54*
X774954Y159512D03*
D84*
X774700Y214757D03*
D65*
X774700Y190754D03*
D53*
X774700Y159385D03*
D84*
X774446Y215265D03*
D65*
X774446Y190754D03*
D96*
X774446Y159512D03*
D82*
X774192Y215646D03*
D65*
X774192Y190754D03*
D96*
X774192Y159512D03*
D84*
X773938Y216281D03*
D159*
X773938Y190881D03*
D96*
X773938Y159512D03*
D164*
X773684Y216535D03*
D166*
X773684Y190754D03*
D96*
X773684Y159512D03*
D84*
X773430Y217043D03*
D166*
X773430Y190754D03*
D161*
X773176Y217805D03*
D166*
X773176Y190754D03*
D84*
X772922Y218567D03*
D166*
X772922Y190754D03*
D164*
X772668Y218821D03*
D166*
X772668Y190754D03*
D145*
X772414Y219456D03*
D166*
X772414Y190754D03*
D85*
X772160Y219964D03*
D166*
X772160Y190754D03*
D145*
X771906Y220472D03*
D147*
X771906Y190627D03*
D164*
X771652Y220853D03*
D147*
X771652Y190627D03*
D164*
X771398Y221361D03*
D147*
X771398Y190627D03*
D161*
X771144Y221869D03*
D147*
X771144Y190627D03*
D168*
X770890Y222631D03*
D147*
X770890Y190627D03*
D161*
X770636Y223393D03*
D147*
X770636Y190627D03*
D168*
X770382Y223901D03*
D147*
X770382Y190627D03*
D171*
X770128Y224536D03*
D147*
X770128Y190627D03*
D168*
X769874Y225171D03*
D146*
X769874Y190754D03*
D168*
X769620Y225679D03*
D146*
X769620Y190754D03*
D171*
X769366Y226060D03*
D146*
X769366Y190754D03*
D172*
X769112Y226695D03*
D146*
X769112Y190754D03*
D162*
X768858Y227330D03*
D146*
X768858Y190754D03*
D160*
X768604Y228346D03*
D146*
X768604Y190754D03*
D160*
X768350Y229108D03*
D167*
X768350Y190627D03*
D162*
X768096Y229616D03*
D157*
X768096Y190754D03*
D160*
X767842Y230124D03*
D157*
X767842Y190754D03*
D156*
X767588Y231013D03*
D157*
X767588Y190754D03*
D156*
X767334Y231521D03*
D157*
X767334Y190754D03*
X767080Y231902D03*
X767080Y190754D03*
D167*
X766826Y232791D03*
D157*
X766826Y190754D03*
X766572Y233426D03*
X766572Y190754D03*
D159*
X766318Y234315D03*
D157*
X766318Y190754D03*
D167*
X766064Y235331D03*
D157*
X766064Y190754D03*
D146*
X765810Y235966D03*
D157*
X765810Y190754D03*
D159*
X765556Y236855D03*
D157*
X765556Y190754D03*
D147*
X765302Y237363D03*
D157*
X765302Y190754D03*
D159*
X765048Y238125D03*
D156*
X765048Y190627D03*
D159*
X764794Y239141D03*
D156*
X764794Y190627D03*
D159*
X764540Y239649D03*
D156*
X764540Y190627D03*
D65*
X764286Y240284D03*
D160*
X764286Y190754D03*
D148*
X764032Y241554D03*
D160*
X764032Y190754D03*
D149*
X763778Y242697D03*
D160*
X763778Y190754D03*
D151*
X763524Y243713D03*
D172*
X763524Y190627D03*
D148*
X763270Y244348D03*
D172*
X763270Y190627D03*
D143*
X763016Y245237D03*
D172*
X763016Y190627D03*
D143*
X762762Y246253D03*
D172*
X762762Y190627D03*
D143*
X762508Y247015D03*
D172*
X762508Y190627D03*
D152*
X762254Y247777D03*
D172*
X762254Y190627D03*
D119*
X762000Y342265D03*
D141*
X762000Y249174D03*
D172*
X762000Y190627D03*
D59*
X761746Y340614D03*
D155*
X761746Y250571D03*
D172*
X761746Y190627D03*
D60*
X761492Y339217D03*
D138*
X761492Y251968D03*
D172*
X761492Y190627D03*
D58*
X761238Y338201D03*
D138*
X761238Y252984D03*
D162*
X761238Y190754D03*
D63*
X760984Y337058D03*
D169*
X760984Y254000D03*
D162*
X760984Y190754D03*
D67*
X760730Y335661D03*
D135*
X760730Y255524D03*
D162*
X760730Y190754D03*
D64*
X760476Y334645D03*
D136*
X760476Y256413D03*
D168*
X760476Y190627D03*
D70*
X760222Y333502D03*
D132*
X760222Y257556D03*
D168*
X760222Y190627D03*
D73*
X759968Y331851D03*
D173*
X759968Y259080D03*
D168*
X759968Y190627D03*
D73*
X759714Y330581D03*
D174*
X759714Y260223D03*
D171*
X759714Y190754D03*
D164*
X759460Y327787D03*
D117*
X759460Y262763D03*
D171*
X759460Y190754D03*
D81*
X759206Y325755D03*
D121*
X759206Y264668D03*
D171*
X759206Y190754D03*
D168*
X758952Y323977D03*
D175*
X758952Y266446D03*
D171*
X758952Y190754D03*
D147*
X758698Y321437D03*
D176*
X758698Y268859D03*
D171*
X758698Y190754D03*
D159*
X758444Y319405D03*
D106*
X758444Y270637D03*
D171*
X758444Y190754D03*
D169*
X758190Y316230D03*
D89*
X758190Y273685D03*
D171*
X758190Y190754D03*
D177*
X757936Y291465D03*
D171*
X757936Y190754D03*
D178*
X757682Y291465D03*
D171*
X757682Y190754D03*
D179*
X757428Y291465D03*
D171*
X757428Y190754D03*
D180*
X757174Y291338D03*
D171*
X757174Y190754D03*
D181*
X756920Y291084D03*
D161*
X756920Y190881D03*
D182*
X756666Y291084D03*
D161*
X756666Y190881D03*
D183*
X756412Y291084D03*
D145*
X756412Y190754D03*
D184*
X756158Y291084D03*
D145*
X756158Y190754D03*
D102*
X755904Y290957D03*
D145*
X755904Y190754D03*
D134*
X755650Y290957D03*
D145*
X755650Y190754D03*
D160*
X755396Y290830D03*
D145*
X755396Y190754D03*
X755142Y190754D03*
X754888Y190754D03*
X754634Y190754D03*
D164*
X754380Y190881D03*
X754126Y190881D03*
D85*
X753872Y190754D03*
X753618Y190754D03*
X753364Y190754D03*
X753110Y190754D03*
D84*
X752856Y190881D03*
X752602Y190881D03*
X752348Y190881D03*
X752094Y190881D03*
D96*
X751840Y223520D03*
D84*
X751840Y190881D03*
D96*
X751586Y223520D03*
D82*
X751586Y190754D03*
D53*
X751332Y223647D03*
D82*
X751332Y190754D03*
D53*
X751078Y223647D03*
D82*
X751078Y190754D03*
D53*
X750824Y223647D03*
D82*
X750824Y190754D03*
D53*
X750570Y223647D03*
D82*
X750570Y190754D03*
D55*
X750316Y223647D03*
D153*
X750316Y190754D03*
D55*
X750062Y223647D03*
D153*
X750062Y190754D03*
D55*
X749808Y223647D03*
D153*
X749808Y190754D03*
D55*
X749554Y223647D03*
D153*
X749554Y190754D03*
D56*
X749300Y223774D03*
D153*
X749300Y190754D03*
D56*
X749046Y223774D03*
D153*
X749046Y190754D03*
D56*
X748792Y223774D03*
D153*
X748792Y190754D03*
D119*
X748538Y223647D03*
D153*
X748538Y190754D03*
D119*
X748284Y223647D03*
D81*
X748284Y190627D03*
D58*
X748030Y223901D03*
D81*
X748030Y190627D03*
D59*
X747776Y223774D03*
D81*
X747776Y190627D03*
D59*
X747522Y223774D03*
D81*
X747522Y190627D03*
D60*
X747268Y223901D03*
D79*
X747268Y190754D03*
D61*
X747014Y223774D03*
D79*
X747014Y190754D03*
D62*
X746760Y223647D03*
D79*
X746760Y190754D03*
D63*
X746506Y223774D03*
D79*
X746506Y190754D03*
D64*
X746252Y223901D03*
D80*
X746252Y190627D03*
D66*
X745998Y223774D03*
D80*
X745998Y190627D03*
D67*
X745744Y223647D03*
D80*
X745744Y190627D03*
D69*
X745490Y223647D03*
D78*
X745490Y190500D03*
D71*
X745236Y223647D03*
D76*
X745236Y190627D03*
D72*
X744982Y223774D03*
D76*
X744982Y190627D03*
D131*
X744728Y223774D03*
D76*
X744728Y190627D03*
D74*
X744474Y223774D03*
D76*
X744474Y190627D03*
D77*
X744220Y223774D03*
D76*
X744220Y190627D03*
D79*
X743966Y223774D03*
D76*
X743966Y190627D03*
D84*
X743712Y223647D03*
D76*
X743712Y190627D03*
D164*
X743458Y223647D03*
D77*
X743458Y190500D03*
D83*
X743204Y223647D03*
D77*
X743204Y190500D03*
D75*
X742950Y223901D03*
X742950Y190627D03*
D74*
X742696Y223774D03*
D75*
X742696Y190627D03*
D73*
X742442Y223647D03*
D74*
X742442Y190754D03*
D71*
X742188Y223647D03*
D74*
X742188Y190754D03*
D71*
X741934Y223647D03*
D74*
X741934Y190754D03*
D69*
X741680Y223647D03*
D128*
X741680Y190627D03*
D67*
X741426Y223647D03*
D128*
X741426Y190627D03*
D66*
X741172Y223774D03*
D128*
X741172Y190627D03*
D66*
X740918Y223774D03*
D128*
X740918Y190627D03*
D63*
X740664Y223774D03*
D131*
X740664Y190754D03*
D61*
X740410Y223774D03*
D131*
X740410Y190754D03*
D61*
X740156Y223774D03*
D131*
X740156Y190754D03*
D59*
X739902Y223774D03*
D131*
X739902Y190754D03*
D59*
X739648Y223774D03*
D131*
X739648Y190754D03*
D58*
X739394Y223901D03*
D73*
X739394Y190627D03*
D57*
X739140Y223774D03*
D73*
X739140Y190627D03*
D57*
X738886Y223774D03*
D72*
X738886Y190754D03*
D119*
X738632Y223647D03*
D72*
X738632Y190754D03*
D56*
X738378Y223774D03*
D72*
X738378Y190754D03*
D56*
X738124Y223774D03*
D71*
X738124Y190881D03*
D55*
X737870Y223647D03*
D71*
X737870Y190881D03*
D55*
X737616Y223647D03*
D70*
X737616Y190754D03*
D55*
X737362Y223647D03*
D70*
X737362Y190754D03*
D55*
X737108Y223647D03*
D70*
X737108Y190754D03*
D55*
X736854Y223647D03*
D69*
X736854Y190627D03*
D53*
X736600Y223647D03*
D68*
X736600Y190754D03*
D53*
X736346Y223647D03*
D68*
X736346Y190754D03*
D53*
X736092Y223647D03*
D68*
X736092Y190754D03*
D96*
X735838Y223520D03*
D68*
X735838Y190754D03*
D96*
X735584Y223520D03*
D67*
X735584Y190627D03*
D96*
X735330Y223520D03*
D66*
X735330Y190754D03*
X735076Y190754D03*
X734822Y190754D03*
X734568Y190754D03*
X734314Y190754D03*
D64*
X734060Y190627D03*
D63*
X733806Y190500D03*
X733552Y190500D03*
D62*
X733298Y190627D03*
X733044Y190627D03*
X732790Y190627D03*
D61*
X732536Y190500D03*
X732282Y190500D03*
D60*
X732028Y190627D03*
X731774Y190627D03*
D59*
X731520Y190754D03*
D58*
X731266Y190627D03*
X731012Y190627D03*
D57*
X730758Y190500D03*
D119*
X730504Y190627D03*
X730250Y190627D03*
X729996Y190627D03*
X729742Y190627D03*
X729488Y190627D03*
D56*
X729234Y190754D03*
D55*
X728980Y190881D03*
D96*
X728980Y162814D03*
D54*
X728726Y190754D03*
D96*
X728726Y162814D03*
D53*
X728472Y190627D03*
X728472Y162941D03*
X728218Y190627D03*
D54*
X728218Y162814D03*
D96*
X727964Y190754D03*
D54*
X727964Y162814D03*
X727710Y162814D03*
X727456Y162814D03*
D55*
X727202Y162941D03*
D56*
X726948Y162814D03*
X726694Y162814D03*
X726440Y162814D03*
D57*
X726186Y162814D03*
X725932Y162814D03*
D58*
X725678Y162687D03*
X725424Y162687D03*
D60*
X725170Y162687D03*
X724916Y162687D03*
D63*
X724662Y162814D03*
X724408Y162814D03*
D66*
X724154Y162814D03*
D68*
X723900Y162814D03*
D70*
X723646Y162814D03*
D72*
X723392Y162814D03*
D75*
X723138Y162687D03*
D76*
X722884Y162687D03*
D75*
X722630Y162687D03*
D70*
X722376Y162814D03*
D68*
X722122Y162814D03*
D66*
X721868Y162814D03*
D63*
X721614Y162814D03*
X721360Y162814D03*
D61*
X721106Y162814D03*
D60*
X720852Y162687D03*
X720598Y162687D03*
D58*
X720344Y162687D03*
D57*
X720090Y162814D03*
X719836Y162814D03*
D56*
X719582Y162814D03*
X719328Y162814D03*
X719074Y162814D03*
D55*
X718820Y162941D03*
D54*
X718566Y162814D03*
X718312Y162814D03*
X718058Y162814D03*
X717804Y162814D03*
D53*
X717550Y162941D03*
D96*
X717296Y162814D03*
X717042Y162814D03*
D185*
X45307Y155025D02*
X43217Y152412D01*
X45307Y155025D02*
X35901Y155025D01*
X35901Y157637D02*
X35901Y152412D01*
X140860Y160090D02*
X140955Y160088D01*
X141049Y160082D01*
X141144Y160073D01*
X141237Y160060D01*
X141331Y160042D01*
X141423Y160022D01*
X141515Y159997D01*
X141605Y159969D01*
X141694Y159937D01*
X141782Y159902D01*
X141869Y159863D01*
X141953Y159820D01*
X142037Y159775D01*
X142118Y159726D01*
X142197Y159673D01*
X142274Y159618D01*
X142348Y159560D01*
X142420Y159498D01*
X142490Y159434D01*
X142557Y159367D01*
X142621Y159297D01*
X142683Y159225D01*
X142741Y159151D01*
X142796Y159074D01*
X142849Y158995D01*
X142898Y158914D01*
X142943Y158830D01*
X142986Y158746D01*
X143025Y158659D01*
X143060Y158571D01*
X143092Y158482D01*
X143120Y158392D01*
X143145Y158300D01*
X143165Y158208D01*
X143183Y158114D01*
X143196Y158021D01*
X143205Y157926D01*
X143211Y157832D01*
X143213Y157737D01*
X143211Y157628D01*
X143205Y157520D01*
X143195Y157412D01*
X143182Y157304D01*
X143164Y157197D01*
X143143Y157090D01*
X143118Y156985D01*
X143089Y156880D01*
X143056Y156776D01*
X143020Y156674D01*
X142980Y156573D01*
X142936Y156474D01*
X142889Y156376D01*
X142839Y156280D01*
X142784Y156185D01*
X142727Y156093D01*
X142666Y156003D01*
X142602Y155915D01*
X142535Y155830D01*
X142465Y155747D01*
X142392Y155666D01*
X142317Y155589D01*
X142238Y155514D01*
X142157Y155441D01*
X142073Y155372D01*
X141987Y155306D01*
X141899Y155243D01*
X141808Y155183D01*
X141715Y155127D01*
X141620Y155074D01*
X141524Y155024D01*
X141425Y154978D01*
X141325Y154935D01*
X141224Y154896D01*
X141121Y154861D01*
X139029Y159306D02*
X139098Y159376D01*
X139169Y159442D01*
X139243Y159506D01*
X139319Y159567D01*
X139397Y159625D01*
X139478Y159680D01*
X139561Y159731D01*
X139645Y159780D01*
X139732Y159825D01*
X139820Y159867D01*
X139909Y159905D01*
X140000Y159940D01*
X140092Y159972D01*
X140186Y159999D01*
X140280Y160024D01*
X140376Y160044D01*
X140472Y160061D01*
X140568Y160074D01*
X140665Y160083D01*
X140763Y160089D01*
X140860Y160091D01*
X139030Y159306D02*
X133800Y154861D01*
X133800Y160091D01*
X139808Y843103D02*
X141899Y845715D01*
X132493Y845715D01*
X132493Y843103D02*
X132493Y848328D01*
X44000Y843526D02*
X43998Y843621D01*
X43992Y843715D01*
X43983Y843810D01*
X43970Y843903D01*
X43952Y843997D01*
X43932Y844089D01*
X43907Y844181D01*
X43879Y844271D01*
X43847Y844360D01*
X43812Y844448D01*
X43773Y844535D01*
X43730Y844619D01*
X43685Y844703D01*
X43636Y844784D01*
X43583Y844863D01*
X43528Y844940D01*
X43470Y845014D01*
X43408Y845086D01*
X43344Y845156D01*
X43277Y845223D01*
X43207Y845287D01*
X43135Y845349D01*
X43061Y845407D01*
X42984Y845462D01*
X42905Y845515D01*
X42824Y845564D01*
X42740Y845609D01*
X42656Y845652D01*
X42569Y845691D01*
X42481Y845726D01*
X42392Y845758D01*
X42302Y845786D01*
X42210Y845811D01*
X42118Y845831D01*
X42024Y845849D01*
X41931Y845862D01*
X41836Y845871D01*
X41742Y845877D01*
X41647Y845879D01*
X44000Y843526D02*
X43998Y843417D01*
X43992Y843309D01*
X43982Y843201D01*
X43969Y843093D01*
X43951Y842986D01*
X43930Y842879D01*
X43905Y842774D01*
X43876Y842669D01*
X43843Y842565D01*
X43807Y842463D01*
X43767Y842362D01*
X43723Y842263D01*
X43676Y842165D01*
X43626Y842069D01*
X43571Y841974D01*
X43514Y841882D01*
X43453Y841792D01*
X43389Y841704D01*
X43322Y841619D01*
X43252Y841536D01*
X43179Y841455D01*
X43104Y841378D01*
X43025Y841303D01*
X42944Y841230D01*
X42860Y841161D01*
X42774Y841095D01*
X42686Y841032D01*
X42595Y840972D01*
X42502Y840916D01*
X42407Y840863D01*
X42311Y840813D01*
X42212Y840767D01*
X42112Y840724D01*
X42011Y840685D01*
X41908Y840650D01*
X39816Y845094D02*
X39885Y845164D01*
X39956Y845230D01*
X40030Y845294D01*
X40106Y845355D01*
X40184Y845413D01*
X40265Y845468D01*
X40348Y845519D01*
X40432Y845568D01*
X40519Y845613D01*
X40607Y845655D01*
X40696Y845693D01*
X40787Y845728D01*
X40879Y845760D01*
X40973Y845787D01*
X41067Y845812D01*
X41163Y845832D01*
X41259Y845849D01*
X41355Y845862D01*
X41452Y845871D01*
X41550Y845877D01*
X41647Y845879D01*
X39816Y845095D02*
X34587Y840649D01*
X34587Y845879D01*
D186*
X346994Y964272D02*
X350239Y961676D01*
X346994Y964272D02*
X346994Y952588D01*
X350239Y952588D02*
X343748Y952588D01*
X346669Y862672D02*
X346562Y862670D01*
X346456Y862664D01*
X346350Y862654D01*
X346244Y862641D01*
X346138Y862623D01*
X346034Y862602D01*
X345930Y862577D01*
X345827Y862548D01*
X345726Y862516D01*
X345626Y862479D01*
X345527Y862439D01*
X345429Y862396D01*
X345333Y862349D01*
X345239Y862298D01*
X345147Y862244D01*
X345057Y862187D01*
X344969Y862127D01*
X344884Y862063D01*
X344801Y861996D01*
X344720Y861926D01*
X344642Y861854D01*
X344566Y861778D01*
X344494Y861700D01*
X344424Y861619D01*
X344357Y861536D01*
X344293Y861451D01*
X344233Y861363D01*
X344176Y861273D01*
X344122Y861181D01*
X344071Y861087D01*
X344024Y860991D01*
X343981Y860893D01*
X343941Y860794D01*
X343904Y860694D01*
X343872Y860593D01*
X343843Y860490D01*
X343818Y860386D01*
X343797Y860282D01*
X343779Y860176D01*
X343766Y860070D01*
X343756Y859964D01*
X343750Y859858D01*
X343748Y859751D01*
X346669Y862672D02*
X346790Y862670D01*
X346911Y862664D01*
X347031Y862654D01*
X347152Y862641D01*
X347271Y862623D01*
X347391Y862602D01*
X347509Y862577D01*
X347626Y862548D01*
X347743Y862515D01*
X347858Y862479D01*
X347972Y862438D01*
X348085Y862395D01*
X348197Y862347D01*
X348306Y862296D01*
X348414Y862241D01*
X348521Y862183D01*
X348625Y862122D01*
X348727Y862057D01*
X348827Y861989D01*
X348925Y861918D01*
X349021Y861844D01*
X349114Y861767D01*
X349204Y861686D01*
X349292Y861603D01*
X349377Y861517D01*
X349460Y861428D01*
X349539Y861337D01*
X349616Y861243D01*
X349689Y861147D01*
X349759Y861049D01*
X349826Y860948D01*
X349890Y860845D01*
X349951Y860740D01*
X350008Y860633D01*
X350061Y860525D01*
X350111Y860415D01*
X350157Y860303D01*
X350200Y860190D01*
X350239Y860075D01*
X344722Y857479D02*
X344643Y857557D01*
X344567Y857637D01*
X344494Y857720D01*
X344424Y857806D01*
X344357Y857893D01*
X344293Y857984D01*
X344233Y858076D01*
X344175Y858170D01*
X344121Y858267D01*
X344071Y858365D01*
X344024Y858465D01*
X343980Y858566D01*
X343940Y858669D01*
X343904Y858774D01*
X343872Y858879D01*
X343843Y858986D01*
X343818Y859093D01*
X343796Y859202D01*
X343779Y859311D01*
X343765Y859420D01*
X343756Y859530D01*
X343750Y859641D01*
X343748Y859751D01*
X344722Y857479D02*
X350239Y850988D01*
X343748Y850988D01*
D185*
X620125Y961049D02*
X622737Y958958D01*
X620125Y961049D02*
X620125Y951643D01*
X622737Y951643D02*
X617512Y951643D01*
X622314Y863150D02*
X622219Y863148D01*
X622125Y863142D01*
X622030Y863133D01*
X621937Y863120D01*
X621843Y863102D01*
X621751Y863082D01*
X621659Y863057D01*
X621569Y863029D01*
X621480Y862997D01*
X621392Y862962D01*
X621305Y862923D01*
X621221Y862880D01*
X621138Y862835D01*
X621056Y862786D01*
X620977Y862733D01*
X620900Y862678D01*
X620826Y862620D01*
X620754Y862558D01*
X620684Y862494D01*
X620617Y862427D01*
X620553Y862357D01*
X620491Y862285D01*
X620433Y862211D01*
X620378Y862134D01*
X620325Y862055D01*
X620276Y861974D01*
X620231Y861890D01*
X620188Y861806D01*
X620149Y861719D01*
X620114Y861631D01*
X620082Y861542D01*
X620054Y861452D01*
X620029Y861360D01*
X620009Y861268D01*
X619991Y861174D01*
X619978Y861081D01*
X619969Y860986D01*
X619963Y860892D01*
X619961Y860797D01*
X622314Y863150D02*
X622423Y863148D01*
X622531Y863142D01*
X622639Y863132D01*
X622747Y863119D01*
X622854Y863101D01*
X622961Y863080D01*
X623066Y863055D01*
X623171Y863026D01*
X623275Y862993D01*
X623377Y862957D01*
X623478Y862917D01*
X623577Y862873D01*
X623675Y862826D01*
X623771Y862776D01*
X623866Y862721D01*
X623958Y862664D01*
X624048Y862603D01*
X624136Y862539D01*
X624221Y862472D01*
X624304Y862402D01*
X624385Y862329D01*
X624462Y862254D01*
X624537Y862175D01*
X624610Y862094D01*
X624679Y862010D01*
X624745Y861924D01*
X624808Y861836D01*
X624868Y861745D01*
X624924Y861652D01*
X624977Y861557D01*
X625027Y861461D01*
X625073Y861362D01*
X625116Y861262D01*
X625155Y861161D01*
X625190Y861058D01*
X620746Y858966D02*
X620676Y859035D01*
X620610Y859106D01*
X620546Y859180D01*
X620485Y859256D01*
X620427Y859334D01*
X620372Y859415D01*
X620321Y859498D01*
X620272Y859582D01*
X620227Y859669D01*
X620185Y859757D01*
X620147Y859846D01*
X620112Y859937D01*
X620080Y860029D01*
X620053Y860123D01*
X620028Y860217D01*
X620008Y860313D01*
X619991Y860409D01*
X619978Y860505D01*
X619969Y860602D01*
X619963Y860700D01*
X619961Y860797D01*
X620745Y858966D02*
X625191Y853737D01*
X619961Y853737D01*
D186*
X595574Y499872D02*
X598819Y497276D01*
X595574Y499872D02*
X595574Y488188D01*
X598819Y488188D02*
X592328Y488188D01*
X595249Y398272D02*
X595142Y398270D01*
X595036Y398264D01*
X594930Y398254D01*
X594824Y398241D01*
X594718Y398223D01*
X594614Y398202D01*
X594510Y398177D01*
X594407Y398148D01*
X594306Y398116D01*
X594206Y398079D01*
X594107Y398039D01*
X594009Y397996D01*
X593913Y397949D01*
X593819Y397898D01*
X593727Y397844D01*
X593637Y397787D01*
X593549Y397727D01*
X593464Y397663D01*
X593381Y397596D01*
X593300Y397526D01*
X593222Y397454D01*
X593146Y397378D01*
X593074Y397300D01*
X593004Y397219D01*
X592937Y397136D01*
X592873Y397051D01*
X592813Y396963D01*
X592756Y396873D01*
X592702Y396781D01*
X592651Y396687D01*
X592604Y396591D01*
X592561Y396493D01*
X592521Y396394D01*
X592484Y396294D01*
X592452Y396193D01*
X592423Y396090D01*
X592398Y395986D01*
X592377Y395882D01*
X592359Y395776D01*
X592346Y395670D01*
X592336Y395564D01*
X592330Y395458D01*
X592328Y395351D01*
X595249Y398272D02*
X595370Y398270D01*
X595491Y398264D01*
X595611Y398254D01*
X595732Y398241D01*
X595851Y398223D01*
X595971Y398202D01*
X596089Y398177D01*
X596206Y398148D01*
X596323Y398115D01*
X596438Y398079D01*
X596552Y398038D01*
X596665Y397995D01*
X596777Y397947D01*
X596886Y397896D01*
X596994Y397841D01*
X597101Y397783D01*
X597205Y397722D01*
X597307Y397657D01*
X597407Y397589D01*
X597505Y397518D01*
X597601Y397444D01*
X597694Y397367D01*
X597784Y397286D01*
X597872Y397203D01*
X597957Y397117D01*
X598040Y397028D01*
X598119Y396937D01*
X598196Y396843D01*
X598269Y396747D01*
X598339Y396649D01*
X598406Y396548D01*
X598470Y396445D01*
X598531Y396340D01*
X598588Y396233D01*
X598641Y396125D01*
X598691Y396015D01*
X598737Y395903D01*
X598780Y395790D01*
X598819Y395675D01*
X593302Y393079D02*
X593223Y393157D01*
X593147Y393237D01*
X593074Y393320D01*
X593004Y393406D01*
X592937Y393493D01*
X592873Y393584D01*
X592813Y393676D01*
X592755Y393770D01*
X592701Y393867D01*
X592651Y393965D01*
X592604Y394065D01*
X592560Y394166D01*
X592520Y394269D01*
X592484Y394374D01*
X592452Y394479D01*
X592423Y394586D01*
X592398Y394693D01*
X592376Y394802D01*
X592359Y394911D01*
X592345Y395020D01*
X592336Y395130D01*
X592330Y395241D01*
X592328Y395351D01*
X593302Y393079D02*
X598819Y386588D01*
X592328Y386588D01*
M02*
