G04 EAGLE Gerber RS-274X export*
G75*
%MOMM*%
%FSLAX34Y34*%
%LPD*%
%INSoldermask Bottom*%
%IPPOS*%
%AMOC8*
5,1,8,0,0,1.08239X$1,22.5*%
G01*
%ADD10C,1.270000*%
%ADD11C,3.403200*%
%ADD12R,3.251200X1.473200*%
%ADD13R,1.473200X3.124200*%
%ADD14C,1.011200*%
%ADD15C,1.803200*%
%ADD16R,2.903200X1.803200*%
%ADD17R,1.283200X1.253200*%
%ADD18R,1.253200X1.283200*%
%ADD19R,1.473200X3.251200*%


D10*
X53975Y866775D02*
X180975Y866775D01*
D11*
X80000Y920000D03*
X80000Y80000D03*
X920000Y80000D03*
X920000Y920000D03*
D12*
X64770Y157200D03*
X113030Y157200D03*
X64770Y182600D03*
X113030Y182600D03*
X64770Y208000D03*
X113030Y208000D03*
X64770Y233400D03*
X113030Y233400D03*
X64770Y258800D03*
X113030Y258800D03*
X64770Y284200D03*
X113030Y284200D03*
X64770Y309600D03*
X113030Y309600D03*
X64770Y335000D03*
X113030Y335000D03*
X64770Y360400D03*
X113030Y360400D03*
X64770Y385800D03*
X113030Y385800D03*
X113030Y843540D03*
X64770Y843540D03*
X113030Y818140D03*
X64770Y818140D03*
X113030Y792740D03*
X64770Y792740D03*
X113030Y767340D03*
X64770Y767340D03*
X113030Y741940D03*
X64770Y741940D03*
X113030Y716540D03*
X64770Y716540D03*
X113030Y691140D03*
X64770Y691140D03*
X113030Y665740D03*
X64770Y665740D03*
X113030Y640340D03*
X64770Y640340D03*
X113030Y614940D03*
X64770Y614940D03*
D13*
X348320Y934617D03*
X348320Y883182D03*
X322920Y934617D03*
X322920Y883182D03*
X297520Y934617D03*
X297520Y883182D03*
X272120Y934617D03*
X272120Y883182D03*
X246720Y934617D03*
X246720Y883182D03*
D14*
X349250Y679450D03*
X336550Y679450D03*
X349250Y692150D03*
X336550Y692150D03*
X349250Y704850D03*
X336550Y704850D03*
D15*
X254000Y704813D03*
X254000Y739813D03*
D16*
X311150Y709900D03*
X311150Y737900D03*
D17*
X288925Y688200D03*
X288925Y670700D03*
D16*
X279400Y709900D03*
X279400Y737900D03*
D14*
X622300Y571500D03*
X609600Y571500D03*
X622300Y584200D03*
X609600Y584200D03*
X622300Y596900D03*
X609600Y596900D03*
D15*
X527050Y596863D03*
X527050Y631863D03*
D16*
X492125Y601950D03*
X492125Y629950D03*
D18*
X550050Y574675D03*
X567550Y574675D03*
D16*
X555625Y601950D03*
X555625Y629950D03*
D14*
X349250Y488950D03*
X336550Y488950D03*
X349250Y501650D03*
X336550Y501650D03*
X349250Y514350D03*
X336550Y514350D03*
D15*
X254000Y514313D03*
X254000Y549313D03*
D16*
X219075Y532100D03*
X219075Y560100D03*
D18*
X277000Y492125D03*
X294500Y492125D03*
D16*
X282575Y519400D03*
X282575Y547400D03*
D14*
X349250Y298450D03*
X336550Y298450D03*
X349250Y311150D03*
X336550Y311150D03*
X349250Y323850D03*
X336550Y323850D03*
D15*
X254000Y323813D03*
X254000Y358813D03*
D16*
X219075Y335250D03*
X219075Y363250D03*
D18*
X277000Y301625D03*
X294500Y301625D03*
D16*
X282575Y328900D03*
X282575Y356900D03*
D14*
X349250Y107950D03*
X336550Y107950D03*
X349250Y120650D03*
X336550Y120650D03*
X349250Y133350D03*
X336550Y133350D03*
D15*
X254000Y133313D03*
X254000Y168313D03*
D16*
X228600Y138400D03*
X228600Y166400D03*
D18*
X277000Y111125D03*
X294500Y111125D03*
D16*
X282575Y138400D03*
X282575Y166400D03*
D14*
X622300Y762000D03*
X609600Y762000D03*
X622300Y774700D03*
X609600Y774700D03*
X622300Y787400D03*
X609600Y787400D03*
D15*
X527050Y787363D03*
X527050Y822363D03*
D16*
X492125Y792450D03*
X492125Y820450D03*
D18*
X550050Y765175D03*
X567550Y765175D03*
D16*
X555625Y792450D03*
X555625Y820450D03*
D14*
X622300Y203200D03*
X609600Y203200D03*
X622300Y215900D03*
X609600Y215900D03*
X622300Y228600D03*
X609600Y228600D03*
D15*
X527050Y228563D03*
X527050Y263563D03*
D16*
X501650Y259050D03*
X501650Y287050D03*
D18*
X550050Y206375D03*
X567550Y206375D03*
D16*
X555625Y233650D03*
X555625Y261650D03*
D19*
X622300Y932180D03*
X622300Y883920D03*
X647700Y932180D03*
X647700Y883920D03*
X673100Y932180D03*
X673100Y883920D03*
X698500Y932180D03*
X698500Y883920D03*
X723900Y932180D03*
X723900Y883920D03*
X749300Y932180D03*
X749300Y883920D03*
X774700Y932180D03*
X774700Y883920D03*
X800100Y932180D03*
X800100Y883920D03*
X825500Y932180D03*
X825500Y883920D03*
X850900Y932180D03*
X850900Y883920D03*
D13*
X596900Y470217D03*
X596900Y418782D03*
X571500Y470217D03*
X571500Y418782D03*
X546100Y470217D03*
X546100Y418782D03*
X520700Y470217D03*
X520700Y418782D03*
X495300Y470217D03*
X495300Y418782D03*
D15*
X463550Y93700D03*
X463550Y58700D03*
X733425Y808000D03*
X733425Y843000D03*
D17*
X673100Y635775D03*
X673100Y653275D03*
X374650Y740550D03*
X374650Y758050D03*
D18*
X373875Y539750D03*
X356375Y539750D03*
D17*
X371475Y316725D03*
X371475Y299225D03*
X371475Y138925D03*
X371475Y121425D03*
X644525Y792975D03*
X644525Y775475D03*
X644525Y224650D03*
X644525Y207150D03*
M02*
