G04 EAGLE Gerber RS-274X export*
G75*
%MOMM*%
%FSLAX34Y34*%
%LPD*%
%INSolderpaste Bottom*%
%IPPOS*%
%AMOC8*
5,1,8,0,0,1.08239X$1,22.5*%
G01*
%ADD10R,3.048000X1.270000*%
%ADD11R,1.270000X2.921000*%
%ADD12R,2.700000X1.600000*%
%ADD13R,1.080000X1.050000*%
%ADD14R,1.050000X1.080000*%
%ADD15R,1.270000X3.048000*%


D10*
X64770Y157200D03*
X113030Y157200D03*
X64770Y182600D03*
X113030Y182600D03*
X64770Y208000D03*
X113030Y208000D03*
X64770Y233400D03*
X113030Y233400D03*
X64770Y258800D03*
X113030Y258800D03*
X64770Y284200D03*
X113030Y284200D03*
X64770Y309600D03*
X113030Y309600D03*
X64770Y335000D03*
X113030Y335000D03*
X64770Y360400D03*
X113030Y360400D03*
X64770Y385800D03*
X113030Y385800D03*
X113030Y843540D03*
X64770Y843540D03*
X113030Y818140D03*
X64770Y818140D03*
X113030Y792740D03*
X64770Y792740D03*
X113030Y767340D03*
X64770Y767340D03*
X113030Y741940D03*
X64770Y741940D03*
X113030Y716540D03*
X64770Y716540D03*
X113030Y691140D03*
X64770Y691140D03*
X113030Y665740D03*
X64770Y665740D03*
X113030Y640340D03*
X64770Y640340D03*
X113030Y614940D03*
X64770Y614940D03*
D11*
X348320Y934617D03*
X348320Y883182D03*
X322920Y934617D03*
X322920Y883182D03*
X297520Y934617D03*
X297520Y883182D03*
X272120Y934617D03*
X272120Y883182D03*
X246720Y934617D03*
X246720Y883182D03*
D12*
X311150Y709900D03*
X311150Y737900D03*
D13*
X288925Y688200D03*
X288925Y670700D03*
D12*
X279400Y709900D03*
X279400Y737900D03*
X492125Y601950D03*
X492125Y629950D03*
D14*
X550050Y574675D03*
X567550Y574675D03*
D12*
X555625Y601950D03*
X555625Y629950D03*
X219075Y532100D03*
X219075Y560100D03*
D14*
X277000Y492125D03*
X294500Y492125D03*
D12*
X282575Y519400D03*
X282575Y547400D03*
X219075Y335250D03*
X219075Y363250D03*
D14*
X277000Y301625D03*
X294500Y301625D03*
D12*
X282575Y328900D03*
X282575Y356900D03*
X228600Y138400D03*
X228600Y166400D03*
D14*
X277000Y111125D03*
X294500Y111125D03*
D12*
X282575Y138400D03*
X282575Y166400D03*
X492125Y792450D03*
X492125Y820450D03*
D14*
X550050Y765175D03*
X567550Y765175D03*
D12*
X555625Y792450D03*
X555625Y820450D03*
X501650Y259050D03*
X501650Y287050D03*
D14*
X550050Y206375D03*
X567550Y206375D03*
D12*
X555625Y233650D03*
X555625Y261650D03*
D15*
X622300Y932180D03*
X622300Y883920D03*
X647700Y932180D03*
X647700Y883920D03*
X673100Y932180D03*
X673100Y883920D03*
X698500Y932180D03*
X698500Y883920D03*
X723900Y932180D03*
X723900Y883920D03*
X749300Y932180D03*
X749300Y883920D03*
X774700Y932180D03*
X774700Y883920D03*
X800100Y932180D03*
X800100Y883920D03*
X825500Y932180D03*
X825500Y883920D03*
X850900Y932180D03*
X850900Y883920D03*
D11*
X596900Y470217D03*
X596900Y418782D03*
X571500Y470217D03*
X571500Y418782D03*
X546100Y470217D03*
X546100Y418782D03*
X520700Y470217D03*
X520700Y418782D03*
X495300Y470217D03*
X495300Y418782D03*
D13*
X673100Y635775D03*
X673100Y653275D03*
X374650Y740550D03*
X374650Y758050D03*
D14*
X373875Y539750D03*
X356375Y539750D03*
D13*
X371475Y316725D03*
X371475Y299225D03*
X371475Y138925D03*
X371475Y121425D03*
X644525Y792975D03*
X644525Y775475D03*
X644525Y224650D03*
X644525Y207150D03*
M02*
